<svg width="48" height="48" viewBox="0 0 48 48" fill="none" xmlns="http://www.w3.org/2000/svg">
<path d="M42.0026 22.2235L42.1289 23.0251L42.9393 23.0665C43.9494 23.1182 44.9006 23.5573 45.5952 24.2925C46.2897 25.0277 46.674 26.0024 46.6682 27.0137V27.0195C46.6682 27.5363 46.5663 28.048 46.3682 28.5254C46.1702 29.0027 45.8799 29.4363 45.5141 29.8013C45.1483 30.1664 44.714 30.4556 44.2362 30.6526C43.7621 30.8481 43.2544 30.9488 42.7416 30.9492C42.5791 30.9445 42.4172 30.9277 42.2571 30.8991L41.4373 30.7526L41.1448 31.5324C39.6514 35.5149 36.6773 37.9659 33.4228 39.4792C30.1877 40.9833 26.7266 41.5335 24.3341 41.7152C21.9411 41.5335 18.4823 40.9859 15.2485 39.4869C11.995 37.9788 9.02104 35.5354 7.52267 31.5634L7.26513 30.8807L6.53643 30.9177C6.35483 30.9268 6.17289 30.9268 5.99129 30.9177L5.96489 30.9163L5.93847 30.9164C5.42166 30.9175 4.90972 30.8167 4.43194 30.6198L4.0508 31.5443L4.43194 30.6198C3.95416 30.4228 3.51992 30.1335 3.15407 29.7685C2.78823 29.4034 2.49799 28.9698 2.29996 28.4925C2.10202 28.0154 2.00009 27.5039 2 26.9873C2.00163 25.9707 2.39613 24.9939 3.10108 24.2613C3.80619 23.5285 4.76727 23.0967 5.7834 23.0561L6.60012 23.0235L6.73066 22.2166C7.65001 16.5338 10.96 12.7451 14.7222 10.207C20.4602 6.33606 28.2748 6.33209 34.019 10.1947C37.7902 12.7307 41.1043 16.5216 42.0026 22.2235ZM46.3221 23.6058C45.4508 22.6835 44.2575 22.1327 42.9904 22.0678L47.6682 27.0195C47.6755 25.7508 47.1934 24.5281 46.3221 23.6058Z" stroke="white" stroke-width="2"/>
<path fill-rule="evenodd" clip-rule="evenodd" d="M17.7458 29.7402C18.0175 29.7402 18.2851 29.7231 18.5478 29.69C18.3026 30.3657 18.1688 31.0948 18.1688 31.8552C18.1688 35.3593 21.0095 38.2 24.5137 38.2C28.0178 38.2 30.8585 35.3593 30.8585 31.8552C30.8585 31.0948 30.7248 30.3657 30.4795 29.69C30.7422 29.7231 31.0099 29.7402 31.2815 29.7402C34.7857 29.7402 37.6264 26.8995 37.6264 23.3953C37.6264 19.8912 34.7857 17.0505 31.2815 17.0505C29.1185 17.0505 27.2083 18.1328 26.063 19.7854C25.2212 20.853 24.0225 20.7881 22.8237 19.5905C21.6662 18.0482 19.8225 17.0505 17.7458 17.0505C14.2416 17.0505 11.4009 19.8912 11.4009 23.3953C11.4009 26.8995 14.2416 29.7402 17.7458 29.7402Z" fill="white"/>
<path d="M35.0884 23.8184C35.0884 25.6873 33.5734 27.2023 31.7045 27.2023C29.8356 27.2023 28.3206 25.6873 28.3206 23.8184C28.3206 21.9495 29.8356 20.4344 31.7045 20.4344C33.5734 20.4344 35.0884 21.9495 35.0884 23.8184Z" fill="#1A1D1F"/>
<path d="M27.1256 34.3578C27.1256 35.7517 25.9956 36.8817 24.6017 36.8817C23.2078 36.8817 22.0778 35.7517 22.0778 34.3578C22.0778 32.9639 23.2078 31.8339 24.6017 31.8339C25.9956 31.8339 27.1256 32.9639 27.1256 34.3578Z" fill="#1A1D1F"/>
<path d="M23.996 28.3004C23.996 29.1367 23.657 29.8147 23.2388 29.8147C22.8206 29.8147 22.4816 29.1367 22.4816 28.3004C22.4816 27.464 22.8206 26.786 23.2388 26.786C23.657 26.786 23.996 27.464 23.996 28.3004Z" fill="#1A1D1F"/>
<path d="M27.0247 28.3004C27.0247 29.1367 26.6857 29.8147 26.2675 29.8147C25.8494 29.8147 25.5104 29.1367 25.5104 28.3004C25.5104 27.464 25.8494 26.786 26.2675 26.786C26.6857 26.786 27.0247 27.464 27.0247 28.3004Z" fill="#1A1D1F"/>
<path fill-rule="evenodd" clip-rule="evenodd" d="M19.1129 27.104L14.037 22.0281L15.5325 20.5326L20.6084 25.6085L19.1129 27.104Z" fill="#1A1D1F"/>
<path fill-rule="evenodd" clip-rule="evenodd" d="M14.0371 25.6085L19.113 20.5326L20.6085 22.0281L15.5326 27.104L14.0371 25.6085Z" fill="#1A1D1F"/>
</svg>
