<svg width="828" height="225" viewBox="0 0 828 225" fill="none" xmlns="http://www.w3.org/2000/svg">
<path d="M153.812 76.2477C153.022 34.8729 118.775 2.00948 77.3003 2.79757C36.9313 3.54626 4.42281 36.0156 3.67231 76.2477C3.67231 76.4447 3.63281 76.6417 3.63281 76.7993V77.9421V213.376C3.63281 217.986 7.38531 221.69 11.9673 221.69C16.5493 221.69 20.3018 217.946 20.3018 213.376V189.181C20.3018 184.571 24.0543 180.867 28.6363 180.867C33.2183 180.867 36.9708 184.61 36.9708 189.181V200.648C37.0893 205.258 40.8813 208.883 45.5028 208.805C49.9663 208.726 53.5608 205.101 53.6793 200.648V189.181C53.6793 184.571 57.4318 180.867 62.0138 180.867C66.6353 180.867 70.3483 184.61 70.3483 189.181V192.333C70.3483 196.944 74.1008 200.648 78.6828 200.648C83.3043 200.648 87.0173 196.904 87.0173 192.333V189.181C87.1358 184.571 90.9278 180.946 95.5493 181.024C100.013 181.103 103.607 184.728 103.726 189.181V200.648C103.726 205.258 107.478 208.962 112.06 208.962C116.642 208.962 120.474 205.298 120.474 200.687V189.221C120.474 184.61 124.226 180.906 128.808 180.906C133.43 180.906 137.143 184.65 137.143 189.221V213.415C137.143 218.025 140.895 221.729 145.477 221.729C150.059 221.729 153.812 217.986 153.812 213.415V76.8387C153.851 76.6417 153.851 76.4447 153.812 76.2477ZM51.0328 88.266C43.6463 88.266 37.6818 81.4491 37.6818 72.9771C37.6818 64.5051 43.6858 57.6881 51.0328 57.6881C58.3798 57.6881 64.3838 64.5051 64.3838 72.9771C64.3838 81.4491 58.4193 88.266 51.0328 88.266ZM79.3148 109.86C72.5998 109.86 67.1883 105.88 67.1883 100.954C67.1883 96.0287 72.6393 99.0235 79.3148 99.0235C85.9903 99.0235 91.4413 96.0682 91.4413 100.954C91.4413 105.84 86.0298 109.82 79.3148 109.86ZM106.451 88.266C99.0648 88.266 93.1003 81.4491 93.1003 72.9771C93.1003 64.5051 99.0648 57.6881 106.451 57.6881C113.838 57.6881 119.802 64.5051 119.802 72.9771C119.802 81.4491 113.798 88.266 106.451 88.266Z" fill="white"/>
<path d="M605.63 183.934L552.004 53.7495C551.581 52.5618 551.357 51.3119 551.344 50.0509C551.238 47.3811 552.184 44.7765 553.977 42.7972C554.897 41.8556 556.007 41.1217 557.233 40.6448C558.46 40.1679 559.774 39.9591 561.088 40.0322C563.079 40.0551 565.013 40.7005 566.619 41.878C568.307 43.1317 569.628 44.8157 570.444 46.7544L621.436 174.174L672.436 46.7544C673.247 44.8148 674.566 43.1301 676.253 41.878C677.86 40.7005 679.794 40.0551 681.785 40.0322C683.1 39.958 684.416 40.1664 685.643 40.6433C686.871 41.1202 687.982 41.8546 688.903 42.7972C690.696 44.7765 691.642 47.3811 691.536 50.0509C691.523 51.3095 691.3 52.5571 690.876 53.7423L637.25 183.934C634.23 190.664 629.738 193.989 623.811 193.989H619.069C613.142 193.96 608.658 190.664 605.63 183.934Z" fill="white"/>
<path d="M714.332 190.003C713.421 189.085 712.706 187.992 712.23 186.79C711.754 185.587 711.527 184.301 711.562 183.008V51.1065C711.514 48.4619 712.509 45.9047 714.332 43.9894C715.224 43.0406 716.308 42.2935 717.512 41.798C718.716 41.3026 720.012 41.0703 721.313 41.1166H808.41C809.641 41.0822 810.866 41.311 812.002 41.7878C813.137 42.2646 814.159 42.9784 814.997 43.8816C815.891 44.7293 816.598 45.7538 817.075 46.8901C817.552 48.0264 817.787 49.2495 817.766 50.4817C817.799 51.6954 817.568 52.9017 817.09 54.0175C816.612 55.1334 815.898 56.1322 814.997 56.9454C813.231 58.6495 810.863 59.5842 808.41 59.5452H731.329V107.57H800.633C801.864 107.537 803.089 107.767 804.225 108.245C805.36 108.723 806.381 109.438 807.219 110.342C808.104 111.195 808.806 112.22 809.282 113.353C809.759 114.487 809.999 115.705 809.989 116.935C810.021 118.149 809.79 119.355 809.312 120.471C808.834 121.587 808.12 122.586 807.219 123.399C806.35 124.252 805.32 124.924 804.19 125.377C803.059 125.829 801.85 126.053 800.633 126.034H731.329V174.311H808.41C809.642 174.274 810.868 174.502 812.004 174.981C813.141 175.459 814.161 176.176 814.997 177.083C815.891 177.929 816.599 178.952 817.076 180.087C817.553 181.222 817.788 182.444 817.766 183.676C817.799 184.889 817.568 186.096 817.09 187.212C816.612 188.327 815.898 189.326 814.997 190.139C813.237 191.857 810.868 192.805 808.41 192.775H721.313C720.016 192.871 718.714 192.671 717.504 192.191C716.295 191.711 715.211 190.963 714.332 190.003Z" fill="white"/>
<path d="M564.124 180.243L510.506 50.0509C507.485 43.3287 502.972 40.0322 497.067 40.0322H492.317C486.383 40.0322 481.906 43.3287 478.878 50.0868L455.552 106.823H437.902C435.355 106.838 432.916 107.858 431.115 109.661C429.314 111.463 428.295 113.904 428.28 116.454V116.583C428.293 119.133 429.311 121.575 431.113 123.379C432.914 125.182 435.354 126.201 437.902 126.214H447.387L425.145 180.293C424.722 181.479 424.499 182.726 424.485 183.985C424.378 186.655 425.324 189.259 427.118 191.238C428.038 192.182 429.149 192.917 430.377 193.395C431.605 193.874 432.92 194.083 434.235 194.01C436.225 193.981 438.158 193.336 439.767 192.165C441.454 190.907 442.774 189.221 443.592 187.281L468.094 126.236H484.948C487.496 126.221 489.934 125.201 491.735 123.398C493.536 121.595 494.555 119.154 494.57 116.605V116.282C494.557 113.731 493.539 111.289 491.737 109.486C489.936 107.683 487.496 106.664 484.948 106.651H475.836L494.685 59.8253L545.678 187.245C546.488 189.185 547.807 190.869 549.495 192.122C551.103 193.301 553.04 193.946 555.034 193.967C556.347 194.04 557.661 193.832 558.888 193.355C560.114 192.878 561.224 192.144 562.144 191.202C563.938 189.221 564.884 186.614 564.777 183.942C564.834 182.676 564.611 181.413 564.124 180.243Z" fill="white"/>
<path d="M403.905 180.243L350.287 50.0509C347.273 43.3287 342.767 40.0322 336.833 40.0322H332.091C326.164 40.0322 321.687 43.3287 318.652 50.0868L295.333 106.823H277.676C275.129 106.84 272.691 107.86 270.891 109.663C269.09 111.465 268.071 113.905 268.054 116.454V116.583C268.084 119.123 269.109 121.55 270.908 123.342C272.708 125.134 275.138 126.147 277.676 126.164H287.161L264.918 180.243C264.495 181.428 264.272 182.676 264.258 183.934C264.151 186.604 265.096 189.21 266.892 191.188C267.812 192.131 268.923 192.867 270.151 193.345C271.378 193.823 272.694 194.033 274.009 193.96C275.999 193.931 277.931 193.286 279.541 192.114C281.228 190.856 282.548 189.17 283.365 187.231L307.868 126.185H324.844C327.391 126.17 329.83 125.151 331.631 123.348C333.432 121.545 334.451 119.104 334.466 116.554V116.282C334.452 113.731 333.435 111.289 331.633 109.486C329.831 107.683 327.392 106.664 324.844 106.651H315.753L334.466 59.8181L385.458 187.231C386.271 189.173 387.592 190.86 389.283 192.114C390.892 193.286 392.825 193.931 394.815 193.96C396.13 194.031 397.445 193.821 398.672 193.342C399.899 192.864 401.011 192.13 401.932 191.188C403.725 189.209 404.671 186.604 404.565 183.934C404.614 182.671 404.389 181.411 403.905 180.243Z" fill="white"/>
</svg>
