<svg width="511" height="74" viewBox="0 0 511 74" fill="none" xmlns="http://www.w3.org/2000/svg">
<path d="M92.5378 0.597656V47.9419C92.5378 54.9247 95.9887 60.4043 107.395 60.4043H135.585V73.0768H106.633C87.3696 73.0768 79.8359 62.5541 79.8359 48.055V0.597656H92.5378Z" fill="white"/>
<path d="M190.589 0.597656V13.2702H169.382V73.0768H156.583V13.2702H135.375V0.597656H190.589Z" fill="white"/>
<path d="M215.229 0.597656V73.0768H202.527V0.597656H215.229Z" fill="white"/>
<path d="M282.273 0.597656V13.2702H261.065V73.0768H248.266V13.2702H227.059V0.597656H282.273Z" fill="white"/>
<path d="M306.592 0.597656V49.0248C306.592 56.2178 310.254 60.4043 318.646 60.4043H331.559C339.74 60.4043 343.499 56.2178 343.499 49.0248V0.597656H355.99V49.9947C355.99 65.2373 347.922 73.0768 332.417 73.0768H317.139C301.635 73.0768 293.68 65.2373 293.68 49.9947V0.597656H306.592Z" fill="white"/>
<path d="M404.641 0.597656C425.849 0.597656 437.352 12.4135 437.352 36.8857C437.352 61.261 425.946 73.0768 404.641 73.0768H379.027C374.944 73.0768 373 71.1371 373 67.177V6.4975C373 2.52117 374.944 0.597656 379.027 0.597656H404.641ZM385.702 59.1111C385.702 60.081 386.139 60.4043 387.095 60.4043H404.641C418.737 60.4043 424.666 53.4214 424.666 36.7887C424.666 20.253 418.753 13.2702 404.641 13.2702H387.095C386.123 13.2702 385.702 13.5935 385.702 14.5633V59.1111Z" fill="white"/>
<path d="M510.323 0.597656V13.2702H473.951C466.304 13.2702 462.967 16.8101 462.967 22.4028C462.967 28.3027 466.726 30.9859 474.049 30.9859H509.773V42.4784H473.724C466.401 42.4784 462.643 45.3718 462.643 51.2878C462.643 56.9775 466.191 60.4204 473.627 60.4204H510.437V73.093H473.627C456.405 73.093 449.406 64.6069 449.406 53.3406C449.406 45.0647 453.181 39.4881 459.84 36.6918C453.068 33.8954 449.617 28.3188 449.617 20.3662C449.617 8.77661 456.826 0.613821 473.935 0.613821H510.323V0.597656Z" fill="white"/>
<path d="M26.5976 0.435547L0.578125 72.4944H16.6013L34.4066 24.6007C34.4066 24.6007 34.4228 24.6007 34.439 24.6007V24.6491C34.4714 24.6491 34.4876 24.6491 34.4876 24.6491L52.1309 72.5429H68.0083L42.1995 0.484038H34.4552" fill="white"/>
</svg>
