<svg width="330" height="100" viewBox="0 0 330 100" fill="none" xmlns="http://www.w3.org/2000/svg">
<path d="M305.595 37.8497C308.228 30.6089 319.364 27.153 326.056 27.153H329.128V43.2255C325.288 43.2255 321.393 43.006 317.718 44.2677C315.14 45.0905 312.891 46.6264 311.19 48.7109C308.064 52.9347 308.338 55.5129 308.064 59.4624C307.844 63.3022 307.954 65.9353 307.954 69.7751V98.2995H290.346V27.921H305.595V37.8497ZM91.7169 81.6785C79.1004 94.0208 68.2392 100 50.3566 100C20.5705 100 0 79.2101 0 49.8629C0 19.7477 23.3132 0 50.6857 0C66.6484 0 81.7883 6.96655 92.1558 19.0894L79.4295 31.2671C70.8173 22.1064 61.3823 17.3341 50.2468 17.3341C32.3642 17.3341 17.7729 31.1026 17.7729 49.808C17.7729 69.446 31.8157 82.5562 50.6308 82.5562C62.4246 82.5562 70.3785 77.7839 79.3746 68.7877L91.7169 81.6785ZM167.197 84.3116C159.627 95.0631 149.698 99.8354 134.833 99.8354C112.452 99.8354 97.9704 83.3791 97.9704 62.6989C97.9704 43.4449 111.903 25.672 134.558 25.672C156.829 25.672 171.914 41.5798 171.914 63.8508C171.914 65.4416 171.805 66.2095 171.805 67.8552H115.14C116.84 78.3324 124.849 84.147 134.888 84.147C142.457 84.147 147.504 82.0077 152.386 77.2353L167.197 84.3116ZM154.196 53.9221C151.838 45.7488 144.268 40.6473 134.833 40.6473C126.111 40.6473 119.309 45.0357 115.853 53.9221H154.196ZM180.911 0.383989H198.519V98.0252H180.911V0.383989ZM276.687 84.3116C269.117 95.0631 259.188 99.8354 244.323 99.8354C221.942 99.8354 207.46 83.3791 207.46 62.6989C207.46 43.4449 221.393 25.672 244.048 25.672C266.319 25.672 281.459 41.5798 281.459 63.8508C281.459 65.4416 281.349 66.2095 281.349 67.8552H224.575C226.275 78.3324 234.284 84.147 244.323 84.147C251.892 84.147 256.939 82.0077 261.821 77.2353L276.687 84.3116ZM263.686 53.9221C261.327 45.7488 253.758 40.6473 244.323 40.6473C235.601 40.6473 228.799 45.0357 225.343 53.9221H263.686Z" fill="white"/>
</svg>
