<svg width="310" height="74" viewBox="0 0 310 74" fill="none" xmlns="http://www.w3.org/2000/svg">
<path fill-rule="evenodd" clip-rule="evenodd" d="M33.0189 0C52.3792 0 68.1304 16.598 68.1304 37C68.1304 57.402 52.3792 74 33.0189 74H13.6732V29.515H22.5902V64.6604H33.0189C47.4624 64.6604 59.213 52.2525 59.213 37C59.213 21.7479 47.4624 9.33916 33.0189 9.33916H11.7666V0H33.0189ZM254.13 25.9944C256.73 25.9944 259.201 26.4909 261.474 27.4702C263.291 28.2531 264.946 29.2866 266.406 30.5485L267.12 31.1984L267.633 31.6896L261.326 38.0536L260.84 37.6001C258.982 35.8652 256.724 34.9853 254.13 34.9853C251.48 34.9853 249.117 35.9681 247.105 37.9061C245.194 39.835 244.219 42.2211 244.219 44.9876C244.219 47.706 245.191 50.0659 247.109 52.0012C248.07 52.9699 249.157 53.7057 250.343 54.1885C251.53 54.6724 252.804 54.9178 254.13 54.9178C256.5 54.9178 258.565 54.2073 260.28 52.8046L260.839 52.3114L261.325 51.8484L267.633 58.2135L267.12 58.7051C265.491 60.2666 263.592 61.521 261.474 62.4333C259.201 63.4122 256.73 63.9091 254.13 63.9091C251.53 63.9091 249.06 63.4122 246.786 62.4333C244.518 61.4563 242.503 60.0887 240.798 58.369C239.094 56.6489 237.739 54.616 236.771 52.3266C235.801 50.0357 235.309 47.5658 235.309 44.9876C235.309 42.3614 235.801 39.8678 236.771 37.5765C237.739 35.2871 239.094 33.2542 240.798 31.5342C242.502 29.816 244.516 28.4488 246.786 27.4699C249.06 26.4905 251.53 25.9944 254.13 25.9944ZM290.116 25.9943C292.716 25.9943 295.187 26.4908 297.46 27.4701C299.731 28.4494 301.746 29.8166 303.448 31.534C305.151 33.2518 306.506 35.2851 307.476 37.5764C308.446 39.8703 308.938 42.3639 308.938 44.9875C308.938 46.0272 308.859 47.0349 308.704 47.9955L308.524 48.9397L308.404 49.4827H281.248C281.695 50.4094 282.313 51.2539 283.091 51.9961C284.059 52.9732 285.143 53.7063 286.329 54.1883C287.517 54.6723 288.79 54.9173 290.116 54.9173C291.655 54.9173 293.071 54.6183 294.337 54.0273L294.956 53.7075L295.243 53.5444L304.467 57.2669L303.789 58.0088C302.17 59.7776 300.232 61.1936 298.029 62.2179C295.614 63.3401 292.952 63.909 290.116 63.909C287.517 63.909 285.046 63.4125 282.772 62.4328C280.503 61.4565 278.489 60.0889 276.785 58.3689C275.08 56.6492 273.725 54.6159 272.757 52.3269C271.786 50.0353 271.295 47.566 271.295 44.9875C271.295 42.3612 271.786 39.868 272.757 37.5768C273.725 35.2874 275.08 33.2545 276.785 31.534C278.487 29.8166 280.501 28.4494 282.772 27.4697C285.046 26.4908 287.517 25.9943 290.116 25.9943ZM30.4461 14.5346C41.9603 14.5346 51.3272 24.3999 51.3272 36.5254C51.3272 48.6513 41.9603 58.517 30.4461 58.517H26.7898V49.1774H30.4461C37.043 49.1774 42.4101 43.5018 42.4101 36.5254C42.4101 29.5497 37.043 23.8741 30.4461 23.8741H8.91703V62.0278H0V14.5346H30.4461ZM124.239 10.0909V60.3707H115.329V42.3729C115.329 39.5622 114.357 37.1791 112.441 35.2903C110.519 33.3511 108.182 32.371 105.488 32.371C102.748 32.371 100.385 33.3526 98.4673 35.288C96.5493 37.2237 95.5766 39.6072 95.5766 42.3729C95.5766 45.0913 96.5493 47.4508 98.4673 49.3865C99.3849 50.3593 100.457 51.0913 101.664 51.5734C102.875 52.0581 104.161 52.3035 105.488 52.3035C106.42 52.3035 107.304 52.1879 108.127 51.9592L108.732 51.7666L109.356 51.5421L112.546 59.553L111.951 59.8296C109.859 60.8017 107.448 61.2944 104.784 61.2944C102.184 61.2944 99.7478 60.7979 97.5436 59.8178C95.3417 58.8393 93.4091 57.4702 91.7996 55.7497C90.1906 54.0312 88.9192 51.9979 88.0204 49.7066C87.1221 47.4161 86.6667 44.9492 86.6667 42.3729C86.6667 39.7493 87.1221 37.2584 88.0208 34.9679C88.9184 32.6781 90.1895 30.6445 91.8 28.9244C93.4079 27.2059 95.3398 25.8371 97.5428 24.8567C99.7474 23.8766 102.183 23.3801 104.784 23.3801C107.055 23.3801 109.121 23.7444 110.925 24.4623C112.233 24.9836 113.441 25.6136 114.533 26.3427L115.329 26.9079V10.0909H124.239ZM184.926 23.3802C187.526 23.3802 189.997 23.8763 192.27 24.856C194.542 25.8349 196.556 27.2025 198.258 28.9199C199.961 30.6377 201.316 32.6706 202.286 34.9623C203.256 37.2566 203.748 39.7494 203.748 42.373C203.748 44.9489 203.256 47.4185 202.286 49.712C201.315 52.0045 199.961 54.037 198.258 55.7548C196.554 57.4748 194.539 58.8417 192.27 59.8191C189.997 60.798 187.526 61.2945 184.926 61.2945C182.327 61.2945 179.856 60.798 177.583 59.8187C175.314 58.8417 173.299 57.4748 171.595 55.7548C169.891 54.0347 168.535 52.0018 167.568 49.712C166.597 47.4212 166.105 44.9516 166.105 42.373C166.105 39.7468 166.597 37.2536 167.567 34.9623C168.535 32.6733 169.89 30.64 171.595 28.9199C173.297 27.2025 175.311 25.8349 177.583 24.8556C179.856 23.8763 182.327 23.3802 184.926 23.3802ZM165.86 10.1619V19.1532H141.141V30.7708H159.471L161.699 39.7617H141.141V60.3705H132.231V10.1619H165.86ZM231.699 23.2968V32.2831L228.016 32.3083C225.46 32.4058 223.243 33.3848 221.427 35.2169C219.687 37.0573 218.722 39.1976 218.561 41.5799L218.537 42.3018V60.3705H209.627V24.3039H218.537V26.8257C219.772 25.8598 221.167 25.0428 222.69 24.3935C223.989 23.8394 225.439 23.4951 227.013 23.3664L227.972 23.3151L231.699 23.2968ZM184.926 32.3711C182.186 32.3711 179.824 33.3523 177.905 35.2881C175.987 37.2238 175.015 39.6073 175.015 42.373C175.015 45.0914 175.987 47.4509 177.905 49.3866C178.823 50.3595 179.895 51.0915 181.103 51.5735C182.313 52.0582 183.6 52.3032 184.926 52.3032C186.251 52.3032 187.526 52.0582 188.714 51.5739C189.9 51.0907 190.988 50.3549 191.948 49.3866C193.865 47.4513 194.838 45.0918 194.838 42.373C194.838 39.6069 193.865 37.2234 191.948 35.2881C189.942 33.3565 187.576 32.3711 184.926 32.3711ZM290.116 34.9856C287.466 34.9856 285.103 35.968 283.092 37.9064C282.473 38.5304 281.951 39.2127 281.538 39.939L281.248 40.4918H298.984C298.535 39.5586 297.915 38.6887 297.137 37.9022C295.22 35.9668 292.857 34.9856 290.116 34.9856Z" fill="white"/>
</svg>
