<svg width="201" height="80" viewBox="0 0 201 80" fill="none" xmlns="http://www.w3.org/2000/svg">
<path d="M72.9456 47.0001C72.0305 47.0001 71.2984 46.7256 70.7494 46.1765C70.2003 45.6275 69.9258 44.8954 69.9258 43.9803V27.8929C69.9258 27.0511 70.2003 26.3739 70.7494 25.8614C71.335 25.3124 72.0122 25.0379 72.7809 25.0379H81.0716C81.6939 25.0379 82.1331 25.2026 82.3894 25.532C82.6822 25.8248 82.8286 26.2092 82.8286 26.685C82.8286 27.1243 82.6639 27.5086 82.3345 27.838C82.0416 28.1675 81.6207 28.3322 81.0716 28.3322H75.1967C74.245 28.3322 73.7692 28.808 73.7692 29.7597V32.7795C73.7692 33.7312 74.2084 34.2071 75.0869 34.2071H80.5226C81.1448 34.2071 81.5841 34.3718 81.8403 34.7012C82.1331 35.0307 82.2796 35.415 82.2796 35.8543C82.2796 36.2569 82.1148 36.6412 81.7854 37.0073C81.4926 37.3367 81.0716 37.5014 80.5226 37.5014H75.0869C74.2084 37.5014 73.7692 37.959 73.7692 38.8741V42.2233C73.7692 43.175 74.2267 43.6509 75.1418 43.6509H81.6207C82.243 43.6509 82.6822 43.8339 82.9384 44.1999C83.2313 44.5293 83.3777 44.9137 83.3777 45.3529C83.3777 45.7922 83.213 46.1765 82.8835 46.5059C82.5907 46.8354 82.1697 47.0001 81.6207 47.0001H72.9456ZM94.5407 47.5492C92.0882 47.5492 90.075 46.7622 88.501 45.1882C86.9271 43.6143 86.1401 41.5644 86.1401 39.0388C86.1401 37.4282 86.5061 36.0007 87.2382 34.7562C87.9703 33.5116 88.9586 32.5416 90.2031 31.8462C91.4843 31.1507 92.9301 30.8029 94.5407 30.8029C96.7369 30.8029 98.6037 31.3154 100.141 32.3403C100.654 32.6697 100.91 33.1273 100.91 33.7129C100.91 34.2986 100.727 34.7562 100.361 35.0856C99.9946 35.415 99.5737 35.5797 99.0978 35.5797C98.7684 35.5797 98.4756 35.5065 98.2193 35.3601C96.865 34.445 95.6022 34.0424 94.4309 34.1522C93.0033 34.2986 91.8869 34.7928 91.0816 35.6346C90.2763 36.4399 89.8737 37.5929 89.8737 39.0937C89.8737 40.6677 90.2946 41.9122 91.1365 42.8273C92.015 43.7058 93.2412 44.145 94.8152 44.145C96.2061 44.145 97.5971 43.6143 98.988 42.5527C99.2808 42.2965 99.6652 42.1684 100.141 42.1684C100.69 42.1684 101.093 42.388 101.349 42.8273C101.642 43.2299 101.789 43.6143 101.789 43.9803C101.789 44.4927 101.551 44.9686 101.075 45.4078C100.16 46.2131 99.1527 46.7622 98.0546 47.055C96.9565 47.3844 95.7852 47.5492 94.5407 47.5492ZM106.692 47.5492C106.217 47.5492 105.777 47.4027 105.375 47.1099C105.009 46.8171 104.826 46.3961 104.826 45.8471V24.983C104.826 24.3607 105.009 23.9031 105.375 23.6103C105.777 23.2809 106.217 23.1162 106.692 23.1162C107.168 23.1162 107.589 23.2809 107.955 23.6103C108.358 23.9031 108.559 24.3607 108.559 24.983V32.8345C109.145 32.2122 109.913 31.718 110.865 31.352C111.853 30.986 112.769 30.8029 113.61 30.8029C115.514 30.8029 117.124 31.4618 118.442 32.7795C119.796 34.0973 120.474 36.0373 120.474 38.5995V45.8471C120.474 46.3961 120.272 46.8171 119.87 47.1099C119.467 47.4027 119.046 47.5492 118.607 47.5492C118.131 47.5492 117.692 47.4027 117.289 47.1099C116.923 46.8171 116.74 46.3961 116.74 45.8471V38.929C116.74 37.3184 116.374 36.1288 115.642 35.3601C114.947 34.5914 114.013 34.2071 112.842 34.2071C111.268 34.2071 110.151 34.7012 109.493 35.6895C108.87 36.6412 108.559 37.7028 108.559 38.8741V45.8471C108.559 46.3961 108.358 46.8171 107.955 47.1099C107.589 47.4027 107.168 47.5492 106.692 47.5492ZM132.023 47.5492C130.413 47.5492 128.948 47.1831 127.631 46.451C126.35 45.719 125.343 44.7124 124.611 43.4312C123.879 42.1135 123.513 40.6494 123.513 39.0388C123.513 37.4648 123.879 36.0556 124.611 34.8111C125.343 33.5665 126.35 32.5965 127.631 31.9011C128.948 31.169 130.413 30.8029 132.023 30.8029C133.634 30.8029 135.08 31.169 136.361 31.9011C137.642 32.5965 138.648 33.5665 139.38 34.8111C140.149 36.0556 140.534 37.4648 140.534 39.0388C140.534 40.6494 140.149 42.1135 139.38 43.4312C138.648 44.7124 137.642 45.719 136.361 46.451C135.08 47.1831 133.634 47.5492 132.023 47.5492ZM132.023 44.145C133.451 44.145 134.604 43.6875 135.482 42.7724C136.361 41.8207 136.8 40.5761 136.8 39.0388C136.8 37.5746 136.361 36.4033 135.482 35.5248C134.604 34.6463 133.451 34.2071 132.023 34.2071C130.559 34.2071 129.388 34.6463 128.509 35.5248C127.667 36.4033 127.246 37.5746 127.246 39.0388C127.246 40.5761 127.667 41.8207 128.509 42.7724C129.388 43.6875 130.559 44.145 132.023 44.145ZM147.265 47.0001C146.497 47.0001 145.765 46.7439 145.069 46.2314C144.41 45.719 144.081 44.9869 144.081 44.0352V27.8929C144.081 27.0511 144.355 26.3739 144.905 25.8614C145.49 25.3124 146.167 25.0379 146.936 25.0379H151.878C154.074 25.0379 155.995 25.4954 157.643 26.4105C159.326 27.289 160.626 28.5518 161.541 30.199C162.493 31.8462 162.968 33.8228 162.968 36.1288C162.968 38.142 162.529 39.9722 161.651 41.6194C160.809 43.2665 159.619 44.5843 158.082 45.5726C156.581 46.5243 154.842 47.0001 152.866 47.0001H147.265ZM149.517 43.596H151.932C154.312 43.596 156.124 42.9737 157.368 41.7292C158.613 40.448 159.217 38.5812 159.18 36.1288C159.143 33.6397 158.503 31.7363 157.258 30.4186C156.014 29.1009 154.22 28.442 151.878 28.442H149.571C148.473 28.442 147.924 28.9911 147.924 30.0892V41.9488C147.924 43.0469 148.455 43.596 149.517 43.596ZM169.835 47.0001C168.92 47.0001 168.188 46.7256 167.639 46.1765C167.09 45.6275 166.815 44.8954 166.815 43.9803V27.8929C166.815 27.0511 167.09 26.3739 167.639 25.8614C168.225 25.3124 168.902 25.0379 169.67 25.0379H177.961C178.583 25.0379 179.023 25.2026 179.279 25.532C179.572 25.8248 179.718 26.2092 179.718 26.685C179.718 27.1243 179.553 27.5086 179.224 27.838C178.931 28.1675 178.51 28.3322 177.961 28.3322H172.086C171.135 28.3322 170.659 28.808 170.659 29.7597V32.7795C170.659 33.7312 171.098 34.2071 171.976 34.2071H177.412C178.034 34.2071 178.474 34.3718 178.73 34.7012C179.023 35.0307 179.169 35.415 179.169 35.8543C179.169 36.2569 179.004 36.6412 178.675 37.0073C178.382 37.3367 177.961 37.5014 177.412 37.5014H171.976C171.098 37.5014 170.659 37.959 170.659 38.8741V42.2233C170.659 43.175 171.116 43.6509 172.031 43.6509H178.51C179.132 43.6509 179.572 43.8339 179.828 44.1999C180.121 44.5293 180.267 44.9137 180.267 45.3529C180.267 45.7922 180.102 46.1765 179.773 46.5059C179.48 46.8354 179.059 47.0001 178.51 47.0001H169.835ZM184.622 47.5492C184.109 47.5492 183.615 47.3661 183.139 47.0001C182.7 46.5975 182.481 46.1399 182.481 45.6275C182.481 45.2614 182.59 44.9137 182.81 44.5843L188.52 37.2818C188.813 36.9524 188.959 36.568 188.959 36.1288C188.959 35.6895 188.813 35.3052 188.52 34.9758L182.92 27.7831C182.737 27.4537 182.645 27.106 182.645 26.7399C182.645 26.1909 182.865 25.7333 183.304 25.3673C183.743 24.9647 184.201 24.7633 184.677 24.7633C185.189 24.7633 185.61 24.983 185.94 25.4222L190.771 32.1756C190.991 32.505 191.247 32.6697 191.54 32.6697C191.833 32.6697 192.089 32.505 192.309 32.1756L197.14 25.4222C197.47 24.983 197.891 24.7633 198.403 24.7633C198.989 24.7633 199.483 24.9463 199.886 25.3124C200.325 25.6784 200.544 26.1177 200.544 26.6301C200.544 27.0328 200.416 27.4171 200.16 27.7831L194.56 34.9209C194.23 35.2869 194.066 35.6895 194.066 36.1288C194.066 36.4582 194.212 36.8243 194.505 37.2269L200.27 44.5843C200.49 44.9137 200.599 45.2614 200.599 45.6275C200.599 46.1399 200.361 46.5975 199.886 47.0001C199.446 47.3661 198.971 47.5492 198.458 47.5492C197.946 47.5492 197.525 47.3295 197.195 46.8903L192.254 40.0271C192.034 39.6977 191.778 39.5329 191.485 39.5329C191.192 39.5329 190.936 39.6977 190.716 40.0271L185.885 46.8903C185.555 47.3295 185.134 47.5492 184.622 47.5492Z" fill="url(#paint0_linear_740_375)"/>
<path d="M42.8378 56.0928C42.8378 56.414 42.808 56.7323 42.7455 57.0478C42.6829 57.3633 42.5906 57.6687 42.4683 57.9657C42.3475 58.2626 42.1969 58.5452 42.0206 58.8121C41.843 59.0791 41.6426 59.326 41.4166 59.553C41.1906 59.7799 40.9462 59.9826 40.6804 60.1625C40.416 60.3409 40.1361 60.4908 39.8419 60.6136C39.5462 60.7363 39.2435 60.8305 38.9308 60.8919C38.6182 60.9547 38.3026 60.9861 37.9829 60.9861H23.6325C23.0512 60.9861 22.4728 60.9647 21.8929 60.9219C21.3145 60.8791 20.7389 60.8134 20.1647 60.7278C19.5905 60.6421 19.0206 60.5351 18.4549 60.4066C17.8878 60.2781 17.3279 60.1297 16.7722 59.9598C16.2164 59.7899 15.6693 59.6001 15.1278 59.3888C14.5863 59.179 14.0533 58.9477 13.5289 58.6979C13.0044 58.4481 12.4899 58.1783 11.984 57.89C11.4794 57.6017 10.9862 57.2948 10.503 56.9707C10.0212 56.6453 9.55079 56.3027 9.09315 55.943C8.63693 55.5833 8.19208 55.2064 7.76286 54.8139C7.33222 54.4213 6.91722 54.0131 6.51785 53.5891C6.11705 53.1666 5.73332 52.7284 5.36521 52.2759C4.99711 51.8234 4.64606 51.3594 4.31207 50.8813C3.97807 50.4031 3.66114 49.912 3.36409 49.411C3.06563 48.9085 2.78565 48.3975 2.52414 47.8751C2.26405 47.3526 2.02244 46.8216 1.80072 46.2806C1.57759 45.741 1.37577 45.1929 1.19385 44.6376C1.01193 44.0823 0.849907 43.5199 0.709203 42.9532C0.568499 42.3865 0.447693 41.8141 0.348206 41.2374C0.25014 40.6622 0.171971 40.0826 0.115121 39.5002C0.0582713 38.9178 0.0227398 38.3355 0.00710632 37.7502C-0.00710634 37.1664 7.82311e-08 36.5811 0.0284251 35.9973C0.05685 35.4135 0.106594 34.8311 0.177656 34.2501C0.248718 33.6691 0.3411 33.0925 0.453378 32.5186C0.567078 31.9448 0.700676 31.3767 0.855592 30.8128C1.01051 30.249 1.18532 29.6923 1.38003 29.1413C1.57616 28.5903 1.79077 28.0479 2.0267 27.514C2.26121 26.9787 2.51561 26.4534 2.78849 25.9381C3.06279 25.4214 3.35415 24.9161 3.66398 24.4222C3.97523 23.9283 4.30354 23.4458 4.6489 22.9762C4.99427 22.5065 5.35669 22.0497 5.73474 21.6072C6.11421 21.1647 6.5079 20.7351 6.91864 20.3225C8.013 19.212 9.20543 18.2213 10.4959 17.3506C11.785 16.4784 13.1465 15.7433 14.582 15.1452C16.016 14.5457 17.4956 14.0946 19.0177 13.7906C20.5413 13.4865 22.0791 13.3381 23.6325 13.3409H37.9829C38.3026 13.3409 38.6182 13.3723 38.9308 13.4351C39.2435 13.4979 39.5477 13.5907 39.8419 13.7135C40.1361 13.8362 40.416 13.9875 40.6818 14.166C40.9462 14.3444 41.192 14.5471 41.418 14.7741C41.6426 15.001 41.8444 15.248 42.0221 15.5163C42.1983 15.7833 42.3489 16.0645 42.4712 16.3614C42.592 16.6583 42.6844 16.9652 42.7469 17.2807C42.8094 17.5947 42.8407 17.913 42.8407 18.2342C42.8407 18.5568 42.8094 18.8751 42.7469 19.1891C42.6844 19.5046 42.592 19.8115 42.4712 20.1084C42.3489 20.4053 42.1983 20.6865 42.0221 20.9535C41.8444 21.2218 41.6426 21.4688 41.418 21.6957C41.192 21.9227 40.9462 22.1254 40.6818 22.3038C40.416 22.4823 40.1361 22.6336 39.8419 22.7563C39.5477 22.8791 39.2435 22.9719 38.9308 23.0347C38.6182 23.0975 38.3026 23.1289 37.9829 23.1289H23.7661C16.0686 23.1289 9.72845 29.3668 9.70713 37.1236C9.68439 44.8817 15.9407 51.1996 23.6325 51.1996H37.9829C38.3026 51.1996 38.6182 51.231 38.9308 51.2938C39.2435 51.3566 39.5462 51.4494 39.8419 51.5721C40.1361 51.6949 40.416 51.8462 40.6804 52.0246C40.9462 52.2031 41.1906 52.4058 41.4166 52.6327C41.6426 52.8597 41.843 53.1066 42.0206 53.375C42.1969 53.6419 42.3475 53.9231 42.4683 54.22C42.5906 54.517 42.6829 54.8239 42.7455 55.1379C42.808 55.4534 42.8378 55.7717 42.8378 56.0928ZM17.1758 37.2706C17.1758 37.5175 17.1872 37.763 17.2113 38.0086C17.2355 38.2541 17.271 38.4982 17.3193 38.7394C17.3662 38.9821 17.4259 39.2205 17.497 39.4574C17.5681 39.6929 17.6505 39.9242 17.7443 40.1526C17.8381 40.381 17.9418 40.6037 18.057 40.8206C18.1735 41.0376 18.2986 41.2489 18.435 41.4544C18.57 41.66 18.7164 41.857 18.8713 42.0482C19.0263 42.2381 19.1897 42.4208 19.3631 42.5949C19.5365 42.7705 19.717 42.9361 19.906 43.0917C20.095 43.2487 20.2926 43.3957 20.4958 43.5328C20.6991 43.6698 20.908 43.7954 21.124 43.9125C21.34 44.0281 21.5603 44.1337 21.7863 44.2279C22.0123 44.3221 22.2425 44.4049 22.477 44.4777C22.7115 44.5491 22.9489 44.6091 23.1877 44.6562C23.4279 44.7047 23.6695 44.7404 23.9139 44.7647C24.157 44.7889 24.4014 44.8018 24.6459 44.8018C24.8903 44.8018 25.1348 44.7889 25.3778 44.7647C25.6208 44.7404 25.8639 44.7047 26.1026 44.6562C26.3428 44.6091 26.5802 44.5491 26.8147 44.4777C27.0478 44.4049 27.278 44.3221 27.504 44.2279C27.73 44.1337 27.9517 44.0281 28.1677 43.9125C28.3838 43.7954 28.5927 43.6698 28.7959 43.5328C28.9992 43.3957 29.1953 43.2487 29.3857 43.0917C29.5748 42.9361 29.7553 42.7705 29.9286 42.5964C30.1006 42.4222 30.2655 42.2395 30.4204 42.0482C30.5753 41.8584 30.7217 41.66 30.8567 41.4544C30.9932 41.2503 31.1182 41.039 31.2348 40.8206C31.3499 40.6037 31.4536 40.381 31.5475 40.1526C31.6413 39.9256 31.7237 39.6929 31.7947 39.4574C31.8658 39.2219 31.9255 38.9821 31.9724 38.7408C32.0207 38.4982 32.0563 38.2555 32.0804 38.01C32.1046 37.7645 32.116 37.519 32.116 37.272C32.116 37.0251 32.1046 36.7795 32.0804 36.534C32.0563 36.2885 32.0207 36.0444 31.9724 35.8032C31.9255 35.5605 31.8658 35.3221 31.7947 35.0866C31.7237 34.8496 31.6413 34.6184 31.5475 34.39C31.4536 34.163 31.3499 33.9404 31.2334 33.722C31.1182 33.505 30.9932 33.2937 30.8567 33.0882C30.7217 32.884 30.5753 32.6856 30.4204 32.4944C30.2655 32.3045 30.1006 32.1218 29.9272 31.9476C29.7553 31.7735 29.5733 31.6079 29.3843 31.4509C29.1953 31.2953 28.9992 31.1483 28.7959 31.0112C28.5927 30.8742 28.3823 30.7472 28.1663 30.6315C27.9517 30.5145 27.73 30.4103 27.504 30.3161C27.278 30.2219 27.0478 30.1376 26.8133 30.0663C26.5802 29.9949 26.3428 29.9349 26.1026 29.8878C25.8625 29.8393 25.6208 29.8036 25.3778 29.7794C25.1334 29.7551 24.8903 29.7422 24.6444 29.7422C24.4 29.7422 24.157 29.7551 23.9125 29.7794C23.6695 29.8036 23.4279 29.8393 23.1877 29.8878C22.9475 29.9349 22.7115 29.9949 22.477 30.0677C22.2425 30.1391 22.0123 30.2219 21.7863 30.3161C21.5603 30.4103 21.34 30.5159 21.124 30.6315C20.908 30.7486 20.6991 30.8742 20.4958 31.0112C20.2926 31.1483 20.0965 31.2953 19.9074 31.4523C19.7184 31.6079 19.5365 31.7735 19.3631 31.9476C19.1911 32.1218 19.0263 32.3045 18.8713 32.4958C18.7164 32.6856 18.5715 32.884 18.435 33.0882C18.2986 33.2937 18.1735 33.505 18.0584 33.722C17.9433 33.9404 17.8381 34.163 17.7443 34.39C17.6505 34.6184 17.5681 34.8496 17.497 35.0852C17.4259 35.3221 17.3677 35.5605 17.3193 35.8032C17.2724 36.0444 17.2355 36.2885 17.2113 36.5326C17.1872 36.7781 17.1758 37.0251 17.1758 37.2706Z" fill="url(#paint1_linear_740_375)"/>
<path opacity="0.5" d="M43.0704 23.4298C44.1354 22.9322 45.4074 23.3916 45.8554 24.4784C47.6705 28.8819 48.6507 33.1946 48.7965 37.4134C48.9383 41.5955 48.2544 45.6664 46.7455 49.6233C46.3297 50.7138 45.0699 51.1822 44.007 50.7003C42.9426 50.2177 42.48 48.9657 42.8855 47.8697C44.1216 44.5284 44.6806 41.0944 44.5599 37.5686C44.4353 33.9239 43.5805 30.1581 41.9967 26.2739C41.5539 25.1878 42.0077 23.9262 43.0704 23.4298Z" fill="#D27FB4"/>
<path opacity="0.3" d="M50.8328 20.6504C51.898 20.1528 53.169 20.6128 53.6268 21.6957C56.0002 27.3105 57.279 32.8006 57.4622 38.1628C57.6438 43.4868 56.7413 48.6645 54.7525 53.6941C54.3233 54.7794 53.065 55.2477 52.0022 54.7653C50.9384 54.2824 50.4743 53.0303 50.8969 51.9412C52.6093 47.5279 53.3849 42.9875 53.2255 38.3181C53.0611 33.5322 51.9088 28.5896 49.7687 23.4903C49.3149 22.4088 49.7702 21.1469 50.8328 20.6504Z" fill="#D27FB4"/>
<path d="M35.6287 28.8105C36.694 28.3128 37.97 28.7717 38.3883 29.8706C39.3658 32.4385 39.8969 34.9627 39.981 37.4456C40.0651 39.8959 39.7092 42.2874 38.9148 44.6186C38.5382 45.7237 37.2736 46.1918 36.2103 45.7097C35.1463 45.2273 34.6907 43.9766 35.038 42.8612C35.5717 41.1476 35.8079 39.3947 35.7473 37.6008C35.6806 35.6859 35.2727 33.708 34.5223 31.667C34.1177 30.5665 34.5663 29.3068 35.6287 28.8105Z" fill="#D27FB4"/>
<defs>
<linearGradient id="paint0_linear_740_375" x1="201.689" y1="59.5462" x2="39.9792" y2="80.7781" gradientUnits="userSpaceOnUse">
<stop offset="0.283935" stop-color="#63D8A0"/>
<stop offset="0.587143" stop-color="#6FD1D9"/>
<stop offset="0.958125" stop-color="#D979B1"/>
</linearGradient>
<linearGradient id="paint1_linear_740_375" x1="44.5613" y1="42.191" x2="-8.18625" y2="47.4384" gradientUnits="userSpaceOnUse">
<stop stop-color="#63D8A0"/>
<stop offset="0.40963" stop-color="#6FD1D9"/>
<stop offset="0.792422" stop-color="#D979B1"/>
</linearGradient>
</defs>
</svg>
