<svg width="730" height="138" viewBox="0 0 730 138" fill="none" xmlns="http://www.w3.org/2000/svg">
<g clip-path="url(#clip0_738_313)">
<path d="M583.35 137.91H551.63C513.6 137.91 482.68 106.99 482.68 68.96C482.68 30.93 513.6 0 551.64 0C589.68 0 620.59 30.92 620.59 68.95V136.53H593.01V68.95C593.01 46.09 574.5 27.58 551.64 27.58C528.78 27.58 510.27 46.09 510.27 68.95C510.27 91.81 528.78 110.32 551.64 110.32H583.36V137.9L583.35 137.91Z" fill="white"/>
<path d="M427.521 136.53H399.941V68.95C399.941 30.92 430.861 0 468.891 0V27.58C446.031 27.58 427.521 46.09 427.521 68.95V136.53Z" fill="white"/>
<path d="M303.399 137.91C265.369 137.91 234.449 106.99 234.449 68.96C234.449 30.93 265.369 0 303.399 0C341.429 0 372.349 30.92 372.349 68.95V82.74H293.049V55.16H342.369C336.639 39.08 321.359 27.58 303.429 27.58C280.569 27.58 262.059 46.09 262.059 68.95C262.059 91.81 280.569 110.32 303.429 110.32C317.219 110.32 330.099 103.42 337.799 91.92L360.659 107.31C347.889 126.4 326.509 137.9 303.389 137.9L303.399 137.91Z" fill="white"/>
<path d="M729.321 27.5801H661.961V136.53H729.321V27.5801Z" fill="white"/>
<path d="M137.91 124.12L193.07 68.95L137.91 13.79V55.16L82.75 96.54H137.91V124.12Z" fill="white"/>
<path d="M55.16 13.79L0 68.95L55.16 124.12V82.75L110.33 41.37H55.16V13.79Z" fill="white"/>
</g>
<defs>
<clipPath id="clip0_738_313">
<rect width="729.32" height="137.91" fill="white"/>
</clipPath>
</defs>
</svg>
