<svg width="151" height="148" viewBox="0 0 151 148" fill="none" xmlns="http://www.w3.org/2000/svg">
<path d="M29.1157 117.28C22.902 110.832 18.0719 103.182 14.922 94.8001C11.7722 86.418 10.3692 77.4804 10.7991 68.5362C11.2289 59.5921 13.4827 50.8303 17.4219 42.7888C21.3611 34.7474 26.9026 27.5961 33.706 21.7742C40.5095 15.9522 48.4313 11.5825 56.9849 8.9334C65.5385 6.2843 74.5433 5.41176 83.4464 6.36932C92.3495 7.32689 100.963 10.0943 108.758 14.5018C116.552 18.9092 123.364 24.8635 128.773 31.999C134.131 33.6017 133.511 28.9692 133.277 27.7877C133.244 27.6248 133.171 27.4724 133.067 27.3431C127.233 19.7828 119.92 13.4908 111.573 8.8513C103.227 4.21177 94.0223 1.32206 84.5218 0.358589C75.0212 -0.604878 65.424 0.378124 56.316 3.24757C47.2081 6.11702 38.7805 10.8127 31.5479 17.0479C24.3152 23.2832 18.4293 30.9271 14.2495 39.513C10.0697 48.0989 7.68361 57.4467 7.23704 66.9855C6.79047 76.5244 8.29276 86.0542 11.6522 94.993C15.0116 103.932 20.1576 112.092 26.776 118.976C29.7708 120.158 29.1157 117.28 29.1157 117.28Z" fill="white"/>
<path d="M142.134 61.4326C144.779 77.4431 141.855 93.8766 133.848 107.991C125.841 122.106 113.236 133.048 98.1367 138.992C115.067 134.167 129.498 123.025 138.451 107.868C147.405 92.7102 150.197 74.6937 146.252 57.5371L142.134 61.4326Z" fill="white"/>
<path d="M106.876 71.5058C106.748 71.5758 106.642 71.6814 106.572 71.8099C100.723 82.4671 89.8902 95.5575 75.9342 108.075C57.135 124.862 37.8679 135.882 26.0176 137.519C36.6396 139.485 59.2992 127.74 81.3154 108.075C95.4469 95.4054 106.326 82.1045 112.175 71.4122C112.233 71.305 112.262 71.1851 112.26 71.0636C112.259 70.9422 112.227 70.823 112.168 70.717C112.108 70.6111 112.023 70.5217 111.92 70.4572C111.818 70.3926 111.7 70.355 111.579 70.3477C109.943 70.363 108.332 70.7595 106.876 71.5058Z" fill="white"/>
<path d="M120.75 75.998C116.071 74.9217 113.38 79.2618 111.602 82.1162C111.345 82.5724 109.532 85.4151 109.263 85.8713L108.818 86.6083L108.97 86.351C102.174 97.6282 89.8435 110.204 73.735 121.446C43.9979 142.245 13.325 149.709 5.21808 138.104C1.52142 132.828 3.15918 124.499 8.83285 115.024C9.46455 112.684 8.35321 113.058 8.20113 113.117C0.339878 125.037 -2.32733 135.531 2.21161 141.941C11.4884 155.207 47.5776 145.966 82.8245 121.306C99.8456 109.397 113.556 96.0606 122.142 83.9645C122.953 82.8534 123.432 81.535 123.523 80.1626C123.616 78.478 123.149 76.5595 120.75 75.998Z" fill="#A78BFA"/>
<path d="M106.783 64.5555C108.59 61.4124 111 58.6574 113.874 56.449C116.749 54.2406 120.033 52.6224 123.535 51.6874C123.535 51.6874 132.473 27.5655 150.02 22.5586C150.02 22.5586 152.184 43.9899 135.678 59.3732C135.678 59.3732 137.246 78.1957 129.408 80.7343L126.939 71.0949H119.195L118.025 64.1578" fill="#A78BFA"/>
<path d="M60.4342 7.85337L80.9413 12.9071L73.782 13.1995L67.1373 27.4714L69.746 33.8119L64.2128 30.2088L40.3248 35.3795L34.5459 41.5562L37.3067 35.7772L32.9198 24.7106L29.1179 26.0092L21.9468 31.2032L14.378 44.7381L9.40625 63.8532L13.3837 72.2175L26.0061 64.4498L29.1179 60.8701L28.7201 65.8419L43.2494 84.9569L50.9235 85.4132L43.0739 88.3962L41.8105 97.1349C41.8105 97.1349 65.6984 96.9828 78.9175 85.9279C78.9175 85.9279 73.934 79.8097 69.3366 79.5874L74.6125 74.0073L80.9296 55.29L79.1983 46.0366L84.4742 50.3182L109.158 50.9148L120.107 37.1693C120.107 37.1693 114.831 20.4525 101.788 15.8667L110.409 15.4456L110.55 10.7663L71.1265 3.30273L60.4342 7.85337Z" fill="white"/>
</svg>
