<svg width="603" height="61" viewBox="0 0 603 61" fill="none" xmlns="http://www.w3.org/2000/svg">
<mask id="mask0_738_322" style="mask-type:luminance" maskUnits="userSpaceOnUse" x="0" y="0" width="600" height="61">
<path d="M599.493 0H0V61H599.493V0Z" fill="white"/>
</mask>
<g mask="url(#mask0_738_322)">
<path d="M116.08 0.90332L86.3594 60.095H99.2408L106.138 46.3342H139.46L146.278 60.095H159.331L129.623 0.90332H116.08ZM122.805 12.856L134.297 36.0169H111.235L122.805 12.856Z" fill="white"/>
<path d="M160.824 47.2391C166.57 55.5624 180.524 61 194.557 61C211.224 61 224.106 54.4852 224.106 41.5486C224.106 28.7716 212.283 26.5512 195.536 24.65C180.603 22.9215 176.658 21.9244 176.658 17.6432C176.658 13.6811 181.424 10.3041 191.922 10.3041C201.931 10.3041 210.311 13.6811 214.825 19.5312L222.874 11.7799C217.552 4.69333 205.73 0 192.597 0C175.85 0 164.941 7.67151 164.941 18.8797C164.941 30.5798 176.022 33.3053 190.466 34.954C207.041 36.7622 211.886 37.2674 211.886 42.8649C211.886 47.6513 204.909 50.6162 195.059 50.6162C186.362 50.6162 175.691 47.8108 168.953 38.7432L160.824 47.2391Z" fill="white"/>
<path d="M284.584 0.90332V24.4763H246.748V0.90332H234.688V60.095H246.748V34.9532H284.584V60.095H296.737V0.90332H284.584Z" fill="white"/>
<path d="M318.546 60.095V36.6019H358.104V26.1383H318.546V11.3802H362.79V0.90332H306.645V60.095H318.546Z" fill="white"/>
<path d="M373.785 60.095H427.297V49.6315H385.846V0.90332H373.785V60.095Z" fill="white"/>
<path d="M464.481 0C444.292 0 429.676 12.9366 429.676 30.5C429.676 48.0634 444.292 61 464.481 61C484.59 61 499.285 48.0634 499.285 30.5C499.285 12.9366 484.59 0 464.481 0ZM464.481 10.6364C477.693 10.6364 486.894 18.5473 486.894 30.5C486.894 42.4527 477.706 50.3635 464.481 50.3635C451.255 50.3635 442.067 42.4527 442.067 30.5C442.067 18.5473 451.268 10.6364 464.481 10.6364Z" fill="white"/>
<path d="M544.34 0.90332L529.564 46.7331L514.048 0.90332H501.406L522.003 60.095H535.959L550.481 14.8371L564.847 60.095H578.878L599.481 0.90332H587.087L571.571 46.7331L556.876 0.90332H544.34Z" fill="white"/>
<path d="M83.4045 27.7883V17.2715H72.6939V0.917969H60.6202V17.2848H22.7839V0.917969H10.7102V17.2848H0V27.8016H10.7102V33.2261H0V43.743H10.7102V60.0963H22.7839V43.7296H60.6202V60.0963H72.6939V43.7296H83.4045V33.2129H72.6939V27.7883H83.4045ZM60.6202 33.2129H22.7839V27.7883H60.6202V33.2129Z" fill="white"/>
</g>
</svg>
