<svg width="379" height="143" viewBox="0 0 379 143" fill="none" xmlns="http://www.w3.org/2000/svg">
<g clip-path="url(#clip0_608_33778)">
<path d="M193.646 111.772C192.212 112.025 190.758 112.147 189.302 112.139C186.203 112.139 184.022 111.569 182.758 110.428C181.495 109.287 180.863 107.37 180.863 104.678V37.043C181.515 36.8772 182.554 36.6719 183.981 36.4272C185.376 36.1871 186.788 36.0653 188.203 36.063C191.137 36.063 193.297 36.593 194.685 37.653C196.073 38.7129 196.764 40.6701 196.758 43.5243V67.6197H227.329V37.043C227.981 36.8772 229.021 36.6719 230.45 36.4272C231.844 36.187 233.255 36.0652 234.669 36.063C237.605 36.063 239.765 36.6127 241.151 37.7122C242.537 38.8116 243.228 40.7855 243.224 43.6339V111.141C242.489 111.304 241.447 111.511 240.103 111.754C238.67 112.007 237.217 112.13 235.762 112.121C232.661 112.121 230.48 111.551 229.218 110.41C227.957 109.269 227.324 107.352 227.32 104.66V80.3217H196.752V111.159C196.014 111.328 194.978 111.529 193.646 111.772Z" fill="white"/>
<path d="M312.463 82.2936C312.463 87.031 311.749 91.2926 310.322 95.0786C308.999 98.7077 306.937 102.023 304.267 104.814C301.615 107.533 298.402 109.641 294.851 110.99C291.179 112.413 287.061 113.127 282.495 113.131C277.929 113.135 273.812 112.421 270.142 110.99C266.601 109.648 263.389 107.562 260.723 104.873C258.045 102.116 255.982 98.8235 254.668 95.2118C253.241 91.42 252.527 87.1178 252.527 82.3055C252.527 77.58 253.241 73.3203 254.668 69.5265C255.988 65.9026 258.075 62.6062 260.785 59.8623C263.481 57.1835 266.709 55.1006 270.26 53.7481C273.932 52.321 278.009 51.6074 282.492 51.6074C286.975 51.6074 291.052 52.321 294.724 53.7481C298.286 55.1079 301.517 57.2138 304.199 59.9244C306.899 62.6988 308.983 66.0123 310.313 69.6479C311.742 73.4338 312.459 77.6491 312.463 82.2936ZM282.495 63.8268C278.093 63.8268 274.628 65.4365 272.099 68.656C269.571 71.8754 268.306 76.4213 268.306 82.2936C268.306 88.2489 269.55 92.8155 272.037 95.9935C274.524 99.1714 278.01 100.761 282.495 100.763C286.978 100.763 290.464 99.1527 292.953 95.9313C295.442 92.7099 296.686 88.164 296.684 82.2936C296.684 76.4252 295.419 71.8794 292.891 68.656C290.362 65.4326 286.897 63.8229 282.495 63.8268Z" fill="white"/>
<path d="M349.889 112.995C347.69 113.011 345.495 112.786 343.345 112.322C341.49 111.917 339.671 111.366 337.903 110.673V133.176C337.169 133.338 336.191 133.542 334.969 133.789C333.602 134.045 332.214 134.168 330.823 134.156C327.969 134.156 325.849 133.626 324.463 132.566C323.078 131.506 322.387 129.631 322.391 126.94V64.9282C322.391 62.9721 322.778 61.3821 323.551 60.1583C324.325 58.9345 325.569 57.7926 327.282 56.7326C329.651 55.3509 332.587 54.1478 336.091 53.1233C339.595 52.0989 343.549 51.5896 347.955 51.5955C352.16 51.5565 356.346 52.1555 360.371 53.372C364.012 54.4724 367.371 56.3504 370.216 58.8763C372.979 61.3634 375.14 64.5216 376.697 68.351C378.255 72.1803 379.029 76.7469 379.022 82.0508C379.022 87.1829 378.288 91.6676 376.822 95.5049C375.355 99.3421 373.337 102.563 370.766 105.166C368.184 107.785 365.048 109.791 361.588 111.037C357.834 112.377 353.874 113.04 349.889 112.995ZM347.567 100.642C352.459 100.642 356.291 99.1329 359.065 96.1148C361.838 93.0967 363.22 88.4087 363.21 82.0508C363.21 75.4481 361.783 70.7601 358.929 67.9868C356.074 65.2135 352.406 63.8268 347.923 63.8268C345.952 63.7925 343.988 64.0816 342.11 64.6825C340.617 65.1789 339.166 65.7927 337.77 66.5182V97.9506C339.125 98.7906 340.584 99.4486 342.11 99.9077C343.883 100.423 345.722 100.67 347.567 100.642Z" fill="white"/>
<path d="M141.435 47.3737L111.346 3.6035C106.62 -3.25678 95.934 0.385057 96.2834 8.71984C96.6032 16.3174 99.4427 24.359 106.238 34.2275C106.241 34.233 106.243 34.2394 106.242 34.2456C106.241 34.2519 106.238 34.2578 106.234 34.2624C106.23 34.2671 106.224 34.2702 106.218 34.2714C106.212 34.2726 106.205 34.2717 106.2 34.269C103.419 32.1964 61.5072 0.722594 11.6865 17.481H11.6302C6.13174 19.5417 3.32477 24.0393 4.71641 29.3125C6.00442 34.195 11.0114 37.1262 15.9887 36.3001C26.5711 34.5384 37.0735 33.7005 47.4013 34.6065C57.729 35.5125 67.8317 38.1595 77.2386 42.7814C86.6455 47.4033 95.1671 53.9438 102.999 61.4348C111.808 69.8524 122.736 87.804 122.736 87.804C123.377 88.9417 124.399 89.8165 125.621 90.2742C126.844 90.732 128.189 90.7432 129.419 90.306C132.38 89.246 133.76 85.8321 132.647 82.9038C130.325 76.7829 127.483 70.8722 124.152 65.2365C124.147 65.2311 124.144 65.2242 124.144 65.2169C124.144 65.2097 124.147 65.2027 124.151 65.1973C124.156 65.1918 124.163 65.1883 124.17 65.1873C124.177 65.1863 124.184 65.188 124.19 65.1921C127.874 66.5777 131.282 68.3039 135.314 67.3594C138.604 66.5866 141.491 64.3482 142.832 61.2156C143.803 58.9817 144.185 56.5359 143.94 54.1123C143.695 51.6887 142.833 49.3685 141.435 47.3737Z" fill="url(#paint0_linear_608_33778)"/>
<path d="M2.56919 95.4103L32.827 139.426C37.5645 146.307 48.0522 142.535 47.7294 134.192C47.4333 126.558 44.5997 118.484 37.7718 108.565C37.751 108.536 37.7718 108.497 37.8073 108.518C40.5936 110.591 82.5175 142.061 132.317 125.306C132.337 125.307 132.357 125.307 132.377 125.306C137.875 123.251 140.667 118.763 139.288 113.483C138.002 108.604 132.996 105.673 128.021 106.502C117.436 108.278 106.936 109.098 96.6056 108.192C86.2749 107.286 76.1751 104.639 66.7712 100.02C57.3673 95.4015 48.8427 88.855 41.011 81.3671C32.2052 72.9494 21.2734 54.9978 21.2734 54.9978C20.6105 53.8155 19.5368 52.9177 18.2558 52.4746C16.9749 52.0314 15.5759 52.0737 14.3241 52.5936C11.5053 53.7779 10.3002 57.1088 11.3809 59.9631C13.6989 66.0641 16.5339 71.9559 19.8551 77.5742C19.8585 77.5799 19.86 77.5866 19.8595 77.5932C19.859 77.5998 19.8565 77.6061 19.8524 77.6113C19.8482 77.6164 19.8425 77.6202 19.8361 77.622C19.8297 77.6239 19.8229 77.6237 19.8167 77.6216C16.1332 76.2359 12.7104 74.5097 8.69241 75.4542C5.40281 76.2122 2.51293 78.4625 1.18347 81.5862C0.213961 83.8168 -0.16771 86.2587 0.0748783 88.6788C0.317466 91.0989 1.17622 93.4165 2.56919 95.4103Z" fill="url(#paint1_linear_608_33778)"/>
</g>
<defs>
<linearGradient id="paint0_linear_608_33778" x1="151.404" y1="132.078" x2="-25.0049" y2="-85.1917" gradientUnits="userSpaceOnUse">
<stop offset="0.15" stop-color="#B32EFF"/>
<stop offset="0.42" stop-color="#CE60D3"/>
<stop offset="0.65" stop-color="#E185B3"/>
<stop offset="0.84" stop-color="#EE9C9F"/>
<stop offset="0.96" stop-color="#F2A498"/>
</linearGradient>
<linearGradient id="paint1_linear_608_33778" x1="-7.40917" y1="10.7124" x2="169.006" y2="227.988" gradientUnits="userSpaceOnUse">
<stop offset="0.15" stop-color="#B32EFF"/>
<stop offset="0.42" stop-color="#CE60D3"/>
<stop offset="0.65" stop-color="#E185B3"/>
<stop offset="0.84" stop-color="#EE9C9F"/>
<stop offset="0.96" stop-color="#F2A498"/>
</linearGradient>
<clipPath id="clip0_608_33778">
<rect width="379" height="143" fill="white"/>
</clipPath>
</defs>
</svg>
