<svg width="362" height="125" viewBox="0 0 362 125" fill="none" xmlns="http://www.w3.org/2000/svg">
<path d="M158.482 85.9301H144.352V50.5601H158.482V85.9301Z" fill="white"/>
<path d="M151.42 47.84C149.452 47.84 147.565 47.0582 146.173 45.6667C144.782 44.2752 144 42.3879 144 40.42C144 38.4521 144.782 36.5648 146.173 35.1733C147.565 33.7817 149.452 33 151.42 33C153.388 33 155.275 33.7817 156.667 35.1733C158.058 36.5648 158.84 38.4521 158.84 40.42C158.84 42.3879 158.058 44.2752 156.667 45.6667C155.275 47.0582 153.388 47.84 151.42 47.84Z" fill="white"/>
<path d="M213.333 85.9301H165.793L190.043 50.2601H167.793V39.0601H213.373L189.193 74.7001H213.373L213.333 85.9301Z" fill="white"/>
<path d="M269.622 64.9301C269.725 68.4829 268.952 72.0065 267.372 75.1901C265.986 77.8929 263.939 80.2012 261.422 81.9001C258.979 83.5354 256.273 84.7364 253.422 85.4501C250.634 86.1656 247.769 86.5317 244.892 86.5401C240.945 86.5518 237.026 85.875 233.312 84.5401C229.57 83.1993 226.298 80.8025 223.892 77.6401C221.358 74.3934 220.095 70.1667 220.102 64.9601V39.0601H234.202V61.2801C234.117 63.8983 234.573 66.5059 235.542 68.9401C236.28 70.7739 237.583 72.3253 239.262 73.3701C240.978 74.3349 242.923 74.8186 244.892 74.7701C246.82 74.8084 248.722 74.3283 250.402 73.3801C252.086 72.3576 253.395 70.8176 254.132 68.9901C255.099 66.5626 255.555 63.9618 255.472 61.3501V39.0601H269.602L269.622 64.9301Z" fill="white"/>
<path d="M335.221 85.9301H321.081V58.7701L308.341 74.4901H307.221L294.441 58.7701V85.9201H280.711V39.0601H293.531L307.931 56.6501L322.401 39.0601H335.221V85.9301Z" fill="white"/>
<path d="M361.251 85.9301H347.121V50.5601H361.251V85.9301Z" fill="white"/>
<path d="M354.182 47.84C353.207 47.84 352.242 47.6481 351.342 47.2752C350.442 46.9023 349.624 46.3557 348.935 45.6667C348.246 44.9777 347.699 44.1597 347.327 43.2595C346.954 42.3593 346.762 41.3944 346.762 40.42C346.762 39.4456 346.954 38.4807 347.327 37.5805C347.699 36.6802 348.246 35.8623 348.935 35.1733C349.624 34.4843 350.442 33.9377 351.342 33.5648C352.242 33.1919 353.207 33 354.182 33C356.15 33 358.037 33.7817 359.428 35.1733C360.82 36.5648 361.602 38.4521 361.602 40.42C361.602 42.3879 360.82 44.2752 359.428 45.6667C358.037 47.0582 356.15 47.84 354.182 47.84Z" fill="white"/>
<g clip-path="url(#clip0_607_55)">
<path d="M42.1489 0.715404C42.8985 -0.221076 44.3372 -0.241383 45.1141 0.673539L61.7132 20.222C62.2792 20.8886 62.304 21.8494 61.7739 22.5435L40.3625 50.5612C40.0024 51.0326 39.4372 51.31 38.8364 51.31H5.56716C3.97562 51.31 3.08407 49.5098 4.06735 48.2816L42.1489 0.715404Z" fill="#FFD8AB"/>
<path d="M82.1625 0.715404C81.413 -0.221076 79.9743 -0.241383 79.1974 0.673539L62.5983 20.222C62.0323 20.8886 62.0074 21.8494 62.5376 22.5435L83.9489 50.5612C84.3091 51.0326 84.8743 51.31 85.475 51.31H118.744C120.336 51.31 121.227 49.5098 120.244 48.2816L82.1625 0.715404Z" fill="#FFD8AB"/>
<path fill-rule="evenodd" clip-rule="evenodd" d="M1.85795 62.3052C0.81628 62.3052 -0.03115 63.1815 0.000879032 64.2564C0.999389 97.7637 27.6262 124.61 60.3271 124.61C93.028 124.61 119.655 97.7637 120.653 64.2564C120.685 63.1815 119.838 62.3052 118.796 62.3052H84.8465C83.8045 62.3052 82.9684 63.18 82.8828 64.2517C81.9245 76.2446 72.1921 85.6696 60.3271 85.6696C48.462 85.6696 38.7296 76.2446 37.7713 64.2517C37.6858 63.18 36.8496 62.3052 35.8078 62.3052H1.85795Z" fill="#DF7031"/>
</g>
<defs>
<clipPath id="clip0_607_55">
<rect width="120.654" height="124.61" fill="white"/>
</clipPath>
</defs>
</svg>
