<svg width="48" height="85" viewBox="0 0 48 85" fill="none" xmlns="http://www.w3.org/2000/svg">
<g clip-path="url(#clip0_194_3147)">
<path d="M23.9714 0.105959C20.8161 0.12184 17.6949 0.768178 14.7858 2.00817C11.8768 3.24817 9.23696 5.05765 7.01716 7.33294C4.79734 9.60822 3.04099 12.3049 1.84842 15.2691C0.655852 18.2331 0.0504455 21.4066 0.0667261 24.6081V32.7013H19.4894V20.9758C19.4891 20.4252 19.5959 19.88 19.8034 19.3711C20.011 18.8623 20.3154 18.4 20.6991 18.0106C21.0828 17.6212 21.5383 17.3125 22.0398 17.1016C22.5412 16.891 23.0786 16.7827 23.6212 16.7828H24.3214C24.8642 16.7827 25.4017 16.891 25.9032 17.1016C26.4046 17.3125 26.8602 17.6212 27.244 18.0106C27.6277 18.4 27.9322 18.8623 28.1399 19.3711C28.3476 19.88 28.4543 20.4252 28.4541 20.9758V52.4091C31.0049 52.4091 33.5305 51.8994 35.887 50.9089C38.2436 49.9186 40.3848 48.4671 42.1883 46.637C43.9919 44.8069 45.4226 42.6344 46.3986 40.2433C47.3747 37.8523 47.8769 35.2894 47.8769 32.7013V24.6081C47.8907 18.1213 45.3732 11.8928 40.8748 7.28367C38.6676 5.00921 36.0362 3.20321 33.1341 1.97091C30.2321 0.738626 27.1174 0.104623 23.9714 0.105959Z" fill="white"/>
<path d="M24.3225 68.3247H23.6223C23.0796 68.3249 22.5423 68.2164 22.0408 68.0058C21.5396 67.7951 21.084 67.4862 20.7003 67.0968C20.3166 66.7076 20.0123 66.2454 19.8046 65.7368C19.5971 65.228 19.4902 64.6828 19.4904 64.1322V32.6992C16.9397 32.6991 14.4139 33.2086 12.0573 34.1989C9.70076 35.1892 7.55958 36.6407 5.75597 38.4708C3.95236 40.3009 2.52166 42.4736 1.54566 44.8647C0.569652 47.2558 0.0674402 49.8186 0.0676597 52.4067V60.3874C0.035302 63.5935 0.629731 66.7745 1.81656 69.7461C3.0034 72.7178 4.75908 75.4212 6.98208 77.7C9.20509 79.9789 11.8513 81.7879 14.7677 83.0226C17.684 84.257 20.8128 84.8929 23.9728 84.8929C27.1328 84.8929 30.2614 84.257 33.1778 83.0226C36.0941 81.7879 38.7405 79.9789 40.9634 77.7C43.1864 75.4212 44.9421 72.7178 46.1288 69.7461C47.3157 66.7745 47.9101 63.5935 47.8778 60.3874V52.4067H28.4552V64.1322C28.4552 64.6828 28.3482 65.228 28.1405 65.7368C27.9328 66.2454 27.6283 66.7077 27.2446 67.0971C26.8609 67.4865 26.4052 67.7951 25.9038 68.0058C25.4025 68.2164 24.8651 68.3249 24.3225 68.3247Z" fill="white"/>
</g>
<defs>
<clipPath id="clip0_194_3147">
<rect width="48" height="85" fill="white"/>
</clipPath>
</defs>
</svg>
