<svg width="111" height="32" viewBox="0 0 111 32" fill="none" xmlns="http://www.w3.org/2000/svg">
<path d="M29.2039 31.3186H24.6523V9.16943H29.2039V31.3186Z" fill="white"/>
<path d="M45.6511 8.73438C48.1638 8.73438 50.2164 9.61539 51.8069 11.3775C53.395 13.1395 54.1914 15.3799 54.1914 18.0962V31.3161H49.6398V18.7895C49.6398 17.0847 49.0906 15.6751 47.9921 14.5629C46.8937 13.4508 45.5367 12.8947 43.9188 12.8947C42.0973 12.8947 40.6098 13.4508 39.4542 14.5629C38.2986 15.6751 37.7196 17.0847 37.7196 18.7895V31.3161H33.168V9.16916H37.7196V14.8901C38.326 12.9839 39.3306 11.4805 40.7334 10.382C42.1339 9.28359 43.7747 8.73438 45.6534 8.73438H45.6511Z" fill="white"/>
<path d="M68.3811 8.73438C71.935 8.73438 74.8252 10.0067 77.0495 12.5491C79.2738 15.0938 80.1846 18.1694 79.7796 21.7827H61.445C61.7631 23.5746 62.5869 25.0277 63.9165 26.1398C65.246 27.252 66.8479 27.8081 68.7267 27.8081C70.1706 27.8081 71.4636 27.4534 72.6055 26.7462C73.7474 26.0391 74.6353 25.078 75.2714 23.8629L79.0862 25.554C78.1045 27.4328 76.7017 28.9339 74.8824 30.0621C73.0632 31.1903 70.967 31.7532 68.5962 31.7532C65.2735 31.7532 62.484 30.6548 60.2299 28.4602C57.9759 26.2657 56.8477 23.5334 56.8477 20.2678C56.8477 17.0023 57.953 14.2654 60.1635 12.0526C62.3741 9.84195 65.111 8.73666 68.3788 8.73666L68.3811 8.73438ZM68.3811 12.6796C66.7037 12.6796 65.2529 13.1922 64.024 14.2196C62.7952 15.2448 61.9782 16.5813 61.5755 18.2289H75.1868C74.8115 16.5813 74.0083 15.2448 72.7817 14.2196C71.5528 13.1945 70.086 12.6796 68.3811 12.6796Z" fill="white"/>
<path d="M92.3639 8.73438C95.023 8.73438 97.1901 9.42776 98.8651 10.8145C100.54 12.2013 101.38 14.1968 101.38 16.7964V31.3184H96.8285V25.4236C95.4692 29.6433 92.7392 31.7532 88.6361 31.7532C86.7276 31.7532 85.1394 31.1834 83.8671 30.0415C82.5948 28.8996 81.9609 27.4053 81.9609 25.5563C81.9609 23.3892 82.7252 21.7622 84.2584 20.6797C85.7893 19.5973 87.7413 18.9246 90.1098 18.6637L94.4005 18.2289C96.0184 18.0847 96.8285 17.3616 96.8285 16.0618C96.8285 14.9931 96.4166 14.1396 95.5928 13.5057C94.7689 12.8695 93.6934 12.5514 92.3639 12.5514C91.0343 12.5514 89.8558 12.8993 88.9176 13.5926C87.9793 14.286 87.3798 15.2975 87.1189 16.627L82.6108 15.5423C83.0158 13.4622 84.0982 11.8077 85.8626 10.5788C87.6246 9.35224 89.7917 8.73666 92.3639 8.73666V8.73438ZM90.1098 28.0666C91.9886 28.0666 93.5767 27.4373 94.8765 26.181C96.1763 24.9247 96.8262 23.4578 96.8262 21.7805V20.5676C96.4807 21.1466 95.6408 21.5059 94.3113 21.65L90.1075 22.1695C89.0091 22.3159 88.1349 22.6386 87.485 23.1443C86.8351 23.6501 86.5102 24.3366 86.5102 25.2039C86.5102 26.0712 86.8351 26.7646 87.485 27.284C88.1349 27.8035 89.0091 28.0644 90.1075 28.0644L90.1098 28.0666Z" fill="white"/>
<path d="M21.5155 31.3186H0.492188V9.16943H5.30236V27.0279H21.5155V31.3186Z" fill="white"/>
<path d="M105.67 8.73426C108.039 8.73426 109.96 6.81324 109.96 4.44354C109.96 2.07385 108.039 0.152832 105.67 0.152832C103.3 0.152832 101.379 2.07385 101.379 4.44354C101.379 6.81324 103.3 8.73426 105.67 8.73426Z" fill="white"/>
</svg>
