<svg width="759" height="176" viewBox="0 0 759 176" fill="none" xmlns="http://www.w3.org/2000/svg">
<g clip-path="url(#clip0_869_16)">
<path d="M71.9534 16.36C76.4711 16.36 80.1334 12.6977 80.1334 8.18001C80.1334 3.66232 76.4711 0 71.9534 0C67.4357 0 63.7734 3.66232 63.7734 8.18001C63.7734 12.6977 67.4357 16.36 71.9534 16.36Z" fill="white"/>
<path d="M46.954 130.88L21.114 116.5V57.5401L53.444 40.5901V160.15L3.30397 129.46C3.30397 129.46 0.0239624 127.75 0.0239624 123.26C0.0239624 118.77 0.0239624 51.4801 0.0239624 51.4801C0.0239624 51.4801 -0.546035 47.2101 3.87396 44.7201C8.29396 42.2301 64.544 9.33008 64.544 9.33008L66.614 14.3701C66.614 14.3701 12.944 45.4501 8.66396 48.2201C6.88396 49.3701 5.51396 50.3301 5.51396 53.2001C5.51396 56.1801 5.50396 107.84 5.50396 120.62C5.50396 123.13 5.72396 124.02 7.77396 125.81C9.67396 127.45 46.934 150.09 46.934 150.09L46.954 130.88Z" fill="white"/>
<path d="M70.6331 175.57C75.1508 175.57 78.8131 171.908 78.8131 167.39C78.8131 162.872 75.1508 159.21 70.6331 159.21C66.1154 159.21 62.4531 162.872 62.4531 167.39C62.4531 171.908 66.1154 175.57 70.6331 175.57Z" fill="white"/>
<path d="M95.6248 44.6899L121.475 59.0699V118.03L89.1448 134.98V15.4199L139.275 46.1099C139.275 46.1099 142.555 47.8199 142.555 52.3099C142.555 56.7999 142.555 124.09 142.555 124.09C142.555 124.09 143.125 128.36 138.705 130.85C134.295 133.34 78.0348 166.24 78.0348 166.24L75.9648 161.2C75.9648 161.2 129.635 130.12 133.915 127.35C135.695 126.2 137.065 125.24 137.065 122.37C137.065 119.39 137.075 67.7299 137.075 54.9499C137.075 52.4399 136.855 51.5499 134.805 49.7599C132.905 48.1199 95.6449 25.4799 95.6449 25.4799L95.6248 44.6899Z" fill="white"/>
<path d="M89.1436 134.98L53.4336 94.6398V40.5898L89.1436 80.9899V134.98Z" fill="white"/>
<path d="M212.303 127.28L163.053 45.99H191.663L241.103 127.28H212.303ZM163.043 127.28V53.7L186.633 92.36V127.28H163.043ZM241.093 119.56L217.503 80.72V45.98H241.093V119.56Z" fill="white"/>
<path d="M254.262 127.28V45.9897H281.342V82.3197H306.342V98.3097H281.342V127.29H254.262V127.28ZM299.842 72.9397V62.2197H285.632V45.9897H326.922V72.9498H299.842V72.9397Z" fill="white"/>
<path d="M337.273 63.6897V45.9897H407.843V63.6897H337.273ZM358.473 127.28V67.9198H386.653V127.28H358.473Z" fill="white"/>
<path d="M417.715 127.28L406.445 113.86V108.65H433.585V115.33H445.595V127.28H417.715ZM449.875 127.28V102.71H420.595L406.505 89.1697V76.7997L421.145 62.2197H431.985V85.1897H462.865L476.955 99.3997V112.08L461.825 127.27H449.875V127.28ZM449.875 79.2497V74.1697H436.275V62.2197H465.065L474.745 71.8997V79.2497H449.875Z" fill="white"/>
<path d="M487.184 127.28V98.12L504.524 81.82H536.564V45.98H547.404L563.634 62.21V82.3L547.404 98.53H514.264V127.26H487.184V127.28ZM487.184 72.45V62.22L503.484 45.99H532.274V60.63H514.264V72.45H487.184ZM518.544 127.28V112.64H563.634V127.28H518.544Z" fill="white"/>
<path d="M563.634 62.22V82.31L547.404 98.55H514.254V127.28H487.184V98.12L504.514 81.82H536.554V45.98H547.404L563.634 62.22Z" fill="white"/>
<path d="M576.562 127.28V53.5197L601.863 95.9697V127.27H576.562V127.28ZM624.833 127.28L576.622 45.9897H605.413L627.223 82.1297L644.372 52.7197V93.6398L624.833 127.28ZM648.353 127.28V45.9897H675.433V127.28H648.353Z" fill="white"/>
<path d="M703.925 127.28L687.695 111.05V78.46L703.925 62.23H714.765V127.29H703.925V127.28ZM719.055 101.18V89.85H733.325V78.46H719.055V62.23H742.025L758.255 78.46V101.19H719.055V101.18ZM719.055 127.28V112.09H755.445V119.14L747.355 127.29H719.055V127.28Z" fill="white"/>
</g>
<defs>
<clipPath id="clip0_869_16">
<rect width="758.254" height="175.57" fill="white"/>
</clipPath>
</defs>
</svg>
