<svg width="218" height="40" viewBox="0 0 218 40" fill="none" xmlns="http://www.w3.org/2000/svg">
<g clip-path="url(#clip0_738_352)">
<mask id="mask0_738_352" style="mask-type:luminance" maskUnits="userSpaceOnUse" x="0" y="0" width="218" height="40">
<path d="M217.325 0H0V40H217.325V0Z" fill="white"/>
</mask>
<g mask="url(#mask0_738_352)">
<path d="M49.9026 16.0816C50.1483 15.499 50.5422 14.9909 51.045 14.6077C51.5593 14.2364 52.1815 14.0449 52.8155 14.0626C53.1235 14.0598 53.4304 14.1009 53.7268 14.1847C53.9823 14.2581 54.2189 14.3861 54.4202 14.5597C54.5736 14.6843 54.7074 14.8313 54.817 14.9958C54.9338 15.182 55.0289 15.381 55.1004 15.5888C55.2248 15.3806 55.371 15.1861 55.5365 15.0088C55.6897 14.8431 55.8625 14.6967 56.051 14.5728C56.293 14.4074 56.5593 14.2808 56.8403 14.1978C57.1533 14.1062 57.4779 14.0607 57.804 14.0626C58.2234 14.0601 58.6388 14.1432 59.025 14.3068C59.4141 14.4734 59.7558 14.7342 60.0192 15.0655C60.3232 15.4767 60.5439 15.9433 60.6689 16.4391C60.8394 17.1041 60.9186 17.7892 60.9044 18.4755V28.8146H57.5075V18.4625C57.5131 18.2326 57.4837 18.0032 57.4203 17.7822C57.3745 17.6223 57.2958 17.4738 57.1892 17.3461C57.0924 17.2512 56.9743 17.1809 56.8447 17.1412C56.7177 17.101 56.5854 17.0804 56.4522 17.0801C56.3238 17.0779 56.1959 17.0956 56.0728 17.1325C55.9627 17.1694 55.8574 17.2192 55.7589 17.2807C55.6783 17.3403 55.6064 17.4107 55.5452 17.49C55.479 17.5673 55.4246 17.654 55.3839 17.7473V28.8146H52.109V18.4494C52.1151 18.2201 52.0887 17.991 52.0305 17.7691C51.9905 17.6105 51.9177 17.4619 51.8169 17.3331C51.722 17.2401 51.6072 17.17 51.4811 17.1281C51.3513 17.0875 51.216 17.0668 51.0799 17.0671C50.9384 17.0646 50.7979 17.0908 50.6668 17.144C50.5357 17.1972 50.4166 17.2764 50.3168 17.3767C50.2431 17.452 50.18 17.5371 50.1293 17.6296C50.0745 17.7325 50.0264 17.8388 49.9854 17.9479V28.8146H46.6016V14.333H49.7979L49.9026 16.0816Z" fill="white"/>
<path d="M71.0793 26.7607C70.623 27.451 70.0181 28.0306 69.3089 28.457C68.6248 28.8648 67.8421 29.0774 67.0457 29.0719C66.3446 29.0808 65.6475 28.9641 64.9875 28.7274C64.367 28.4988 63.8148 28.1162 63.3828 27.6154C62.9036 27.0574 62.5497 26.4032 62.345 25.6967C62.082 24.783 61.9585 23.8348 61.9787 22.8841V14.333H65.694V22.9103C65.6866 23.4089 65.7289 23.907 65.8204 24.3973C65.8833 24.7438 66.0234 25.0716 66.2303 25.3566C66.4148 25.6052 66.6702 25.7921 66.9629 25.893C67.3221 26.0076 67.6979 26.0621 68.0749 26.0543C68.4317 26.0568 68.7875 26.0158 69.1345 25.9322C69.4307 25.8623 69.7135 25.7444 69.9717 25.5834C70.1769 25.4523 70.3607 25.2905 70.5168 25.1037C70.6811 24.9129 70.8203 24.7018 70.9311 24.4758V14.333H74.6638V28.8146H71.293L71.0793 26.7607Z" fill="white"/>
<path d="M76.2648 18.4499C76.5051 17.6034 76.9015 16.8092 77.4335 16.1083C77.927 15.473 78.5575 14.9572 79.278 14.5995C80.0408 14.2333 80.8783 14.0496 81.7243 14.0632C82.1761 14.0591 82.6268 14.1074 83.0674 14.207C83.729 14.3574 84.345 14.6639 84.864 15.101C85.0796 15.2849 85.2767 15.4893 85.4527 15.7115L85.6009 14.3335H88.9804V28.3267C88.997 29.2243 88.8262 30.1154 88.4789 30.9431C88.1641 31.6858 87.6874 32.3488 87.0835 32.8836C86.4454 33.4257 85.7035 33.8322 84.9032 34.0784C84.0109 34.3547 83.0813 34.4915 82.1473 34.4839C81.6763 34.4791 81.2065 34.4339 80.7432 34.3488C80.2373 34.2566 79.741 34.1179 79.2606 33.9345C78.7724 33.7471 78.306 33.5073 77.8695 33.2194C77.4411 32.9378 77.0624 32.5871 76.7489 32.1815L78.419 29.9227C78.6503 30.1931 78.9106 30.4373 79.1952 30.651C79.4635 30.8579 79.7564 31.0307 80.0673 31.1655C80.3599 31.3008 80.6672 31.4018 80.983 31.4664C81.3054 31.5356 81.6344 31.5692 81.9642 31.5667C82.4576 31.5753 82.9489 31.4986 83.4162 31.3399C83.8177 31.2053 84.181 30.9766 84.4759 30.6728C84.7438 30.3896 84.9476 30.0519 85.0733 29.6829C85.2131 29.2611 85.2824 28.8191 85.2782 28.3747V27.5462C85.1038 27.7382 84.9158 27.9175 84.7157 28.0826C84.5183 28.2443 84.3083 28.3901 84.0878 28.5186C83.7447 28.707 83.3801 28.8534 83.002 28.9547C82.5833 29.053 82.1544 29.1013 81.7243 29.0986C80.8832 29.1134 80.0511 28.9233 79.2998 28.5448C78.5823 28.1746 77.9543 27.6522 77.4596 27.0142C76.9294 26.3202 76.5331 25.5335 76.291 24.6943C76.013 23.7472 75.8763 22.7642 75.8855 21.7771V21.4936C75.8622 20.466 75.99 19.4405 76.2648 18.4499ZM79.7533 23.4254C79.8578 23.9076 80.0451 24.3679 80.3071 24.7859C80.5453 25.1647 80.8714 25.4803 81.2577 25.706C81.6732 25.9371 82.1429 26.0531 82.6182 26.0418C82.9117 26.0431 83.2043 26.0109 83.4904 25.9458C83.7392 25.8884 83.9796 25.799 84.2055 25.6798C84.4219 25.5639 84.6203 25.417 84.7942 25.2438C84.9635 25.0617 85.11 24.8596 85.2303 24.642V18.5371C85.1028 18.2971 84.9413 18.0768 84.7506 17.883C84.5634 17.7022 84.3466 17.5547 84.1096 17.447C83.8944 17.3442 83.6674 17.268 83.4337 17.2202C83.1731 17.1626 82.9069 17.1348 82.6401 17.1374C82.1626 17.124 81.6906 17.2417 81.2752 17.4775C80.8885 17.7065 80.5624 18.025 80.3246 18.4063C80.0547 18.8364 79.8614 19.31 79.7533 19.8061C79.6243 20.3636 79.5613 20.9344 79.5658 21.5067V21.7902C79.5713 22.341 79.6386 22.8895 79.7664 23.4254H79.7533Z" fill="white"/>
<path d="M94.5853 28.5138C93.7138 28.1724 92.9181 27.6627 92.2436 27.0138C91.5936 26.3897 91.0812 25.6366 90.7392 24.8029C90.3854 23.935 90.2061 23.006 90.2116 22.0688V21.5368C90.1985 20.5045 90.3759 19.4786 90.7348 18.5105C91.0553 17.6427 91.5444 16.8469 92.1738 16.1689C92.7985 15.5069 93.5545 14.9827 94.3934 14.6296C95.2763 14.2575 96.2261 14.0705 97.1842 14.0801C98.1384 14.0642 99.0861 14.2407 99.9706 14.5991C100.762 14.923 101.472 15.4173 102.051 16.0468C102.63 16.6994 103.066 17.4658 103.333 18.2969C103.635 19.2362 103.783 20.2186 103.769 21.2054V22.784H93.9835V22.8232C94.0731 23.3096 94.2348 23.7799 94.4632 24.2186C94.6672 24.5815 94.9345 24.9049 95.2524 25.1736C95.5932 25.4718 95.9866 25.704 96.4124 25.8582C96.8717 26.02 97.3556 26.1011 97.8427 26.098C98.5735 26.0912 99.2961 25.9431 99.9706 25.662C100.628 25.4037 101.204 24.9747 101.641 24.4192L103.498 26.4207C102.902 27.1937 102.133 27.8165 101.253 28.2391C100.126 28.807 98.8769 29.0871 97.6159 29.0545C96.5805 29.0692 95.5518 28.8857 94.5853 28.5138ZM96.0286 17.2939C95.6831 17.4371 95.3724 17.6527 95.1173 17.9262C94.8421 18.2174 94.6167 18.5518 94.4501 18.9161C94.2627 19.3247 94.1279 19.7555 94.0489 20.1981H100.154V19.9059C100.157 19.5248 100.084 19.1469 99.9401 18.794C99.8055 18.4569 99.6071 18.1489 99.3558 17.887C99.0929 17.6305 98.7816 17.4289 98.4401 17.2939C98.0413 17.1391 97.6162 17.0636 97.1886 17.0715C96.7907 17.0647 96.3957 17.1404 96.0286 17.2939Z" fill="white"/>
<path d="M104.975 14.3331H108.342L108.573 16.339C108.751 16.0736 108.956 15.8268 109.183 15.6021C109.402 15.3827 109.638 15.1815 109.89 15.0003C110.318 14.6963 110.792 14.4623 111.294 14.307C111.817 14.1424 112.363 14.06 112.911 14.0628C113.592 14.0557 114.269 14.1648 114.913 14.3855C115.512 14.5948 116.053 14.943 116.492 15.4015C116.957 15.925 117.305 16.542 117.512 17.2111C117.779 18.0793 117.904 18.9849 117.883 19.8929V28.8148H114.167V19.9452C114.181 19.4681 114.115 18.992 113.971 18.5368C113.871 18.2127 113.686 17.921 113.437 17.6912C113.187 17.4614 112.881 17.3018 112.55 17.2286C112.172 17.1408 111.786 17.0983 111.398 17.1021C111.067 17.0983 110.737 17.1394 110.417 17.2242C110.133 17.2972 109.865 17.4197 109.624 17.5861C109.434 17.7073 109.263 17.8541 109.113 18.0222C108.95 18.1843 108.804 18.3626 108.677 18.5542V28.8148H104.949L104.975 14.3331Z" fill="white"/>
<path d="M119.861 24.8906C120.109 24.6445 120.407 24.4537 120.733 24.3304C121.06 24.2072 121.409 24.1544 121.758 24.1754C122.105 24.1565 122.453 24.2095 122.778 24.3311C123.104 24.4527 123.401 24.6402 123.651 24.8818C123.875 25.1122 124.052 25.3852 124.169 25.6847C124.287 25.9843 124.343 26.3044 124.335 26.6261C124.347 26.9498 124.291 27.2725 124.17 27.573C124.049 27.8735 123.866 28.1452 123.633 28.3703C123.109 28.8167 122.443 29.0618 121.754 29.0618C121.065 29.0618 120.399 28.8167 119.874 28.3703C119.643 28.144 119.462 27.872 119.342 27.5717C119.222 27.2714 119.165 26.9493 119.177 26.6261C119.17 26.3058 119.227 25.9874 119.344 25.6894C119.462 25.3914 119.638 25.1199 119.861 24.8906Z" fill="white"/>
<path d="M126.873 15.9504H122.918V14.3326H126.873V13.2511C126.856 12.4079 127.005 11.5695 127.309 10.783C127.568 10.1299 127.976 9.54602 128.5 9.07799C129.016 8.62419 129.624 8.28795 130.283 8.0925C131.013 7.87217 131.771 7.76337 132.533 7.7698C132.847 7.7698 133.157 7.76981 133.462 7.81778C133.767 7.86574 134.073 7.88754 134.365 7.93114C134.657 7.97475 134.823 8.00528 135.049 8.04889C135.276 8.0925 135.485 8.14918 135.73 8.21023L135.49 9.9196C135.079 9.79758 134.661 9.70288 134.238 9.63615C133.755 9.5572 133.267 9.51928 132.778 9.52278C132.241 9.5137 131.705 9.57825 131.186 9.71465C130.745 9.83237 130.338 10.0503 129.995 10.3513C129.638 10.6701 129.367 11.0735 129.206 11.5243C129.007 12.0836 128.912 12.675 128.927 13.2686V14.35H134.596V15.9678H128.927V28.8098H126.856L126.873 15.9504Z" fill="white"/>
<path d="M144.249 14.3329V27.0136H149.072V28.8145H137.207V27.0354H142.217V16.1338H137.207V14.346L144.249 14.3329ZM141.916 9.90687C141.973 9.74242 142.067 9.59324 142.191 9.47081C142.306 9.35799 142.445 9.27167 142.597 9.21788C142.78 9.15365 142.974 9.12264 143.168 9.12631C143.365 9.12235 143.561 9.15335 143.748 9.21788C143.9 9.27167 144.038 9.35799 144.153 9.47081C144.277 9.59324 144.371 9.74242 144.428 9.90687C144.486 10.0842 144.516 10.2697 144.515 10.4563C144.526 10.7892 144.409 11.1136 144.188 11.3633C144.056 11.4973 143.897 11.6003 143.72 11.6652C143.544 11.73 143.355 11.755 143.168 11.7383C142.981 11.7559 142.793 11.7313 142.617 11.6664C142.441 11.6015 142.282 11.4979 142.152 11.3633C141.936 11.1112 141.821 10.7881 141.829 10.4563C141.829 10.2697 141.858 10.0842 141.916 9.90687Z" fill="white"/>
<path d="M150.52 14.3334H152.351L152.469 16.8059C152.69 16.4524 152.941 16.1184 153.219 15.8073C153.488 15.5073 153.793 15.2408 154.126 15.0137C154.568 14.7185 155.05 14.4865 155.556 14.3247C156.089 14.1587 156.643 14.0706 157.2 14.0631C157.91 14.0534 158.616 14.1701 159.285 14.4075C159.882 14.622 160.418 14.9763 160.85 15.441C161.293 15.9375 161.623 16.5235 161.818 17.1591C162.058 17.9399 162.173 18.7538 162.158 19.5705V28.815H160.131V19.6098C160.141 19.0364 160.066 18.4648 159.908 17.9135C159.782 17.4708 159.555 17.0633 159.246 16.723C158.94 16.4146 158.567 16.1816 158.155 16.0428C157.667 15.8823 157.156 15.8056 156.642 15.816C156.159 15.8122 155.68 15.8934 155.225 16.0558C154.791 16.2113 154.382 16.4271 154.008 16.6969C153.686 16.9539 153.393 17.2464 153.136 17.569C152.882 17.9032 152.674 18.2698 152.517 18.6591V28.815H150.52V14.3334Z" fill="white"/>
<path d="M173.719 27.9424C173.665 27.6147 173.629 27.2843 173.61 26.9526C173.342 27.2762 173.037 27.5687 172.703 27.8247C172.359 28.0857 171.988 28.3093 171.596 28.4919C171.176 28.6818 170.737 28.8279 170.288 28.9279C169.815 29.0385 169.33 29.0926 168.844 29.0893C168.17 29.0967 167.499 28.9905 166.86 28.7753C166.295 28.5858 165.771 28.2898 165.316 27.9032C164.882 27.5504 164.535 27.1029 164.3 26.595C164.058 26.0673 163.936 25.4924 163.943 24.9118C163.923 24.1764 164.101 23.4491 164.457 22.8056C164.801 22.2113 165.285 21.7098 165.866 21.3448C166.525 20.9487 167.246 20.6658 167.998 20.5076C168.869 20.3184 169.758 20.2262 170.65 20.2328H173.562V18.8592C173.57 18.4081 173.476 17.961 173.288 17.5511C173.11 17.1744 172.853 16.8411 172.533 16.5743C172.182 16.3059 171.785 16.1048 171.36 15.9812C170.873 15.841 170.368 15.7719 169.86 15.7763C169.388 15.7712 168.918 15.8359 168.465 15.9681C168.067 16.0826 167.69 16.2608 167.349 16.4958C167.04 16.7142 166.783 16.9969 166.594 17.3243C166.415 17.6369 166.316 17.9889 166.306 18.349H164.261C164.273 17.781 164.423 17.2244 164.697 16.7269C164.993 16.1939 165.395 15.7278 165.879 15.3577C166.418 14.9522 167.021 14.6397 167.662 14.4332C168.399 14.1942 169.169 14.0764 169.943 14.0844C170.692 14.0794 171.437 14.1792 172.158 14.3809C172.807 14.5506 173.416 14.847 173.951 15.253C174.459 15.6541 174.868 16.1675 175.145 16.7531C175.45 17.4094 175.599 18.1271 175.581 18.8505V25.7054C175.593 26.2052 175.639 26.7035 175.721 27.1968C175.8 27.6739 175.914 28.1446 176.061 28.6052V28.8145H173.924C173.826 28.5316 173.758 28.2394 173.719 27.9424ZM170.571 27.0703C171.018 26.9465 171.448 26.7694 171.853 26.5427C172.218 26.3281 172.552 26.0656 172.847 25.7621C173.128 25.4676 173.361 25.1306 173.536 24.7635V21.7111H170.92C170.166 21.7047 169.414 21.7748 168.674 21.9204C168.076 22.0252 167.507 22.2556 167.004 22.5963C166.674 22.8189 166.403 23.1181 166.215 23.4684C166.02 23.8343 165.922 24.2443 165.931 24.6589C165.928 25.0311 166.004 25.3997 166.154 25.7403C166.295 26.0631 166.512 26.3472 166.786 26.5688C167.083 26.8092 167.421 26.9925 167.785 27.1095C168.207 27.2469 168.649 27.3132 169.093 27.3058C169.594 27.2961 170.092 27.2169 170.571 27.0703Z" fill="white"/>
<path d="M177.897 14.3334H179.741L179.859 16.8059C180.08 16.4524 180.331 16.1184 180.609 15.8073C180.879 15.5073 181.183 15.2408 181.516 15.0137C181.959 14.7185 182.44 14.4865 182.946 14.3247C183.479 14.1587 184.033 14.0706 184.59 14.0631C185.3 14.0534 186.006 14.1701 186.675 14.4075C187.272 14.622 187.809 14.9763 188.24 15.441C188.683 15.9375 189.013 16.5235 189.208 17.1591C189.448 17.9399 189.563 18.7538 189.548 19.5705V28.815H187.521V19.6098C187.531 19.0364 187.456 18.4648 187.298 17.9135C187.172 17.4708 186.946 17.0633 186.636 16.723C186.33 16.4146 185.957 16.1816 185.545 16.0428C185.057 15.8823 184.546 15.8056 184.032 15.816C183.549 15.8122 183.07 15.8934 182.615 16.0558C182.181 16.2113 181.772 16.4271 181.398 16.6969C181.075 16.9527 180.782 17.2454 180.526 17.569C180.272 17.9032 180.064 18.2698 179.907 18.6591V28.815H177.875L177.897 14.3334Z" fill="white"/>
<path d="M199.009 27.1574C199.447 27.0169 199.855 26.7966 200.213 26.5077C200.567 26.2482 200.863 25.9187 201.085 25.5396C201.304 25.1529 201.426 24.7192 201.442 24.275H203.37C203.346 24.9313 203.167 25.5726 202.846 26.1457C202.526 26.7269 202.095 27.2396 201.577 27.6545C201.031 28.1014 200.412 28.4496 199.746 28.6836C199.057 28.9359 198.329 29.0629 197.596 29.0586C196.622 29.0818 195.657 28.8788 194.775 28.4656C193.997 28.0887 193.314 27.5435 192.773 26.8696C192.23 26.184 191.819 25.4033 191.561 24.5672C191.289 23.6831 191.153 22.7625 191.16 21.8374V21.2793C191.156 20.3569 191.293 19.4395 191.565 18.5582C191.824 17.7172 192.235 16.9308 192.778 16.2384C193.321 15.5709 194.004 15.0306 194.779 14.6555C195.656 14.2417 196.618 14.0372 197.587 14.0581C198.368 14.0512 199.144 14.1856 199.877 14.4549C200.546 14.6996 201.165 15.0647 201.704 15.532C202.208 16.0015 202.617 16.5642 202.907 17.189C203.204 17.8354 203.363 18.5363 203.374 19.2472H201.438C201.42 18.7724 201.309 18.3057 201.111 17.8736C200.919 17.4613 200.649 17.0897 200.317 16.7791C199.969 16.4523 199.56 16.1974 199.114 16.0291C198.632 15.8474 198.12 15.7572 197.605 15.7631C196.894 15.7384 196.19 15.9072 195.568 16.2515C195.025 16.5622 194.559 16.9933 194.208 17.5117C193.855 18.0566 193.6 18.6586 193.454 19.2908C193.299 19.9437 193.221 20.6126 193.222 21.2836V21.8374C193.22 22.5157 193.298 23.1919 193.454 23.852C193.601 24.4813 193.856 25.0803 194.208 25.6225C194.539 26.1443 194.989 26.5806 195.52 26.8958C196.156 27.2335 196.868 27.3989 197.587 27.3754C198.07 27.3765 198.549 27.303 199.009 27.1574Z" fill="white"/>
<path d="M208.775 28.5181C207.963 28.1737 207.23 27.6661 206.621 27.0268C206.015 26.3787 205.541 25.6189 205.226 24.7898C204.886 23.9046 204.712 22.9646 204.711 22.0164V21.4539C204.706 20.4249 204.889 19.4036 205.252 18.4407C205.58 17.5792 206.068 16.7876 206.691 16.1078C207.272 15.4699 207.977 14.9566 208.762 14.599C209.538 14.2426 210.381 14.0596 211.235 14.0626C212.143 14.0454 213.043 14.227 213.873 14.5946C214.613 14.9277 215.268 15.4224 215.792 16.0423C216.31 16.6887 216.7 17.429 216.939 18.2227C217.204 19.0975 217.335 20.0077 217.327 20.9219V21.9641H206.743V22.2301C206.784 22.913 206.931 23.5854 207.179 24.2229C207.405 24.8028 207.733 25.3374 208.148 25.8014C208.574 26.281 209.095 26.6671 209.678 26.9352C210.296 27.2201 210.968 27.3688 211.649 27.3713C212.471 27.3838 213.284 27.2062 214.026 26.8523C214.723 26.5102 215.335 26.0171 215.818 25.409L217.074 26.3814C216.503 27.175 215.757 27.8257 214.893 28.2826C213.861 28.8208 212.708 29.0865 211.544 29.0544C210.594 29.0676 209.652 28.8851 208.775 28.5181ZM209.648 16.0816C209.156 16.296 208.711 16.6058 208.339 16.993C207.936 17.4106 207.607 17.8944 207.367 18.4233C207.104 19.0098 206.926 19.6309 206.839 20.2678H215.312V20.1326C215.308 19.5931 215.213 19.0581 215.033 18.5497C214.86 18.0258 214.593 17.538 214.244 17.1107C213.896 16.7044 213.468 16.3734 212.988 16.1383C212.445 15.8759 211.847 15.7473 211.244 15.7633C210.691 15.7572 210.143 15.8656 209.634 16.0816H209.648Z" fill="white"/>
<path d="M20.0027 39.9995C16.0462 40.0004 12.1784 38.8279 8.88838 36.6304C5.59837 34.4328 3.03397 31.309 1.51951 27.6539C0.00505507 23.9988 -0.391423 19.9766 0.380226 16.0962C1.15187 12.2157 3.05698 8.65125 5.8546 5.85363C8.65222 3.05601 12.2167 1.1509 16.0971 0.37925C19.9776 -0.3924 23.9997 0.00407863 27.6548 1.51854C31.3099 3.033 34.4338 5.5974 36.6313 8.88741C38.8289 12.1775 40.0013 16.0453 40.0005 20.0017C39.9936 25.3033 37.8844 30.3858 34.1356 34.1347C30.3868 37.8835 25.3043 39.9926 20.0027 39.9995ZM20.0027 1.30768C16.3052 1.30682 12.6904 2.40247 9.61563 4.45607C6.54084 6.50966 4.14411 9.42897 2.72853 12.8448C1.31296 16.2606 0.942136 20.0195 1.66295 23.6461C2.38377 27.2726 4.16387 30.604 6.77809 33.2188C9.39231 35.8337 12.7233 37.6145 16.3497 38.3362C19.9761 39.0579 23.735 38.6879 27.1512 37.2731C30.5673 35.8584 33.4872 33.4623 35.5415 30.388C37.5958 27.3137 38.6923 23.6992 38.6923 20.0017C38.6865 15.0463 36.7157 10.2954 33.2121 6.79093C29.7085 3.2865 24.9581 1.31461 20.0027 1.30768Z" fill="white"/>
<path d="M14.4494 13.2383H10.3984L15.9059 20.0016L10.3984 26.7606H14.4494L19.9569 20.0016L14.4494 13.2383Z" fill="white"/>
<path d="M21.7411 30.9213H14.3281L23.2194 20.0197L14.3281 9.11816H21.7411L30.6325 20.0197L21.7411 30.9213ZM16.1683 30.0492H21.3269L29.5074 20.0197L21.3269 9.99029H16.1683L24.3488 20.0197L16.1683 30.0492Z" fill="white"/>
</g>
</g>
<defs>
<clipPath id="clip0_738_352">
<rect width="218" height="40" fill="white"/>
</clipPath>
</defs>
</svg>
