<svg width="437" height="108" viewBox="0 0 437 108" fill="none" xmlns="http://www.w3.org/2000/svg">
<path d="M53.9584 80.843C68.9163 80.843 81.0413 68.718 81.0413 53.76C81.0413 38.8024 68.9163 26.6768 53.9584 26.6768C39.0007 26.6768 26.875 38.8024 26.875 53.76C26.875 68.718 39.0007 80.843 53.9584 80.843Z" stroke="#F5F5F5" stroke-width="13" stroke-miterlimit="10" stroke-linecap="round"/>
<path d="M13.8203 83.759C7.40553 75.096 3.96113 64.592 4.00033 53.813C4.03963 43.0336 7.56033 32.5555 14.038 23.9395M83.799 94.14C75.139 100.572 64.631 104.031 53.8443 104C43.0571 103.969 32.5694 100.449 23.9474 93.966M94.047 24.0845C100.493 32.7209 103.975 43.2092 103.975 53.986C103.975 64.763 100.493 75.251 94.047 83.888M24.141 13.889C32.7991 7.44463 43.3104 3.97543 54.1036 4.00013C64.897 4.02483 75.392 7.54213 84.021 14.026" stroke="#F5F5F5" stroke-width="6.5" stroke-miterlimit="10"/>
<path d="M167.975 78.6004C169.975 78.6004 171.875 78.2334 173.675 77.5004C175.475 76.7674 177.075 75.6674 178.475 74.2004C179.875 72.7334 180.975 70.9334 181.775 68.8004C182.575 66.6674 182.975 64.2004 182.975 61.4004C182.975 58.6004 182.575 56.1674 181.775 54.1004C180.975 51.9674 179.875 50.1674 178.475 48.7004C177.075 47.2337 175.475 46.1337 173.675 45.4004C171.875 44.6671 169.975 44.3004 167.975 44.3004C165.975 44.3004 164.075 44.6671 162.275 45.4004C160.475 46.1337 158.875 47.2337 157.475 48.7004C156.075 50.1674 154.975 51.9674 154.175 54.1004C153.375 56.1674 152.975 58.6004 152.975 61.4004C152.975 64.2004 153.375 66.6674 154.175 68.8004C154.975 70.9334 156.075 72.7334 157.475 74.2004C158.875 75.6674 160.475 76.7674 162.275 77.5004C164.075 78.2334 165.975 78.6004 167.975 78.6004ZM167.975 35.9004C171.575 35.9004 174.875 36.5671 177.875 37.9004C180.875 39.1671 183.475 40.9337 185.675 43.2004C187.875 45.4671 189.575 48.1671 190.775 51.3004C191.975 54.3674 192.575 57.7334 192.575 61.4004C192.575 65.0674 191.975 68.4674 190.775 71.6004C189.575 74.7334 187.875 77.4334 185.675 79.7004C183.475 81.9674 180.875 83.7674 177.875 85.1004C174.875 86.3674 171.575 87.0004 167.975 87.0004C164.375 87.0004 161.075 86.3674 158.075 85.1004C155.075 83.7674 152.475 81.9674 150.275 79.7004C148.075 77.4334 146.375 74.7334 145.175 71.6004C143.975 68.4674 143.375 65.0674 143.375 61.4004C143.375 57.7334 143.975 54.3674 145.175 51.3004C146.375 48.1671 148.075 45.4671 150.275 43.2004C152.475 40.9337 155.075 39.1671 158.075 37.9004C161.075 36.5671 164.375 35.9004 167.975 35.9004ZM204.582 85.5004V37.4004H213.582V43.8004C215.116 41.1337 217.216 39.1671 219.882 37.9004C222.616 36.6337 225.382 36.0004 228.182 36.0004C231.182 36.0004 233.982 36.7337 236.582 38.2004C239.249 39.6671 241.249 41.9671 242.582 45.1004C244.516 41.6337 246.916 39.2671 249.782 38.0004C252.649 36.6671 255.616 36.0004 258.682 36.0004C260.749 36.0004 262.782 36.3671 264.782 37.1004C266.782 37.8337 268.549 38.9671 270.082 40.5004C271.682 41.9671 272.949 43.8671 273.882 46.2004C274.816 48.4671 275.282 51.1674 275.282 54.3004V85.5004H265.982V55.3004C265.982 52.1674 265.149 49.5674 263.482 47.5004C261.882 45.3671 259.316 44.3004 255.782 44.3004C252.449 44.3004 249.749 45.4671 247.682 47.8004C245.682 50.0674 244.682 52.9334 244.682 56.4004V85.5004H235.282V55.3004C235.282 52.1674 234.482 49.5674 232.882 47.5004C231.282 45.3671 228.682 44.3004 225.082 44.3004C221.682 44.3004 218.949 45.4337 216.882 47.7004C214.882 49.9674 213.882 52.9004 213.882 56.5004V85.5004H204.582ZM299.334 85.5004H289.934V37.4004H299.134V44.3004C300.867 41.3004 303.067 39.1671 305.734 37.9004C308.401 36.6337 311.134 36.0004 313.934 36.0004C316.801 36.0004 319.301 36.5004 321.434 37.5004C323.634 38.4337 325.434 39.7671 326.834 41.5004C328.301 43.1671 329.367 45.1671 330.034 47.5004C330.767 49.8334 331.134 52.3334 331.134 55.0004V85.5004H321.734V56.6004C321.734 54.9334 321.534 53.3674 321.134 51.9004C320.801 50.4334 320.167 49.1671 319.234 48.1004C318.367 46.9671 317.201 46.1004 315.734 45.5004C314.334 44.8337 312.601 44.5004 310.534 44.5004C308.667 44.5004 307.034 44.8671 305.634 45.6004C304.234 46.2671 303.067 47.2004 302.134 48.4004C301.201 49.6004 300.501 51.0004 300.034 52.6004C299.567 54.2004 299.334 55.9004 299.334 57.7004V85.5004ZM345.793 85.5004V37.4004H355.093V85.5004H345.793ZM343.693 19.2004C343.693 17.2671 344.327 15.6671 345.593 14.4004C346.927 13.0671 348.527 12.4004 350.393 12.4004C352.327 12.4004 353.927 13.0671 355.193 14.4004C356.527 15.6671 357.193 17.2671 357.193 19.2004C357.193 21.0671 356.527 22.6671 355.193 24.0004C353.927 25.2671 352.327 25.9004 350.393 25.9004C348.527 25.9004 346.927 25.2671 345.593 24.0004C344.327 22.6671 343.693 21.0671 343.693 19.2004ZM407.6 61.0004L390.3 37.4004H401.7L413.5 54.3004L425.1 37.4004H436.2L419.1 61.0004C419.567 61.6674 420.267 62.6334 421.2 63.9004C422.134 65.1674 423.167 66.6004 424.3 68.2004C425.5 69.8004 426.7 71.5004 427.9 73.3004C429.167 75.0334 430.367 76.7004 431.5 78.3004C432.7 79.9004 433.767 81.3334 434.7 82.6004C435.634 83.8674 436.334 84.8334 436.8 85.5004H425.5L413.1 67.8004L400.9 85.5004H389.7L407.6 61.0004Z" fill="#F5F5F5"/>
</svg>
