<svg width="70" height="70" viewBox="0 0 70 70" fill="none" xmlns="http://www.w3.org/2000/svg">
<g clip-path="url(#clip0_194_3140)">
<mask id="mask0_194_3140" style="mask-type:luminance" maskUnits="userSpaceOnUse" x="0" y="0" width="70" height="70">
<path d="M35.0022 69.2872C53.9387 69.2872 69.2896 53.9362 69.2896 34.9998C69.2896 16.0634 53.9387 0.712402 35.0022 0.712402C16.0658 0.712402 0.714844 16.0634 0.714844 34.9998C0.714844 53.9362 16.0658 69.2872 35.0022 69.2872Z" fill="white"/>
</mask>
<g mask="url(#mask0_194_3140)">
<path d="M72.5367 -2.53418H-2.53125V72.5338H72.5367V-2.53418Z" fill="url(#paint0_linear_194_3140)"/>
</g>
<path d="M44.9154 42.3989L54.616 36.7975C55.1298 36.5007 55.4476 35.9491 55.4476 35.3555V24.1541C55.4476 23.5619 55.1284 23.0089 54.616 22.7121L44.9154 17.1107C44.4016 16.8139 43.7646 16.8153 43.2508 17.1107L33.5502 22.7121C33.0364 23.0089 32.7186 23.5619 32.7186 24.1541V44.1727L25.916 48.0997L19.1134 44.1727V36.3173L25.916 32.3903L30.403 34.9803V29.7107L26.7476 27.6009C26.4956 27.4553 26.2072 27.3783 25.9146 27.3783C25.622 27.3783 25.3336 27.4553 25.083 27.6009L15.3824 33.2023C14.8686 33.4991 14.5508 34.0507 14.5508 34.6443V45.8457C14.5508 46.4379 14.87 46.9909 15.3824 47.2877L25.083 52.8891C25.5954 53.1845 26.2338 53.1845 26.7476 52.8891L36.4482 47.2891C36.962 46.9923 37.2798 46.4393 37.2798 45.8471V25.8285L37.403 25.7585L44.0824 21.9015L50.885 25.8285V33.6839L44.0824 37.6109L39.6024 35.0237V40.2933L43.2508 42.4003C43.7646 42.6957 44.4016 42.6957 44.9154 42.4003V42.3989Z" fill="white"/>
</g>
<defs>
<linearGradient id="paint0_linear_194_3140" x1="-16.2498" y1="3.63562" x2="61.2457" y2="51.0592" gradientUnits="userSpaceOnUse">
<stop stop-color="#A229C5"/>
<stop offset="1" stop-color="#7B3FE4"/>
</linearGradient>
<clipPath id="clip0_194_3140">
<rect width="70" height="70" fill="white"/>
</clipPath>
</defs>
</svg>
