<svg width="988" height="100" viewBox="0 0 988 100" fill="none" xmlns="http://www.w3.org/2000/svg">
<g clip-path="url(#clip0_608_33966)">
<path d="M957.046 40.3656C957.046 29.0669 951.041 23.457 939.426 23.457H921.332V77.3434H930.024V57.5903H935.239L947.091 77.3434H956.809L944.878 57.7483V57.1163C952.937 55.536 957.046 50.0842 957.046 40.6817V40.3656ZM948.434 40.6817C948.434 47.0817 946.537 49.5311 939.426 49.5311H930.024V31.5953H939.426C946.537 31.5953 948.434 33.8866 948.434 40.3656V40.6817Z" fill="white"/>
<path fill-rule="evenodd" clip-rule="evenodd" d="M938 95.9596C963.383 95.9596 983.96 75.3828 983.96 50C983.96 24.6172 963.383 4.0404 938 4.0404C912.617 4.0404 892.04 24.6172 892.04 50C892.04 75.3828 912.617 95.9596 938 95.9596ZM938 100C965.614 100 988 77.6142 988 50C988 22.3858 965.614 0 938 0C910.386 0 888 22.3858 888 50C888 77.6142 910.386 100 938 100Z" fill="white"/>
<path d="M0 98.142V1.78955H34.082C43.3607 1.78955 50.3762 3.87719 55.1287 8.05246C59.9265 12.1819 62.3253 18.2154 62.3253 26.153V29.3189C62.3253 35.0541 60.8996 39.6882 58.0481 43.2211C55.2419 46.7082 51.1683 48.8876 45.8274 49.7593V51.067C48.6789 51.8928 50.8967 52.9252 52.4809 54.164C54.1103 55.4028 55.3777 57.1005 56.2829 59.2569C57.2334 61.4134 58.0255 64.4186 58.6591 68.2727L60.4922 79.5597C61.3522 84.8821 62.2348 88.7132 63.14 91.0532C64.0453 93.3932 65.1768 95.1596 66.5347 96.3526L66.331 98.142H42.7723C41.867 96.536 41.1202 94.4714 40.5318 91.9479C39.9887 89.4244 39.4003 85.6162 38.7666 80.5233L37.6124 70.8192C37.2051 67.5157 36.662 64.9922 35.983 63.2487C35.3041 61.4593 34.331 60.1975 33.0636 59.4634C31.8416 58.7293 30.1443 58.3622 27.9717 58.3622H21.7256V98.142H0ZM32.0453 41.7758C34.9873 41.7758 37.1598 41.0647 38.5629 39.6423C40.0113 38.1741 40.7355 35.9029 40.7355 32.8288V28.1489C40.7355 25.0748 40.0339 22.8265 38.6308 21.4042C37.2277 19.9818 35.0325 19.2707 32.0453 19.2707H21.7256V41.7758H32.0453Z" fill="white"/>
<path d="M125.263 98.142H72.2383V1.78955H124.041V19.8213H93.9639V40.8123H121.529V56.5728H93.9639V80.1103H125.263V98.142Z" fill="white"/>
<path d="M149.637 98.142H128.59L150.859 1.78955H178.967L201.711 98.142H178.695L176.115 84.515H152.217L149.637 98.142ZM155.476 68.6169H172.856L168.24 44.8729C166.655 36.7517 165.524 29.2271 164.845 22.2989H163.419C162.831 29.64 161.745 37.1647 160.16 44.8729L155.476 68.6169Z" fill="white"/>
<path d="M236.268 99.9312C225.088 99.9312 216.805 96.5359 211.419 89.7454C206.033 82.9548 203.34 72.6313 203.34 58.7749V41.1562C203.34 27.3457 206.056 17.0452 211.487 10.2546C216.919 3.41821 225.179 0 236.268 0C246.95 0 255.006 3.00528 260.438 9.01583C265.869 15.0264 268.63 24.4781 268.721 37.371L248.013 40.6056C248.013 34.7786 247.583 30.1675 246.723 26.7722C245.909 23.3769 244.687 20.9681 243.057 19.5458C241.428 18.0775 239.3 17.3434 236.675 17.3434C232.828 17.3434 229.977 18.9034 228.121 22.0234C226.265 25.0975 225.337 29.8234 225.337 36.201V63.6614C225.337 70.039 226.265 74.7878 228.121 77.9078C230.022 80.9819 232.896 82.5189 236.743 82.5189C239.187 82.5189 241.224 81.7619 242.853 80.2478C244.528 78.6878 245.818 76.0954 246.723 72.4708C247.629 68.8002 248.104 63.8908 248.149 57.7426L269.264 62.3538C268.992 75.2925 266.05 84.7901 260.438 90.8465C254.825 96.903 246.769 99.9312 236.268 99.9312Z" fill="white"/>
<path d="M314.002 98.142H292.208V19.8213H272.52V1.78955H333.759V19.8213H314.002V98.142Z" fill="white"/>
<path d="M371.645 100C360.148 100 351.548 96.5818 345.845 89.7454C340.188 82.9089 337.359 72.5855 337.359 58.7749V41.2939C337.359 27.4375 340.188 17.0911 345.845 10.2546C351.548 3.41821 360.148 0 371.645 0C383.141 0 391.718 3.44116 397.376 10.3235C403.079 17.1599 405.93 27.4834 405.93 41.2939V58.7749C405.93 72.5855 403.079 82.9089 397.376 89.7454C391.718 96.5818 383.141 100 371.645 100ZM371.645 82.5189C375.763 82.5189 378.819 80.9819 380.81 77.9078C382.847 74.8337 383.865 70.1766 383.865 63.9367V36.8892C383.865 30.3281 382.847 25.4416 380.81 22.2299C378.819 19.0181 375.763 17.4123 371.645 17.4123C367.48 17.4123 364.38 19.0181 362.343 22.2299C360.352 25.4416 359.356 30.3281 359.356 36.8892V63.9367C359.356 70.1766 360.352 74.8337 362.343 77.9078C364.38 80.9819 367.48 82.5189 371.645 82.5189Z" fill="white"/>
<path d="M414.414 98.142V1.78955H448.496C457.775 1.78955 464.79 3.87719 469.543 8.05246C474.34 12.1819 476.739 18.2154 476.739 26.153V29.3189C476.739 35.0541 475.313 39.6882 472.462 43.2211C469.656 46.7082 465.582 48.8876 460.241 49.7593V51.067C463.093 51.8928 465.311 52.9252 466.895 54.164C468.524 55.4028 469.792 57.1005 470.697 59.2569C471.647 61.4134 472.439 64.4186 473.073 68.2727L474.906 79.5597C475.766 84.8821 476.649 88.7132 477.554 91.0532C478.459 93.3932 479.591 95.1596 480.948 96.3526L480.745 98.142H457.186C456.281 96.536 455.534 94.4714 454.946 91.9479C454.403 89.4244 453.814 85.6162 453.18 80.5233L452.026 70.8192C451.619 67.5157 451.076 64.9922 450.397 63.2487C449.718 61.4593 448.745 60.1975 447.478 59.4634C446.255 58.7293 444.558 58.3622 442.386 58.3622H436.139V98.142H414.414ZM446.459 41.7758C449.401 41.7758 451.574 41.0647 452.977 39.6423C454.425 38.1741 455.149 35.9029 455.149 32.8288V28.1489C455.149 25.0748 454.448 22.8265 453.045 21.4042C451.642 19.9818 449.446 19.2707 446.459 19.2707H436.139V41.7758H446.459Z" fill="white"/>
<path d="M508.378 98.142H486.652V1.78955H537.232V19.8213H508.378V40.3994H534.652V57.0546H508.378V98.142Z" fill="white"/>
<path d="M576.745 99.9314C566.244 99.9314 558.233 97.5914 552.711 92.9114C547.234 88.2314 544.496 81.3721 544.496 72.3333V1.78955H566.289V71.0257C566.289 74.9715 567.172 77.9539 568.937 79.9727C570.702 81.9915 573.305 83.0009 576.745 83.0009C580.185 83.0009 582.787 81.9915 584.552 79.9727C586.363 77.908 587.268 74.9256 587.268 71.0257V1.78955H609.062V72.3333C609.062 81.3721 606.301 88.2314 600.779 92.9114C595.257 97.5914 587.246 99.9314 576.745 99.9314Z" fill="white"/>
<path d="M648.44 99.9312C637.94 99.9312 630.041 97.3159 624.746 92.0853C619.45 86.8089 616.712 78.7337 616.531 67.8596L637.034 65.2443C637.17 69.7866 637.668 73.3884 638.528 76.0496C639.433 78.6648 640.768 80.5689 642.534 81.7619C644.299 82.9089 646.585 83.4825 649.391 83.4825C652.514 83.4825 654.913 82.7025 656.587 81.1425C658.307 79.5366 659.167 77.3801 659.167 74.6731C659.167 72.7919 658.737 71.0943 657.877 69.5802C657.063 68.0202 655.727 66.4831 653.872 64.969C652.061 63.4549 649.527 61.7343 646.268 59.8073L636.763 54.3014C632.916 52.0532 629.679 49.805 627.054 47.5568C624.429 45.2627 622.279 42.418 620.604 39.0227C618.93 35.5816 618.092 31.4751 618.092 26.7034C618.092 21.1975 619.292 16.4487 621.691 12.457C624.09 8.41936 627.529 5.34526 632.01 3.23469C636.536 1.07823 641.877 0 648.033 0C658.217 0 665.798 2.50057 670.777 7.50172C675.801 12.5029 678.381 20.1652 678.517 30.4886L659.303 32.7598C659.258 26.8869 658.307 22.7116 656.452 20.234C654.596 17.7105 651.677 16.4487 647.694 16.4487C644.978 16.4487 642.783 17.1828 641.108 18.6511C639.479 20.0734 638.664 21.9546 638.664 24.2946C638.664 25.9004 639.003 27.3687 639.682 28.6992C640.361 29.9839 641.583 31.3604 643.348 32.8286C645.114 34.251 647.671 35.9027 651.02 37.7839L660.661 43.2209C664.87 45.6527 668.31 47.9468 670.981 50.1032C673.696 52.2138 675.959 55.0585 677.77 58.6373C679.626 62.1702 680.553 66.552 680.553 71.7825C680.553 77.6554 679.263 82.7025 676.684 86.9236C674.149 91.1448 670.483 94.3794 665.685 96.6277C660.887 98.83 655.139 99.9312 648.44 99.9312Z" fill="white"/>
<path d="M710.156 98.142H688.43V1.78955H710.156V98.142Z" fill="white"/>
<path d="M752.927 100C741.43 100 732.831 96.5818 727.128 89.7454C721.47 82.9089 718.641 72.5855 718.641 58.7749V41.2939C718.641 27.4375 721.47 17.0911 727.128 10.2546C732.831 3.41821 741.43 0 752.927 0C764.423 0 773 3.44116 778.658 10.3235C784.361 17.1599 787.213 27.4834 787.213 41.2939V58.7749C787.213 72.5855 784.361 82.9089 778.658 89.7454C773 96.5818 764.423 100 752.927 100ZM752.927 82.5189C757.046 82.5189 760.101 80.9819 762.092 77.9078C764.129 74.8337 765.148 70.1766 765.148 63.9367V36.8892C765.148 30.3281 764.129 25.4416 762.092 22.2299C760.101 19.0181 757.046 17.4123 752.927 17.4123C748.763 17.4123 745.662 19.0181 743.626 22.2299C741.634 25.4416 740.638 30.3281 740.638 36.8892V63.9367C740.638 70.1766 741.634 74.8337 743.626 77.9078C745.662 80.9819 748.763 82.5189 752.927 82.5189Z" fill="white"/>
<path d="M795.699 98.142V1.78955H820.005L837.521 47.4193C839.15 51.6405 840.983 57.5822 843.02 65.2445L844.378 65.0381C843.382 53.7969 842.884 45.0335 842.884 38.7476V1.78955H863.999V98.142H839.965L822.245 52.7875C820.389 47.9699 818.534 41.6611 816.678 33.8612L815.252 34.0676C816.248 44.7123 816.746 54.2558 816.746 62.6981V98.142H795.699Z" fill="white"/>
</g>
<defs>
<clipPath id="clip0_608_33966">
<rect width="988" height="100" fill="white"/>
</clipPath>
</defs>
</svg>
