<svg width="267" height="109" viewBox="0 0 267 109" fill="none" xmlns="http://www.w3.org/2000/svg">
<g clip-path="url(#clip0_608_33818)">
<path d="M141.466 36.9834L132.551 38.3098C131.526 33.1898 128.033 31.2615 124.78 31.2615C120.503 31.2615 117.009 33.1286 117.009 37.4062C117.009 41.1404 120.623 45.2369 126.045 46.6227L131.768 47.9475C137.611 49.3933 142.611 53.731 142.671 58.731C142.731 65.6581 136.888 72.224 126.587 72.224C117.25 72.224 110.563 69.8746 108.395 62.8275L117.069 60.4169C118.274 64.5134 122.792 67.8875 126.708 67.8875C130.563 67.8875 135.081 65.9593 135.081 62.2852C135.114 60.7005 134.607 59.1515 133.644 57.8926C132.681 56.6336 131.318 55.7395 129.78 55.3569L123.093 53.6098C114.599 51.8028 109.359 47.2251 109.359 40.7792C109.359 31.9239 116.346 27.165 124.178 27.165C133.334 27.1645 139.237 29.1528 141.466 36.9834Z" fill="white"/>
<path d="M161.163 72.0774C152.489 72.0774 146.766 65.994 146.766 57.981C146.766 48.3433 153.332 42.0186 162.488 42.0186C167.849 42.0186 172.247 45.2104 172.609 49.7292L167.307 50.7527C167.307 48.3433 167.307 44.8492 161.826 44.8492C157.307 44.8492 153.573 48.8257 153.573 54.6081C153.573 61.9575 157.729 66.5963 163.573 66.5963C166.476 66.5897 169.302 65.6616 171.644 63.9457L172.066 67.1375C170.62 69.5481 166.826 72.0774 161.163 72.0774Z" fill="white"/>
<path d="M188.389 56.5969V72.1381H181.16V45.5721L186.582 41.958L188.208 49.6086C189.594 45.6333 192.425 42.6815 195.919 42.6815C196.528 42.679 197.132 42.8002 197.693 43.0378C198.254 43.2754 198.762 43.6245 199.184 44.0638C199.606 44.5031 199.935 45.0235 200.15 45.5936C200.366 46.1637 200.463 46.7716 200.437 47.3804V47.8616L193.991 51.7169C193.75 50.091 193.268 47.8616 191.702 47.9827C189.473 50.271 188.63 52.9216 188.389 56.5969Z" fill="white"/>
<path d="M217.423 42.375C208.447 42.375 202.242 48.4586 202.242 57.495C202.242 66.7715 208.326 72.3139 217.423 72.4339C226.519 72.2527 232.603 66.7115 232.603 57.3739C232.543 48.881 226.88 42.375 217.423 42.375ZM217.423 69.5422C212.061 69.5422 210.616 63.8798 210.616 57.4339C210.616 50.988 212.061 45.1456 217.423 45.2056C222.723 45.2656 224.23 51.0492 224.23 57.4339C224.23 63.8799 222.723 69.5422 217.423 69.5422Z" fill="white"/>
<path d="M240.609 30.5138L247.838 25.6938L247.777 72.1378H240.609V30.5138Z" fill="white"/>
<path d="M259.164 30.5138L266.392 25.6938L266.331 72.1378H259.164V30.5138Z" fill="white"/>
<path d="M12.1252 6.88722C10.3619 6.79722 8.53721 6.70382 6.99001 7.98532C6.21511 8.62712 5.22861 9.63112 5.60771 10.9347C5.64508 11.0638 5.69373 11.1893 5.75311 11.3098C5.76951 11.3428 5.79181 11.3703 5.80961 11.402C5.85278 11.483 5.90156 11.5609 5.95561 11.6351C5.97971 11.6665 6.01001 11.6924 6.03561 11.7221C6.09081 11.7888 6.15059 11.8515 6.21451 11.9099C6.24521 11.9366 6.28181 11.9579 6.31451 11.9829C6.38299 12.0377 6.45494 12.088 6.52991 12.1335C6.56771 12.1554 6.61111 12.172 6.65091 12.192C6.73202 12.2347 6.81549 12.2727 6.90091 12.3058C6.94701 12.3228 6.99871 12.3348 7.04701 12.3497C7.13701 12.3777 7.22761 12.4058 7.32571 12.4266C7.38291 12.4387 7.44571 12.4457 7.50571 12.4554C7.60271 12.471 7.69911 12.487 7.80291 12.4962C7.87541 12.5026 7.95361 12.5038 8.02941 12.5071C8.10731 12.5104 8.18041 12.5182 8.26191 12.5182C8.30471 12.5182 8.34821 12.5182 8.39191 12.5169C10.2313 12.4785 12.1036 12.4879 13.9133 12.498C14.444 12.5008 14.9746 12.5029 15.5051 12.5042C15.6803 12.5048 15.8551 12.5061 16.0309 12.5064C16.0186 12.5964 16.0043 12.6839 15.9909 12.7721C15.9741 12.8788 15.9585 12.9868 15.9394 13.091C15.9194 13.1979 15.8969 13.301 15.8749 13.405C15.8536 13.5061 15.8336 13.6085 15.81 13.7071C15.7855 13.8095 15.7574 13.9079 15.7305 14.0071C15.7047 14.1027 15.6805 14.1996 15.6521 14.2926C15.6228 14.3897 15.5897 14.4826 15.5579 14.5773C15.5279 14.6673 15.4986 14.7593 15.4659 14.8473C15.4315 14.9399 15.3932 15.0285 15.3559 15.1184C15.3212 15.2029 15.288 15.289 15.2509 15.3711C15.2115 15.4587 15.1681 15.542 15.1261 15.6269C15.0868 15.7063 15.0491 15.7875 15.0075 15.8646C14.9629 15.9473 14.9142 16.0258 14.8669 16.1059C14.8233 16.1799 14.7813 16.2559 14.7354 16.3274C14.6854 16.4054 14.6314 16.4789 14.5789 16.5541C14.5308 16.623 14.4845 16.6941 14.4342 16.7603C14.3788 16.8335 14.3192 16.9023 14.2612 16.9728C14.2089 17.0363 14.1585 17.1017 14.104 17.1628C14.0429 17.2316 13.9773 17.2959 13.9134 17.3618C13.8572 17.4198 13.8034 17.4799 13.7447 17.5358C13.6775 17.6001 13.6057 17.6597 13.5357 17.7212C13.4757 17.7737 13.4179 17.8285 13.3557 17.879C13.2817 17.939 13.2029 17.9948 13.1257 18.052C13.0628 18.0988 13.0022 18.1479 12.9374 18.1927C12.8556 18.2491 12.7689 18.3008 12.684 18.3541C12.619 18.3949 12.5563 18.4382 12.4894 18.4772C12.3979 18.5306 12.3014 18.5789 12.2064 18.6288C12.1412 18.6631 12.0787 18.6999 12.0118 18.7326C11.903 18.7857 11.7889 18.8338 11.6757 18.8826C11.6181 18.9075 11.5631 18.9351 11.5044 18.9589C11.3302 19.0295 11.151 19.0954 10.9668 19.1566C10.7129 19.2408 10.4583 19.3131 10.2029 19.3733C10.1217 19.3926 10.0403 19.4041 9.95901 19.4213C9.78491 19.458 9.61091 19.4964 9.43651 19.5236C9.31911 19.542 9.20171 19.5517 9.08421 19.5661C8.94621 19.583 8.80811 19.6038 8.67011 19.6156C8.53011 19.6277 8.39011 19.6316 8.25011 19.6388C8.13521 19.6447 8.02011 19.6546 7.90541 19.6575C7.75471 19.6613 7.60481 19.6583 7.45461 19.6575C7.35111 19.6575 7.24701 19.6597 7.14381 19.6575C6.98591 19.6536 6.82921 19.6441 6.67221 19.6361C6.57761 19.6312 6.48221 19.629 6.38811 19.6228C6.23041 19.6128 6.07421 19.5981 5.91811 19.5846C5.82531 19.5766 5.73181 19.5705 5.63941 19.5616C5.50011 19.5482 5.36251 19.5322 5.22431 19.5171C5.12121 19.5058 5.01731 19.4956 4.91491 19.4836C0.866009 16.2559 -0.501991 11.6423 1.25491 7.13612C3.07081 2.47952 6.96351 0.196722 12.5051 0.532922C13.7533 0.949143 14.9613 1.47739 16.1144 2.11122L16.1186 2.11372C16.3072 2.22146 16.493 2.33352 16.676 2.44992L16.6805 2.45292C16.8631 2.56946 17.0425 2.69072 17.2186 2.81672L17.2252 2.82162C17.4 2.94722 17.5713 3.07792 17.739 3.21372L17.7526 3.22522C17.9169 3.35916 18.0774 3.49836 18.2341 3.64282L18.2616 3.66952C18.4121 3.80952 18.5588 3.95502 18.7016 4.10602C18.7176 4.12302 18.7326 4.14132 18.7486 4.15852C18.8817 4.30202 19.0119 4.44952 19.1372 4.60342C19.1638 4.63602 19.1887 4.67102 19.2149 4.70412C19.3261 4.84412 19.4349 4.98752 19.5394 5.13672C19.5787 5.19302 19.6152 5.25272 19.6534 5.31022C19.7394 5.43942 19.8245 5.57022 19.9052 5.70572C19.9595 5.79742 20.01 5.89382 20.0616 5.98872C20.1196 6.09472 20.1782 6.20002 20.2329 6.31002C20.3029 6.45222 20.3689 6.60002 20.4335 6.74932C20.4564 6.80172 20.4801 6.85302 20.5023 6.90632L13.0288 6.92632C12.7288 6.91772 12.427 6.90262 12.1252 6.88722Z" fill="#CBA68D"/>
<path d="M7.73717 20.16C7.67717 20.16 7.61717 20.1595 7.55717 20.159L7.45047 20.1581H7.33707L7.12997 20.1572C6.99997 20.154 6.86997 20.1472 6.74097 20.1402L4.71307 19.9633L4.60147 19.8743C0.373768 16.5035 -1.05173 11.6736 0.788268 6.95439C2.68997 2.07599 6.75217 -0.317012 12.5346 0.0336876L12.67 0.0608876C13.9477 0.484702 15.1835 1.02563 16.3618 1.67679C16.5618 1.79109 16.7546 1.90679 16.9443 2.02819C17.1392 2.15269 17.3262 2.27879 17.5095 2.41019C17.6995 2.54669 17.8785 2.68319 18.0537 2.82539C18.2403 2.97799 18.409 3.12369 18.5737 3.27539C18.7609 3.45089 18.9155 3.60359 19.0654 3.76269C19.2554 3.96929 19.3926 4.12489 19.5247 4.28709L19.6067 4.39319C19.724 4.54129 19.8391 4.69239 19.9491 4.84989L20.0308 4.97319C20.1608 5.16909 20.25 5.30659 20.3351 5.45009C20.38 5.52609 20.4223 5.60419 20.4645 5.68229L20.0845 6.02929L20.523 5.78929C20.5767 5.88729 20.6303 5.98529 20.681 6.08719C20.7555 6.23799 20.8248 6.39349 20.8928 6.55049L21.2518 7.40419L13.0305 7.42659C12.7193 7.41789 12.422 7.40279 12.1247 7.38769L12.0979 7.38639C10.3536 7.29749 8.70597 7.21359 7.30937 8.37019C6.23577 9.25939 5.85937 10.0073 6.08827 10.795C6.11746 10.8958 6.15544 10.9939 6.20177 11.0881C6.27957 11.2165 6.31177 11.2774 6.35287 11.3308C6.46007 11.447 6.49817 11.4931 6.54347 11.5326C6.67447 11.628 6.72427 11.6678 6.78117 11.7007L6.87607 11.7451C6.94045 11.7793 7.00673 11.8099 7.07457 11.8366L7.04757 12.3496L7.19547 11.872C7.27547 11.8967 7.34917 11.9203 7.42977 11.9373L7.58577 11.9616C7.68217 11.9772 7.76187 11.9905 7.84727 11.998L8.26227 12.018L8.38227 12.0168C10.2659 11.9774 12.2054 11.9883 13.9166 11.9978L16.6042 12.0069L16.4923 12.8029L16.03 12.86L16.4718 12.9281L16.3786 13.4364L15.8577 13.484L16.3477 13.5853L16.2317 14.0688L15.7096 14.0844L16.1928 14.2128L16.0546 14.6689L15.5323 14.6536L16.007 14.8107L15.8454 15.2435L15.3254 15.1927L15.789 15.3799L15.6053 15.7858L15.0908 15.6984L15.5408 15.917L15.4473 16.1025C15.411 16.1699 15.3724 16.2347 15.3336 16.2995L14.8271 16.1743L15.2599 16.4243L15.1561 16.5973C15.1155 16.6608 15.0725 16.7218 15.0293 16.7828L14.5343 16.6186L14.9468 16.9011L14.8328 17.0619C14.7876 17.1219 14.74 17.179 14.6928 17.2361L14.2114 17.0344L14.6007 17.3482L14.4777 17.4955C14.4277 17.5516 14.3753 17.6055 14.3227 17.6588L13.8584 17.4198L14.2216 17.7635L14.0904 17.8973C14.0357 17.9497 13.9784 17.9995 13.921 18.0491L13.4758 17.775L13.8103 18.1466L13.6715 18.2666C13.611 18.3159 13.5478 18.3625 13.4844 18.409L13.0612 18.1012L13.3654 18.498L13.2219 18.604C13.1546 18.6504 13.0844 18.694 13.0141 18.7377L12.6146 18.3989L12.8871 18.818L12.7417 18.909C12.6652 18.9536 12.5856 18.9952 12.5059 19.0366L12.133 18.6686L12.3735 19.107L12.2319 19.1816C12.1326 19.2301 12.0292 19.2748 11.9258 19.3194L11.6058 18.9142L11.8147 19.3684L11.6927 19.4221C11.5085 19.4968 11.3192 19.5664 11.1246 19.6311C10.8568 19.7199 10.5883 19.7961 10.3191 19.8596L10.1506 19.8936L9.95937 19.4211L9.99337 19.925C9.83337 19.9589 9.67397 19.9926 9.51407 20.0175C9.43017 20.0307 9.34617 20.04 9.26217 20.0491L9.02437 20.0778C8.92057 20.0914 8.81677 20.1048 8.71317 20.1137C8.60627 20.1229 8.49967 20.1278 8.39317 20.1326L7.91817 20.1572C7.85697 20.1591 7.79707 20.16 7.73717 20.16ZM7.45627 19.1582L7.56627 19.159C7.67447 19.16 7.78267 19.1611 7.89137 19.1583L8.34707 19.1344C8.44017 19.1302 8.53337 19.1262 8.62657 19.1182C8.71547 19.1106 8.80427 19.0982 8.89317 19.0871L9.35847 19.0303C9.50067 19.0081 9.64267 18.9777 9.78457 18.9476L10.0863 18.8876C10.3277 18.8301 10.5684 18.7618 10.8086 18.6827C10.9824 18.6251 11.1514 18.5629 11.3157 18.4962L11.4763 18.4245C11.6176 18.3636 11.7063 18.3255 11.7914 18.2839L12.0435 18.1501C12.1088 18.1161 12.1742 18.0824 12.2368 18.0459L13.9239 16.5954L14.9212 14.8589L15.4455 13.0043L13.9096 12.9983C12.2044 12.9888 10.272 12.9783 8.40127 13.0171L8.26077 13.0185C8.19767 13.0185 8.13877 13.015 8.07977 13.0112L7.96187 12.5049L7.94447 13.0049C7.88107 13.0026 7.81757 13.0002 7.75747 12.9949C7.64747 12.9849 7.54447 12.969 7.44147 12.9523C7.32027 12.9344 7.26907 12.9266 7.22097 12.9164C7.10967 12.8929 7.00657 12.8616 6.90377 12.8298C6.81207 12.8037 6.76797 12.7908 6.72687 12.7756C6.62531 12.7365 6.52605 12.6917 6.42957 12.6414C6.35587 12.6075 6.31587 12.5885 6.27887 12.5671C6.18703 12.5119 6.09884 12.4509 6.01487 12.3844C5.97021 12.3546 5.92718 12.3225 5.88597 12.2881C5.80748 12.2172 5.73397 12.141 5.66597 12.06C5.62784 12.0221 5.59195 11.982 5.55847 11.94C5.48993 11.847 5.42805 11.7492 5.37327 11.6475C5.34786 11.6106 5.32488 11.572 5.30447 11.5321C5.23199 11.3852 5.17263 11.2321 5.12707 11.0748C4.61217 9.30469 6.16117 8.02169 6.66997 7.59999C8.36637 6.19489 10.375 6.29729 12.1472 6.38759L12.1241 6.88699L12.1495 6.38769L12.174 6.38889C12.464 6.40369 12.754 6.41889 13.0419 6.42669L19.72 6.40839C19.6952 6.36199 19.67 6.31599 19.6447 6.26999L19.4738 5.95999C19.398 5.83229 19.3174 5.70929 19.2362 5.58719L19.1284 5.42279C19.0301 5.28209 18.927 5.14709 18.822 5.01449L19.1362 4.60329L18.7486 4.91909C18.6301 4.77369 18.5069 4.63419 18.381 4.49849C18.2017 4.30549 18.0624 4.16849 17.9198 4.03509C17.7449 3.87199 17.5921 3.74009 17.4358 3.61279C17.2631 3.47189 17.0994 3.34749 16.9326 3.22759C16.7576 3.10189 16.5856 2.98589 16.4106 2.87419C16.2306 2.75919 16.0513 2.65149 15.8697 2.54779C14.7634 1.93654 13.6036 1.42776 12.4047 1.02779C7.13507 0.728788 3.44137 2.90269 1.71997 7.31759C0.0637679 11.5656 1.33257 15.9236 5.11317 19.0022L6.69677 19.1365C6.91437 19.148 7.03437 19.1545 7.15517 19.1575L7.33057 19.1581L7.45627 19.1582Z" fill="#2B2129"/>
<path d="M13.2633 7.36581C13.3133 7.40531 13.3624 7.44581 13.4119 7.48641C13.4592 7.52481 13.5066 7.56252 13.5535 7.60162C13.6021 7.64222 13.6498 7.68431 13.698 7.72571C13.7462 7.76711 13.7928 7.80571 13.8395 7.84761C13.8819 7.88521 13.9231 7.92462 13.965 7.96302C14.0164 8.01012 14.0684 8.05652 14.119 8.10482L14.1256 8.11142C14.583 8.53947 14.9818 9.0262 15.3115 9.55891L15.3144 9.56352C15.3778 9.66878 15.4378 9.77658 15.4944 9.88691L15.5013 9.89951C15.5559 10.0066 15.6065 10.1166 15.654 10.2286L15.6648 10.2525C15.7101 10.3608 15.7509 10.4725 15.789 10.5851L15.8029 10.6236C15.8383 10.7315 15.8688 10.8425 15.897 10.9548C15.9021 10.9748 15.9084 10.9943 15.9132 11.0148C15.9383 11.1202 15.9583 11.2288 15.9768 11.3382C15.9818 11.3682 15.9884 11.3968 15.9929 11.4268C16.008 11.5268 16.0177 11.6301 16.027 11.7336C16.0309 11.7766 16.0364 11.8185 16.0392 11.8622C16.0452 11.9539 16.0459 12.0487 16.0471 12.1432C16.0471 12.1893 16.0491 12.2348 16.0485 12.2815C15.3341 12.2806 14.6196 12.2778 13.905 12.2732C13.3999 12.2701 12.8823 12.2701 12.3699 12.2682C11.0468 12.2638 9.71198 12.2638 8.38658 12.292C6.94568 12.3153 6.11008 11.8577 5.82348 10.872C5.48098 9.69561 6.40688 8.75992 7.13348 8.15842C7.25286 8.06066 7.37727 7.9692 7.50618 7.88442C7.53845 7.86295 7.57088 7.84201 7.60348 7.82161C7.72158 7.74731 7.84088 7.67811 7.96208 7.61721L7.98788 7.60321C8.11738 7.53911 8.24878 7.48432 8.38128 7.43382C8.41558 7.42082 8.45008 7.40842 8.48458 7.39622C8.60278 7.35442 8.72188 7.31622 8.84218 7.28422C8.85858 7.27972 8.87488 7.27422 8.89138 7.26992C9.02578 7.23502 9.16138 7.20682 9.29808 7.18212C9.33438 7.17562 9.37098 7.16972 9.40748 7.16382C9.52498 7.14482 9.64308 7.12861 9.76178 7.11591C9.78438 7.11351 9.80688 7.11011 9.82948 7.10791C9.96688 7.09451 10.1052 7.08521 10.2438 7.07861C10.2822 7.07681 10.3207 7.07552 10.3591 7.07422C10.4742 7.07002 10.5895 7.06765 10.7049 7.06711C10.7317 7.06711 10.7585 7.06631 10.7854 7.06641C10.9971 7.06641 11.2094 7.07201 11.4215 7.08001L11.4524 7.08102C11.6732 7.08972 11.8939 7.10101 12.1136 7.11201C12.4049 7.12701 12.6963 7.14201 12.9863 7.15071C13.0289 7.18311 13.0714 7.21652 13.114 7.24952C13.1633 7.28812 13.2134 7.32631 13.2633 7.36581Z" fill="#2B2129"/>
<path d="M8.28907 12.7926C6.67687 12.7926 5.68687 12.1937 5.34317 11.0114C4.86927 9.38341 6.33317 8.17141 6.81417 7.77311C6.94691 7.66435 7.0852 7.56255 7.22847 7.46811L7.33687 7.39811C7.46867 7.31521 7.60187 7.23811 7.73687 7.17031C7.88854 7.09418 8.04413 7.02612 8.20297 6.96641L8.31727 6.92471C8.44727 6.87851 8.57907 6.83691 8.71147 6.80121C8.91207 6.74771 9.06007 6.71671 9.20887 6.68991L9.32017 6.67111C9.45327 6.64961 9.58017 6.63231 9.70767 6.61851C9.92587 6.59581 10.0724 6.58601 10.2193 6.57851L10.3193 6.57451C10.4706 6.56911 10.5998 6.56631 10.7272 6.56641C11.0155 6.56641 11.2272 6.57171 11.4395 6.57971L12.1382 6.61201C12.4263 6.62681 12.7143 6.64131 13.0009 6.65021L13.1609 6.65521L13.3794 6.82251L13.1559 7.28181L13.4612 6.88581L13.684 7.06261L13.4565 7.52191L13.7705 7.13281L13.9797 7.30771L13.743 7.76371L14.0675 7.38371L14.2598 7.55441L14.0077 8.00181L14.3441 7.63181L14.4641 7.74311C14.9569 8.20314 15.3861 8.72694 15.7402 9.30061C15.8126 9.42061 15.8778 9.53831 15.9395 9.65861C16.0069 9.78991 16.0624 9.91041 16.1145 10.0333C16.1761 10.1786 16.2211 10.301 16.263 10.4254C16.3172 10.5867 16.351 10.7089 16.3821 10.8327C16.4274 11.0145 16.4496 11.1339 16.47 11.2544C16.504 11.4616 16.515 11.5744 16.5252 11.6884L16.5384 11.8297C16.5444 11.9221 16.5458 12.0176 16.547 12.1131L16.5486 12.2879L16.5419 12.7818L12.3684 12.7681C11.0493 12.7636 9.71837 12.7637 8.39727 12.7918C8.36077 12.7924 8.32467 12.7926 8.28907 12.7926ZM9.29767 7.18191L9.38647 7.67401C9.26227 7.69641 9.13877 7.72201 9.01647 7.75401C8.86417 7.79611 8.75717 7.83011 8.65107 7.86771C8.50064 7.92102 8.35316 7.98234 8.20927 8.05141C8.07927 8.11791 7.97377 8.17931 7.86927 8.24501L7.78287 8.30001C7.6684 8.37514 7.55795 8.45621 7.45197 8.54291C6.45677 9.36691 6.10257 10.0419 6.30337 10.7317C6.45067 11.2385 6.81947 11.8166 8.37827 11.7917C9.70527 11.7635 11.0442 11.7634 12.3714 11.7679L15.8839 11.7803L16.0269 11.733L15.529 11.7777C15.5206 11.6843 15.512 11.591 15.4984 11.5007C15.4671 11.3227 15.4493 11.225 15.4267 11.1301C15.3867 10.9757 15.3594 10.8759 15.3277 10.779C15.2808 10.6427 15.2442 10.5425 15.2034 10.4451C15.1507 10.3223 15.1051 10.223 15.0557 10.1262C14.9981 10.0147 14.9439 9.91621 14.8863 9.82101C14.5792 9.32431 14.2072 8.87078 13.7802 8.47241L12.8078 7.64461C12.5683 7.63561 12.3278 7.62351 12.0878 7.61121L11.4325 7.58001C11.1961 7.57131 10.9898 7.56611 10.7841 7.56581C10.5965 7.56701 10.4865 7.56931 10.3766 7.57331L10.2433 7.07801L10.2672 7.57751C10.1372 7.58371 10.0072 7.59231 9.87777 7.60491C9.70507 7.62421 9.59577 7.63921 9.48697 7.65681L9.29767 7.18191Z" fill="#2B2129"/>
<path d="M17.5841 21.7234C14.5989 21.9111 11.602 21.7581 8.65149 21.2672C7.37522 21.089 6.1734 20.5603 5.17969 19.7399C5.22459 19.7449 5.27039 19.7486 5.31549 19.7534C5.44729 19.7674 5.57952 19.7804 5.71219 19.7926C5.81219 19.8019 5.91169 19.8107 6.01219 19.8189C6.14649 19.8299 6.28139 19.8389 6.41649 19.8475C6.51739 19.8539 6.61799 19.8602 6.71919 19.8651C6.85409 19.8716 6.98919 19.8751 7.12509 19.8788C7.22719 19.8815 7.32909 19.8846 7.43159 19.8853C7.46789 19.8853 7.50379 19.8876 7.54019 19.8876C7.60369 19.8876 7.66779 19.8826 7.73139 19.8817C7.90809 19.8795 8.08489 19.8746 8.26219 19.8655C8.36559 19.8602 8.46879 19.8528 8.57219 19.845C8.74579 19.8318 8.91939 19.814 9.09319 19.793C9.19539 19.7806 9.29749 19.7684 9.39979 19.753C9.58569 19.7252 9.77139 19.6896 9.95719 19.6514C10.0454 19.6333 10.1336 19.6183 10.2218 19.5977C10.4944 19.5337 10.7668 19.4603 11.0384 19.3702C11.2294 19.3068 11.4152 19.2385 11.5957 19.1653C14.277 18.0776 15.8042 15.8912 16.2589 12.5065H16.2715L16.2749 12.4024L16.2902 12.2816H16.2742C16.2756 12.1634 16.2763 12.0455 16.2707 11.9316C16.2683 11.8808 16.2617 11.8324 16.2579 11.7824C16.2503 11.6831 16.2432 11.5835 16.2305 11.4873C16.2228 11.4285 16.2112 11.3722 16.2017 11.3146C16.1877 11.2301 16.1745 11.1452 16.1567 11.0631C16.1439 11.0038 16.1277 10.9466 16.113 10.8885C16.093 10.8112 16.0743 10.7336 16.0516 10.6585C16.0339 10.6002 16.0135 10.5439 15.994 10.4869C15.9694 10.4151 15.945 10.3432 15.9176 10.2733C15.8954 10.2165 15.871 10.1613 15.8469 10.1057C15.8179 10.0385 15.7888 9.97146 15.7569 9.90566C15.7305 9.85076 15.7023 9.79706 15.6742 9.74336C15.6411 9.68016 15.6076 9.61716 15.5723 9.55556C15.5423 9.50286 15.5107 9.45106 15.4789 9.39946C15.4421 9.33946 15.4047 9.28026 15.366 9.22196C15.3323 9.17136 15.2979 9.12136 15.2628 9.07196C15.2228 9.01549 15.182 8.95966 15.1405 8.90446C15.1037 8.85573 15.0663 8.80753 15.0283 8.75986C14.9854 8.70619 14.9418 8.65316 14.8974 8.60076C14.8582 8.55446 14.8189 8.50856 14.7788 8.46326C14.7331 8.41186 14.6866 8.36136 14.6398 8.31116C14.5983 8.26686 14.557 8.22266 14.5147 8.17926C14.467 8.13036 14.4186 8.08246 14.3699 8.03466C14.3269 7.99246 14.284 7.95016 14.2399 7.90876C14.1899 7.86186 14.1399 7.81596 14.0899 7.77006C14.0456 7.73006 14.0016 7.68936 13.9569 7.65006C13.9056 7.60496 13.8537 7.56096 13.8018 7.51676C13.7569 7.47856 13.7118 7.43996 13.6671 7.40246C13.6136 7.35816 13.5599 7.31516 13.5062 7.27196C13.4621 7.23636 13.4182 7.20036 13.3739 7.16546L13.3558 7.15086L20.6105 7.13086C20.6766 7.22586 20.7325 7.32326 20.7918 7.41986C20.8458 7.50796 20.9056 7.59476 20.9542 7.68406C21.0115 7.78926 21.0577 7.89656 21.1079 8.00306C21.1506 8.09386 21.1986 8.18356 21.2365 8.27516C21.2811 8.38296 21.3158 8.49196 21.3542 8.60066C21.3866 8.69256 21.4242 8.78386 21.4521 8.87616C21.486 8.98696 21.5112 9.09826 21.5395 9.20946C21.5627 9.30026 21.5901 9.39086 21.6095 9.48166C21.6344 9.59626 21.6518 9.71056 21.6717 9.82496C21.6869 9.91216 21.7058 9.99966 21.7184 10.0866C21.7363 10.2107 21.7484 10.3335 21.7611 10.4566C21.7692 10.5325 21.7811 10.6092 21.7871 10.6846C21.7997 10.8293 21.8071 10.9717 21.8147 11.114C21.8175 11.1664 21.8225 11.22 21.8247 11.272C21.833 11.4654 21.8376 11.6561 21.8399 11.843C21.8692 14.19 21.8681 16.5767 21.8672 18.8851C21.8667 19.8199 21.8669 20.7546 21.8678 21.6894C20.4398 21.6516 18.9887 21.6878 17.5841 21.7234Z" fill="#BB9168"/>
<path d="M14.6205 22.2731C12.5849 22.307 10.5511 22.1341 8.55046 21.757C7.18368 21.564 5.89816 20.9925 4.83926 20.107L3.72656 19.077L5.23346 19.2428L5.29296 19.6165L5.33396 19.5722L5.36756 19.256L7.43406 19.3851L7.53926 19.8874L7.54666 19.3874L7.72406 19.3819C7.89406 19.3797 8.06476 19.375 8.23566 19.3663L8.53366 19.3463C8.69976 19.3337 8.86596 19.3163 9.03236 19.2963L9.32506 19.2583C9.50206 19.2319 9.67876 19.1978 9.85556 19.1615L10.1069 19.1106C10.3651 19.0501 10.623 18.9806 10.8802 18.8954C11.0608 18.8354 11.2364 18.7708 11.407 18.7018C13.908 17.6871 15.3328 15.6388 15.7625 12.4397L15.7746 12.3497L15.7732 12.2756C15.7744 12.1675 15.7753 12.0598 15.7702 11.9556L16.2568 11.7821L15.7583 11.8201C15.7503 11.7154 15.7443 11.6325 15.7337 11.5522L15.3981 10.3299L14.6366 9.07158L13.0633 7.55798L11.9346 6.66908L13.3532 6.65058L20.8705 6.62988L21.0205 6.84498C21.0766 6.92498 21.1264 7.00748 21.176 7.08958L21.2693 7.24008C21.3125 7.30778 21.3553 7.37568 21.3929 7.44458C21.4405 7.53208 21.4817 7.62068 21.5229 7.70938L21.6016 7.87518C21.6357 7.94438 21.6694 8.01358 21.6984 8.08368C21.7351 8.17238 21.7662 8.26178 21.7969 8.35138L21.8578 8.52198C21.8835 8.59108 21.9089 8.66018 21.9301 8.72968C21.9576 8.81968 21.9801 8.90968 22.0026 9.00038L22.0478 9.17528C22.0659 9.24188 22.0838 9.30858 22.0978 9.37528C22.1178 9.46898 22.1341 9.56238 22.1498 9.65578L22.2129 10.0146C22.2282 10.1201 22.2392 10.2246 22.2501 10.329L21.7716 10.5481L22.2678 10.4869L22.2849 10.6412C22.2974 10.7853 22.3049 10.9272 22.3127 11.069L22.3239 11.2505C22.3325 11.4489 22.3372 11.6447 22.3396 11.8366C22.3687 14.171 22.3678 16.5447 22.3669 18.8416L22.3684 22.2026L21.8543 22.189C20.4291 22.1513 18.989 22.1878 17.5963 22.2231L17.5837 21.7231L17.5891 22.2231C16.6084 22.2481 15.6171 22.2731 14.6205 22.2731ZM17.5632 21.2237L17.5837 21.7231L17.5705 21.2237C18.8105 21.1923 20.0871 21.1599 21.3669 21.1791V18.8849C21.3678 16.5488 21.3687 14.1795 21.3397 11.8494C21.3374 11.6674 21.3329 11.4818 21.3249 11.2935L21.8149 11.1141L21.3156 11.1408C21.3076 10.9918 21.3007 10.8608 21.2892 10.728L21.2641 10.5099C21.2465 10.3418 21.2371 10.2504 21.2241 10.1582L21.1797 9.91078C21.1515 9.74418 21.1385 9.66598 21.1215 9.58768L21.0553 9.33308C21.0143 9.16798 20.9965 9.09518 20.9743 9.02308L20.883 8.76758C20.8275 8.60688 20.8036 8.53648 20.7748 8.46688C20.7541 8.41688 20.7293 8.36688 20.7048 8.31788L20.6557 8.21658C20.5833 8.05988 20.5521 7.99118 20.5157 7.92368C20.4891 7.87488 20.4581 7.82708 20.4274 7.77908L20.3662 7.68178L20.3362 7.63178L14.6894 7.64718L15.7832 8.94538L16.3837 10.0904C16.4121 10.163 16.4377 10.2373 16.4632 10.3117L16.5307 10.5133C16.5529 10.5866 16.5721 10.6618 16.5907 10.7371L16.6456 10.9571C16.6626 11.0357 16.6756 11.1171 16.6895 11.1977L16.7265 11.4218C16.7394 11.5198 16.7473 11.6211 16.755 11.7225L16.76 11.7825H16.8417L16.7711 12.4652V12.5225L16.7555 13.0064H16.6897C16.1377 16.3459 14.5297 18.5145 11.7838 19.6286C11.5932 19.7058 11.3973 19.7778 11.1959 19.8446C10.9099 19.9395 10.6231 20.017 10.3359 20.0846L10.1466 20.1239C9.86306 20.1814 9.66846 20.2186 9.47366 20.2477L9.16476 20.2877C8.97186 20.311 8.79096 20.3296 8.60996 20.3434L8.28776 20.3647C8.10386 20.3741 7.92076 20.3792 7.73776 20.3815L7.53836 20.3874L7.26316 20.3818C7.74994 20.5477 8.24759 20.6798 8.75256 20.7772C11.6631 21.2591 14.6188 21.4089 17.5632 21.2237Z" fill="#2B2129"/>
<path d="M37.9537 107.384C37.9259 107.426 37.9017 107.473 37.876 107.518C37.8516 107.561 37.8244 107.6 37.8021 107.646H33.2026C32.5681 107.618 31.9398 107.509 31.3326 107.323L31.1535 107.277C25.4095 105.887 21.8735 101.097 21.9262 94.7747C22.0725 77.124 22.0486 59.1767 22.0255 41.8202C22.0166 35.2186 22.0108 28.6169 22.008 22.0151V21.8992C22.0062 20.927 22.0059 19.9549 22.0071 18.9828C22.008 16.6764 22.009 14.2912 21.9801 11.9457C22.0338 10.4665 21.7199 8.99697 21.0665 7.6688C20.9553 7.46492 20.8327 7.26748 20.6994 7.0774C20.6092 6.8464 20.5125 6.6234 20.4094 6.4084C20.3744 6.3351 20.3351 6.2671 20.2987 6.1955C20.2266 6.0537 20.1549 5.9113 20.0774 5.7762C20.0309 5.695 19.9803 5.6189 19.9318 5.54C19.8591 5.4214 19.787 5.3019 19.7101 5.1885C19.6556 5.1085 19.5977 5.0323 19.5413 4.9544C19.4652 4.8495 19.3897 4.7444 19.3102 4.6434C19.2491 4.5661 19.1851 4.4928 19.1221 4.4182C19.0421 4.3236 18.9621 4.2287 18.8798 4.1382C18.8129 4.0651 18.7437 3.9951 18.6749 3.9245C18.5914 3.8387 18.5078 3.7529 18.4215 3.6707C18.3495 3.6019 18.2756 3.5357 18.2015 3.4694C18.1143 3.391 18.0267 3.3131 17.9371 3.238C17.8607 3.1739 17.7829 3.1117 17.7048 3.0498C17.614 2.9779 17.5226 2.9069 17.4297 2.838C17.3491 2.778 17.2678 2.71943 17.1858 2.6623C17.092 2.5965 16.9973 2.5319 16.9018 2.4685C16.8175 2.41283 16.7325 2.3581 16.6469 2.3043C16.5507 2.2443 16.4536 2.18523 16.3558 2.1271C16.2679 2.075 16.1798 2.0235 16.0907 1.9733C15.9925 1.918 15.8934 1.8642 15.7939 1.8111C15.7028 1.7625 15.6118 1.714 15.5198 1.6671C15.4204 1.6165 15.3198 1.5671 15.2198 1.5187C15.1251 1.4727 15.0306 1.4267 14.935 1.3823C14.8366 1.3366 14.7375 1.2923 14.6382 1.2485C14.5389 1.2047 14.4398 1.1598 14.3397 1.1171C14.2443 1.0764 14.1482 1.0371 14.0522 0.9978C13.9468 0.9545 13.8416 0.9108 13.7357 0.8688C13.6491 0.8346 13.5621 0.8018 13.4757 0.7688C13.3587 0.7239 13.2419 0.6788 13.1245 0.6349L13.1016 0.6258L13.3088 0.6153C13.8528 0.5877 14.4152 0.5591 14.9667 0.5589C21.6467 0.557433 28.3249 0.5613 35.0015 0.5705C51.1888 0.5857 67.9276 0.6021 84.3904 0.5H84.4609C86.0187 0.509452 87.559 0.830047 88.9913 1.44296C90.4236 2.05588 91.719 2.94877 92.8015 4.0692C95.0969 6.35513 96.3942 9.45672 96.4099 12.6962C96.2599 30.5534 96.2967 48.7109 96.3318 66.2706C96.3451 72.8915 96.3553 79.5125 96.3623 86.1334C96.0683 86.1382 95.7746 86.1437 95.481 86.15C94.792 86.1639 94.0795 86.1783 93.3791 86.1786C77.3137 86.1836 61.2483 86.1869 45.183 86.1886L38.7561 86.1897C38.6633 86.1849 38.5702 86.1824 38.4772 86.1797C38.28 86.1781 38.083 86.1655 37.8872 86.1421C36.2606 85.8507 34.5855 86.0047 33.0392 86.5876C31.493 87.1706 30.1332 88.1608 29.1038 89.4535C29.0613 89.5083 29.0196 89.5635 28.9782 89.6199C28.7584 89.9196 28.5567 90.2322 28.3741 90.5559C28.1871 90.8794 28.0187 91.2133 27.8697 91.5559C26.9911 93.4863 26.786 95.6558 27.2873 97.7167C27.7885 99.7776 28.9671 101.61 30.6341 102.922L30.9229 103.192L30.9504 103.217L30.9513 103.218L30.9229 103.192L31.6475 103.399L31.1213 103.389C32.1638 104.379 33.5184 104.976 34.9529 105.077C35.3262 105.118 35.7019 105.149 36.0786 105.173C36.2142 105.182 36.3501 105.185 36.4859 105.192C36.7279 105.204 36.9698 105.218 37.2119 105.226L37.2574 105.227C37.9961 105.25 38.7333 105.255 39.4582 105.259C39.5255 105.259 39.5927 105.261 39.66 105.261C40.1508 105.265 40.6413 105.27 41.1315 105.279L41.1292 105.282C41.0435 105.373 40.9505 105.457 40.851 105.533C40.8343 105.546 40.8182 105.56 40.801 105.572C40.7039 105.644 40.6028 105.709 40.4984 105.769L40.4333 105.806C40.3271 105.865 40.2179 105.921 40.1058 105.974L40.0358 106.007C39.9269 106.057 39.8167 106.107 39.7046 106.157L39.6898 106.163C39.5598 106.221 39.4298 106.28 39.2998 106.341C39.2453 106.366 39.1906 106.392 39.1367 106.418C39.1019 106.436 39.0682 106.455 39.0337 106.473C38.978 106.502 38.922 106.531 38.8676 106.563C38.8313 106.583 38.7968 106.607 38.7612 106.629C38.7104 106.661 38.659 106.691 38.6099 106.726C38.5743 106.75 38.541 106.778 38.5064 106.805C38.4599 106.84 38.4128 106.875 38.3684 106.913C38.3344 106.943 38.3032 106.976 38.2706 107.008C38.2291 107.048 38.1869 107.087 38.1479 107.131C38.1164 107.166 38.0879 107.206 38.0579 107.244C38.0234 107.289 37.9868 107.334 37.9537 107.384Z" fill="#E5D1B8"/>
<path d="M37.8036 108.146H33.2041C32.5274 108.119 31.8569 108.005 31.2092 107.807L31.0299 107.761C25.0555 106.316 21.3733 101.337 21.4278 94.771C21.5739 77.1323 21.5501 59.1956 21.527 41.8495C21.5181 35.2194 21.5123 28.6081 21.5095 22.0155L21.5085 18.9831C21.5094 16.6484 21.5103 14.2807 21.4815 11.9523C21.5351 10.5551 21.2425 9.16638 20.6296 7.90969C20.5272 7.72185 20.4143 7.53992 20.2914 7.36479L20.2352 7.25979C20.1494 7.04039 20.0575 6.82855 19.9596 6.62429L19.8544 6.42239C19.7757 6.26759 19.7128 6.14339 19.6451 6.02529L19.5071 5.80189C19.4191 5.65829 19.3601 5.56189 19.2976 5.46929L19.1119 5.21239C19.0486 5.12499 18.9856 5.03759 18.9194 4.95399L18.7903 4.79799C18.6562 4.63949 18.5856 4.55569 18.5123 4.47549L18.3537 4.30949C18.239 4.19169 18.1598 4.11039 18.078 4.03239L17.8754 3.84669C17.7863 3.76669 17.703 3.69249 17.6178 3.62109L17.3964 3.44179C17.3096 3.37309 17.2223 3.30519 17.1337 3.23939L15.2947 2.11249L12.9519 1.10329L10.6719 0.258188L13.2851 0.115888C14.4951 0.0543883 15.7429 0.0586883 16.9696 0.0586883C22.9816 0.0586883 28.992 0.0626216 35.0009 0.0704883H35.3328C51.4128 0.0855883 68.0394 0.101088 84.3888 0.000488281C86.0249 0.00226511 87.644 0.332151 89.1504 0.97063C90.6567 1.60911 92.0197 2.54322 93.1588 3.71769C95.5476 6.09848 96.8968 9.32802 96.9118 12.7006C96.7624 30.5437 96.7986 48.6885 96.8336 66.2358C96.847 72.8909 96.8602 79.5123 96.8642 86.1333V86.6254L95.4962 86.6501C94.782 86.6644 94.0755 86.6785 93.381 86.6788L38.7577 86.69L38.48 86.68C38.2594 86.6779 38.039 86.6637 37.82 86.6374C36.2805 86.3592 34.6945 86.5026 33.2299 87.0523C31.7652 87.602 30.4765 88.5376 29.5003 89.76L29.3817 89.9173C29.1737 90.201 28.9828 90.4969 28.8101 90.8033C28.6324 91.1103 28.4724 91.4273 28.3308 91.7525C27.4969 93.5841 27.3023 95.6427 27.778 97.5981C28.2537 99.5536 29.3723 101.293 30.9544 102.536L31.177 102.743L35.4804 103.971L32.6911 103.918C33.4161 104.28 34.2019 104.504 35.0086 104.579C35.3745 104.619 35.7426 104.649 36.1118 104.673L36.6618 104.7C36.8508 104.71 37.0398 104.72 37.2289 104.725C38.0084 104.749 38.7415 104.754 39.4624 104.758L39.5684 104.76C40.1574 104.764 40.6502 104.769 41.1426 104.779L42.2541 104.801L41.4976 105.621C41.3934 105.732 41.2801 105.835 41.1591 105.927C41.0288 106.028 40.8922 106.119 40.75 106.202C40.5617 106.307 40.4433 106.368 40.3213 106.425L39.3622 106.865L39.0356 106.472L39.2681 106.915L39.1191 106.995L38.7631 106.628L39.0263 107.053L38.8969 107.135L38.5083 106.804L38.8108 107.202L38.6979 107.29L38.2725 107.007L38.6202 107.366L38.5231 107.462L38.0603 107.243L38.4539 107.551L38.1294 108.063L37.8036 108.146ZM21.1447 6.83999C21.2756 7.03025 21.3965 7.22718 21.507 7.42999C22.202 8.82883 22.5369 10.379 22.4815 11.94C22.5102 14.2727 22.5094 16.6448 22.5085 18.94L22.5096 22.015C22.5096 28.6176 22.5154 35.2194 22.527 41.8204C22.5501 59.1971 22.5739 77.1362 22.4277 94.7798C22.3777 100.857 25.7665 105.46 31.2726 106.792L31.4593 106.84C32.0259 107.014 32.612 107.117 33.2041 107.146H37.5141L37.5382 107.108C37.5734 107.055 37.6114 107.006 37.6498 106.957C37.7176 106.869 37.7464 106.832 37.7769 106.798C37.8175 106.752 37.8605 106.71 37.9038 106.669L38.0428 106.536C38.0879 106.496 38.135 106.46 38.1828 106.425L39.0581 105.903C39.1737 105.849 39.2742 105.803 39.3701 105.759C38.6161 105.754 37.9301 105.748 37.2438 105.727C37.0019 105.72 36.8061 105.71 36.6103 105.7L36.0485 105.673C35.6642 105.648 35.281 105.616 34.9002 105.575C33.3522 105.462 31.8916 104.814 30.7692 103.742L30.2869 103.282C29.9457 102.999 29.6213 102.697 29.3153 102.377L29.0896 102.167L29.1296 102.178C27.8089 100.745 26.9413 98.9536 26.6356 97.0289C26.3298 95.1041 26.5997 93.132 27.4113 91.3602C27.5679 91.0004 27.7449 90.6499 27.9413 90.3102C28.1335 89.9691 28.3461 89.6399 28.5779 89.3243L28.7104 89.1488C29.7927 87.7854 31.2238 86.7402 32.8519 86.124C34.48 85.5079 36.2444 85.3437 37.9583 85.6488C38.134 85.6695 38.3107 85.6804 38.4877 85.6815L38.7836 85.6915L93.3803 85.6789C94.0682 85.6789 94.768 85.6646 95.4455 85.651L95.8632 85.6431C95.859 79.1862 95.849 72.7291 95.8332 66.2719C95.7981 48.688 95.7619 30.5406 95.9113 12.6919C95.8948 9.5855 94.6495 6.61191 92.4475 4.42079C91.4112 3.34775 90.1711 2.49243 88.7999 1.90502C87.4287 1.3176 85.9541 1.00991 84.4624 0.999988C68.0424 1.10109 51.4132 1.08559 35.3319 1.07049H35.0026C28.4735 1.06382 21.9457 1.05992 15.4191 1.05879L17.1791 2.05129C17.2787 2.11696 17.3773 2.18422 17.4749 2.25309L17.7292 2.43629C17.8264 2.50839 17.922 2.58259 18.0169 2.65779L18.2601 2.85479C18.354 2.93349 18.4459 3.01479 18.5374 3.09729L18.7681 3.30879C18.8588 3.39529 18.9468 3.48539 19.0346 3.57569L19.2501 3.80069C19.3324 3.89069 19.4116 3.98439 19.4908 4.07819L19.7038 4.33319C19.7786 4.42789 19.8504 4.52679 19.922 4.62579L19.595 5.02579L19.9975 4.72919L20.1255 4.90799C20.1965 5.01289 20.2638 5.12249 20.331 5.23219L19.9851 5.62289L20.4078 5.35589L20.5126 5.52749C20.5885 5.65999 20.6594 5.79889 20.7301 5.93749L20.3451 6.28049L20.7859 6.04439L20.8621 6.19259C20.9618 6.40165 21.056 6.61745 21.1447 6.83999Z" fill="#2B2129"/>
<path d="M40.3594 97.7187C40.4108 97.3565 40.441 96.9916 40.45 96.6259C40.5228 96.0769 40.4725 95.5186 40.3027 94.9915C40.133 94.4644 39.8481 93.9816 39.4686 93.5782C39.3909 93.4682 39.3128 93.3563 39.236 93.2438C39.2147 93.2126 39.1948 93.1807 39.1738 93.1493C39.1181 93.0659 39.063 92.9821 39.0105 92.8972C38.9844 92.855 38.9605 92.8118 38.936 92.7691C38.8917 92.6934 38.8484 92.6173 38.8085 92.54C38.7837 92.4917 38.762 92.4424 38.7392 92.3935C38.7164 92.3446 38.6966 92.2957 38.6765 92.2465L38.7101 92.246L44.3227 92.1538C44.3873 92.2605 44.4415 92.3702 44.5013 92.4784C44.5833 92.6266 44.6699 92.7736 44.7429 92.9243C44.8039 93.0502 44.8529 93.1791 44.9074 93.3066C44.9692 93.4504 45.0364 93.5929 45.0904 93.7384C45.1434 93.8816 45.1835 94.0275 45.229 94.1722C45.2707 94.3049 45.319 94.4364 45.354 94.5702C45.399 94.7402 45.4301 94.9121 45.4649 95.0836C45.4874 95.1942 45.5168 95.3036 45.5349 95.415C45.5705 95.6316 45.5916 95.8496 45.6114 96.0677C45.6176 96.1347 45.6297 96.2012 45.6343 96.2683C45.7032 97.6217 45.5034 98.9754 45.0467 100.251C44.59 101.527 43.8852 102.7 42.9731 103.702C42.8918 103.795 42.8011 103.883 42.7163 103.974C42.5844 104.116 42.4554 104.26 42.3149 104.397C42.0843 104.623 41.8425 104.841 41.5893 105.054C40.9631 105.039 40.3356 105.035 39.708 105.031C38.9811 105.027 38.2419 105.022 37.5019 105L37.4457 104.998C37.2648 104.993 37.0843 104.981 36.9034 104.973C36.3259 104.947 35.7491 104.912 35.1792 104.851C35.0033 104.831 34.8317 104.807 34.6636 104.778C34.6085 104.769 34.5559 104.757 34.5016 104.746C34.3902 104.725 34.2789 104.703 34.1711 104.678C34.1089 104.663 34.0492 104.645 33.9882 104.629C33.8918 104.603 33.7954 104.578 33.702 104.548C33.6393 104.528 33.5788 104.506 33.5174 104.485C33.4296 104.455 33.3422 104.424 33.2574 104.39C33.1962 104.366 33.1368 104.34 33.0774 104.314C32.996 104.279 32.9153 104.243 32.8367 104.204C32.7785 104.175 32.7216 104.145 32.6649 104.115C32.5887 104.075 32.5135 104.033 32.44 103.989C32.3854 103.956 32.3315 103.923 32.2784 103.889C32.2068 103.843 32.1368 103.795 32.0684 103.746C32.0176 103.709 31.9672 103.672 31.9184 103.634C31.872 103.599 31.8276 103.56 31.7826 103.523L31.6484 103.399C31.9007 103.395 32.153 103.395 32.4051 103.394C33.7743 103.481 35.147 103.296 36.4441 102.849C36.7985 102.703 37.1404 102.529 37.4664 102.328C38.2684 101.832 38.9461 101.158 39.4475 100.359C39.949 99.56 40.2609 98.6568 40.3594 97.7187Z" fill="#BB9168"/>
<path d="M41.7688 105.558L41.5807 105.553C40.9701 105.539 40.3582 105.535 39.7463 105.531C38.9772 105.527 38.234 105.521 37.4899 105.499L36.8842 105.473C36.296 105.446 35.7087 105.41 35.1285 105.347C34.9423 105.327 34.7607 105.301 34.5828 105.271L34.4663 105.248C34.2918 105.214 34.1732 105.191 34.0583 105.164L33.92 105.127C33.7568 105.084 33.6547 105.056 33.5557 105.025L33.4035 104.974C33.2622 104.925 33.1678 104.891 33.0761 104.855L32.9061 104.783C32.7922 104.734 32.7046 104.695 32.6192 104.653L32.4322 104.556C32.3489 104.512 32.2669 104.466 32.1866 104.418L32.0098 104.308C31.9315 104.258 31.8548 104.205 31.7798 104.151L31.3107 103.765L30.3945 102.916L31.6431 102.898C31.8977 102.894 32.1524 102.894 32.4068 102.894C33.711 102.977 35.019 102.805 36.2568 102.386C36.5861 102.25 36.9038 102.088 37.2068 101.902C37.947 101.444 38.5721 100.823 39.0335 100.085C39.4949 99.3475 39.7804 98.5135 39.8677 97.6478C39.9164 97.3048 39.945 96.9586 39.9535 96.6122C40.0197 96.117 39.9741 95.6132 39.8201 95.1379C39.6661 94.6625 39.4076 94.2277 39.0635 93.8654L38.7615 93.4269C38.7024 93.3386 38.6441 93.2498 38.5885 93.1598L38.5313 93.0623C38.4589 92.9379 38.4113 92.854 38.3674 92.7688L37.9437 91.7688L38.6716 91.7464L44.6051 91.6489L44.7538 91.8948C44.8007 91.9722 44.8429 92.051 44.8849 92.13L45.0038 92.3464C45.0707 92.4655 45.1374 92.5848 45.1962 92.7064C45.2415 92.7999 45.2809 92.8947 45.3201 92.9896L45.4226 93.2296C45.4717 93.3408 45.5206 93.4522 45.5626 93.5651C45.6036 93.676 45.6378 93.788 45.6718 93.9001L45.7498 94.1471C45.7823 94.2452 45.8145 94.3434 45.8408 94.4427C45.8789 94.5867 45.908 94.7318 45.9368 94.8771L45.9837 95.0999C46.0015 95.1778 46.0189 95.2557 46.0319 95.3342C46.0695 95.5629 46.0919 95.7929 46.113 96.023L46.1367 96.2343C46.2112 97.6535 46.0035 99.0733 45.5258 100.412C45.048 101.75 44.3096 102.98 43.3533 104.032C43.2973 104.095 43.2382 104.157 43.1788 104.218L43.0088 104.398C42.8979 104.518 42.7868 104.638 42.6682 104.755C42.4278 104.989 42.1762 105.217 41.9134 105.438L41.7688 105.558ZM33.353 103.886L33.4446 103.925C33.5227 103.956 33.6033 103.984 33.6841 104.012L33.8541 104.071C33.9396 104.098 34.0279 104.121 34.1162 104.144L34.2897 104.191C34.3904 104.215 34.4945 104.235 34.5985 104.255L34.6663 104.778L34.7503 104.285C34.9086 104.312 35.0703 104.335 35.2358 104.353C35.7953 104.414 36.3616 104.448 36.9286 104.473L37.4641 104.498C38.2557 104.521 38.9908 104.526 39.7141 104.531C40.3025 104.534 40.86 104.538 41.4134 104.549C41.6056 104.383 41.7907 104.213 41.9687 104.039C42.0745 103.935 42.174 103.827 42.2736 103.719L42.4597 103.521C42.5075 103.472 42.5554 103.423 42.5997 103.371C43.469 102.419 44.1409 101.304 44.5766 100.09C45.0124 98.8769 45.2032 97.5891 45.1382 96.3013L45.1162 96.112C45.0975 95.9056 45.0779 95.6995 45.0442 95.4949C45.0342 95.4366 45.0211 95.3786 45.0079 95.3206L44.955 95.07C44.9303 94.9452 44.9059 94.82 44.8732 94.6968C44.8521 94.6168 44.8257 94.5385 44.7996 94.4596L44.7137 94.188C44.6857 94.0953 44.6579 94.0024 44.6237 93.9108C44.5889 93.817 44.5477 93.7246 44.5068 93.6321L44.3945 93.3697C44.3629 93.2931 44.3316 93.2164 44.2951 93.141C44.2451 93.0379 44.188 92.9369 44.131 92.8356L44.0326 92.6575L39.5015 92.7328C39.5315 92.7791 39.5615 92.8251 39.5926 92.871L39.2392 93.2435L39.6522 92.9617L39.8806 93.29C40.3026 93.7479 40.6169 94.2943 40.8006 94.8892C40.9843 95.4841 41.0328 96.1126 40.9425 96.7286C40.9381 97.0837 40.9097 97.4381 40.8575 97.7894C40.7462 98.7996 40.4068 99.7714 39.8652 100.631C39.3235 101.491 38.5936 102.217 37.7305 102.754C37.3813 102.969 37.0153 103.155 36.6359 103.311C35.5872 103.707 34.4737 103.902 33.353 103.886ZM39.1621 92.7384L39.0134 92.8969L39.2727 92.7369L39.1621 92.7384Z" fill="#2B2129"/>
<path d="M40.2426 96.5053L38.6408 96.4998C37.0602 96.4947 35.4798 96.4875 33.8994 96.478L33.7586 96.4774C32.9931 96.4752 32.27 96.4732 32.0137 95.5794C31.9095 95.2036 31.9122 94.8061 32.0216 94.4318C32.1311 94.0575 32.3429 93.7211 32.6331 93.4607C32.7502 93.3361 32.8695 93.2234 32.99 93.1165C33.0278 93.083 33.0661 93.0522 33.1042 93.0203C33.1904 92.9484 33.2775 92.8806 33.3654 92.8168C33.4072 92.7868 33.4488 92.7563 33.491 92.7279C33.5899 92.6614 33.69 92.6005 33.791 92.5437C33.819 92.528 33.8464 92.5098 33.8746 92.4948C33.9997 92.4283 34.127 92.37 34.2558 92.3171C34.3028 92.2978 34.3508 92.2817 34.3984 92.2642C34.4851 92.2321 34.5724 92.2023 34.6608 92.1759C34.7164 92.1593 34.7724 92.1435 34.8288 92.129C34.9161 92.1066 35.0045 92.0876 35.0935 92.0702C35.1463 92.0602 35.1984 92.0477 35.2517 92.0391C35.3843 92.0176 35.5188 92.0009 35.655 91.9891C35.7126 91.9842 35.7715 91.9826 35.8297 91.9791C35.9197 91.9741 36.0109 91.9699 36.1029 91.9691C36.1664 91.9683 36.2306 91.9691 36.2949 91.9696C36.3991 91.9711 36.5045 91.9748 36.6109 91.9808C36.6626 91.9837 36.7138 91.9854 36.766 91.9892C36.9273 92.0011 37.0906 92.0166 37.2569 92.0372L37.3116 92.0447C37.4801 92.0664 37.651 92.0918 37.8244 92.1209L37.8518 92.1256C38.04 92.1578 38.2312 92.1939 38.4253 92.2338C38.452 92.3053 38.4867 92.3738 38.518 92.443C38.542 92.4963 38.5627 92.551 38.589 92.603C38.6306 92.6857 38.6774 92.7658 38.7237 92.8462C38.7501 92.8921 38.7737 92.9391 38.8016 92.9844C38.8558 93.0731 38.9133 93.1596 38.9708 93.2461C38.9941 93.2813 39.016 93.3172 39.0397 93.352C39.1211 93.472 39.2041 93.59 39.2865 93.7072C39.3624 93.815 39.4377 93.922 39.5111 94.0291C39.5271 94.0525 39.5411 94.076 39.5574 94.0991C39.6148 94.1841 39.6719 94.2691 39.7256 94.3547C39.7399 94.3776 39.7522 94.4009 39.7663 94.4239C39.8194 94.511 39.8718 94.5983 39.9192 94.6872C39.9292 94.7065 39.9376 94.7265 39.9476 94.7459C39.9957 94.8394 40.0418 94.9334 40.0815 95.0299C40.0888 95.0477 40.0938 95.0663 40.1008 95.0842C40.1402 95.1828 40.1741 95.2835 40.2023 95.3858C40.208 95.4069 40.2107 95.4291 40.2159 95.4503C40.2413 95.5515 40.2603 95.6541 40.2729 95.7577C40.2765 95.79 40.2759 95.8241 40.2783 95.8569C40.2864 95.9529 40.2888 96.0492 40.2857 96.1455C40.2831 96.2042 40.2736 96.2655 40.2667 96.3255C40.2608 96.3852 40.2532 96.4445 40.2426 96.5053Z" fill="#2B2129"/>
<path d="M40.6631 97.0071L38.6394 97.0001C37.0582 96.9951 35.4771 96.9878 33.8961 96.9783L33.7566 96.9777C32.9706 96.9754 31.8932 96.9723 31.5334 95.7177C31.4049 95.2588 31.4056 94.7733 31.5353 94.3148C31.6651 93.8563 31.9189 93.4424 32.2689 93.1189C32.3968 92.9827 32.5269 92.8596 32.6589 92.7428L32.756 92.6605C32.8798 92.5574 32.976 92.4822 33.0733 92.412L33.2133 92.3133C33.3233 92.2393 33.4349 92.1713 33.5478 92.108L33.6414 92.0537C33.78 91.9804 33.9221 91.9141 34.0674 91.855L34.1874 91.8098C34.3237 91.7598 34.4211 91.7266 34.5196 91.6972L34.7065 91.645C34.8028 91.6203 34.9007 91.5992 34.9992 91.5799L35.1735 91.5459C35.3185 91.5225 35.4654 91.5044 35.6144 91.4916L35.7506 91.4834C35.9012 91.4754 35.9991 91.4709 36.0984 91.4697L36.3037 91.4702C36.4149 91.4718 36.5272 91.4758 36.6404 91.4821L36.8039 91.491C36.9739 91.5036 37.1455 91.5199 37.3201 91.541C37.5522 91.571 37.7294 91.5974 37.9101 91.628C38.1319 91.6658 38.3283 91.703 38.5281 91.7441L38.7989 91.7997L39.0063 92.3075C39.0711 92.4447 39.1083 92.5088 39.1453 92.5729L39.1953 92.6622C39.2808 92.8068 39.3345 92.8875 39.3882 92.9683L39.0416 93.3523L39.4551 93.0713L39.9251 93.7469C40.0339 93.9094 40.094 93.9992 40.1507 94.0897C40.2528 94.2597 40.31 94.3551 40.3619 94.4524C40.4484 94.6239 40.5005 94.7309 40.5455 94.8405C40.5998 94.9767 40.6469 95.1157 40.6868 95.2568C40.7236 95.4032 40.7517 95.5516 40.7711 95.7012L40.7784 95.8212C40.7879 95.9362 40.7906 96.0516 40.7867 96.1669C40.7842 96.2246 40.7775 96.2825 40.7703 96.3403C40.7577 96.4503 40.749 96.5203 40.7365 96.5918L40.6631 97.0071ZM40.2443 96.1445V96.1565L40.2863 96.1465L40.2443 96.1445ZM32.9903 93.1165L33.3221 93.4906C33.2127 93.5877 33.1042 93.6899 32.9979 93.8031C32.7685 94.0014 32.5996 94.2602 32.5106 94.5501C32.4216 94.8399 32.416 95.1489 32.4946 95.4417C32.6294 95.9117 32.8711 95.9749 33.7601 95.9775L33.9021 95.9781C35.4831 95.9897 37.0633 95.9969 38.6427 95.9999L39.7866 96.0039C39.7853 95.9673 39.783 95.931 39.7803 95.895C39.7732 95.785 39.7565 95.6758 39.7303 95.5687C39.7061 95.4659 39.6744 95.365 39.6353 95.2668C39.5969 95.1672 39.5529 95.0699 39.5033 94.9753C39.4354 94.8428 39.3878 94.7638 39.3397 94.6853L38.5536 93.5222C38.4929 93.4308 38.4324 93.3395 38.3752 93.2459L38.3167 93.1433C38.2306 92.9923 38.1843 92.9115 38.1426 92.8285L38.0836 92.6985L38.106 92.6811C37.992 92.6592 37.8793 92.6387 37.7678 92.6195C37.5743 92.5867 37.4102 92.5626 37.2478 92.5417C37.0378 92.515 36.8824 92.5002 36.7292 92.489L36.5837 92.4812C36.4837 92.4756 36.3849 92.4723 36.2875 92.4712L36.1097 92.4707C36.0245 92.4718 35.9408 92.4757 35.8575 92.4807L35.6975 92.4895C35.5739 92.5 35.452 92.515 35.3318 92.5345L35.1895 92.5628C35.1102 92.5783 35.0312 92.5951 34.9532 92.6152L34.8032 92.6571C34.7254 92.6803 34.6481 92.7071 34.5713 92.7351L34.2556 92.319L34.4456 92.7816C34.3321 92.8282 34.2198 92.8795 34.1095 92.9382C33.946 93.032 33.8573 93.0859 33.7695 93.1448L33.6721 93.2136C33.579 93.2809 33.5012 93.3417 33.4241 93.4061L32.9903 93.1165ZM38.3856 92.43L38.3776 92.4687L38.49 92.3812L38.3856 92.43Z" fill="#2B2129"/>
<path d="M38.5205 92.0241C36.4128 91.5853 34.2228 91.44 32.4696 93.307C32.1511 93.5948 31.9194 93.9659 31.8007 94.3784C31.682 94.791 31.681 95.2285 31.7979 95.6415C32.1008 96.6976 32.9814 96.7002 33.7579 96.7024L33.8979 96.7031C35.4359 96.7143 36.9739 96.7215 38.5119 96.7246L40.2219 96.7307C40.2192 96.8027 40.2147 96.8734 40.2104 96.9444C40.2051 97.0325 40.2004 97.1214 40.1932 97.2079C40.1853 97.2967 40.1741 97.3832 40.1637 97.4702C40.1537 97.5547 40.1448 97.6402 40.1324 97.7226C40.1197 97.8081 40.1035 97.8911 40.0882 97.9748C40.0735 98.0558 40.06 98.1376 40.043 98.217C40.0253 98.2993 40.0041 98.379 39.9839 98.4595C39.9646 98.5367 39.9466 98.6149 39.925 98.6905C39.9024 98.7697 39.8761 98.8462 39.851 98.9236C39.8272 98.9969 39.8048 99.0713 39.7787 99.143C39.7512 99.2188 39.72 99.2917 39.69 99.3656C39.6617 99.4356 39.6348 99.5063 39.6043 99.5743C39.572 99.6463 39.536 99.7152 39.5013 99.7852C39.4684 99.8517 39.437 99.9194 39.4019 99.9841C39.3648 100.052 39.324 100.117 39.2846 100.184C39.2472 100.247 39.2114 100.311 39.1719 100.372C39.1299 100.437 39.084 100.498 39.0396 100.561C38.998 100.62 38.9581 100.68 38.9144 100.737C38.8673 100.799 38.8162 100.857 38.7667 100.916C38.7211 100.971 38.6773 101.027 38.6297 101.08C38.5772 101.138 38.5207 101.193 38.4658 101.249C38.4165 101.299 38.3692 101.351 38.3179 101.399C38.2601 101.454 38.1979 101.505 38.1379 101.557C38.085 101.603 38.0341 101.651 37.9792 101.696C37.9151 101.747 37.8467 101.796 37.78 101.845C37.7246 101.886 37.6713 101.929 37.6141 101.968C37.5404 102.019 37.4623 102.065 37.3856 102.113C37.331 102.148 37.2786 102.183 37.2225 102.217C37.1374 102.267 37.0476 102.312 36.959 102.358C36.907 102.386 36.8574 102.415 36.8042 102.441C36.6606 102.512 36.5128 102.579 36.3606 102.641C35.0902 103.076 33.7466 103.255 32.4066 103.17C32.0752 103.17 31.7435 103.171 31.412 103.179L31.2849 103.061L31.413 103.18L30.9522 102.753L30.9472 102.748C29.3045 101.474 28.1408 99.6823 27.6449 97.6636C27.1491 95.6449 27.3503 93.5178 28.2159 91.6279C28.3148 91.3988 28.4223 91.1779 28.5359 90.9614C28.5726 90.8914 28.6133 90.8251 28.6515 90.7564C28.7315 90.6132 28.8122 90.4708 28.8983 90.3337C28.947 90.2561 28.9989 90.1817 29.0496 90.1061C29.1318 89.9835 29.2153 89.8622 29.3026 89.745C29.3588 89.6695 29.4168 89.5962 29.475 89.523C29.564 89.4112 29.6553 89.3018 29.7487 89.1949C29.8095 89.1257 29.8712 89.0574 29.9337 88.99C30.0325 88.8846 30.1343 88.7828 30.2376 88.683C30.3003 88.623 30.3625 88.5613 30.4268 88.503C30.5411 88.3993 30.6592 88.3007 30.7786 88.2037C30.8367 88.1564 30.8932 88.1071 30.9525 88.0615C31.105 87.9441 31.2625 87.8333 31.4225 87.7267C31.4525 87.7067 31.4805 87.6846 31.5106 87.6651C31.7056 87.5385 31.9058 87.4201 32.1112 87.3101C32.1463 87.2912 32.1831 87.2754 32.2185 87.257C32.3868 87.1695 32.5575 87.0859 32.7322 87.0093C32.7986 86.9802 32.867 86.9548 32.9343 86.9272C33.0819 86.8672 33.2305 86.8085 33.3822 86.7559C33.4603 86.7288 33.5398 86.7044 33.6189 86.6793C33.7642 86.6334 33.9108 86.5901 34.0595 86.5512C34.1437 86.5292 34.2285 86.5086 34.3137 86.4888C34.4627 86.4544 34.6133 86.4235 34.7654 86.3962C34.8515 86.3807 34.9377 86.365 35.0248 86.3517C35.183 86.3275 35.3433 86.3089 35.5048 86.2924C35.5879 86.2839 35.6703 86.2736 35.7542 86.2671C35.9342 86.2532 36.1165 86.2465 36.2997 86.2421C36.3667 86.2405 36.4327 86.2358 36.5002 86.2354C36.6858 86.2345 36.8742 86.243 37.0628 86.2519C37.1384 86.2554 37.2128 86.2547 37.2886 86.2599C37.5532 86.2778 37.8203 86.3046 38.09 86.342C38.2958 86.3668 38.5028 86.3802 38.71 86.382C38.7719 86.3836 38.8358 86.3861 38.8993 86.3885C38.905 86.4241 38.9169 86.4537 38.9248 86.4872C38.9343 86.5272 38.9429 86.5685 38.9554 86.6059C38.9709 86.65 38.9888 86.6931 39.0091 86.7351C39.0247 86.7686 39.0391 86.8032 39.057 86.8343C39.08 86.8724 39.1051 86.9091 39.1321 86.9443C39.1521 86.9719 39.1712 87.0009 39.1933 87.0265C39.2226 87.0604 39.255 87.0909 39.2872 87.1216C39.3106 87.144 39.3328 87.1679 39.3572 87.1888C39.3924 87.2188 39.43 87.245 39.4672 87.2719C39.4923 87.2899 39.5162 87.3093 39.5421 87.3262C39.583 87.353 39.6256 87.3771 39.6681 87.4014C39.6928 87.4155 39.7165 87.4308 39.7416 87.4443C39.7892 87.4699 39.8375 87.4935 39.8859 87.5172C39.9069 87.5272 39.9275 87.5386 39.9485 87.5485C40.0172 87.5811 40.0859 87.6124 40.1535 87.6431L40.2886 87.705C40.5242 87.8141 40.7506 87.9318 40.9677 88.058C41.0377 88.098 41.1006 88.1449 41.1685 88.187C41.3126 88.277 41.4579 88.3651 41.5938 88.4627C41.665 88.5139 41.7297 88.5714 41.7987 88.6248C41.9236 88.7214 42.0499 88.8165 42.1676 88.9206C42.2326 88.9781 42.2915 89.0419 42.3543 89.1016C42.468 89.2098 42.5828 89.3168 42.6893 89.4326C42.7475 89.4958 42.8001 89.5652 42.8562 89.6307C42.9592 89.7507 43.0629 89.8707 43.1588 89.9987C43.2134 90.0716 43.2625 90.1505 43.3148 90.2259C43.4036 90.3539 43.493 90.4812 43.5748 90.6166C43.6309 90.709 43.6815 90.8077 43.7348 90.9035C43.804 91.0283 43.8742 91.1519 43.9384 91.2826C44.0026 91.4133 44.0593 91.5486 44.1177 91.684C44.1532 91.7658 44.1895 91.8465 44.2233 91.9305L38.5205 92.0241Z" fill="#CBA58C"/>
<path d="M31.2217 103.683L31.0736 103.546L30.6136 103.119C28.89 101.777 27.6701 99.8928 27.1518 97.7711C26.6335 95.6493 26.8471 93.4147 27.7581 91.4296C27.8621 91.1888 27.9751 90.9559 28.0943 90.7289L28.1751 90.5842C28.3 90.362 28.3851 90.2121 28.476 90.0676L28.596 89.8853C28.7219 89.698 28.8101 89.57 28.9023 89.4462L29.0843 89.2118C29.1785 89.0934 29.2749 88.9778 29.3737 88.8648L29.5695 88.6482C29.674 88.5365 29.7816 88.4288 29.891 88.3232L30.091 88.1326C30.212 88.0226 30.3371 87.9183 30.4635 87.8155L30.6478 87.6655C30.8093 87.5412 30.9757 87.4238 31.1451 87.3108L31.2385 87.2458C31.4451 87.112 31.6571 86.9867 31.8744 86.8699L31.9878 86.8135C32.1658 86.721 32.3464 86.6327 32.5313 86.5516L32.6768 86.4916C32.9008 86.4006 33.0579 86.339 33.2181 86.2834L33.422 86.217C33.6213 86.154 33.7759 86.1085 33.9327 86.067L34.2006 86.0012C34.3576 85.965 34.5161 85.9325 34.6763 85.9037L34.9493 85.8569C35.1155 85.8315 35.284 85.8119 35.4533 85.7945L35.7151 85.7681C35.9038 85.7536 36.0951 85.7464 36.2871 85.7417L36.4971 85.7349C36.6912 85.734 36.8883 85.7426 37.0856 85.7519L37.3217 85.7605C37.5977 85.7793 37.8765 85.8079 38.158 85.8463C38.3438 85.8684 38.5308 85.8801 38.718 85.8813L39.2924 85.9021L39.5317 86.6442L39.7488 86.8582L40.4971 87.2502C40.7485 87.3666 40.9881 87.4915 41.2185 87.6251C41.2685 87.6539 41.3156 87.6851 41.3627 87.7165L41.2136 88.2147L41.4771 87.7897C41.616 87.8759 41.7547 87.9623 41.8856 88.0563C41.937 88.0932 41.9856 88.1328 42.0344 88.1725L41.7987 88.6245L42.1573 88.2696C42.2736 88.3596 42.3896 88.4496 42.4989 88.5457C42.5462 88.5875 42.591 88.632 42.6356 88.6766L42.3544 89.1013L42.7397 88.7777C42.848 88.8805 42.9559 88.9836 43.0573 89.0937C43.0997 89.1398 43.1399 89.1885 43.1799 89.2374L42.8817 89.66L43.2617 89.3347C43.3634 89.4534 43.4648 89.5723 43.5594 89.6987C43.5994 89.7521 43.6371 89.8081 43.6745 89.8642L43.3152 90.2256L43.7483 89.9726C43.8354 90.0982 43.9222 90.2239 44.003 90.3567C44.046 90.4276 44.0862 90.5016 44.1262 90.5756L43.7353 90.9032L44.2015 90.7132C44.2652 90.8276 44.3287 90.9422 44.3877 91.0622C44.4467 91.1822 44.5011 91.309 44.5552 91.4348L44.2198 91.6894V91.7132L44.6028 91.5454L44.9582 92.4186L38.4735 92.5253L38.419 92.5139C36.1507 92.0417 34.3329 92.0539 32.8346 93.6496C32.5766 93.8749 32.3876 94.1685 32.2893 94.4966C32.191 94.8246 32.1874 95.1738 32.2789 95.5038C32.4595 96.1338 32.8689 96.2002 33.7602 96.2027L33.9008 96.2034C35.4394 96.2146 36.9771 96.2218 38.5141 96.2249L40.7417 96.2329L40.6673 97.4753L40.1573 97.5317L40.654 97.589L40.5911 98.009L40.0779 98.0364L40.5702 98.1239L40.4834 98.5267L39.9696 98.5207L40.4552 98.6396L40.3452 99.0233L39.8321 98.9848L40.3086 99.1363L40.176 99.5001L39.6671 99.4247L40.1316 99.6097L39.9761 99.9552L39.4739 99.8429L39.9239 100.062L39.7459 100.388L39.2517 100.24L39.6834 100.492L39.4827 100.801L39.0017 100.616L39.4126 100.901L39.1901 101.19L38.7241 100.968L39.1113 101.284L38.8669 101.554L38.4184 101.298L38.7796 101.644L38.5152 101.892L38.0852 101.604L38.418 101.977L38.294 102.084C38.2412 102.127 38.1859 102.167 38.1306 102.208L37.7229 101.888L38.0261 102.285L37.8981 102.379C37.8359 102.422 37.771 102.463 37.706 102.503L37.326 102.152L37.5984 102.571L37.4758 102.648C37.4007 102.692 37.3225 102.733 37.2442 102.773L36.8983 102.391L37.1399 102.829L37.0257 102.889C36.8723 102.965 36.7142 103.036 36.5512 103.103C34.8938 103.615 33.1548 103.81 31.4253 103.678L31.2217 103.683ZM31.4217 87.7262L31.699 88.1423C31.5484 88.2423 31.4006 88.3468 31.2571 88.4572L31.1614 88.5351C30.9814 88.6825 30.87 88.7751 30.7624 88.8728L30.6213 89.0067C30.4872 89.1367 30.3913 89.2321 30.2983 89.3314L30.124 89.5244C30.0357 89.625 29.9497 89.7282 29.8659 89.8338L29.7033 90.0431C29.6208 90.1539 29.5421 90.2685 29.4644 90.3843L29.3213 90.5993C29.2398 90.7293 29.1635 90.8639 29.0879 90.9993L28.9779 91.193C28.8703 91.3981 28.7679 91.6081 28.6744 91.8254C27.8547 93.6162 27.6645 95.6315 28.1347 97.544C28.6048 99.4566 29.7078 101.154 31.2644 102.361L31.6032 102.674C33.1434 102.794 34.6925 102.626 36.171 102.178C36.3125 102.12 36.45 102.058 36.5835 101.992L36.7268 101.915C36.8451 101.853 36.9091 101.82 36.9703 101.784L38.6703 100.218L39.4444 98.5529L39.6881 97.2285L38.5104 97.2243C36.9719 97.2192 35.4333 97.212 33.8945 97.2027L33.7561 97.2021C32.9474 97.1998 31.724 97.1963 31.3175 95.779C31.1767 95.2828 31.1758 94.7574 31.3148 94.2607C31.4538 93.764 31.7274 93.3154 32.1053 92.9644C34.0179 90.9278 36.4407 91.0858 38.5677 91.523L43.4592 91.4425C43.4167 91.3598 43.3718 91.2794 43.327 91.1989L43.2458 91.0509C43.2137 90.9916 43.1819 90.9322 43.1475 90.8756C43.0775 90.7604 43.0016 90.6516 42.926 90.5426L42.7582 90.2979C42.6768 90.1892 42.5891 90.0873 42.5016 89.9852L42.3216 89.7708C42.2354 89.6771 42.1431 89.59 42.0516 89.5027L41.837 89.2947C41.7444 89.2128 41.6458 89.1373 41.547 89.0615L41.3024 88.8684C41.1897 88.7874 41.0698 88.7136 40.9502 88.6394L40.7172 88.49C40.5128 88.3716 40.2999 88.261 40.0786 88.1582L39.1754 87.6773C39.1216 87.6387 39.077 87.6062 39.0348 87.5706L38.9571 87.4982C38.8927 87.4362 38.8518 87.3962 38.8142 87.3525L38.741 87.2572C38.6987 87.2015 38.6595 87.1435 38.6235 87.0835L38.5642 86.9647C38.5493 86.9323 38.536 86.9032 38.5242 86.8757C38.3558 86.8712 38.1877 86.8582 38.0206 86.8366C37.7629 86.8008 37.5074 86.7751 37.2543 86.758L37.0388 86.7506C36.8588 86.7422 36.6793 86.7341 36.5022 86.7347L36.311 86.7413C36.1369 86.7455 35.9633 86.7513 35.7922 86.765L35.6369 86.7803C35.4024 86.8048 35.2503 86.8223 35.1002 86.8452L34.8666 86.8852C34.7102 86.9135 34.5675 86.9424 34.4266 86.9752L34.1861 87.0342C34.0461 87.071 33.907 87.1119 33.7697 87.1554L33.546 87.2275C33.4031 87.2775 33.2629 87.3323 33.1237 87.3893L32.9331 87.4665C32.7684 87.5387 32.6077 87.6175 32.4491 87.6999L32.1112 87.3094L32.3479 87.7494C32.1545 87.8533 31.9661 87.9647 31.7826 88.0836L31.4217 87.7262Z" fill="#2B2129"/>
<path d="M107.876 99.1317C107.113 104.109 102.865 106.509 99.4283 107.645H38.293C38.3042 107.625 38.3144 107.604 38.3261 107.585C38.35 107.545 38.3749 107.507 38.4009 107.47C38.4309 107.427 38.4623 107.386 38.4949 107.346C38.5229 107.312 38.5513 107.279 38.5811 107.247C38.6158 107.21 38.652 107.175 38.689 107.14C38.7203 107.111 38.7515 107.082 38.7843 107.055C38.8235 107.022 38.8643 106.991 38.9055 106.961C38.9392 106.936 38.9724 106.911 39.0073 106.888C39.0512 106.859 39.0966 106.831 39.1421 106.803C39.1769 106.783 39.2111 106.761 39.2468 106.741C39.2968 106.713 39.3478 106.687 39.399 106.66C39.4326 106.643 39.4653 106.625 39.499 106.608C39.5596 106.578 39.6215 106.55 39.6836 106.522C39.7096 106.51 39.7349 106.497 39.7611 106.485C39.8494 106.445 39.9385 106.406 40.0285 106.367C40.1409 106.317 40.2533 106.267 40.3659 106.216C40.8047 106.038 41.2044 105.776 41.5428 105.445C41.6029 105.382 41.6592 105.315 41.7116 105.245C41.9746 105.026 42.2257 104.8 42.4651 104.567L42.4839 104.547C45.8579 101.247 46.8179 96.6366 44.9351 92.7987C44.8022 92.5267 44.6549 92.2588 44.4932 91.995C43.9278 90.4275 42.8818 89.0787 41.5044 88.141C41.1479 87.8977 40.7725 87.6833 40.3819 87.4998L40.2455 87.4374C40.1789 87.4074 40.1128 87.3774 40.0478 87.3464L40.0044 87.325C39.9544 87.3011 39.9056 87.277 39.858 87.2518C39.8364 87.2403 39.8161 87.2278 39.795 87.216C39.7557 87.1939 39.7165 87.1718 39.6793 87.1481C39.6565 87.1336 39.6355 87.1175 39.6137 87.1022C39.5806 87.0792 39.5477 87.0559 39.517 87.0307C39.4952 87.013 39.4755 86.9934 39.4551 86.9744C39.4275 86.9488 39.4002 86.9227 39.3751 86.8944C39.356 86.873 39.3391 86.8497 39.3217 86.8267C39.299 86.7972 39.2779 86.7664 39.2586 86.7346C39.2433 86.709 39.2299 86.6814 39.2166 86.6538C39.1996 86.6188 39.1847 86.5828 39.1719 86.546C39.1613 86.5155 39.1519 86.4834 39.1441 86.4505C39.1393 86.4314 39.1364 86.4105 39.1325 86.3905L45.4819 86.3894C61.6962 86.387 77.9105 86.3837 94.1247 86.3794C94.8337 86.3794 95.554 86.3647 96.2507 86.3508C96.5827 86.3441 96.9148 86.3381 97.247 86.3325C103.001 86.58 106.962 89.7425 107.842 94.7934C108.093 96.2278 108.104 97.6936 107.876 99.1317Z" fill="#D7AF94"/>
<path d="M99.5075 108.146H37.4375L37.8554 107.401C37.8966 107.326 37.9416 107.253 37.9902 107.183C38.0276 107.129 38.0666 107.078 38.1073 107.029C38.1421 106.986 38.1773 106.945 38.2144 106.905C38.2573 106.86 38.3018 106.816 38.3473 106.774L38.463 106.671C38.51 106.631 38.5587 106.594 38.608 106.558L39.4735 106.067L40.156 105.761C40.5349 105.609 40.8811 105.386 41.176 105.104C41.2238 105.053 41.2686 105 41.3102 104.945L41.3902 104.861C41.6431 104.65 41.8846 104.433 42.1147 104.209C45.3479 101.045 46.271 96.6606 44.4847 93.0192C44.358 92.7605 44.2182 92.5062 44.0652 92.2563C43.7339 91.3166 43.2188 90.4522 42.55 89.7135C41.8812 88.9748 41.0721 88.3767 40.1698 87.9539L39.3252 87.5124C39.2822 87.4824 39.2391 87.4513 39.1986 87.4182L39.1129 87.3412C39.0739 87.305 39.0355 87.2675 38.9999 87.2275L38.9283 87.1385C38.892 87.0914 38.8583 87.0423 38.8274 86.9914L38.7641 86.8708C38.739 86.8188 38.7169 86.7653 38.6978 86.7108L38.6573 86.5728L38.5408 85.977L39.1308 85.891L94.1233 85.8799C94.8197 85.8799 95.5269 85.8656 96.2118 85.852L97.2379 85.833C103.273 86.0918 107.41 89.4094 108.334 94.708C108.593 96.1956 108.605 97.7158 108.369 99.2073C107.568 104.437 103.149 106.941 99.584 108.12L99.5075 108.146ZM39.5497 107.146H99.3459C102.632 106.044 106.661 103.75 107.381 99.0555C107.6 97.6712 107.589 96.2602 107.349 94.8794C106.512 90.0772 102.727 87.0694 97.2243 86.8322L96.2821 86.8505C95.5404 86.8652 94.8265 86.8794 94.1236 86.8796L40.2542 86.8904L40.5886 87.0451C41.0043 87.2398 41.4037 87.4676 41.783 87.7262C43.2457 88.7219 44.3573 90.1534 44.9596 91.8172C45.1162 92.0623 45.2578 92.3168 45.3834 92.5791C47.3634 96.6142 46.3619 101.453 42.8326 104.905C42.5789 105.153 42.3312 105.377 42.0736 105.593C42.0198 105.662 41.9635 105.727 41.9047 105.789C41.5224 106.166 41.0702 106.465 40.5735 106.67L39.7182 107.057L39.3982 106.66L39.6266 107.105L39.5497 107.146ZM39.3469 107.146H39.4605L39.1405 106.804L39.3469 107.146ZM39.0393 107.146H39.1093L38.9047 106.961L39.0393 107.146Z" fill="#2B2129"/>
<path d="M88.4853 50.3577C87.8586 50.6716 87.1551 50.7994 86.4581 50.7259C80.1881 50.6807 73.8123 50.6877 67.6463 50.6948C65.3393 50.6974 63.0322 50.6991 60.725 50.7C58.4317 50.6985 56.137 50.6966 53.8409 50.6942C52.333 50.6922 50.8138 50.6905 49.2834 50.6891C44.6972 50.6858 40.0393 50.6906 35.4396 50.7276C34.7069 50.806 33.9671 50.6737 33.307 50.3462C33.0893 50.1714 32.921 49.9429 32.8187 49.6832C32.7163 49.4235 32.6836 49.1415 32.7236 48.8653C32.6931 48.6146 32.7279 48.3603 32.8244 48.1269C32.9209 47.8936 33.076 47.6891 33.2747 47.5332C33.3249 47.4992 33.3774 47.4687 33.4317 47.4418C34.0577 47.2062 34.7275 47.1095 35.3946 47.1584H35.4319C53.5319 47.1993 70.2195 47.1979 86.4496 47.1551C87.1531 47.0853 87.862 47.2155 88.4947 47.5309C88.7013 47.6967 88.8613 47.9134 88.9588 48.1596C89.0564 48.4059 89.0883 48.6734 89.0513 48.9357C89.0885 49.2014 89.0559 49.4723 88.9567 49.7217C88.8575 49.971 88.695 50.1902 88.4853 50.3577Z" fill="#C2956D"/>
<path d="M35.3482 51.2275C34.5449 51.3032 33.737 51.1406 33.0256 50.76C32.7426 50.5373 32.5205 50.2467 32.38 49.9151C32.2396 49.5836 32.1853 49.2219 32.2222 48.8637C32.1899 48.5312 32.2437 48.1961 32.3786 47.8905C32.5135 47.5849 32.7248 47.3192 32.9922 47.1191C33.0609 47.0727 33.1326 47.0309 33.2068 46.994C33.9009 46.7187 34.6482 46.6038 35.393 46.658C53.473 46.6988 70.1606 46.698 86.4466 46.6547C87.2512 46.5749 88.0613 46.7359 88.7743 47.1171C89.0204 47.3539 89.216 47.6381 89.3493 47.9525C89.4825 48.267 89.5507 48.6052 89.5497 48.9468C89.5487 49.2883 89.4785 49.6261 89.3433 49.9398C89.2081 50.2534 89.0108 50.5364 88.7633 50.7718C88.0556 51.1495 87.2513 51.3074 86.4533 51.2254C80.1564 51.1799 73.7963 51.1873 67.6456 51.1943L60.7236 51.1998L49.2817 51.1889C44.6968 51.1857 40.0404 51.1904 35.4417 51.2273L35.3482 51.2275ZM35.4294 47.658C34.8278 47.612 34.2232 47.6906 33.6534 47.8888C33.6191 47.9058 33.5859 47.9251 33.5541 47.9465C33.4004 48.0509 33.2241 48.2498 33.2222 48.8665C33.2205 49.588 33.4049 49.8099 33.5854 49.9318C34.1647 50.1929 34.8031 50.295 35.4349 50.2276C40.0349 50.1906 44.6949 50.1859 49.2824 50.1891L60.724 50.1998L67.644 50.1946C73.7967 50.1875 80.1589 50.1803 86.46 50.2257C87.0561 50.2892 87.6584 50.1916 88.204 49.943C88.3745 49.828 88.549 49.6182 88.5496 48.935C88.5502 48.265 88.3796 48.058 88.2119 47.9442C87.6586 47.6959 87.0502 47.5962 86.4466 47.6549C70.1618 47.6977 53.4734 47.6988 35.4294 47.658Z" fill="#2B2129"/>
<path d="M35.2471 66.9352H35.279C52.4479 66.9831 69.6874 66.9828 86.519 66.9346H86.5526C88.6505 66.9346 89.019 67.5069 89.0478 68.7838C89.0866 69.0384 89.058 69.2988 88.9648 69.539C88.8716 69.7792 88.7171 69.9907 88.5167 70.1526C87.858 70.4858 87.116 70.6179 86.3828 70.5326C80.1581 70.4896 73.8292 70.4963 67.7086 70.5026C63.1474 70.5076 58.5861 70.5076 54.0248 70.5026C52.4958 70.5009 50.9555 70.4993 49.404 70.4979C44.754 70.4951 40.0303 70.4997 35.3658 70.5328C34.6458 70.6121 33.9182 70.4815 33.2707 70.1568C33.0662 69.9931 32.9084 69.7785 32.8131 69.5345C32.7179 69.2905 32.6885 69.0257 32.728 68.7668C32.7453 67.5272 33.1275 66.9352 35.2471 66.9352Z" fill="#C2956D"/>
<path d="M35.2452 71.0333C34.4628 71.1075 33.6761 70.9457 32.9865 70.5687C32.7163 70.3568 32.5047 70.0794 32.3718 69.7627C32.239 69.4461 32.1892 69.1008 32.2273 68.7596C32.251 67.0652 33.0693 66.4352 35.2465 66.4352H35.2783C52.4299 66.4831 69.6683 66.4829 86.5172 66.4346C88.7247 66.4346 89.5085 67.0464 89.5472 68.7726C89.5902 69.1103 89.5439 69.4534 89.4129 69.7676C89.282 70.0819 89.0709 70.3563 88.8009 70.5636C88.0603 70.9648 87.2142 71.1284 86.3775 71.0322C80.1275 70.989 73.8143 70.9959 67.7087 71.0022C63.147 71.0072 58.5853 71.0072 54.0237 71.0022L49.4028 70.9977C44.7537 70.9949 40.0317 70.9995 35.3684 71.0326C35.3268 71.0331 35.2858 71.0333 35.2452 71.0333ZM35.2465 66.9352V67.4352C33.246 67.4352 33.2389 67.939 33.2272 68.7737C33.218 69.4253 33.3872 69.6303 33.5535 69.745C34.1196 69.9998 34.7433 70.0991 35.3606 70.0328C40.0274 69.9997 44.7519 69.9951 49.4036 69.9979L54.025 70.0024C58.5864 70.0074 63.1473 70.0074 67.7078 70.0024C73.8154 69.9958 80.1309 69.9889 86.3859 70.0324C87.0161 70.1037 87.6539 70.0033 88.2317 69.7418C88.3864 69.6346 88.5622 69.4301 88.5476 68.7955C88.5276 67.918 88.517 67.4348 86.5523 67.4348C69.6697 67.4831 52.429 67.4833 35.2769 67.4354L35.2465 66.9352Z" fill="#2B2129"/>
<path d="M35.2391 57.0488H35.2714C52.4049 57.0962 69.6449 57.0961 86.5126 57.0488H86.5467C88.6516 57.0488 89.02 57.6138 89.0459 58.8742C89.0839 59.1284 89.0542 59.3882 88.9599 59.6272C88.8655 59.8663 88.7098 60.0763 88.5084 60.236C87.8514 60.5607 87.1155 60.6915 86.3868 60.6131C80.099 60.5717 73.7058 60.5779 67.524 60.5844C62.971 60.5892 58.418 60.5892 53.8649 60.5844C47.8023 60.5781 41.533 60.5713 35.3683 60.6136C34.6478 60.6933 33.9196 60.5634 33.271 60.2396C33.068 60.078 32.9109 59.866 32.8153 59.6247C32.7198 59.3834 32.6891 59.1213 32.7263 58.8645C32.7444 57.6355 33.126 57.0488 35.2391 57.0488Z" fill="#C2956D"/>
<path d="M35.2335 61.1138C34.4573 61.1829 33.6779 61.0224 32.9921 60.6523C32.719 60.4458 32.5049 60.1713 32.3709 59.8562C32.237 59.5411 32.188 59.1964 32.2288 58.8564C32.2537 57.1743 33.0703 56.5488 35.2415 56.5488H35.2738C52.4107 56.5963 69.6498 56.5961 86.5138 56.5488C88.7284 56.5488 89.5132 57.1546 89.5484 58.8639C89.5904 59.2015 89.5428 59.5442 89.4102 59.8575C89.2777 60.1708 89.0649 60.4437 88.7934 60.6486C88.055 61.0389 87.2171 61.2006 86.3865 61.1131C80.0535 61.0713 73.6854 61.078 67.5271 61.0844C62.9738 61.0891 58.4204 61.0891 53.8671 61.0844H53.7214C47.7069 61.0781 41.4878 61.0717 35.3744 61.1137C35.3266 61.1138 35.2796 61.1138 35.2335 61.1138ZM35.2415 57.0488V57.5488C33.2483 57.5488 33.2409 58.0466 33.2286 58.8713C33.2191 59.5138 33.398 59.7189 33.5549 59.8257C34.1219 60.0808 34.7468 60.18 35.3649 60.113C41.4843 60.071 47.7055 60.0774 53.7218 60.0837H53.8675C58.4201 60.0885 62.9728 60.0885 67.5255 60.0837C73.6855 60.0773 80.0555 60.0706 86.3922 60.1124C87.019 60.1775 87.652 60.0775 88.2282 59.8224C88.3839 59.7158 88.5611 59.5124 88.5482 58.8836C88.5305 58.0223 88.5207 57.5479 86.5489 57.5479C69.6506 57.5956 52.4096 57.5957 35.2722 57.5479L35.2415 57.0488Z" fill="#2B2129"/>
<path d="M88.5134 80.0429C87.9791 80.326 87.3767 80.4552 86.7734 80.4162C86.6513 80.419 86.5228 80.4197 86.388 80.4183C80.1597 80.3753 73.8272 80.3822 67.7035 80.3883C63.1512 80.3929 58.5992 80.3929 54.0475 80.3883C47.9263 80.3817 41.5959 80.3748 35.3705 80.4183C34.648 80.4966 33.9182 80.3672 33.2667 80.0452C33.0647 79.8835 32.9086 79.6718 32.8139 79.4311C32.7191 79.1903 32.6891 78.929 32.7267 78.673C32.7467 77.4419 33.1284 76.854 35.2393 76.854H35.2716C43.8247 76.8777 52.4116 76.8896 60.9716 76.8895C69.5316 76.8894 78.065 76.8774 86.5116 76.8535H86.5448C88.6517 76.8535 89.0205 77.4192 89.0469 78.6814C89.0853 78.9352 89.0562 79.1946 88.9625 79.4336C88.8689 79.6726 88.714 79.8828 88.5134 80.0429Z" fill="#C2956D"/>
<path d="M35.2543 80.9194C34.4686 80.9909 33.6792 80.8307 32.9834 80.4587C32.7115 80.252 32.4984 79.9777 32.3653 79.6631C32.2323 79.3485 32.184 79.0045 32.2252 78.6654C32.2526 76.9808 33.0691 76.3545 35.2378 76.3545C43.8245 76.3782 52.4019 76.3901 60.9699 76.39C69.5299 76.39 78.0624 76.3779 86.509 76.354C88.7243 76.354 89.5098 76.9605 89.5455 78.6714C89.5879 79.0086 89.5407 79.3509 89.4088 79.6641C89.2769 79.9773 89.0649 80.2502 88.7941 80.4555C88.1819 80.7987 87.4839 80.9587 86.7833 80.9163C86.6561 80.9192 86.5222 80.9199 86.3816 80.9185C80.1865 80.8757 73.8845 80.8824 67.79 80.8885C63.15 80.8932 58.5978 80.8934 54.0456 80.8885C47.9056 80.8819 41.5861 80.8751 35.3726 80.9185C35.3327 80.9192 35.2932 80.9194 35.2543 80.9194ZM35.2687 77.3545C33.2467 77.3545 33.2387 77.854 33.2251 78.6816C33.2151 79.3225 33.3919 79.5267 33.5474 79.6329C34.1174 79.8867 34.7444 79.9853 35.3647 79.9189C41.5832 79.8753 47.9047 79.8821 54.0176 79.8889C58.5982 79.8939 63.1497 79.8937 67.7016 79.8889C73.8854 79.8824 80.1894 79.8757 86.39 79.9189C86.5208 79.9201 86.6438 79.9195 86.7606 79.9169C87.2666 79.9504 87.7726 79.8519 88.2289 79.6309C88.3834 79.525 88.5589 79.3227 88.5458 78.6927C88.5277 77.8297 88.5178 77.3543 86.5436 77.3543C78.0395 77.3783 69.4898 77.3903 60.8944 77.3903C52.3585 77.3901 43.7975 77.3782 35.2687 77.3545Z" fill="#2B2129"/>
<path d="M88.5134 40.4579C87.9791 40.7409 87.3768 40.8702 86.7734 40.8313C86.6513 40.834 86.5228 40.8347 86.388 40.8334C80.1597 40.7903 73.8272 40.7972 67.7035 40.8034C63.1512 40.808 58.5992 40.808 54.0475 40.8034C47.9263 40.7968 41.5959 40.7899 35.3705 40.8334C34.648 40.9115 33.9182 40.7821 33.2667 40.4603C33.0647 40.2985 32.9086 40.0868 32.8139 39.846C32.7191 39.6053 32.6891 39.3439 32.7267 39.088C32.7467 37.8569 33.1284 37.269 35.2393 37.269H35.2716C43.8247 37.2928 52.4116 37.3046 60.9716 37.3045C69.5316 37.3044 78.065 37.2925 86.5116 37.2686H86.5448C88.6517 37.2686 89.0205 37.8343 89.0469 39.0964C89.0853 39.3502 89.0562 39.6096 88.9625 39.8486C88.8689 40.0876 88.714 40.2977 88.5134 40.4579Z" fill="#C2956D"/>
<path d="M35.2544 41.3343C34.4687 41.4058 33.6792 41.2457 32.9834 40.8736C32.7115 40.667 32.4983 40.3927 32.3653 40.078C32.2323 39.7634 32.184 39.4194 32.2252 39.0803C32.2526 37.3957 33.0691 36.7694 35.2378 36.7694C43.8245 36.7932 52.4019 36.8051 60.9699 36.8049C69.5299 36.8049 78.0624 36.7929 86.509 36.769C88.7243 36.769 89.5098 37.3754 89.5455 39.0864C89.5879 39.4236 89.5407 39.7659 89.4088 40.0791C89.2769 40.3923 89.0649 40.6652 88.7941 40.8704C88.1819 41.2137 87.4839 41.3736 86.7833 41.3311C86.6561 41.3341 86.5222 41.3348 86.3816 41.3333C80.1865 41.2906 73.8845 41.2972 67.79 41.3033C63.15 41.308 58.5978 41.3082 54.0456 41.3033C47.9056 41.2967 41.5861 41.2899 35.3726 41.3333C35.3328 41.3341 35.2932 41.3343 35.2544 41.3343ZM35.2687 37.7694C33.2467 37.7694 33.2387 38.2689 33.2251 39.0965C33.2151 39.7375 33.3919 39.9416 33.5474 40.0478C34.1175 40.3015 34.7444 40.4002 35.3647 40.3338C41.5832 40.2902 47.9047 40.297 54.0176 40.3038C58.5982 40.3088 63.1497 40.3086 67.7016 40.3038C73.8854 40.2973 80.1894 40.2907 86.39 40.3338C86.5208 40.3351 86.6438 40.3344 86.7606 40.3318C87.2666 40.3653 87.7725 40.2668 88.2288 40.0458C88.3833 39.94 88.5588 39.7376 88.5458 39.1076C88.5277 38.2446 88.5178 37.7693 86.5436 37.7693C78.0364 37.7932 69.483 37.8052 60.8836 37.8052C52.3512 37.8049 43.7943 37.7931 35.2687 37.7694Z" fill="#2B2129"/>
<path d="M88.5134 30.5716C87.9791 30.8548 87.3768 30.9841 86.7734 30.945C86.6513 30.9478 86.5228 30.9485 86.388 30.9471C80.1597 30.9041 73.8272 30.911 67.7035 30.9171C63.1512 30.9217 58.5992 30.9217 54.0475 30.9171C47.9263 30.9105 41.5959 30.9036 35.3705 30.9471C34.648 31.0254 33.9182 30.896 33.2667 30.574C33.0647 30.4123 32.9086 30.2006 32.8139 29.9599C32.7191 29.7191 32.6891 29.4578 32.7267 29.2018C32.7467 27.9707 33.1284 27.3828 35.2393 27.3828H35.2716C43.8247 27.4065 52.4116 27.4184 60.9716 27.4183C69.5316 27.4182 78.065 27.4062 86.5116 27.3823H86.5448C88.6517 27.3823 89.0205 27.948 89.0469 29.2101C89.0853 29.4639 89.0562 29.7234 88.9625 29.9624C88.8689 30.2013 88.714 30.4115 88.5134 30.5716Z" fill="#C2956D"/>
<path d="M35.2544 31.4482C34.4687 31.5197 33.6792 31.3595 32.9834 30.9875C32.7115 30.7808 32.4983 30.5065 32.3653 30.1919C32.2323 29.8772 32.184 29.5332 32.2252 29.1941C32.2526 27.5096 33.0691 26.8833 35.2378 26.8833C43.8245 26.907 52.4019 26.9189 60.9699 26.9188C69.5299 26.9188 78.0624 26.9067 86.509 26.8828C88.7243 26.8828 89.5098 27.4892 89.5455 29.2002C89.5879 29.5374 89.5407 29.8797 89.4088 30.1929C89.2769 30.5061 89.0649 30.779 88.7941 30.9843C88.1819 31.3276 87.4839 31.4875 86.7833 31.4451C86.6561 31.448 86.5222 31.4487 86.3816 31.4473C80.1865 31.4045 73.8845 31.4112 67.79 31.4173C63.15 31.422 58.5978 31.4221 54.0456 31.4173C47.9056 31.4107 41.5861 31.4039 35.3726 31.4473C35.3328 31.448 35.2932 31.4482 35.2544 31.4482ZM35.2687 27.8833C33.2467 27.8833 33.2387 28.3833 33.2251 29.2104C33.2151 29.8513 33.3919 30.0555 33.5474 30.1617C34.1175 30.4154 34.7444 30.514 35.3647 30.4477C41.5832 30.4041 47.9047 30.4109 54.0176 30.4177C58.5982 30.4226 63.1497 30.4225 67.7016 30.4177C73.8854 30.4112 80.1894 30.4045 86.39 30.4477C86.5208 30.4489 86.6438 30.4483 86.7606 30.4457C87.2666 30.4792 87.7726 30.3807 88.2289 30.1597C88.3834 30.0538 88.5589 29.8515 88.5459 29.2214C88.5278 28.3585 88.5179 27.8831 86.5437 27.8831C78.0396 27.9071 69.4899 27.9191 60.8945 27.9191C52.3585 27.9188 43.7975 27.907 35.2687 27.8833Z" fill="#2B2129"/>
<path d="M88.5134 20.6859C87.9791 20.969 87.3768 21.0983 86.7734 21.0593C86.6513 21.062 86.5228 21.0627 86.388 21.0614C80.1597 21.0184 73.8272 21.0253 67.7035 21.0314C63.1512 21.036 58.5992 21.036 54.0475 21.0314C47.9263 21.0248 41.5959 21.0179 35.3705 21.0614C34.648 21.1396 33.9182 21.0102 33.2667 20.6883C33.0647 20.5266 32.9086 20.3148 32.8139 20.0741C32.7191 19.8333 32.6891 19.572 32.7267 19.316C32.7467 18.0849 33.1284 17.497 35.2393 17.497H35.2716C43.8247 17.5208 52.4116 17.5326 60.9716 17.5326C69.5316 17.5326 78.065 17.5205 86.5116 17.4966H86.5448C88.6517 17.4966 89.0205 18.0623 89.0469 19.3244C89.0853 19.5782 89.0562 19.8376 88.9625 20.0766C88.8689 20.3156 88.714 20.5257 88.5134 20.6859Z" fill="#C2956D"/>
<path d="M35.2546 21.5619C34.4688 21.6334 33.6793 21.4732 32.9835 21.1012C32.7115 20.8945 32.4983 20.6202 32.3653 20.3056C32.2323 19.991 32.184 19.647 32.2253 19.3079C32.2527 17.6233 33.0692 16.997 35.2379 16.997C43.8245 17.0208 52.4019 17.0326 60.97 17.0326C69.53 17.0326 78.0624 17.0205 86.509 16.9966C88.7243 16.9966 89.5098 17.603 89.5455 19.314C89.5879 19.6511 89.5407 19.9935 89.4088 20.3067C89.2769 20.6199 89.0649 20.8928 88.7942 21.0981C88.1819 21.4413 87.4839 21.6013 86.7833 21.5589C86.6561 21.5617 86.5223 21.5624 86.3817 21.5611C80.1828 21.5183 73.8769 21.5249 67.7787 21.5311C63.15 21.5359 58.5979 21.536 54.0457 21.5311C47.9057 21.5245 41.5862 21.5177 35.3727 21.5611C35.3329 21.5617 35.2934 21.5619 35.2546 21.5619ZM35.2687 17.997C33.2467 17.997 33.2388 18.497 33.2252 19.3241C33.2152 19.9651 33.392 20.1692 33.5475 20.2755C34.1175 20.5291 34.7444 20.6277 35.3647 20.5614C41.5833 20.5178 47.9048 20.5246 54.0177 20.5314C58.5983 20.5364 63.1498 20.5363 67.7017 20.5314C73.8779 20.5249 80.1857 20.5183 86.3901 20.5614C86.5209 20.5627 86.6439 20.562 86.7607 20.5594C87.2666 20.5929 87.7725 20.4944 88.229 20.2735C88.3835 20.1676 88.559 19.9653 88.546 19.3352C88.5279 18.4722 88.5179 17.9969 86.5437 17.9969C78.0396 18.0209 69.4899 18.0329 60.8946 18.0329C52.3586 18.0326 43.7975 18.0207 35.2687 17.997Z" fill="#2B2129"/>
</g>
<defs>
<clipPath id="clip0_608_33818">
<rect width="266.393" height="108.146" fill="white"/>
</clipPath>
</defs>
</svg>
