<svg width="51" height="50" viewBox="0 0 51 50" fill="none" xmlns="http://www.w3.org/2000/svg">
<path d="M5.61708 3.18416C4.80037 3.14255 3.95521 3.09937 3.23858 3.69186C2.87967 3.98859 2.42274 4.45278 2.59833 5.05548C2.61564 5.11515 2.63818 5.17318 2.66568 5.22891C2.67328 5.24416 2.68361 5.25688 2.69185 5.27153C2.71184 5.30899 2.73444 5.345 2.75947 5.37931C2.77064 5.39382 2.78467 5.4058 2.79653 5.41953C2.8221 5.45036 2.84979 5.47937 2.87939 5.50636C2.89361 5.5187 2.91056 5.52855 2.92571 5.54011C2.95743 5.56544 2.99075 5.5887 3.02548 5.60974C3.04298 5.61986 3.06309 5.62754 3.08152 5.63678C3.11909 5.6565 3.15775 5.67406 3.19731 5.6894C3.21867 5.69726 3.24261 5.70281 3.26498 5.70969C3.30667 5.72264 3.34863 5.73563 3.39407 5.74525C3.42056 5.75084 3.44965 5.75408 3.47744 5.75856C3.52237 5.76578 3.56702 5.77317 3.6151 5.77743C3.64868 5.78039 3.6849 5.78094 3.72001 5.78247C3.75609 5.78399 3.78995 5.7876 3.8277 5.7876C3.84752 5.7876 3.86767 5.7876 3.88791 5.787C4.73988 5.76924 5.60708 5.77359 6.44529 5.77826C6.69108 5.77955 6.93684 5.78051 7.18257 5.78113C7.26372 5.7814 7.34469 5.782 7.42611 5.78214C7.42041 5.82375 7.41379 5.86421 7.40758 5.90499C7.3998 5.95432 7.39258 6.00425 7.38373 6.05243C7.37447 6.10185 7.36405 6.14952 7.35386 6.1976C7.34399 6.24434 7.33473 6.29169 7.3238 6.33727C7.31245 6.38462 7.29943 6.43011 7.28697 6.47598C7.27502 6.52018 7.26382 6.56498 7.25066 6.60797C7.23709 6.65287 7.22176 6.69582 7.20703 6.7396C7.19313 6.78121 7.17956 6.82375 7.16442 6.86443C7.14848 6.90725 7.13074 6.94821 7.11347 6.98977C7.0974 7.02884 7.08202 7.06865 7.06483 7.10661C7.04659 7.14711 7.02648 7.18562 7.00703 7.22487C6.98883 7.26158 6.97137 7.29913 6.9521 7.33477C6.93144 7.37301 6.90888 7.4093 6.88698 7.44633C6.86678 7.48055 6.84733 7.51569 6.82607 7.54874C6.80291 7.5848 6.7779 7.61879 6.75358 7.65356C6.7313 7.68541 6.70986 7.71828 6.68656 7.74889C6.6609 7.78273 6.63329 7.81454 6.60643 7.84714C6.5822 7.8765 6.55886 7.90673 6.53362 7.93498C6.50532 7.96679 6.47493 7.99652 6.44534 8.02699C6.41931 8.0538 6.39439 8.08159 6.3672 8.10743C6.33607 8.13716 6.30282 8.16472 6.27039 8.19315C6.2426 8.21742 6.21583 8.24276 6.18702 8.26611C6.15275 8.29385 6.11625 8.31965 6.08049 8.34609C6.05136 8.36773 6.02329 8.39043 5.99328 8.41115C5.95539 8.43722 5.91523 8.46112 5.87591 8.48577C5.8458 8.50463 5.81676 8.52465 5.78577 8.54268C5.74339 8.56737 5.6987 8.5897 5.65469 8.61277C5.6245 8.62863 5.59555 8.64564 5.56456 8.66076C5.51417 8.68531 5.46132 8.70755 5.40889 8.73011C5.38221 8.74162 5.35673 8.75438 5.32955 8.76539C5.24886 8.79803 5.16586 8.8285 5.08054 8.85679C4.96296 8.89572 4.84502 8.92912 4.72672 8.95698C4.68911 8.96591 4.65141 8.97122 4.61375 8.97918C4.53311 8.99614 4.45252 9.0139 4.37174 9.02647C4.31737 9.03498 4.26299 9.03946 4.20857 9.04612C4.14465 9.05394 4.08068 9.06355 4.01677 9.06901C3.95192 9.0746 3.88708 9.07641 3.82223 9.07973C3.76901 9.08246 3.7157 9.08704 3.66257 9.08838C3.59277 9.09014 3.52334 9.08875 3.45377 9.08838C3.40584 9.08838 3.35762 9.0894 3.30982 9.08838C3.23668 9.08658 3.1641 9.08218 3.09139 9.07849C3.04757 9.07622 3.00338 9.0752 2.9598 9.07234C2.88675 9.06771 2.81441 9.06092 2.7421 9.05468C2.69912 9.05098 2.65581 9.04816 2.61302 9.04404C2.5485 9.03785 2.48476 9.03045 2.42075 9.02347C2.373 9.01824 2.32488 9.01353 2.27745 9.00798C0.402092 7.51569 -0.231533 5.38263 0.582221 3.29924C1.4233 1.14631 3.22631 0.0908799 5.79305 0.246319C6.37119 0.438754 6.93072 0.682986 7.46479 0.976029L7.46673 0.977185C7.55409 1.02699 7.64015 1.07881 7.72491 1.13262L7.72699 1.13401C7.81157 1.18789 7.89465 1.24396 7.97623 1.30221L7.97928 1.30448C8.06025 1.36255 8.13957 1.42297 8.21726 1.48576L8.22356 1.49108C8.29965 1.553 8.37399 1.61736 8.44658 1.68415L8.45932 1.69649C8.52904 1.76122 8.59697 1.82849 8.66312 1.8983C8.67053 1.90616 8.67747 1.91463 8.68489 1.92258C8.74654 1.98892 8.80684 2.05712 8.86488 2.12827C8.8772 2.14334 8.88873 2.15953 8.90086 2.17483C8.95237 2.23956 9.00276 2.30586 9.05117 2.37484C9.06937 2.40087 9.08627 2.42847 9.10397 2.45505C9.1438 2.51479 9.18322 2.57526 9.2206 2.63791C9.24575 2.68031 9.26914 2.72487 9.29304 2.76875C9.3199 2.81776 9.34704 2.86644 9.37238 2.9173C9.4048 2.98305 9.43537 3.05138 9.46529 3.12041C9.4759 3.14463 9.48687 3.16835 9.49716 3.19299L6.03561 3.20224C5.89666 3.19826 5.75687 3.19128 5.61708 3.18416Z" fill="#CBA68D"/>
<path d="M3.58367 9.32076C3.55588 9.32076 3.52809 9.32053 3.5003 9.3203L3.45088 9.31988H3.39835L3.30243 9.31947C3.24222 9.31799 3.182 9.31484 3.12226 9.31161L2.18298 9.22982L2.13129 9.18867C0.17312 7.63022 -0.487137 5.39716 0.365107 3.21529C1.24593 0.959812 3.12744 -0.146567 5.80571 0.0155751L5.86843 0.0281508C6.46024 0.224097 7.03265 0.474191 7.57838 0.775245C7.67101 0.828091 7.76031 0.881584 7.84818 0.937712C7.93845 0.995273 8.02507 1.05357 8.10997 1.11433C8.19797 1.17743 8.28088 1.24054 8.36203 1.30629C8.44845 1.37684 8.52659 1.4442 8.60288 1.51434C8.68958 1.59548 8.76119 1.66608 8.83062 1.73964C8.91862 1.83516 8.98217 1.9071 9.04336 1.98209L9.08134 2.03114C9.13567 2.09962 9.18898 2.16948 9.23993 2.2423L9.27777 2.2993C9.33799 2.38987 9.3793 2.45345 9.41872 2.51979C9.43951 2.55493 9.45911 2.59104 9.47865 2.62715L9.30264 2.78758L9.50575 2.67662C9.53062 2.72193 9.55545 2.76724 9.57893 2.81435C9.61344 2.88407 9.64553 2.95596 9.67703 3.02855L9.84331 3.42325L6.0354 3.43361C5.89126 3.42958 5.75356 3.4226 5.61586 3.41562L5.60344 3.41502C4.79553 3.37392 4.0324 3.33513 3.38552 3.86987C2.88826 4.28098 2.71392 4.62677 2.81994 4.99095C2.83346 5.03757 2.85105 5.08291 2.87251 5.12646C2.90855 5.18583 2.92346 5.21398 2.9425 5.23867C2.99215 5.2924 3.0098 5.31371 3.03078 5.33197C3.09145 5.37608 3.11452 5.39448 3.14087 5.40969L3.18483 5.43022C3.21465 5.44604 3.24535 5.46017 3.27677 5.47252L3.26426 5.7097L3.33277 5.48889C3.36982 5.50031 3.40396 5.51122 3.44129 5.51908L3.51355 5.53032C3.5582 5.53753 3.59511 5.54368 3.63467 5.54715L3.82688 5.55639L3.88247 5.55584C4.7549 5.53762 5.65323 5.54266 6.44582 5.54705L7.69065 5.55126L7.63882 5.91928L7.4247 5.94568L7.62933 5.97717L7.58616 6.21218L7.34489 6.23418L7.57185 6.28102L7.51812 6.50456L7.2763 6.51177L7.5001 6.57114L7.43609 6.78201L7.19417 6.77493L7.41404 6.84757L7.3392 7.04767L7.09834 7.02418L7.31307 7.11073L7.22799 7.2984L6.98968 7.25799L7.19811 7.35905L7.1548 7.44482C7.13799 7.47598 7.12011 7.50594 7.10214 7.5359L6.86754 7.47801L7.06801 7.5936L7.01993 7.67358C7.00112 7.70294 6.98121 7.73115 6.9612 7.75935L6.73193 7.68343L6.92299 7.81404L6.87018 7.88839C6.84925 7.91613 6.8272 7.94253 6.80534 7.96893L6.58237 7.87567L6.76268 8.02076L6.70571 8.08886C6.68255 8.1148 6.65828 8.13972 6.63392 8.16436L6.41886 8.05386L6.58709 8.21277L6.52632 8.27463C6.50099 8.29885 6.47445 8.32188 6.44786 8.34481L6.24165 8.21808L6.39659 8.38989L6.3323 8.44537C6.30427 8.46816 6.275 8.48971 6.24564 8.51121L6.04962 8.3689L6.19052 8.55235L6.12405 8.60136C6.09288 8.62281 6.06037 8.64297 6.0278 8.66318L5.84277 8.50654L5.96898 8.7003L5.90164 8.74238C5.8662 8.763 5.82933 8.78223 5.79242 8.80137L5.6197 8.63123L5.73109 8.83392L5.66551 8.86841C5.61951 8.89083 5.57162 8.9115 5.52373 8.93212L5.37551 8.74478L5.47227 8.95477L5.41576 8.9796C5.33048 9.01412 5.24277 9.04633 5.15263 9.07623C5.02863 9.11729 4.90426 9.1525 4.77955 9.18188L4.7015 9.1976L4.61294 8.97914L4.62869 9.21211C4.55458 9.22779 4.48075 9.24337 4.40669 9.25488C4.36783 9.26098 4.32892 9.26528 4.29001 9.26949L4.17987 9.28276C4.13179 9.28905 4.08372 9.29524 4.03573 9.29936C3.98622 9.30361 3.93684 9.30588 3.88751 9.30809L3.66751 9.31947C3.63916 9.32035 3.61142 9.32076 3.58367 9.32076ZM3.45356 8.85759L3.50451 8.85796C3.55463 8.85842 3.60475 8.85893 3.65509 8.85764L3.86616 8.84659C3.90928 8.84464 3.95245 8.8428 3.99562 8.8391C4.0368 8.83558 4.07793 8.82985 4.1191 8.82472L4.33462 8.79846C4.40048 8.78819 4.46625 8.77414 4.53198 8.76022L4.67172 8.73248C4.78353 8.70591 4.89505 8.67433 5.00627 8.63775C5.08677 8.61112 5.16506 8.58238 5.24115 8.55152L5.31553 8.51837C5.38098 8.49022 5.42206 8.4726 5.46148 8.45337L5.57825 8.39151C5.60849 8.37579 5.63878 8.36021 5.66778 8.34333L6.4492 7.67271L6.91113 6.86985L7.15397 6.0124L6.44258 6.00962C5.65277 6.00523 4.75773 6.00038 3.89127 6.01832L3.82619 6.01896C3.79696 6.01896 3.76968 6.01734 3.74235 6.01559L3.68775 5.78151L3.67969 6.01268C3.65032 6.01161 3.62091 6.0105 3.59307 6.00805C3.54212 6.00343 3.49442 5.99608 3.44671 5.98836C3.39057 5.98008 3.36686 5.97647 3.34458 5.97176C3.29303 5.96089 3.24527 5.94642 3.19766 5.93172C3.15519 5.91965 3.13476 5.91369 3.11572 5.90666C3.06869 5.88859 3.02271 5.86788 2.97802 5.84461C2.94389 5.82894 2.92536 5.82016 2.90822 5.81026C2.86568 5.78476 2.82484 5.75655 2.78594 5.72579C2.76526 5.71203 2.74533 5.69717 2.72624 5.68127C2.68989 5.6485 2.65584 5.61326 2.62434 5.57581C2.60668 5.5583 2.59006 5.53977 2.57455 5.52033C2.5428 5.47732 2.51414 5.43213 2.48877 5.3851C2.477 5.36802 2.46636 5.3502 2.4569 5.33174C2.42333 5.26382 2.39584 5.19307 2.37474 5.12031C2.13625 4.30193 2.85371 3.70874 3.08937 3.51378C3.8751 2.86414 4.80544 2.91149 5.62628 2.95324L5.61558 3.18413L5.62734 2.95328L5.63869 2.95384C5.77301 2.96068 5.90733 2.96771 6.04068 2.97131L9.13382 2.96285C9.12233 2.9414 9.11066 2.92013 9.09894 2.89886L9.01978 2.75554C8.98467 2.6965 8.94734 2.63963 8.90973 2.58318L8.8598 2.50717C8.81427 2.44212 8.76652 2.3797 8.71789 2.3184L8.86341 2.12828L8.68389 2.27429C8.629 2.20707 8.57194 2.14257 8.51362 2.07983C8.43058 1.9906 8.36606 1.92726 8.30001 1.86558C8.219 1.79017 8.14822 1.72919 8.07583 1.67033C7.99584 1.60519 7.92002 1.54768 7.84276 1.49224C7.7617 1.43413 7.68204 1.38049 7.60098 1.32885C7.51761 1.27568 7.43456 1.22589 7.35045 1.17794C6.83806 0.895341 6.30086 0.660109 5.74555 0.475187C3.30479 0.336947 1.59396 1.34203 0.796648 3.38321C0.0295358 5.34723 0.617214 7.36211 2.3683 8.78547L3.10178 8.84756C3.20257 8.85287 3.25815 8.85588 3.3141 8.85727L3.39534 8.85754L3.45356 8.85759Z" fill="#2B2129"/>
<path d="M6.14403 3.4054C6.16719 3.42366 6.18993 3.44238 6.21286 3.46115C6.23477 3.47891 6.25672 3.49634 6.27845 3.51442C6.30096 3.53319 6.32305 3.55265 6.34538 3.57179C6.3677 3.59093 6.38929 3.60878 6.41092 3.62815C6.43055 3.64554 6.44964 3.66375 6.46904 3.68151C6.49285 3.70328 6.51694 3.72473 6.54037 3.74707L6.54343 3.75012C6.75531 3.94803 6.94 4.17306 7.09271 4.41935L7.09405 4.42148C7.12342 4.47015 7.15121 4.51999 7.17743 4.571L7.18062 4.57683C7.20591 4.62634 7.22935 4.6772 7.25135 4.72898L7.25635 4.74003C7.27733 4.7901 7.29623 4.84175 7.31388 4.89381L7.32032 4.91161C7.33671 4.96149 7.35084 5.01281 7.3639 5.06473C7.36626 5.07398 7.36918 5.083 7.3714 5.09247C7.38303 5.1412 7.39229 5.19141 7.40086 5.24199C7.40318 5.25586 7.40623 5.26909 7.40832 5.28296C7.41531 5.32919 7.41981 5.37695 7.42411 5.4248C7.42592 5.44468 7.42847 5.46406 7.42976 5.48426C7.43254 5.52666 7.43287 5.57049 7.43342 5.61418C7.43342 5.63549 7.43435 5.65653 7.43407 5.67812C7.10318 5.67769 6.77224 5.67641 6.44125 5.67428C6.2073 5.67285 5.96756 5.67285 5.73023 5.67197C5.1174 5.66994 4.49916 5.66994 3.88526 5.68297C3.21787 5.69375 2.83084 5.48218 2.6981 5.02645C2.53946 4.48256 2.96831 4.04994 3.30486 3.77185C3.36015 3.72665 3.41777 3.68437 3.47748 3.64517C3.49243 3.63524 3.50745 3.62556 3.52255 3.61613C3.57725 3.58178 3.63251 3.54978 3.68864 3.52163L3.70059 3.51516C3.76058 3.48552 3.82144 3.46018 3.88281 3.43684C3.8987 3.43083 3.91467 3.42509 3.93065 3.41945C3.9854 3.40013 4.04057 3.38246 4.09629 3.36767C4.10388 3.36559 4.11143 3.36305 4.11907 3.36106C4.18133 3.34492 4.24413 3.33188 4.30745 3.32046C4.32426 3.31746 4.34121 3.31473 4.35812 3.312C4.41254 3.30322 4.46724 3.29573 4.52222 3.28986C4.53269 3.28875 4.54311 3.28718 4.55358 3.28616C4.61722 3.27996 4.68128 3.27566 4.74547 3.27261C4.76326 3.27178 4.78109 3.27118 4.79888 3.27058C4.8522 3.26864 4.90559 3.26754 4.95904 3.2673C4.97146 3.2673 4.98387 3.26693 4.99633 3.26697C5.09438 3.26697 5.19272 3.26956 5.29096 3.27326L5.30527 3.27372C5.40754 3.27774 5.50976 3.28297 5.61152 3.28805C5.74644 3.29499 5.88141 3.30192 6.01573 3.30595C6.03546 3.32093 6.05515 3.33637 6.07488 3.35163C6.09772 3.36947 6.12092 3.38713 6.14403 3.4054Z" fill="#2B2129"/>
<path d="M3.83731 5.91451C3.09058 5.91451 2.63204 5.63761 2.47284 5.09099C2.25334 4.3383 2.93139 3.77794 3.15418 3.5938C3.21566 3.54351 3.27971 3.49645 3.34607 3.45278L3.39628 3.42042C3.45732 3.38209 3.51902 3.34644 3.58155 3.3151C3.6518 3.2799 3.72386 3.24843 3.79743 3.22083L3.85038 3.20155C3.91059 3.18019 3.97163 3.16095 4.03296 3.14445C4.12587 3.11971 4.19442 3.10538 4.26334 3.09299L4.31489 3.0843C4.37654 3.07436 4.43532 3.06636 4.49438 3.05998C4.59544 3.04948 4.6633 3.04495 4.73134 3.04148L4.77765 3.03963C4.84773 3.03714 4.90757 3.03584 4.96658 3.03589C5.10012 3.03589 5.19817 3.03834 5.2965 3.04204L5.62012 3.05697C5.75357 3.06382 5.88696 3.07052 6.01971 3.07463L6.09382 3.07695L6.19502 3.1543L6.0915 3.36665L6.23291 3.18356L6.3361 3.2653L6.23073 3.47766L6.37617 3.29776L6.47306 3.37862L6.36343 3.58945L6.51373 3.41376L6.6028 3.49268L6.48603 3.69953L6.64184 3.52847L6.69743 3.57993C6.92569 3.79261 7.12447 4.03479 7.28848 4.30002C7.32202 4.3555 7.35222 4.40992 7.3808 4.46554C7.41201 4.52624 7.43772 4.58195 7.46185 4.63878C7.49038 4.70595 7.51123 4.76254 7.53063 4.82006C7.55574 4.89463 7.57139 4.95113 7.5858 5.00837C7.60678 5.09242 7.61706 5.14763 7.62651 5.20334C7.64226 5.29913 7.64735 5.35129 7.65208 5.40399L7.65819 5.46932C7.66097 5.51204 7.66162 5.5562 7.66218 5.60035L7.66292 5.68117L7.65981 5.90952L5.72675 5.90318C5.11577 5.9011 4.49933 5.90115 3.88743 5.91414C3.87052 5.91442 3.8538 5.91451 3.83731 5.91451ZM4.30447 3.32046L4.3456 3.54798C4.28808 3.55833 4.23087 3.57017 4.17423 3.58496C4.10369 3.60443 4.05413 3.62015 4.00498 3.63753C3.9353 3.66218 3.867 3.69053 3.80035 3.72246C3.74014 3.75321 3.69127 3.7816 3.64287 3.81197L3.60285 3.8374C3.54983 3.87214 3.49868 3.90962 3.44959 3.9497C2.98864 4.33067 2.82458 4.64275 2.91758 4.96167C2.98581 5.19599 3.15663 5.46327 3.87863 5.45175C4.49326 5.43872 5.11341 5.43867 5.72814 5.44075L7.35504 5.44648L7.42128 5.42461L7.19066 5.44528C7.18677 5.4021 7.18279 5.35896 7.17649 5.31721C7.16199 5.23492 7.15375 5.18975 7.14328 5.14587C7.12475 5.07448 7.11211 5.02834 7.09742 4.98354C7.0757 4.92053 7.05875 4.8742 7.03985 4.82917C7.01544 4.77239 6.99432 4.72648 6.97144 4.68173C6.94476 4.63018 6.91966 4.58464 6.89298 4.54062C6.75073 4.31098 6.57844 4.10129 6.38066 3.91711L5.93027 3.53438C5.81934 3.53022 5.70794 3.52463 5.59678 3.51894L5.29326 3.50452C5.18377 3.50049 5.08821 3.49809 4.99294 3.49795C4.90605 3.49851 4.8551 3.49957 4.80419 3.50142L4.74245 3.27242L4.75352 3.50336C4.69331 3.50623 4.6331 3.5102 4.57316 3.51603C4.49317 3.52495 4.44255 3.53189 4.39215 3.54002L4.30447 3.32046Z" fill="#2B2129"/>
<path d="M8.14386 10.0437C6.76119 10.1305 5.37311 10.0597 4.00649 9.83277C3.41536 9.7504 2.8587 9.50596 2.39844 9.12664C2.41923 9.12895 2.44045 9.13066 2.46134 9.13288C2.52238 9.13935 2.58363 9.14539 2.64508 9.151C2.6914 9.1553 2.73748 9.15937 2.78403 9.16316C2.84624 9.16825 2.90872 9.17241 2.97129 9.17639C3.01803 9.17934 3.06462 9.18226 3.1115 9.18452C3.17398 9.18753 3.23655 9.18915 3.2995 9.19086C3.34679 9.1921 3.39399 9.19354 3.44146 9.19386C3.45828 9.19386 3.47491 9.19492 3.49176 9.19492C3.52118 9.19492 3.55087 9.19261 3.58032 9.1922C3.66217 9.19118 3.74406 9.18891 3.82618 9.18471C3.87407 9.18226 3.92187 9.17884 3.96976 9.17523C4.05017 9.16913 4.13058 9.1609 4.21108 9.15119C4.25841 9.14545 4.3057 9.13981 4.35309 9.13269C4.43919 9.11984 4.5252 9.10338 4.61126 9.08572C4.65211 9.07735 4.69297 9.07042 4.73382 9.06089C4.86008 9.0313 4.98625 8.99737 5.11205 8.95571C5.20051 8.9264 5.28656 8.89482 5.37018 8.86098C6.61209 8.35809 7.31945 7.34723 7.53006 5.78235H7.53589L7.53747 5.73422L7.54456 5.67837H7.53714C7.53779 5.62372 7.53812 5.56921 7.53552 5.51655C7.53441 5.49306 7.53135 5.47069 7.52959 5.44757C7.52607 5.40166 7.52279 5.35561 7.5169 5.31113C7.51334 5.28395 7.50796 5.25792 7.50356 5.23129C7.49708 5.19222 7.49097 5.15297 7.48272 5.11501C7.47679 5.08759 7.46929 5.06115 7.46248 5.03428C7.45322 4.99855 7.44456 4.96267 7.43404 4.92795C7.42584 4.90099 7.4164 4.87496 7.40736 4.84861C7.39597 4.81541 7.38467 4.78217 7.37198 4.74985C7.36169 4.72359 7.35039 4.69807 7.33923 4.67236C7.3258 4.6413 7.31232 4.61032 7.29754 4.5799C7.28532 4.55451 7.27225 4.52969 7.25924 4.50486C7.24391 4.47564 7.22839 4.44651 7.21204 4.41803C7.19815 4.39367 7.18351 4.36972 7.16878 4.34586C7.15174 4.31812 7.13441 4.29075 7.11649 4.2638C7.10089 4.2404 7.08496 4.21728 7.06869 4.19444C7.05016 4.16834 7.03128 4.14252 7.01204 4.117C6.995 4.09447 6.97767 4.07219 6.96007 4.05015C6.94022 4.02534 6.92001 4.00082 6.89944 3.97659C6.88129 3.95518 6.86308 3.93396 6.84451 3.91302C6.82334 3.88925 6.80181 3.86591 6.78013 3.8427C6.76091 3.82222 6.74178 3.80178 6.72219 3.78171C6.70009 3.75911 6.67768 3.73696 6.65512 3.71486C6.6352 3.69535 6.61533 3.67579 6.59491 3.65665C6.57175 3.63497 6.54859 3.61375 6.52543 3.59252C6.50491 3.57403 6.48453 3.55521 6.46383 3.53704C6.44007 3.51619 6.41603 3.49585 6.39199 3.47541C6.37119 3.45775 6.3503 3.43991 6.3296 3.42257C6.30482 3.40209 6.27995 3.38221 6.25507 3.36223C6.23465 3.34577 6.21431 3.32913 6.1938 3.31299L6.18541 3.30624L9.54562 3.297C9.57623 3.34092 9.60212 3.38595 9.62959 3.43061C9.6546 3.47135 9.6823 3.51148 9.70481 3.55276C9.73135 3.6014 9.75275 3.65101 9.776 3.70025C9.79578 3.74223 9.81801 3.7837 9.83556 3.82605C9.85622 3.87589 9.87229 3.92629 9.89008 3.97654C9.90509 4.01903 9.9225 4.06124 9.93542 4.10392C9.95113 4.15515 9.9628 4.2066 9.97591 4.25802C9.98665 4.3 9.99934 4.34188 10.0083 4.38387C10.0199 4.43685 10.0279 4.48969 10.0371 4.54259C10.0442 4.5829 10.0529 4.62336 10.0588 4.66353C10.0671 4.72091 10.0727 4.77769 10.0785 4.8346C10.0823 4.86969 10.0878 4.90515 10.0906 4.94001C10.0964 5.00691 10.0999 5.07275 10.1034 5.13854C10.1047 5.16277 10.107 5.18755 10.108 5.21159C10.1118 5.30101 10.114 5.38918 10.115 5.47559C10.1286 6.5607 10.1281 7.66417 10.1277 8.73143C10.1275 9.16362 10.1276 9.5958 10.128 10.028C9.46655 10.0105 8.79444 10.0272 8.14386 10.0437Z" fill="#BB9168"/>
<path d="M6.77236 10.2978C5.82952 10.3135 4.88753 10.2335 3.96088 10.0592C3.32782 9.96994 2.73239 9.70569 2.24194 9.2963L1.72656 8.8201L2.42452 8.89675L2.45208 9.06953L2.47107 9.04905L2.48663 8.90285L3.44379 8.96254L3.49251 9.19478L3.49594 8.96361L3.57811 8.96106C3.65685 8.96005 3.73591 8.95787 3.81507 8.95385L3.9531 8.9446C4.03003 8.93878 4.10701 8.93073 4.18408 8.92149L4.31965 8.90392C4.40164 8.89171 4.48348 8.87595 4.56537 8.85916L4.68176 8.83563C4.80136 8.80766 4.92081 8.77553 5.03994 8.73613C5.12359 8.70839 5.20492 8.67856 5.28394 8.64663C6.44234 8.17749 7.10228 7.23048 7.3013 5.75141L7.30691 5.7098L7.30626 5.67554C7.30682 5.62556 7.30723 5.57577 7.30487 5.52759L7.53025 5.44737L7.29936 5.46494C7.29565 5.41654 7.29287 5.37821 7.28796 5.34108L7.13252 4.77596L6.77981 4.1942L6.0511 3.49441L5.52831 3.08343L6.18537 3.07488L9.66721 3.06531L9.73668 3.16476C9.76267 3.20174 9.78573 3.23989 9.80871 3.27785L9.85192 3.34743C9.87193 3.37873 9.89176 3.41012 9.90917 3.44198C9.93122 3.48243 9.9503 3.52339 9.96938 3.5644L10.0058 3.64106C10.0216 3.67305 10.0372 3.70505 10.0507 3.73746C10.0677 3.77847 10.0821 3.8198 10.0963 3.86123L10.1245 3.9401C10.1364 3.97205 10.1482 4.004 10.158 4.03613C10.1707 4.07774 10.1811 4.11935 10.1916 4.16128L10.2125 4.24215C10.2209 4.27294 10.2292 4.30378 10.2357 4.33461C10.2449 4.37794 10.2525 4.42112 10.2597 4.4643L10.289 4.63019C10.2961 4.67897 10.3012 4.72728 10.3062 4.77555L10.0846 4.87685L10.3144 4.84855L10.3223 4.91989C10.3281 4.98651 10.3316 5.05212 10.3352 5.11768L10.3404 5.20159C10.3444 5.29332 10.3465 5.38385 10.3477 5.47257C10.3611 6.55186 10.3607 7.64931 10.3603 8.71126L10.361 10.2652L10.1229 10.2589C9.46276 10.2415 8.79574 10.2583 8.15068 10.2747L8.14484 10.0435L8.14734 10.2747C7.6931 10.2862 7.23396 10.2978 6.77236 10.2978ZM8.13534 9.8126L8.14484 10.0435L8.13873 9.8126C8.71306 9.79808 9.30436 9.7831 9.89713 9.79198V8.73128C9.89754 7.65121 9.89796 6.55579 9.88453 5.47849C9.88346 5.39434 9.88138 5.30853 9.87767 5.22147L10.1046 5.13853L9.87337 5.15088C9.86966 5.08199 9.86646 5.02142 9.86114 4.96002L9.84951 4.85919C9.84136 4.78147 9.83701 4.73921 9.83099 4.69658L9.81042 4.5822C9.79736 4.50517 9.79134 4.46902 9.78346 4.43282L9.7528 4.3151C9.73381 4.23877 9.72557 4.20511 9.71528 4.17178L9.673 4.05365C9.64729 3.97935 9.63622 3.9468 9.62288 3.91463C9.61329 3.89151 9.60181 3.86839 9.59046 3.84574L9.56772 3.7989C9.53418 3.72645 9.51973 3.69469 9.50287 3.66348C9.49055 3.64092 9.47619 3.61882 9.46197 3.59663L9.43363 3.55164L9.41973 3.52853L6.80427 3.53565L7.31089 4.13586L7.58903 4.66523C7.60218 4.6988 7.61404 4.73315 7.62585 4.76755L7.65711 4.86076C7.6674 4.89465 7.67629 4.92941 7.68491 4.96423L7.71033 5.06594C7.71821 5.10228 7.72423 5.13992 7.73067 5.17718L7.74781 5.28079C7.75378 5.3261 7.75744 5.37294 7.76101 5.41982L7.76332 5.44756H7.80116L7.76846 5.7632V5.78969L7.76124 6.01342H7.73076C7.47509 7.5574 6.7303 8.56003 5.45846 9.07512C5.37021 9.11081 5.27945 9.1441 5.18616 9.17499C5.0537 9.21886 4.92086 9.25469 4.78783 9.28595L4.70015 9.30412C4.56884 9.3307 4.47871 9.3479 4.38848 9.36136L4.24541 9.37985C4.15606 9.39062 4.07227 9.39922 3.98844 9.4056L3.8392 9.41545C3.75402 9.4198 3.66922 9.42215 3.58445 9.42322L3.4921 9.42595L3.36463 9.42336C3.5901 9.50006 3.82059 9.56114 4.05449 9.60616C5.40257 9.82899 6.7716 9.89825 8.13534 9.8126Z" fill="#2B2129"/>
<path d="M17.5812 49.6478C17.5683 49.6672 17.5571 49.689 17.5452 49.7098C17.5339 49.7297 17.5213 49.7477 17.511 49.7689H15.3806C15.0868 49.7559 14.7957 49.7058 14.5145 49.6199L14.4315 49.5984C11.771 48.9558 10.1332 46.7412 10.1577 43.8181C10.2254 35.6575 10.2143 27.3598 10.2036 19.3352C10.1995 16.283 10.1968 13.2308 10.1955 10.1785V10.1249C10.1947 9.67541 10.1946 9.22596 10.1951 8.77653C10.1955 7.71019 10.196 6.60742 10.1826 5.523C10.2075 4.83909 10.0621 4.15969 9.75946 3.54562C9.70798 3.45136 9.65121 3.36007 9.58943 3.27219C9.54765 3.16539 9.50288 3.06229 9.45511 2.96289C9.4389 2.929 9.4207 2.89756 9.40384 2.86446C9.37044 2.7989 9.33723 2.73306 9.30134 2.6706C9.2798 2.63306 9.25636 2.59787 9.2339 2.56139C9.20022 2.50656 9.16683 2.45131 9.13121 2.39888C9.10597 2.36189 9.07915 2.32666 9.05303 2.29065C9.01778 2.24215 8.98281 2.19356 8.94599 2.14686C8.91769 2.11112 8.88804 2.07723 8.85886 2.04274C8.82181 1.999 8.78476 1.95513 8.74664 1.91329C8.71565 1.87949 8.6836 1.84712 8.65173 1.81448C8.61306 1.77481 8.57434 1.73515 8.53436 1.69714C8.50101 1.66533 8.46678 1.63473 8.43246 1.60407C8.39207 1.56783 8.3515 1.53181 8.31 1.49709C8.27461 1.46745 8.23858 1.43869 8.2024 1.41007C8.16035 1.37683 8.11801 1.34401 8.07498 1.31215C8.03768 1.28441 8.00003 1.25733 7.96202 1.23092C7.91857 1.2005 7.87472 1.17063 7.83047 1.14132C7.79144 1.11558 7.75209 1.09027 7.71241 1.0654C7.66785 1.03766 7.62291 1.01035 7.57758 0.983474C7.53687 0.959386 7.49606 0.935576 7.45479 0.912366C7.40931 0.886799 7.36341 0.861925 7.31732 0.837375C7.27513 0.814905 7.23298 0.792481 7.19036 0.770798C7.14432 0.747403 7.09773 0.724564 7.05141 0.702187C7.00755 0.680919 6.96378 0.659651 6.9195 0.639123C6.87392 0.617995 6.82802 0.597513 6.78203 0.577262C6.73604 0.557012 6.69013 0.536253 6.64377 0.516511C6.59958 0.497694 6.55507 0.479524 6.51061 0.461354C6.46179 0.441335 6.41306 0.42113 6.36401 0.401712C6.3239 0.3859 6.2836 0.370735 6.24359 0.355478C6.18939 0.334719 6.1353 0.313867 6.08092 0.293571L6.07031 0.289364L6.16628 0.284509C6.41825 0.271748 6.67874 0.258525 6.93418 0.258433C10.0282 0.257755 13.1214 0.259543 16.2138 0.263796C23.7114 0.270824 31.4644 0.278406 39.0896 0.231201H39.1222C39.8438 0.235571 40.5572 0.383795 41.2206 0.667171C41.884 0.950547 42.484 1.36336 42.9854 1.88138C44.0486 2.93826 44.6495 4.37225 44.6567 5.86999C44.5872 14.1261 44.6043 22.521 44.6205 30.6396C44.6267 33.7007 44.6314 36.7618 44.6347 39.8229C44.4985 39.8251 44.3625 39.8277 44.2265 39.8306C43.9073 39.837 43.5773 39.8437 43.2529 39.8438C35.8118 39.8461 28.3707 39.8477 20.9296 39.8484L17.9529 39.8489C17.9099 39.8467 17.8668 39.8456 17.8237 39.8443C17.7323 39.8436 17.6411 39.8378 17.5504 39.8269C16.797 39.6922 16.0211 39.7634 15.305 40.0329C14.5888 40.3024 13.9589 40.7603 13.4821 41.3579C13.4625 41.3833 13.4431 41.4088 13.424 41.4349C13.3222 41.5734 13.2287 41.7179 13.1442 41.8676C13.0576 42.0172 12.9796 42.1716 12.9105 42.33C12.5036 43.2225 12.4086 44.2255 12.6408 45.1783C12.8729 46.1311 13.4188 46.9786 14.1909 47.5849L14.3247 47.7097L14.3374 47.7216L14.3379 47.722L14.3247 47.7097L14.6603 47.8053L14.4166 47.8007C14.8995 48.2586 15.5269 48.5346 16.1913 48.5813C16.3642 48.6002 16.5382 48.6147 16.7127 48.6258C16.7755 48.6297 16.8385 48.6314 16.9014 48.6345C17.0134 48.6402 17.1255 48.6466 17.2376 48.6502L17.2587 48.6506C17.6008 48.6611 17.9423 48.6635 18.2781 48.6655C18.3092 48.6655 18.3404 48.6664 18.3715 48.6665C18.5989 48.668 18.826 48.6703 19.0531 48.6749L19.052 48.6761C19.0123 48.7183 18.9692 48.7572 18.9232 48.7923C18.9154 48.7983 18.908 48.8045 18.9 48.8103C18.855 48.8433 18.8082 48.8737 18.7599 48.9014L18.7297 48.9185C18.6805 48.9457 18.6299 48.9716 18.578 48.9962L18.5456 49.0111C18.4951 49.0342 18.4441 49.0574 18.3922 49.0805L18.3853 49.0835C18.3251 49.1101 18.2649 49.1374 18.2047 49.1655C18.1794 49.1774 18.1541 49.189 18.1291 49.2015C18.113 49.2095 18.0974 49.2185 18.0814 49.2269C18.0556 49.2404 18.0297 49.2537 18.0045 49.2681C17.9877 49.2778 17.9717 49.2888 17.9552 49.2989C17.9317 49.3135 17.9079 49.3277 17.8851 49.3435C17.8687 49.3549 17.8532 49.3679 17.8372 49.3801C17.8157 49.3964 17.7939 49.4124 17.7733 49.4302C17.7575 49.4438 17.7431 49.4593 17.728 49.4739C17.7088 49.4924 17.6892 49.5106 17.6712 49.5308C17.6566 49.5471 17.6434 49.5656 17.6295 49.5831C17.6135 49.604 17.5965 49.6247 17.5812 49.6478Z" fill="#E5D1B8"/>
<path d="M17.5082 50H15.3778C15.0643 49.9877 14.7538 49.9351 14.4538 49.8437L14.3707 49.8222C11.6035 49.1539 9.89804 46.8522 9.92328 43.8164C9.99095 35.6613 9.97993 27.3685 9.96923 19.3487C9.96512 16.2834 9.96242 13.2267 9.96112 10.1787L9.96066 8.77665C9.96108 7.69723 9.96149 6.60255 9.94815 5.52604C9.973 4.88007 9.83745 4.238 9.55357 3.65698C9.50614 3.57013 9.45384 3.48602 9.39693 3.40505L9.3709 3.35651C9.33116 3.25507 9.28861 3.15713 9.24325 3.06269L9.19452 2.96934C9.15807 2.89777 9.12893 2.84035 9.09758 2.78575L9.03366 2.68246C8.9929 2.61607 8.96557 2.5715 8.93662 2.52869L8.85061 2.40991C8.82129 2.3695 8.79211 2.3291 8.76145 2.29044L8.70165 2.21832C8.63954 2.14504 8.60684 2.10629 8.57289 2.06921L8.49943 1.99247C8.44631 1.938 8.40962 1.90041 8.37173 1.86435L8.27789 1.77849C8.23663 1.74151 8.19804 1.7072 8.15858 1.67419L8.05603 1.59129C8.01583 1.55953 7.97539 1.52814 7.93436 1.49772L7.08258 0.976705L5.99745 0.510112L4.94141 0.119389L6.15178 0.0535981C6.71222 0.0251642 7.29017 0.0271523 7.85835 0.0271523C10.643 0.0271523 13.4269 0.0289708 16.21 0.0326079H16.3637C23.8116 0.0395892 31.5127 0.0467555 39.0853 0.000244141C39.8431 0.00106564 40.593 0.153585 41.2908 0.448779C41.9885 0.743974 42.6198 1.17585 43.1474 1.71885C44.2538 2.81959 44.8787 4.31273 44.8857 5.872C44.8165 14.1216 44.8332 22.5106 44.8494 30.6234C44.8556 33.7004 44.8618 36.7617 44.8636 39.8229V40.0504L44.23 40.0618C43.8992 40.0684 43.572 40.0749 43.2503 40.0751L17.9501 40.0802L17.8215 40.0756C17.7193 40.0747 17.6172 40.0681 17.5158 40.0559C16.8027 39.9273 16.0681 39.9936 15.3897 40.2477C14.7113 40.5019 14.1145 40.9345 13.6623 41.4996L13.6073 41.5723C13.511 41.7035 13.4226 41.8403 13.3426 41.982C13.2603 42.1239 13.1862 42.2705 13.1206 42.4208C12.7344 43.2677 12.6442 44.2194 12.8646 45.1235C13.0849 46.0276 13.603 46.8316 14.3358 47.4067L14.4389 47.5024L16.4321 48.07L15.1402 48.0454C15.476 48.2126 15.8399 48.3163 16.2136 48.3512C16.3831 48.3697 16.5536 48.3836 16.7246 48.3947L16.9793 48.4069C17.0668 48.4115 17.1544 48.4161 17.242 48.4188C17.603 48.4296 17.9426 48.432 18.2765 48.434L18.3256 48.4346C18.5984 48.4365 18.8266 48.4388 19.0547 48.4434L19.5695 48.4538L19.2191 48.8326C19.1709 48.8841 19.1184 48.9315 19.0623 48.9744C19.002 49.0208 18.9387 49.0631 18.8729 49.1012C18.7856 49.1499 18.7308 49.178 18.6743 49.2047L18.2301 49.4078L18.0788 49.2264L18.1865 49.431L18.1175 49.468L17.9526 49.2985L18.0745 49.495L18.0145 49.533L17.8346 49.3796L17.9747 49.5637L17.9224 49.6043L17.7253 49.4735L17.8864 49.6396L17.8414 49.6841L17.6271 49.5827L17.8094 49.7253L17.6591 49.9621L17.5082 50ZM9.79216 3.16242C9.85278 3.25038 9.9088 3.34143 9.95997 3.4352C10.2819 4.08194 10.437 4.79864 10.4113 5.52035C10.4246 6.59885 10.4243 7.69556 10.4238 8.75673L10.4243 10.1784C10.4243 13.2311 10.427 16.2833 10.4324 19.3352C10.4431 27.3692 10.4541 35.6631 10.3864 43.8205C10.3633 46.6302 11.9329 48.7583 14.4832 49.3741L14.5696 49.3964C14.8321 49.4769 15.1036 49.5245 15.3778 49.5381H17.3741L17.3852 49.5204C17.4015 49.4959 17.4191 49.4732 17.4369 49.4507C17.4683 49.4099 17.4817 49.3928 17.4958 49.377C17.5146 49.3559 17.5345 49.3365 17.5546 49.3172L17.619 49.2556C17.6398 49.2376 17.6617 49.2209 17.6838 49.2043L18.0892 48.9632C18.1428 48.9381 18.1893 48.917 18.2337 48.8968C17.8845 48.8944 17.5668 48.8916 17.2489 48.8819C17.1368 48.8786 17.0461 48.8738 16.9555 48.8691L16.6952 48.8566C16.5172 48.8454 16.3398 48.8306 16.1634 48.8113C15.4464 48.7594 14.7699 48.4599 14.25 47.9643L14.0266 47.7513C13.8686 47.6207 13.7183 47.481 13.5766 47.333L13.472 47.2359L13.4906 47.241C12.8789 46.5784 12.477 45.7502 12.3354 44.8603C12.1938 43.9704 12.3188 43.0586 12.6947 42.2395C12.7673 42.0731 12.8492 41.9111 12.9402 41.754C13.0292 41.5963 13.1277 41.4441 13.235 41.2982L13.2964 41.217C13.7977 40.5867 14.4606 40.1035 15.2147 39.8186C15.9687 39.5337 16.786 39.4578 17.5798 39.5989C17.6612 39.6084 17.7431 39.6135 17.825 39.614L17.9621 39.6186L43.25 39.6128C43.5686 39.6128 43.8927 39.6062 44.2065 39.5999L44.4 39.5962C44.398 36.6109 44.3934 33.6256 44.3861 30.6401C44.3698 22.5104 44.3531 14.1201 44.4223 5.86798C44.4146 4.43178 43.8378 3.05697 42.8179 2.04392C42.3379 1.54781 41.7636 1.15237 41.1285 0.880783C40.4934 0.609197 39.8103 0.466939 39.1194 0.462353C31.514 0.509095 23.8118 0.501929 16.3633 0.494948H16.2108C13.1867 0.491865 10.1632 0.490062 7.1402 0.489538L7.95539 0.94841C8.00152 0.978771 8.04719 1.00987 8.09239 1.04171L8.21018 1.12641C8.2552 1.15975 8.29948 1.19405 8.34343 1.22882L8.45608 1.3199C8.49957 1.35629 8.54214 1.39387 8.58452 1.43202L8.69137 1.5298C8.73338 1.56979 8.77414 1.61145 8.81481 1.6532L8.91462 1.75723C8.95274 1.79884 8.98943 1.84216 9.02611 1.88553L9.12477 2.00342C9.15941 2.04721 9.19267 2.09293 9.22583 2.1387L9.07437 2.32364L9.2608 2.18651L9.32009 2.26918C9.35297 2.31768 9.38414 2.36835 9.41527 2.41907L9.25506 2.5997L9.45084 2.47626L9.49938 2.5556C9.53454 2.61686 9.56738 2.68107 9.60012 2.74515L9.4218 2.90374L9.62597 2.79458L9.66126 2.8631C9.70746 2.95976 9.75109 3.05953 9.79216 3.16242Z" fill="#2B2129"/>
<path d="M18.6949 45.1792C18.7187 45.0117 18.7327 44.843 18.7368 44.674C18.7705 44.4201 18.7472 44.162 18.6686 43.9183C18.59 43.6746 18.458 43.4514 18.2823 43.2649C18.2463 43.214 18.2101 43.1623 18.1746 43.1103C18.1647 43.0958 18.1555 43.0811 18.1457 43.0666C18.1199 43.028 18.0944 42.9893 18.0701 42.95C18.058 42.9305 18.0469 42.9105 18.0356 42.8908C18.0151 42.8558 17.995 42.8206 17.9765 42.7849C17.9651 42.7625 17.955 42.7398 17.9444 42.7171C17.9339 42.6945 17.9247 42.6719 17.9154 42.6492L17.931 42.6489L20.5306 42.6063C20.5605 42.6557 20.5856 42.7064 20.6133 42.7564C20.6513 42.8249 20.6914 42.8929 20.7252 42.9626C20.7535 43.0208 20.7762 43.0804 20.8014 43.1393C20.83 43.2058 20.8612 43.2717 20.8862 43.3389C20.9107 43.4052 20.9293 43.4726 20.9504 43.5395C20.9697 43.6009 20.9921 43.6617 21.0083 43.7235C21.0291 43.8021 21.0435 43.8816 21.0596 43.9609C21.0701 44.012 21.0837 44.0626 21.0921 44.1141C21.1085 44.2142 21.1183 44.315 21.1275 44.4159C21.1304 44.4468 21.136 44.4776 21.1381 44.5086C21.17 45.1344 21.0775 45.7602 20.8659 46.3501C20.6544 46.94 20.328 47.4822 19.9055 47.9456C19.8678 47.9885 19.8258 48.0293 19.7865 48.0714C19.7255 48.1371 19.6657 48.2034 19.6006 48.267C19.4938 48.3711 19.3818 48.4723 19.2645 48.5705C18.9745 48.5636 18.6839 48.5619 18.3932 48.5601C18.0565 48.5581 17.7141 48.5557 17.3714 48.5454L17.3453 48.5449C17.2615 48.5423 17.1779 48.537 17.0941 48.5333C16.8267 48.5213 16.5595 48.5051 16.2955 48.4765C16.2141 48.4677 16.1346 48.4564 16.0567 48.4432C16.0312 48.4388 16.0068 48.4331 15.9817 48.4282C15.9301 48.4184 15.8785 48.4085 15.8286 48.3966C15.7998 48.3897 15.7722 48.3815 15.7439 48.374C15.6992 48.3621 15.6546 48.3503 15.6113 48.3367C15.5823 48.3275 15.5543 48.3174 15.5258 48.3076C15.4852 48.2937 15.4447 48.2794 15.4054 48.2638C15.3771 48.2526 15.3495 48.2407 15.322 48.2284C15.2843 48.2121 15.247 48.1954 15.2105 48.1776C15.1836 48.1644 15.1572 48.1505 15.131 48.1365C15.0957 48.1177 15.0608 48.0984 15.0268 48.0781C15.0015 48.0631 14.9765 48.0477 14.952 48.0319C14.9188 48.0105 14.8864 47.9884 14.8547 47.9657C14.8312 47.9488 14.8078 47.9318 14.7852 47.9142C14.7637 47.8977 14.7432 47.88 14.7223 47.8628L14.6602 47.8053C14.777 47.8036 14.8939 47.8034 15.0106 47.8033C15.6448 47.8434 16.2806 47.7577 16.8814 47.5511C17.0455 47.4838 17.2039 47.4033 17.3549 47.3104C17.7264 47.0807 18.0402 46.7693 18.2725 46.3999C18.5048 46.0305 18.6492 45.6129 18.6949 45.1792Z" fill="#BB9168"/>
<path d="M19.3464 48.8035L19.2593 48.8014C18.9765 48.7948 18.6931 48.793 18.4097 48.7913C18.0534 48.7891 17.7092 48.7866 17.3645 48.7764L17.084 48.7641C16.8116 48.752 16.5395 48.7353 16.2708 48.7062C16.1846 48.697 16.1004 48.685 16.018 48.671L15.9641 48.6605C15.8833 48.6447 15.8283 48.634 15.7751 48.6214L15.7111 48.6045C15.6355 48.5843 15.5882 48.5716 15.5423 48.5573L15.4718 48.5335C15.4064 48.5108 15.3627 48.4954 15.3202 48.4786L15.2414 48.4455C15.1887 48.4226 15.1481 48.4044 15.1086 48.3851L15.0219 48.3404C14.9834 48.3199 14.9454 48.2988 14.9082 48.2767L14.8263 48.2258C14.79 48.2025 14.7545 48.1783 14.7198 48.1533L14.5025 47.9746L14.0781 47.5823L14.6564 47.5738C14.7744 47.5721 14.8923 47.5719 15.0102 47.5718C15.6142 47.6105 16.2201 47.5307 16.7934 47.3369C16.9459 47.2743 17.093 47.1995 17.2334 47.1132C17.5763 46.9017 17.8658 46.6144 18.0795 46.2733C18.2932 45.9323 18.4254 45.5467 18.4659 45.1465C18.4884 44.9879 18.5017 44.8278 18.5056 44.6677C18.5363 44.4387 18.5152 44.2058 18.4438 43.986C18.3725 43.7662 18.2528 43.5652 18.0934 43.3977L17.9535 43.195C17.9261 43.1541 17.8991 43.1131 17.8734 43.0715L17.8469 43.0264C17.8134 42.9689 17.7913 42.9301 17.771 42.8907L17.5747 42.4284L17.9119 42.418L20.6601 42.3729L20.729 42.4866C20.7507 42.5224 20.7703 42.5588 20.7897 42.5954L20.8448 42.6954C20.8758 42.7505 20.9067 42.8056 20.9339 42.8618C20.9549 42.9051 20.9731 42.9489 20.9913 42.9928L21.0388 43.1037C21.0615 43.1552 21.0842 43.2067 21.1036 43.2589C21.1226 43.3101 21.1385 43.3619 21.1542 43.4137L21.1903 43.5279C21.2054 43.5733 21.2203 43.6187 21.2325 43.6646C21.2501 43.7312 21.2636 43.7983 21.2769 43.8654L21.2987 43.9685C21.3069 44.0045 21.315 44.0405 21.321 44.0768C21.3384 44.1825 21.3488 44.2889 21.3586 44.3952L21.3695 44.4929C21.404 45.1491 21.3078 45.8055 21.0866 46.4243C20.8653 47.0431 20.5233 47.6119 20.0803 48.0979C20.0544 48.1274 20.027 48.1559 19.9995 48.1842L19.9208 48.2674C19.8694 48.3229 19.8179 48.3784 19.763 48.4323C19.6517 48.5408 19.5351 48.646 19.4134 48.7479L19.3464 48.8035ZM15.4484 48.0308L15.4909 48.0488C15.527 48.0631 15.5644 48.0761 15.6018 48.0891L15.6805 48.1161C15.7201 48.1284 15.761 48.1392 15.8019 48.1501L15.8823 48.1716C15.9289 48.1827 15.9771 48.1919 16.0253 48.2011L16.0567 48.4431L16.0956 48.2152C16.1689 48.2277 16.2438 48.2383 16.3205 48.2466C16.5796 48.2746 16.8419 48.2905 17.1046 48.3021L17.3526 48.3135C17.7192 48.3243 18.0597 48.3266 18.3947 48.3286C18.6673 48.3303 18.9255 48.3319 19.1818 48.3371C19.2708 48.2603 19.3566 48.1817 19.439 48.1013C19.488 48.0533 19.5341 48.0033 19.5802 47.9533L19.6664 47.862C19.6886 47.8392 19.7108 47.8164 19.7313 47.7927C20.1339 47.3524 20.4451 46.8368 20.6469 46.2758C20.8488 45.7147 20.9372 45.1193 20.9071 44.5239L20.8969 44.4364C20.8882 44.341 20.8791 44.2457 20.8635 44.1511C20.8589 44.1241 20.8528 44.0973 20.8467 44.0705L20.8222 43.9546C20.8108 43.8969 20.7995 43.839 20.7843 43.7821C20.7745 43.7451 20.7623 43.7089 20.7502 43.6724L20.7104 43.5469C20.6975 43.504 20.6846 43.461 20.6687 43.4187C20.6526 43.3753 20.6335 43.3326 20.6146 43.2898L20.5626 43.1685C20.548 43.1331 20.5335 43.0976 20.5165 43.0628C20.4934 43.0151 20.4669 42.9684 20.4405 42.9216L20.395 42.8392L18.2963 42.8741C18.3102 42.8955 18.3241 42.9167 18.3385 42.9379L18.1748 43.1102L18.3661 42.9799L18.4719 43.1317C18.6673 43.3434 18.8129 43.596 18.898 43.871C18.9831 44.1461 19.0055 44.4366 18.9637 44.7215C18.9617 44.8857 18.9485 45.0495 18.9243 45.2119C18.8728 45.679 18.7156 46.1282 18.4647 46.5258C18.2138 46.9234 17.8757 47.2589 17.476 47.5071C17.3142 47.6065 17.1447 47.6927 16.969 47.7648C16.4833 47.9476 15.9675 48.0379 15.4484 48.0308ZM18.1391 42.8766L18.0702 42.9499L18.1903 42.8759L18.1391 42.8766Z" fill="#2B2129"/>
<path d="M18.6397 44.6183L17.8978 44.6158C17.1657 44.6134 16.4337 44.6101 15.7017 44.6057L15.6365 44.6054C15.2819 44.6044 14.947 44.6035 14.8283 44.1902C14.78 44.0165 14.7813 43.8327 14.8319 43.6596C14.8826 43.4866 14.9807 43.3311 15.1152 43.2107C15.1694 43.153 15.2247 43.1009 15.2805 43.0515C15.298 43.036 15.3157 43.0218 15.3334 43.007C15.3733 42.9738 15.4136 42.9425 15.4544 42.913C15.4737 42.8991 15.493 42.885 15.5125 42.8719C15.5583 42.8411 15.6047 42.813 15.6515 42.7867C15.6644 42.7794 15.6771 42.771 15.6902 42.7641C15.7481 42.7333 15.8071 42.7064 15.8668 42.6819C15.8885 42.673 15.9108 42.6656 15.9328 42.6575C15.973 42.6426 16.0134 42.6288 16.0544 42.6166C16.0801 42.609 16.106 42.6017 16.1322 42.595C16.1726 42.5846 16.2135 42.5758 16.2548 42.5678C16.2792 42.5631 16.3034 42.5574 16.328 42.5534C16.3895 42.5434 16.4517 42.5357 16.5148 42.5303C16.5415 42.528 16.5688 42.5273 16.5958 42.5257C16.6374 42.5233 16.6797 42.5214 16.7223 42.521C16.7517 42.5207 16.7814 42.521 16.8112 42.5213C16.8595 42.5219 16.9083 42.5237 16.9576 42.5264C16.9815 42.5278 17.0053 42.5286 17.0294 42.5303C17.1041 42.5358 17.1798 42.543 17.2568 42.5525L17.2821 42.556C17.3602 42.566 17.4393 42.5778 17.5197 42.5912L17.5323 42.5934C17.6195 42.6083 17.7081 42.6249 17.798 42.6434C17.8103 42.6765 17.8264 42.7081 17.8409 42.7401C17.852 42.7648 17.8616 42.7901 17.8738 42.8141C17.8931 42.8523 17.9147 42.8894 17.9362 42.9265C17.9484 42.9478 17.9593 42.9695 17.9723 42.9904C17.9974 43.0315 18.024 43.0714 18.0506 43.1114C18.0614 43.1277 18.0716 43.1443 18.0826 43.1604C18.1203 43.2159 18.1587 43.2704 18.1969 43.3246C18.232 43.3745 18.2669 43.4239 18.3009 43.4734C18.3083 43.4843 18.3148 43.4951 18.3223 43.5058C18.3489 43.5451 18.3754 43.5844 18.4002 43.624C18.4069 43.6346 18.4126 43.6453 18.4191 43.656C18.4437 43.6963 18.468 43.7366 18.4899 43.7777C18.4945 43.7866 18.4984 43.7959 18.5031 43.8049C18.5253 43.8481 18.5467 43.8915 18.5651 43.9362C18.5685 43.9444 18.5708 43.953 18.574 43.9613C18.5922 44.0068 18.6079 44.0534 18.621 44.1007C18.6237 44.1105 18.6249 44.1207 18.6273 44.1305C18.6391 44.1773 18.6479 44.2248 18.6537 44.2726C18.6554 44.2876 18.6551 44.3034 18.6562 44.3185C18.66 44.3629 18.6611 44.4074 18.6597 44.4519C18.6585 44.4791 18.6541 44.5074 18.6509 44.5352C18.6481 44.5628 18.6446 44.5902 18.6397 44.6183Z" fill="#2B2129"/>
<path d="M18.8356 44.8502L17.8982 44.847C17.1659 44.8446 16.4335 44.8413 15.7013 44.8369L15.6366 44.8366C15.2726 44.8355 14.7736 44.8341 14.6069 44.2541C14.5474 44.0419 14.5477 43.8174 14.6078 43.6054C14.6679 43.3934 14.7855 43.2021 14.9476 43.0525C15.0068 42.9896 15.0671 42.9326 15.1282 42.8786L15.1732 42.8406C15.2305 42.7929 15.2751 42.7582 15.3201 42.7257L15.385 42.6801C15.4359 42.6459 15.4876 42.6144 15.5399 42.5852L15.5833 42.56C15.6475 42.5261 15.7133 42.4955 15.7806 42.4682L15.8362 42.4473C15.8993 42.4242 15.9444 42.4088 15.99 42.3952L16.0766 42.3711C16.1212 42.3597 16.1666 42.3499 16.2122 42.341L16.2929 42.3253C16.3601 42.3144 16.4281 42.3061 16.4971 42.3002L16.5602 42.2964C16.63 42.2927 16.6753 42.2906 16.7213 42.29L16.8164 42.2903C16.8679 42.291 16.9199 42.2928 16.9723 42.2958L17.0481 42.2999C17.1268 42.3057 17.2063 42.3133 17.2872 42.323C17.3947 42.3369 17.4767 42.3491 17.5604 42.3632C17.6632 42.3807 17.7541 42.3979 17.8467 42.4169L17.9721 42.4426L18.0682 42.6774C18.0982 42.7408 18.1154 42.7705 18.1326 42.8001L18.1557 42.8414C18.1953 42.9082 18.2202 42.9455 18.2451 42.9829L18.0845 43.1604L18.276 43.0305L18.4937 43.3429C18.5441 43.418 18.572 43.4595 18.5982 43.5014C18.6455 43.58 18.672 43.6241 18.6961 43.6691C18.7361 43.7484 18.7603 43.7978 18.7811 43.8485C18.8062 43.9115 18.8281 43.9757 18.8465 44.041C18.8636 44.1086 18.8766 44.1772 18.8856 44.2464L18.889 44.3019C18.8934 44.3551 18.8946 44.4084 18.8928 44.4617C18.8917 44.4884 18.8886 44.5152 18.8852 44.5419C18.8794 44.5928 18.8753 44.6251 18.8696 44.6582L18.8356 44.8502ZM18.6416 44.4514V44.4569L18.661 44.4523L18.6416 44.4514ZM15.2817 43.0514L15.4354 43.2244C15.3847 43.2693 15.3345 43.3165 15.2852 43.3689C15.179 43.4605 15.1008 43.5802 15.0595 43.7142C15.0183 43.8482 15.0157 43.9911 15.0521 44.1265C15.1145 44.3438 15.2265 44.373 15.6383 44.3742L15.704 44.3745C16.4363 44.3798 17.1682 44.3831 17.8998 44.3845L18.4296 44.3864C18.429 44.3695 18.4279 44.3527 18.4267 44.336C18.4234 44.2852 18.4157 44.2347 18.4035 44.1852C18.3923 44.1376 18.3776 44.091 18.3595 44.0456C18.3418 43.9995 18.3213 43.9545 18.2984 43.9108C18.2669 43.8496 18.2449 43.813 18.2226 43.7767L17.8585 43.239C17.8304 43.1967 17.8024 43.1545 17.7759 43.1112L17.7488 43.0638C17.7089 42.994 17.6874 42.9566 17.6681 42.9183L17.6408 42.8582L17.6512 42.8501C17.5984 42.84 17.5462 42.8305 17.4945 42.8216C17.4049 42.8065 17.3289 42.7953 17.2537 42.7857C17.1564 42.7733 17.0844 42.7665 17.0135 42.7613L16.9461 42.7577C16.8998 42.7551 16.854 42.7536 16.8089 42.7531L16.7265 42.7528C16.6871 42.7533 16.6483 42.7552 16.6097 42.7575L16.5356 42.7615C16.4784 42.7664 16.4219 42.7733 16.3662 42.7823L16.3003 42.7954C16.2636 42.8026 16.227 42.8104 16.1909 42.8196L16.1214 42.839C16.0854 42.8497 16.0496 42.8621 16.014 42.8751L15.8678 42.6827L15.9558 42.8966C15.9032 42.9181 15.8512 42.9418 15.8001 42.969C15.7244 43.0124 15.6833 43.0373 15.6426 43.0645L15.5975 43.0963C15.5544 43.1274 15.5183 43.1555 15.4826 43.1853L15.2817 43.0514ZM17.7807 42.734L17.777 42.7519L17.829 42.7115L17.7807 42.734Z" fill="#2B2129"/>
<path d="M17.8402 42.5464C16.864 42.3435 15.8496 42.2763 15.0376 43.1395C14.8901 43.2726 14.7827 43.4441 14.7278 43.6349C14.6728 43.8256 14.6723 44.0279 14.7265 44.2188C14.8668 44.7071 15.2746 44.7083 15.6343 44.7093L15.6991 44.7097C16.4115 44.7148 17.1239 44.7182 17.8362 44.7196L18.6283 44.7224C18.627 44.7557 18.6249 44.7884 18.6229 44.8212C18.6205 44.862 18.6183 44.9031 18.615 44.943C18.6113 44.9841 18.6061 45.0241 18.6013 45.0643C18.5967 45.1034 18.5926 45.1429 18.5868 45.181C18.5809 45.2205 18.5734 45.2589 18.5663 45.2976C18.5595 45.3351 18.5533 45.3729 18.5454 45.4096C18.5372 45.4476 18.5274 45.4845 18.518 45.5217C18.5091 45.5574 18.5008 45.5936 18.4908 45.6285C18.4803 45.6651 18.4681 45.7005 18.4565 45.7363C18.4455 45.7702 18.4351 45.8046 18.423 45.8377C18.4103 45.8728 18.3958 45.9065 18.3819 45.9406C18.3688 45.973 18.3563 46.0057 18.3422 46.0371C18.3273 46.0704 18.3106 46.1023 18.2945 46.1346C18.2793 46.1654 18.2647 46.1967 18.2485 46.2266C18.2313 46.2581 18.2124 46.2882 18.1941 46.3191C18.1768 46.3481 18.1602 46.3777 18.1419 46.4059C18.1225 46.4359 18.1012 46.4643 18.0807 46.4934C18.0614 46.5205 18.0429 46.5484 18.0227 46.5748C18.0009 46.6032 17.9772 46.6303 17.9543 46.6575C17.9331 46.6827 17.9128 46.7087 17.8908 46.7331C17.8665 46.76 17.8403 46.7853 17.8149 46.8112C17.792 46.8343 17.7701 46.8584 17.7464 46.8809C17.7196 46.9061 17.6908 46.9297 17.663 46.954C17.6385 46.9753 17.6149 46.9974 17.5895 47.0179C17.5598 47.0418 17.5281 47.0641 17.4972 47.0868C17.4716 47.1058 17.4469 47.1256 17.4204 47.1438C17.3863 47.1673 17.3501 47.1889 17.3146 47.2111C17.2893 47.2269 17.265 47.2434 17.239 47.2588C17.1996 47.2819 17.158 47.3028 17.117 47.3243C17.0929 47.3369 17.0699 47.3505 17.0453 47.3626C16.9788 47.3953 16.9103 47.4261 16.8398 47.4551C16.2514 47.656 15.629 47.739 15.0084 47.6995C14.8549 47.6995 14.7013 47.6998 14.5477 47.7036L14.4889 47.6491L14.5482 47.704L14.3348 47.5065L14.3324 47.5044C13.5716 46.9155 13.0326 46.0871 12.8029 45.1537C12.5732 44.2204 12.6664 43.237 13.0674 42.3632C13.1132 42.2573 13.163 42.1551 13.2156 42.055C13.2326 42.0227 13.2514 41.992 13.2691 41.9603C13.3062 41.8941 13.3436 41.8282 13.3834 41.7648C13.406 41.729 13.43 41.6946 13.4535 41.6596C13.4916 41.6029 13.5303 41.5468 13.5707 41.4927C13.5967 41.4577 13.6236 41.4239 13.6506 41.39C13.6918 41.3383 13.734 41.2877 13.7773 41.2383C13.8055 41.2063 13.8341 41.1747 13.863 41.1436C13.9088 41.0949 13.9559 41.0478 14.0038 41.0016C14.0328 40.9739 14.0616 40.9454 14.0914 40.9184C14.1444 40.8705 14.1991 40.8249 14.2544 40.78C14.2813 40.7582 14.3074 40.7354 14.3349 40.7143C14.4055 40.66 14.4785 40.6088 14.5526 40.5595C14.5665 40.5503 14.5795 40.54 14.5934 40.531C14.6837 40.4725 14.7764 40.4178 14.8716 40.3669C14.8878 40.3582 14.9049 40.3509 14.9213 40.3424C14.9992 40.3019 15.0783 40.2632 15.1592 40.2278C15.19 40.2144 15.2217 40.2026 15.2528 40.1899C15.3212 40.1621 15.39 40.135 15.4603 40.1107C15.4965 40.0981 15.5333 40.0869 15.5699 40.0753C15.6372 40.054 15.7051 40.034 15.774 40.016C15.813 40.0059 15.8523 39.9963 15.8917 39.9872C15.9607 39.9712 16.0305 39.957 16.1009 39.9444C16.1408 39.9372 16.1808 39.9299 16.2211 39.9238C16.2944 39.9126 16.3686 39.904 16.4434 39.8964C16.4819 39.8924 16.5201 39.8877 16.5589 39.8847C16.6423 39.8783 16.7267 39.8752 16.8116 39.8731C16.8426 39.8724 16.8732 39.8702 16.9045 39.87C16.9904 39.8696 17.0777 39.8735 17.165 39.8777C17.2001 39.8793 17.2345 39.879 17.2696 39.8814C17.3922 39.8896 17.5159 39.902 17.6408 39.9193C17.7361 39.9308 17.832 39.937 17.928 39.9378C17.9567 39.9385 17.9863 39.9397 18.0157 39.9408C18.0183 39.9573 18.0238 39.971 18.0275 39.9864C18.0319 40.0049 18.0359 40.024 18.0417 40.0413C18.0488 40.0617 18.0571 40.0816 18.0665 40.1011C18.0738 40.1165 18.0804 40.1325 18.0887 40.1469C18.0994 40.1645 18.111 40.1815 18.1235 40.1978C18.1328 40.2105 18.1416 40.2239 18.1518 40.2358C18.1654 40.2515 18.1804 40.2656 18.1953 40.2798C18.2062 40.2901 18.2165 40.3012 18.2278 40.3108C18.2441 40.3247 18.2615 40.3368 18.2787 40.3492C18.2903 40.3576 18.3014 40.3665 18.3134 40.3743C18.3323 40.3867 18.3521 40.3979 18.3718 40.4091C18.3832 40.4156 18.3942 40.4227 18.4058 40.4289C18.4279 40.4408 18.4502 40.4517 18.4726 40.4627C18.4824 40.4673 18.4919 40.4725 18.5016 40.4771C18.5335 40.4922 18.5653 40.5067 18.5966 40.5209L18.6592 40.5495C18.7683 40.5999 18.8731 40.6543 18.9737 40.7127C19.0061 40.7312 19.0353 40.7529 19.0667 40.7723C19.1335 40.8139 19.2008 40.8547 19.2637 40.8998C19.2967 40.9235 19.3266 40.9501 19.3586 40.9747C19.4165 41.0194 19.475 41.0634 19.5295 41.1115C19.5596 41.1381 19.5869 41.1676 19.6159 41.1952C19.6686 41.2452 19.7218 41.2947 19.7711 41.3482C19.7981 41.3774 19.8224 41.4095 19.8484 41.4398C19.8961 41.4953 19.9442 41.5508 19.9886 41.6099C20.0139 41.6437 20.0366 41.6801 20.0608 41.715C20.102 41.7742 20.1434 41.833 20.1813 41.8956C20.2072 41.9383 20.2307 41.984 20.2554 42.0283C20.2874 42.086 20.3199 42.1431 20.3497 42.2035C20.3794 42.264 20.4057 42.3265 20.4327 42.3891C20.4492 42.4269 20.466 42.4643 20.4816 42.5031L17.8402 42.5464Z" fill="#CBA58C"/>
<path d="M14.4586 47.9367L14.39 47.8732L14.1769 47.6759C13.3786 47.0557 12.8136 46.1844 12.5735 45.2035C12.3335 44.2225 12.4324 43.1894 12.8543 42.2716C12.9025 42.1603 12.9548 42.0526 13.0101 41.9476L13.0475 41.8807C13.1053 41.778 13.1447 41.7087 13.1868 41.6419L13.2424 41.5576C13.3007 41.471 13.3416 41.4118 13.3843 41.3546L13.4686 41.2462C13.5122 41.1915 13.5569 41.138 13.6026 41.0858L13.6933 40.9856C13.7417 40.934 13.7916 40.8842 13.8422 40.8354L13.9349 40.7473C13.9909 40.6964 14.0489 40.6482 14.1074 40.6006L14.1928 40.5313C14.2676 40.4738 14.3446 40.4195 14.4231 40.3673L14.4664 40.3372C14.5621 40.2754 14.6603 40.2175 14.7609 40.1635L14.8134 40.1374C14.8959 40.0946 14.9795 40.0538 15.0652 40.0163L15.1326 39.9886C15.2363 39.9465 15.3091 39.918 15.3833 39.8923L15.4777 39.8616C15.57 39.8325 15.6416 39.8114 15.7143 39.7922L15.8383 39.7618C15.9111 39.7451 15.9845 39.73 16.0587 39.7167L16.1851 39.6951C16.2621 39.6834 16.3401 39.6743 16.4186 39.6663L16.5398 39.654C16.6272 39.6473 16.7158 39.644 16.8048 39.6418L16.902 39.6387C16.9919 39.6383 17.0832 39.6423 17.1746 39.6466L17.284 39.6505C17.4118 39.6592 17.5409 39.6724 17.6713 39.6902C17.7574 39.7004 17.844 39.7058 17.9307 39.7064L18.1967 39.716L18.3076 40.0591L18.4081 40.158L18.7547 40.3393C18.8712 40.3931 18.9822 40.4508 19.0889 40.5126C19.112 40.5259 19.1338 40.5404 19.1557 40.5549L19.0866 40.7852L19.2086 40.5887C19.273 40.6286 19.3372 40.6685 19.3979 40.712C19.4217 40.729 19.4442 40.7473 19.4668 40.7657L19.3576 40.9747L19.5237 40.8106C19.5776 40.8522 19.6313 40.8938 19.6819 40.9382C19.7038 40.9576 19.7246 40.9781 19.7452 40.9988L19.615 41.1951L19.7934 41.0455C19.8436 41.093 19.8936 41.1407 19.9406 41.1916C19.9602 41.2129 19.9788 41.2354 19.9973 41.258L19.8592 41.4534L20.0352 41.303C20.0823 41.3579 20.1293 41.4129 20.1731 41.4713C20.1916 41.496 20.2091 41.5219 20.2264 41.5478L20.06 41.7149L20.2606 41.598C20.301 41.656 20.3412 41.7141 20.3786 41.7755C20.3985 41.8083 20.4171 41.8425 20.4356 41.8767L20.2546 42.0282L20.4705 41.9404C20.5 41.9933 20.5294 42.0462 20.5568 42.1017C20.5841 42.1572 20.6093 42.2158 20.6343 42.274L20.479 42.3917V42.4027L20.6564 42.3251L20.821 42.7288L17.8174 42.7782L17.7922 42.7729C16.7416 42.5546 15.8996 42.5602 15.2056 43.298C15.0862 43.4021 14.9986 43.5379 14.9531 43.6896C14.9075 43.8412 14.9059 44.0027 14.9483 44.1553C15.0319 44.4465 15.2215 44.4772 15.6344 44.4784L15.6995 44.4787C16.4121 44.4839 17.1244 44.4872 17.8363 44.4886L18.868 44.4923L18.8336 45.0668L18.5973 45.0928L18.8274 45.1193L18.7983 45.3135L18.5606 45.3262L18.7886 45.3666L18.7484 45.5529L18.5104 45.5501L18.7353 45.6051L18.6844 45.7825L18.4467 45.7647L18.6674 45.8347L18.606 46.0029L18.3703 45.968L18.5854 46.0536L18.5134 46.2133L18.2808 46.1614L18.4892 46.2625L18.4068 46.4136L18.1779 46.345L18.3778 46.4615L18.2849 46.6043L18.0621 46.5187L18.2524 46.6504L18.1494 46.784L17.9335 46.6816L18.1129 46.8278L17.9997 46.9526L17.7919 46.834L17.9592 46.9939L17.8368 47.1089L17.6376 46.9757L17.7917 47.1482L17.7343 47.1975C17.7099 47.2173 17.6842 47.2361 17.6586 47.2547L17.4698 47.1067L17.6102 47.2906L17.5509 47.3341C17.5221 47.3539 17.4921 47.3725 17.462 47.3911L17.286 47.2289L17.4121 47.4227L17.3553 47.4582C17.3206 47.4785 17.2843 47.4974 17.2481 47.5162L17.0879 47.3396L17.1998 47.5419L17.1469 47.5699C17.0758 47.6048 17.0026 47.6377 16.9271 47.6686C16.1594 47.9053 15.354 47.9955 14.5529 47.9343L14.4586 47.9367ZM14.5512 40.5594L14.6797 40.7517C14.6099 40.798 14.5415 40.8463 14.475 40.8973L14.4307 40.9333C14.3473 41.0015 14.2957 41.0443 14.2459 41.0895L14.1805 41.1514C14.1184 41.2115 14.074 41.2556 14.0309 41.3015L13.9502 41.3907C13.9093 41.4372 13.8694 41.4849 13.8306 41.5338L13.7553 41.6306C13.7171 41.6818 13.6806 41.7348 13.6446 41.7883L13.5784 41.8877C13.5406 41.9478 13.5053 42.01 13.4703 42.0726L13.4193 42.1622C13.3695 42.257 13.322 42.3541 13.2787 42.4546C12.8991 43.2825 12.811 44.2143 13.0288 45.0985C13.2465 45.9828 13.7574 46.7675 14.4784 47.3254L14.6353 47.4702C15.3487 47.5259 16.0662 47.4481 16.751 47.2408C16.8165 47.214 16.8802 47.1853 16.942 47.155L17.0084 47.1193C17.0632 47.0908 17.0929 47.0755 17.1212 47.0589L17.9086 46.3346L18.2671 45.565L18.38 44.9526L17.8345 44.9507C17.122 44.9483 16.4093 44.945 15.6966 44.9407L15.6325 44.9404C15.2579 44.9394 14.6912 44.9378 14.503 44.2825C14.4378 44.0531 14.4373 43.8101 14.5017 43.5805C14.5661 43.3509 14.6928 43.1435 14.8679 42.9812C15.7537 42.0396 16.8759 42.1126 17.8611 42.3148L20.1267 42.2775C20.107 42.2393 20.0862 42.2021 20.0655 42.1649L20.0279 42.0965C20.013 42.0691 19.9983 42.0416 19.9823 42.0155C19.9499 41.9622 19.9148 41.9119 19.8797 41.8615L19.802 41.7484C19.7643 41.6981 19.7237 41.651 19.6832 41.6038L19.5998 41.5047C19.5599 41.4613 19.5171 41.4211 19.4747 41.3807L19.3753 41.2845C19.3325 41.2467 19.2868 41.2118 19.241 41.1767L19.1277 41.0874C19.0755 41.05 19.02 41.0159 18.9646 40.9816L18.8567 40.9125C18.762 40.8578 18.6634 40.8066 18.5609 40.7591L18.1426 40.5367C18.1176 40.5189 18.097 40.5039 18.0774 40.4874L18.0414 40.4539C18.0116 40.4253 17.9927 40.4068 17.9753 40.3866L17.9413 40.3425C17.9218 40.3167 17.9036 40.2899 17.8869 40.2622L17.8595 40.2073C17.8526 40.1923 17.8464 40.1789 17.8409 40.1661C17.7629 40.1641 17.6851 40.158 17.6077 40.1481C17.4883 40.1315 17.37 40.1196 17.2527 40.1117L17.1529 40.1083C17.0696 40.1044 16.9864 40.1007 16.9044 40.1009L16.8158 40.104C16.7352 40.1059 16.6548 40.1086 16.5755 40.115L16.5036 40.122C16.395 40.1334 16.3245 40.1414 16.255 40.152L16.1468 40.1705C16.0744 40.1836 16.0083 40.197 15.943 40.2121L15.8316 40.2394C15.7668 40.2564 15.7024 40.2753 15.6388 40.2955L15.5351 40.3288C15.469 40.3519 15.404 40.3772 15.3396 40.4036L15.2513 40.4393C15.175 40.4727 15.1005 40.5091 15.0271 40.5472L14.8706 40.3667L14.9802 40.5701C14.8907 40.6181 14.8034 40.6696 14.7184 40.7246L14.5512 40.5594Z" fill="#2B2129"/>
<path d="M49.9637 45.8326C49.6102 48.134 47.6427 49.2433 46.0508 49.7688H17.7344C17.7396 49.7596 17.7443 49.7497 17.7497 49.7407C17.7608 49.7224 17.7723 49.7048 17.7844 49.6878C17.7983 49.668 17.8128 49.6489 17.8279 49.6305C17.8409 49.6148 17.854 49.5993 17.8678 49.5846C17.8839 49.5675 17.9007 49.5511 17.9178 49.5353C17.9323 49.5219 17.9467 49.5084 17.9619 49.4958C17.9801 49.4807 17.999 49.4665 18.0181 49.4525C18.0337 49.441 18.0491 49.4294 18.0652 49.4186C18.0856 49.405 18.1066 49.3923 18.1277 49.3795C18.1438 49.3699 18.1596 49.3598 18.1762 49.3506C18.1993 49.3377 18.2229 49.3255 18.2466 49.3133C18.2622 49.3054 18.2774 49.2971 18.293 49.2893C18.321 49.2755 18.3497 49.2624 18.3785 49.2492C18.3905 49.2437 18.4022 49.2379 18.4144 49.2325C18.4553 49.214 18.4966 49.1957 18.5382 49.1777C18.5903 49.1549 18.6424 49.1316 18.6945 49.1078C18.8977 49.0256 19.0829 48.9046 19.2396 48.7515C19.2674 48.7222 19.2935 48.6913 19.3178 48.659C19.4396 48.5577 19.5559 48.4533 19.6668 48.3457L19.6755 48.3364C21.2383 46.8107 21.6829 44.679 20.8108 42.9046C20.7493 42.7789 20.6811 42.655 20.6062 42.533C20.3443 41.8083 19.8598 41.1847 19.2218 40.7512C19.0567 40.6387 18.8828 40.5396 18.7019 40.4547L18.6387 40.4259C18.6079 40.412 18.5773 40.3981 18.5472 40.3838L18.5271 40.3739C18.5039 40.3629 18.4813 40.3517 18.4592 40.3401C18.4492 40.3347 18.4398 40.329 18.4301 40.3235C18.4119 40.3133 18.3937 40.3031 18.3765 40.2921C18.3659 40.2854 18.3562 40.278 18.3461 40.2709C18.3308 40.2603 18.3155 40.2495 18.3013 40.2378C18.2912 40.2297 18.2821 40.2206 18.2726 40.2118C18.2598 40.2 18.2472 40.1879 18.2356 40.1748C18.2267 40.1649 18.2189 40.1542 18.2108 40.1435C18.2003 40.1299 18.1906 40.1157 18.1816 40.1009C18.1745 40.0891 18.1683 40.0763 18.1622 40.0636C18.1543 40.0474 18.1474 40.0307 18.1415 40.0137C18.1366 39.9996 18.1322 39.9848 18.1286 39.9696C18.1264 39.9608 18.125 39.9511 18.1232 39.9419L21.0641 39.9413C28.5742 39.9402 36.0843 39.9387 43.5943 39.9367C43.9227 39.9367 44.2563 39.9299 44.579 39.9235C44.7328 39.9204 44.8866 39.9176 45.0405 39.915C47.7058 40.0295 49.5403 41.4916 49.948 43.8268C50.0639 44.49 50.0692 45.1677 49.9637 45.8326Z" fill="#D7AF94"/>
<path d="M46.0892 50H17.3398L17.5334 49.6557C17.5525 49.6211 17.5733 49.5874 17.5958 49.5549C17.6132 49.5302 17.6312 49.5065 17.6501 49.4836C17.6662 49.4641 17.6825 49.445 17.6997 49.4267C17.7196 49.4055 17.7402 49.3854 17.7612 49.3658L17.8148 49.3181C17.8366 49.3 17.8592 49.2829 17.882 49.2662L18.2829 49.0392L18.599 48.8978C18.7745 48.8275 18.9348 48.7242 19.0714 48.5937C19.0935 48.5704 19.1143 48.5459 19.1336 48.5203L19.1706 48.4814C19.2878 48.3841 19.3996 48.2837 19.5062 48.1801C21.0038 46.7174 21.4313 44.6901 20.6039 43.0065C20.5453 42.8869 20.4805 42.7694 20.4096 42.6538C20.2562 42.2193 20.0176 41.8197 19.7078 41.4782C19.3981 41.1367 19.0233 40.8601 18.6054 40.6647L18.2142 40.4605C18.1943 40.4467 18.1743 40.4323 18.1555 40.417L18.1158 40.3814C18.0978 40.3646 18.08 40.3473 18.0635 40.3288L18.0303 40.2877C18.0135 40.2659 17.9979 40.2432 17.9836 40.2197L17.9543 40.1639C17.9427 40.1398 17.9324 40.1151 17.9236 40.0899L17.9048 40.0261L17.8509 39.7507L18.1241 39.7109L43.5953 39.7058C43.9179 39.7058 44.2455 39.6992 44.5627 39.6929L45.038 39.6841C47.8335 39.8037 49.7496 41.3376 50.1773 43.7873C50.2975 44.4751 50.303 45.178 50.1937 45.8676C49.8224 48.2856 47.7759 49.4431 46.1246 49.9882L46.0892 50ZM18.3182 49.5377H46.0143C47.5365 49.0285 49.4026 47.9676 49.7359 45.7974C49.8375 45.1574 49.8325 44.505 49.721 43.8666C49.3334 41.6463 47.5804 40.2557 45.0317 40.1461L44.5953 40.1545C44.2517 40.1613 43.9211 40.1679 43.5955 40.168L18.6445 40.173L18.7994 40.2445C18.9919 40.3345 19.1769 40.4398 19.3526 40.5594C20.0301 41.0197 20.5449 41.6816 20.8239 42.4508C20.8965 42.5641 20.962 42.6818 21.0202 42.8031C21.9373 44.6687 21.4734 46.9056 19.8387 48.5016C19.7212 48.6165 19.6065 48.7199 19.4872 48.8199C19.4623 48.8516 19.4362 48.8817 19.4089 48.9103C19.2319 49.0848 19.0224 49.2232 18.7924 49.3177L18.3962 49.4967L18.248 49.3131L18.3538 49.5188L18.3182 49.5377ZM18.2242 49.5377H18.2768L18.1286 49.3796L18.2242 49.5377ZM18.0818 49.5377H18.1142L18.0194 49.4525L18.0818 49.5377Z" fill="#2B2129"/>
<path d="M40.9836 23.2823C40.6933 23.4274 40.3675 23.4865 40.0446 23.4525C37.1405 23.4316 34.1874 23.4348 31.3315 23.4381C30.2629 23.4393 29.1943 23.4401 28.1257 23.4405C27.0635 23.4398 26.0006 23.439 24.9371 23.4378C24.2387 23.4369 23.5351 23.4361 22.8262 23.4355C20.702 23.434 18.5446 23.4362 16.4141 23.4533C16.0747 23.4895 15.7321 23.4284 15.4263 23.2769C15.3255 23.1962 15.2475 23.0905 15.2001 22.9704C15.1528 22.8503 15.1376 22.72 15.1561 22.5923C15.142 22.4764 15.1581 22.3588 15.2028 22.2509C15.2475 22.143 15.3194 22.0485 15.4114 21.9764C15.4346 21.9607 15.4589 21.9466 15.4841 21.9341C15.774 21.8252 16.0843 21.7805 16.3933 21.8031H16.4105C24.794 21.822 32.5233 21.8214 40.0407 21.8016C40.3666 21.7693 40.6949 21.8295 40.988 21.9753C41.0837 22.052 41.1577 22.1522 41.2029 22.266C41.2481 22.3799 41.2629 22.5035 41.2458 22.6248C41.263 22.7477 41.2479 22.8729 41.2019 22.9882C41.156 23.1035 41.0807 23.2048 40.9836 23.2823Z" fill="#C2956D"/>
<path d="M16.3711 23.6845C15.999 23.7196 15.6248 23.6444 15.2953 23.4684C15.1642 23.3655 15.0614 23.2311 14.9963 23.0778C14.9312 22.9245 14.9061 22.7573 14.9232 22.5917C14.9082 22.438 14.9332 22.283 14.9956 22.1417C15.0581 22.0004 15.156 21.8776 15.2798 21.7851C15.3116 21.7636 15.3448 21.7443 15.3792 21.7272C15.7007 21.6 16.0469 21.5468 16.3918 21.5719C24.766 21.5907 32.4953 21.5904 40.0386 21.5704C40.4113 21.5335 40.7865 21.6079 41.1168 21.7841C41.2308 21.8936 41.3214 22.025 41.3831 22.1704C41.4448 22.3158 41.4764 22.4722 41.4759 22.6301C41.4754 22.788 41.4429 22.9442 41.3803 23.0892C41.3177 23.2342 41.2263 23.3651 41.1117 23.4739C40.7839 23.6485 40.4113 23.7215 40.0417 23.6836C37.1252 23.6625 34.1793 23.666 31.3305 23.6692L28.1243 23.6717L22.8247 23.6667C20.7011 23.6652 18.5444 23.6674 16.4144 23.6845L16.3711 23.6845ZM16.4087 22.0342C16.13 22.013 15.85 22.0493 15.5861 22.1409C15.5702 22.1488 15.5548 22.1577 15.5401 22.1676C15.4689 22.2159 15.3872 22.3078 15.3864 22.593C15.3856 22.9265 15.471 23.0291 15.5546 23.0855C15.8229 23.2062 16.1186 23.2534 16.4112 23.2223C18.5418 23.2051 20.7002 23.203 22.8251 23.2045L28.1245 23.2094L31.3297 23.207C34.1795 23.2037 37.1263 23.2004 40.0448 23.2214C40.321 23.2508 40.5999 23.2056 40.8526 23.0907C40.9316 23.0375 41.0124 22.9405 41.0127 22.6246C41.013 22.3149 40.9339 22.2192 40.8563 22.1665C40.6 22.0517 40.3182 22.0056 40.0386 22.0328C32.4959 22.0526 24.7662 22.0531 16.4087 22.0342Z" fill="#2B2129"/>
<path d="M16.3231 30.9468H16.3379C24.2901 30.969 32.275 30.9688 40.071 30.9465H40.0866C41.0583 30.9465 41.229 31.2111 41.2423 31.8015C41.2603 31.9192 41.2471 32.0396 41.2039 32.1507C41.1607 32.2617 41.0892 32.3595 40.9963 32.4343C40.6913 32.5884 40.3475 32.6495 40.008 32.61C37.1248 32.5902 34.1934 32.5932 31.3585 32.5962C29.2459 32.5985 27.1332 32.5985 25.0205 32.5962C24.3123 32.5954 23.5989 32.5947 22.8803 32.594C20.7265 32.5927 18.5386 32.5948 16.3781 32.6101C16.0446 32.6468 15.7076 32.5864 15.4077 32.4363C15.313 32.3606 15.2399 32.2614 15.1958 32.1486C15.1517 32.0358 15.138 31.9133 15.1563 31.7936C15.1643 31.2205 15.3414 30.9468 16.3231 30.9468Z" fill="#C2956D"/>
<path d="M16.3254 32.8415C15.9631 32.8758 15.5987 32.801 15.2793 32.6267C15.1541 32.5287 15.0561 32.4005 14.9946 32.2541C14.933 32.1077 14.91 31.948 14.9276 31.7903C14.9386 31.0069 15.3176 30.7156 16.326 30.7156H16.3408C24.285 30.7378 32.2694 30.7377 40.0734 30.7153C41.0959 30.7153 41.4589 30.9982 41.4768 31.7963C41.4967 31.9524 41.4753 32.111 41.4147 32.2563C41.354 32.4016 41.2563 32.5285 41.1312 32.6243C40.7882 32.8098 40.3963 32.8855 40.0087 32.841C37.1139 32.821 34.1897 32.8242 31.3618 32.8271C29.2489 32.8294 27.1361 32.8294 25.0232 32.8271L22.8829 32.825C20.7296 32.8237 18.5424 32.8259 16.3825 32.8412C16.3633 32.8414 16.3443 32.8415 16.3254 32.8415ZM16.326 30.9468V31.1779C15.3995 31.1779 15.3962 31.4109 15.3908 31.7968C15.3865 32.098 15.4649 32.1928 15.5419 32.2459C15.8041 32.3637 16.093 32.4096 16.3789 32.3789C18.5404 32.3636 20.7287 32.3615 22.8833 32.3628L25.0238 32.3649C27.1365 32.3672 29.249 32.3672 31.3613 32.3649C34.1902 32.3618 37.1154 32.3586 40.0126 32.3787C40.3045 32.4117 40.5999 32.3653 40.8675 32.2444C40.9392 32.1948 41.0206 32.1003 41.0138 31.8069C41.0046 31.4012 40.9997 31.1778 40.0897 31.1778C32.27 31.2001 24.2846 31.2002 16.3401 31.178L16.326 30.9468Z" fill="#2B2129"/>
<path d="M16.3233 26.376H16.3383C24.2741 26.3979 32.2593 26.3978 40.072 26.376H40.0878C41.0627 26.376 41.2334 26.6372 41.2454 27.2199C41.263 27.3375 41.2492 27.4575 41.2055 27.5681C41.1618 27.6786 41.0897 27.7757 40.9964 27.8495C40.6921 27.9996 40.3512 28.0601 40.0137 28.0239C37.1014 28.0048 34.1402 28.0076 31.2769 28.0106C29.1681 28.0128 27.0592 28.0128 24.9504 28.0106C22.1423 28.0077 19.2385 28.0046 16.3832 28.0241C16.0495 28.0609 15.7122 28.0009 15.4118 27.8512C15.3177 27.7765 15.245 27.6785 15.2007 27.5669C15.1564 27.4554 15.1422 27.3342 15.1595 27.2154C15.1679 26.6472 15.3446 26.376 16.3233 26.376Z" fill="#C2956D"/>
<path d="M16.32 28.2554C15.9605 28.2873 15.5995 28.2131 15.2819 28.042C15.1554 27.9465 15.0562 27.8196 14.9942 27.6739C14.9321 27.5282 14.9094 27.3688 14.9283 27.2117C14.9399 26.434 15.3181 26.1448 16.3238 26.1448H16.3387C24.2761 26.1667 32.2609 26.1666 40.0719 26.1448C41.0976 26.1448 41.4611 26.4249 41.4774 27.2151C41.4969 27.3712 41.4748 27.5297 41.4134 27.6745C41.352 27.8194 41.2535 27.9455 41.1277 28.0403C40.7857 28.2207 40.3976 28.2955 40.0129 28.255C37.0796 28.2357 34.13 28.2388 31.2777 28.2418C29.1687 28.2439 27.0597 28.2439 24.9507 28.2418H24.8832C22.0974 28.2388 19.2169 28.2359 16.3853 28.2553C16.3632 28.2553 16.3414 28.2554 16.32 28.2554ZM16.3238 26.3759V26.6071C15.4006 26.6071 15.3971 26.8373 15.3914 27.2186C15.387 27.5156 15.4699 27.6104 15.5426 27.6598C15.8052 27.7778 16.0946 27.8236 16.3809 27.7926C19.2153 27.7732 22.0968 27.7762 24.8834 27.7791H24.9509C27.0595 27.7813 29.1682 27.7813 31.2769 27.7791C34.1301 27.7761 37.0805 27.773 40.0155 27.7924C40.3059 27.8225 40.599 27.7762 40.8659 27.6583C40.938 27.609 41.0201 27.515 41.0141 27.2242C41.0059 26.826 41.0014 26.6067 40.0881 26.6067C32.2612 26.6288 24.2756 26.6288 16.338 26.6067L16.3238 26.3759Z" fill="#2B2129"/>
<path d="M40.9987 37.0071C40.7512 37.1379 40.4722 37.1977 40.1928 37.1796C40.1362 37.1809 40.0767 37.1813 40.0143 37.1806C37.1295 37.1607 34.1964 37.1639 31.3601 37.1667C29.2516 37.1689 27.1432 37.1689 25.0349 37.1667C22.1997 37.1637 19.2676 37.1605 16.3842 37.1806C16.0495 37.2168 15.7115 37.157 15.4097 37.0081C15.3162 36.9334 15.2439 36.8355 15.2 36.7242C15.1561 36.6129 15.1422 36.492 15.1596 36.3737C15.1689 35.8045 15.3457 35.5327 16.3234 35.5327H16.3384C20.3 35.5437 24.2772 35.5492 28.242 35.5491C32.2068 35.5491 36.1593 35.5435 40.0715 35.5325H40.0869C41.0628 35.5325 41.2336 35.794 41.2458 36.3776C41.2636 36.4949 41.2501 36.6149 41.2067 36.7254C41.1634 36.8359 41.0916 36.933 40.9987 37.0071Z" fill="#C2956D"/>
<path d="M16.3315 37.4122C15.9676 37.4452 15.6019 37.3712 15.2797 37.1992C15.1537 37.1036 15.055 36.9768 14.9934 36.8313C14.9318 36.6859 14.9094 36.5268 14.9285 36.37C14.9412 35.5912 15.3194 35.3016 16.3239 35.3016C20.301 35.3126 24.2738 35.3181 28.2424 35.318C32.2071 35.318 36.1592 35.3124 40.0715 35.3014C41.0975 35.3014 41.4614 35.5818 41.4779 36.3728C41.4975 36.5287 41.4757 36.687 41.4146 36.8318C41.3535 36.9766 41.2553 37.1028 41.1299 37.1977C40.8463 37.3564 40.523 37.4303 40.1985 37.4107C40.1396 37.4121 40.0776 37.4124 40.0124 37.4117C37.143 37.392 34.2241 37.3951 31.4013 37.3979C29.2521 37.4 27.1437 37.4001 25.0352 37.3979C22.1913 37.3948 19.2642 37.3917 16.3863 37.4117C16.3678 37.4121 16.3495 37.4122 16.3315 37.4122ZM16.3382 35.764C15.4016 35.764 15.3979 35.9949 15.3916 36.3775C15.387 36.6738 15.4689 36.7683 15.5409 36.8174C15.8049 36.9347 16.0953 36.9803 16.3826 36.9496C19.2629 36.9294 22.1909 36.9326 25.0222 36.9357C27.1438 36.938 29.252 36.9379 31.3603 36.9357C34.2245 36.9327 37.1444 36.9296 40.0163 36.9496C40.0769 36.9501 40.1339 36.9499 40.188 36.9487C40.4223 36.9642 40.6567 36.9186 40.8681 36.8164C40.9396 36.7675 41.0209 36.6739 41.0149 36.3827C41.0065 35.9837 41.0019 35.7639 40.0875 35.7639C36.1486 35.775 32.1885 35.7805 28.2074 35.7805C24.2538 35.7804 20.2885 35.7749 16.3382 35.764Z" fill="#2B2129"/>
<path d="M40.9987 18.7053C40.7512 18.8361 40.4722 18.8959 40.1928 18.8779C40.1362 18.8792 40.0767 18.8795 40.0143 18.8789C37.1295 18.8589 34.1964 18.8621 31.36 18.865C29.2515 18.8671 27.1432 18.8671 25.0349 18.865C22.1997 18.8619 19.2676 18.8587 16.3842 18.8789C16.0495 18.915 15.7115 18.8552 15.4097 18.7064C15.3162 18.6316 15.2439 18.5337 15.2 18.4224C15.1561 18.3111 15.1422 18.1902 15.1596 18.0719C15.1689 17.5027 15.3457 17.2309 16.3234 17.2309H16.3384C20.3 17.2419 24.2772 17.2474 28.242 17.2473C32.2068 17.2473 36.1592 17.2418 40.0715 17.2307H40.0869C41.0628 17.2307 41.2336 17.4923 41.2458 18.0758C41.2636 18.1931 41.2501 18.3131 41.2067 18.4236C41.1634 18.5341 41.0916 18.6312 40.9987 18.7053Z" fill="#C2956D"/>
<path d="M16.3316 19.1105C15.9676 19.1435 15.6019 19.0695 15.2797 18.8975C15.1537 18.8019 15.055 18.6751 14.9934 18.5296C14.9318 18.3842 14.9094 18.2251 14.9285 18.0684C14.9412 17.2895 15.3194 16.9999 16.3239 16.9999C20.301 17.0109 24.2738 17.0164 28.2424 17.0164C32.2071 17.0164 36.1592 17.0108 40.0715 16.9998C41.0975 16.9998 41.4614 17.2801 41.4779 18.0712C41.4975 18.2271 41.4757 18.3853 41.4146 18.5301C41.3535 18.6749 41.2553 18.8011 41.1299 18.896C40.8463 19.0547 40.523 19.1286 40.1985 19.109C40.1396 19.1104 40.0776 19.1107 40.0124 19.11C37.143 19.0903 34.2241 19.0933 31.4013 19.0961C29.2521 19.0983 27.1437 19.0984 25.0352 19.0961C22.1913 19.0931 19.2642 19.0899 16.3863 19.11C16.3679 19.1104 16.3495 19.1105 16.3316 19.1105ZM16.3382 17.4623C15.4016 17.4623 15.3979 17.6932 15.3916 18.0759C15.387 18.3722 15.4689 18.4666 15.5409 18.5157C15.8049 18.633 16.0953 18.6786 16.3826 18.6479C19.2629 18.6277 22.1909 18.6309 25.0222 18.634C27.1438 18.6363 29.252 18.6363 31.3603 18.634C34.2245 18.631 37.1444 18.628 40.0163 18.6479C40.0769 18.6485 40.1339 18.6482 40.188 18.647C40.4223 18.6625 40.6567 18.6169 40.868 18.5147C40.9396 18.4658 41.0209 18.3723 41.0149 18.081C41.0065 17.682 41.0019 17.4622 40.0875 17.4622C36.1471 17.4733 32.1854 17.4788 28.2024 17.4788C24.2504 17.4787 20.287 17.4732 16.3382 17.4623Z" fill="#2B2129"/>
<path d="M40.9987 14.1346C40.7513 14.2655 40.4722 14.3253 40.1928 14.3072C40.1362 14.3085 40.0767 14.3088 40.0143 14.3082C37.1295 14.2883 34.1964 14.2915 31.3601 14.2943C29.2515 14.2964 27.1432 14.2964 25.0349 14.2943C22.1997 14.2913 19.2676 14.2881 16.3842 14.3082C16.0495 14.3444 15.7115 14.2845 15.4097 14.1357C15.3162 14.0609 15.2439 13.963 15.2 13.8517C15.1561 13.7404 15.1422 13.6196 15.1596 13.5013C15.1689 12.9321 15.3457 12.6603 16.3234 12.6603H16.3384C20.3 12.6712 24.2772 12.6767 28.242 12.6767C32.2068 12.6766 36.1592 12.6711 40.0715 12.66H40.0869C41.0628 12.66 41.2336 12.9216 41.2458 13.5051C41.2636 13.6224 41.2501 13.7424 41.2067 13.8529C41.1634 13.9634 41.0916 14.0605 40.9987 14.1346Z" fill="#C2956D"/>
<path d="M16.3316 14.5397C15.9676 14.5728 15.6019 14.4987 15.2797 14.3267C15.1537 14.2312 15.055 14.1043 14.9934 13.9589C14.9318 13.8134 14.9094 13.6543 14.9285 13.4976C14.9412 12.7187 15.3194 12.4292 16.3239 12.4292C20.301 12.4402 24.2738 12.4456 28.2424 12.4456C32.2071 12.4456 36.1592 12.44 40.0715 12.429C41.0975 12.429 41.4614 12.7093 41.4779 13.5004C41.4975 13.6563 41.4757 13.8146 41.4146 13.9593C41.3535 14.1041 41.2553 14.2303 41.1299 14.3252C40.8463 14.484 40.523 14.5579 40.1985 14.5383C40.1396 14.5396 40.0776 14.54 40.0125 14.5393C37.143 14.5195 34.2241 14.5226 31.4013 14.5254C29.2521 14.5276 27.1437 14.5277 25.0352 14.5254C22.1913 14.5224 19.2642 14.5192 16.3863 14.5393C16.3679 14.5396 16.3495 14.5397 16.3316 14.5397ZM16.3382 12.8915C15.4016 12.8915 15.3979 13.1227 15.3916 13.5051C15.387 13.8014 15.4689 13.8958 15.5409 13.9449C15.8049 14.0622 16.0953 14.1078 16.3826 14.0772C19.2629 14.057 22.1909 14.0601 25.0222 14.0633C27.1438 14.0655 29.252 14.0655 31.3603 14.0633C34.2245 14.0603 37.1444 14.0572 40.0163 14.0772C40.0769 14.0777 40.1339 14.0774 40.188 14.0762C40.4223 14.0917 40.6567 14.0461 40.8681 13.944C40.9396 13.895 41.0209 13.8015 41.0149 13.5102C41.0065 13.1112 41.0019 12.8914 40.0875 12.8914C36.1486 12.9025 32.1886 12.9081 28.2074 12.9081C24.2538 12.9079 20.2885 12.9025 16.3382 12.8915Z" fill="#2B2129"/>
<path d="M40.9987 9.5639C40.7512 9.6948 40.4722 9.75456 40.1928 9.73653C40.1362 9.7378 40.0767 9.73812 40.0143 9.7375C37.1295 9.71762 34.1964 9.72081 31.36 9.72363C29.2515 9.72579 27.1432 9.72579 25.0349 9.72363C22.1997 9.72058 19.2676 9.71739 16.3842 9.7375C16.0495 9.77366 15.7115 9.71382 15.4097 9.565C15.3162 9.49024 15.2439 9.39234 15.2 9.28103C15.1561 9.16972 15.1422 9.04888 15.1596 8.93054C15.1689 8.36135 15.3457 8.08954 16.3234 8.08954H16.3384C20.3 8.10054 24.2772 8.106 28.242 8.106C32.2068 8.106 36.1592 8.10041 40.0715 8.08936H40.0869C41.0628 8.08936 41.2336 8.3509 41.2458 8.93442C41.2636 9.05176 41.2501 9.17171 41.2067 9.2822C41.1634 9.3927 41.0916 9.48985 40.9987 9.5639Z" fill="#C2956D"/>
<path d="M16.3316 9.969C15.9677 10.0021 15.602 9.92801 15.2797 9.756C15.1537 9.66045 15.055 9.53363 14.9934 9.38817C14.9318 9.2427 14.9094 9.08366 14.9285 8.92688C14.9412 8.14802 15.3194 7.85846 16.3239 7.85846C20.301 7.86947 24.2738 7.87495 28.2424 7.87492C32.2072 7.87492 36.1592 7.86933 40.0715 7.85828C41.0975 7.85828 41.4614 8.13864 41.4779 8.9297C41.4975 9.08559 41.4757 9.24388 41.4146 9.38867C41.3535 9.53346 41.2553 9.65965 41.1299 9.75456C40.8463 9.91325 40.523 9.9872 40.1985 9.96761C40.1396 9.9689 40.0776 9.96924 40.0125 9.96863C37.1413 9.94884 34.2206 9.95189 31.396 9.95476C29.2521 9.95697 27.1437 9.95702 25.0352 9.95476C22.1913 9.9517 19.2642 9.94856 16.3863 9.96863C16.3679 9.9689 16.3496 9.969 16.3316 9.969ZM16.3382 8.3208C15.4016 8.3208 15.3979 8.55197 15.3916 8.93437C15.387 9.23073 15.4689 9.3251 15.5409 9.37424C15.8049 9.49151 16.0953 9.53711 16.3826 9.50642C19.2629 9.48627 22.1909 9.48941 25.0222 9.49256C27.1438 9.49487 29.252 9.49482 31.3603 9.49256C34.221 9.48955 37.1426 9.4865 40.0163 9.50642C40.0769 9.50703 40.1339 9.5067 40.188 9.5055C40.4223 9.52099 40.6567 9.47544 40.8681 9.37332C40.9396 9.32436 41.0209 9.23082 41.0149 8.9395C41.0065 8.5405 41.0019 8.32076 40.0875 8.32076C36.1486 8.33185 32.1886 8.3374 28.2074 8.3374C24.2538 8.33726 20.2885 8.33176 16.3382 8.3208Z" fill="#2B2129"/>
</svg>
