<svg width="393" height="100" viewBox="0 0 393 100" fill="none" xmlns="http://www.w3.org/2000/svg">
<g clip-path="url(#clip0_608_33785)">
<mask id="mask0_608_33785" style="mask-type:luminance" maskUnits="userSpaceOnUse" x="0" y="0" width="393" height="100">
<path d="M392.02 0.562012H0.347656V99.4384H392.02V0.562012Z" fill="white"/>
</mask>
<g mask="url(#mask0_608_33785)">
<path d="M132.254 58.5964H140.858C140.858 61.5082 142.315 63.4054 147.82 63.4054C152.816 63.4054 154.589 61.9492 154.589 59.6705C154.589 58.5329 154.019 57.6469 152.375 57.2694C150.729 56.8896 148.199 56.6363 145.098 56.3806C140.607 56.001 137.126 55.3069 135.229 53.9776C133.457 52.7115 132.254 50.4349 132.254 47.8417C132.254 41.0728 139.212 37.3379 147.881 37.3379C158.131 37.3379 162.813 41.2627 162.813 48.5379H154.335C154.272 45.2463 152.755 43.5393 148.01 43.5393C143.707 43.5393 141.808 44.9931 141.808 47.1453C141.808 48.4724 142.315 49.4853 144.087 49.9283C145.667 50.3082 148.451 50.5614 151.806 50.8779C155.665 51.2578 158.384 51.6376 160.724 52.967C162.75 54.1042 164.206 56.4464 164.206 59.166C164.206 65.7453 158.574 69.6065 147.881 69.6065C136.873 69.6065 132.254 64.9245 132.254 58.5964Z" fill="#F2F2F2"/>
<path d="M171.099 58.3451V45.3136H166.48V37.8461H170.213C171.669 37.8461 172.175 37.0255 172.365 35.1263L172.809 30.7607H180.717V37.8461H190.712V45.3136H180.717V57.8383C180.717 61.067 182.234 62.0777 186.029 62.0777C187.359 62.0777 189.321 61.8878 190.396 61.6344V68.9097C189.573 69.0996 186.916 69.6086 184.323 69.6086C174.579 69.6086 171.099 65.3057 171.099 58.3451Z" fill="#F2F2F2"/>
<path fill-rule="evenodd" clip-rule="evenodd" d="M193.492 60.1155C193.492 54.9904 197.161 51.2578 205.449 51.2578H215.634V49.171C215.634 45.3729 213.484 43.8536 209.056 43.8536C205.449 43.8536 203.361 45.3729 203.361 47.9027C203.361 48.0927 203.361 48.6014 203.424 49.2321H194.568C194.503 48.7279 194.439 48.0316 194.439 47.3986C194.439 41.0728 200.008 37.3379 209.499 37.3379C219.43 37.3379 225.252 41.7669 225.252 50.1183V69.0981H215.634C215.825 67.5177 216.078 64.6688 216.078 62.7722H216.015C215.065 67.2009 211.522 69.6065 205.829 69.6065C198.552 69.6065 193.492 66.4413 193.492 60.1155ZM215.635 57.0806V56.4481H206.336C203.741 56.4481 202.161 57.6481 202.161 59.4205C202.161 61.8239 204.247 63.0902 207.726 63.0902C212.725 63.0902 215.635 60.8767 215.635 57.0806Z" fill="#F2F2F2"/>
<path d="M229.742 37.8443H239.358L238.978 46.7656H239.105C240.434 40.8173 243.787 37.3379 249.925 37.3379C256.314 37.3379 260.049 41.4503 260.049 49.5486C260.049 51.3211 259.859 54.1042 259.732 55.75H251.001C251.125 54.2308 251.191 52.6504 251.191 51.7009C251.191 47.1454 249.355 45.3118 246.319 45.3118C242.206 45.3118 239.358 48.6624 239.358 55.6211V69.0981H229.742V37.8443Z" fill="#F2F2F2"/>
<path fill-rule="evenodd" clip-rule="evenodd" d="M297.313 71.6946C297.313 78.8435 290.922 82.6413 280.103 82.6413C269.096 82.6413 262.578 79.6031 262.578 74.4143C262.578 71.125 264.73 69.0991 268.21 68.7194V68.6581C266.311 67.4553 265.298 65.7463 265.298 63.5328C265.298 60.5604 266.817 58.7244 269.159 57.648V57.5845C265.867 55.688 264.034 52.5885 264.034 48.5393C264.034 41.515 269.476 37.3392 278.648 37.3392C282.317 37.3392 285.356 37.9722 287.696 39.2382L287.759 39.1117C286.493 37.9722 285.925 36.7062 285.925 35.5667C285.925 32.9757 288.519 31.4565 292.505 31.4565C294.214 31.4565 295.099 31.5831 295.984 31.773V37.8456C295.414 37.719 294.781 37.6557 294.085 37.6557C292.061 37.6557 291.112 38.5419 291.112 39.9956C291.112 40.7553 291.365 41.7049 291.808 42.8443C292.821 44.4245 293.325 46.3237 293.325 48.5393C293.325 55.5614 287.885 59.6716 278.648 59.6716C276.751 59.6716 275.044 59.484 273.459 59.1671C273.208 59.5474 272.892 60.307 272.892 61.1907C272.892 62.5834 274.029 63.4064 275.928 63.4064H286.052C293.138 63.4064 297.313 66.5059 297.313 71.6946ZM287.696 73.0244C287.696 71.3149 286.433 70.3654 283.647 70.3654H276.246C273.65 70.3654 272.133 71.4413 272.133 73.2143C272.133 75.5542 275.045 76.8177 279.978 76.8177C284.85 76.8177 287.696 75.4907 287.696 73.0244ZM273.079 48.5376C273.079 51.7004 275.167 53.5973 278.647 53.5973C282.192 53.5973 284.279 51.7004 284.279 48.5376C284.279 45.3114 282.192 43.4123 278.647 43.4123C275.167 43.4123 273.079 45.3114 273.079 48.5376Z" fill="#F2F2F2"/>
<path fill-rule="evenodd" clip-rule="evenodd" d="M299.465 60.1155C299.465 54.9904 303.134 51.2578 311.422 51.2578H321.607V49.171C321.607 45.3729 319.457 43.8536 315.028 43.8536C311.422 43.8536 309.336 45.3729 309.336 47.9027C309.336 48.0927 309.336 48.6014 309.396 49.2321H300.541C300.478 48.7279 300.412 48.0316 300.412 47.3986C300.412 41.0728 305.981 37.3379 315.472 37.3379C325.403 37.3379 331.225 41.7669 331.225 50.1183V69.0981H321.607C321.797 67.5177 322.053 64.6688 322.053 62.7722H321.987C321.037 67.2009 317.495 69.6065 311.802 69.6065C304.527 69.6065 299.465 66.4413 299.465 60.1155ZM321.608 57.0806V56.4481H312.309C309.714 56.4481 308.133 57.6481 308.133 59.4205C308.133 61.8239 310.22 63.0902 313.699 63.0902C318.698 63.0902 321.608 60.8767 321.608 57.0806Z" fill="#F2F2F2"/>
<path d="M338.369 58.3451V45.3136H333.75V37.8461H337.485C338.939 37.8461 339.445 37.0255 339.635 35.1263L340.078 30.7607H347.987V37.8461H357.984V45.3136H347.987V57.8383C347.987 61.067 349.506 62.0777 353.302 62.0777C354.631 62.0777 356.591 61.8878 357.665 61.6344V68.9097C356.844 69.0996 354.185 69.6086 351.592 69.6086C341.848 69.6086 338.369 65.3057 338.369 58.3451Z" fill="#F2F2F2"/>
<path fill-rule="evenodd" clip-rule="evenodd" d="M392.022 55.3069H369.814C370.257 60.4301 372.85 62.6453 377.152 62.6453C380.885 62.6453 383.288 61.3183 383.543 58.2801H392.022C391.832 65.4284 385.884 69.6065 376.963 69.6065C366.587 69.6065 360.133 63.7194 360.133 53.7877C360.133 43.4737 366.587 37.3379 377.152 37.3379C385.884 37.3379 392.022 42.3366 392.022 52.5871V55.3069ZM383.544 49.6774C383.544 46.1347 381.139 44.3011 377.153 44.3011C373.104 44.3011 370.827 46.0714 370.068 50.1838H383.544V49.6774Z" fill="#F2F2F2"/>
<mask id="mask1_608_33785" style="mask-type:luminance" maskUnits="userSpaceOnUse" x="0" y="0" width="100" height="100">
<path d="M99.2246 0.562012H0.347656V99.4384H99.2246V0.562012Z" fill="white"/>
</mask>
<g mask="url(#mask1_608_33785)">
<mask id="mask2_608_33785" style="mask-type:luminance" maskUnits="userSpaceOnUse" x="0" y="0" width="100" height="100">
<path d="M99.2246 0.562012H0.347656V99.4384H99.2246V0.562012Z" fill="white"/>
</mask>
<g mask="url(#mask2_608_33785)">
<path d="M59.5911 4.4954L62.2225 10.6587C67.3871 22.76 77.0259 32.3991 89.1276 37.5638L95.2911 40.195C96.904 40.8827 98.2135 41.8693 99.2242 43.0441C96.1545 21.0369 78.7495 3.62898 56.7422 0.562012C57.9147 1.57039 58.9034 2.88231 59.5911 4.4954Z" fill="#999999"/>
<path d="M4.28105 40.195L10.4444 37.5638C22.5458 32.3991 32.1848 22.76 37.3519 10.6587L39.9807 4.4954C40.6708 2.88231 41.6574 1.57039 42.8297 0.562012C20.8226 3.62898 3.417 21.0369 0.347656 43.0441C1.3585 41.8693 2.66804 40.8828 4.28105 40.195Z" fill="#999999"/>
<path d="M95.2911 59.8035L89.1276 62.4349C77.0259 67.5995 67.3871 77.2411 62.2225 89.3422L59.5911 95.5035C58.9034 97.1164 57.9147 98.4282 56.7422 99.4389C78.7495 96.3698 96.1545 78.9619 99.2242 56.9546C98.2135 58.1293 96.904 59.1158 95.2911 59.8035Z" fill="#999999"/>
<path d="M39.9807 95.5035L37.3519 89.3422C32.1848 77.2411 22.5458 67.5995 10.4444 62.4349L4.28105 59.8035C2.66804 59.1158 1.3585 58.1293 0.347656 56.9546C3.417 78.9619 20.8226 96.3698 42.8297 99.4389C41.6574 98.4282 40.6708 97.1164 39.9807 95.5035Z" fill="#999999"/>
</g>
<path d="M27.3625 45.166L30.4 43.8687C36.3627 41.323 41.1136 36.5746 43.6592 30.6119L44.9541 27.5744C46.7703 23.3203 52.8013 23.3203 54.6175 27.5744L55.9122 30.6119C58.4577 36.5746 63.2088 41.3231 69.1717 43.8687L72.2088 45.166C76.4633 46.9821 76.4633 53.0108 72.2088 54.8271L69.1717 56.1243C63.2088 58.6701 58.4577 63.4184 55.9122 69.3836L54.6175 72.4184C52.8013 76.6729 46.7703 76.6729 44.9541 72.4184L43.6592 69.3836C41.1136 63.4184 36.3627 58.6701 30.4 56.1243L27.3625 54.8271C23.1083 53.0108 23.1083 46.9821 27.3625 45.166Z" fill="#F2F2F2"/>
</g>
</g>
</g>
<defs>
<clipPath id="clip0_608_33785">
<rect width="392.697" height="100" fill="white"/>
</clipPath>
</defs>
</svg>
