<svg width="47" height="42" viewBox="0 0 47 42" fill="none" xmlns="http://www.w3.org/2000/svg">
<path d="M45.7629 33.8691L37.7528 22.9937C36.8826 21.812 35.5941 21.1041 34.2219 20.948C33.9096 20.9117 33.6307 20.7307 33.4744 20.4575C33.3155 20.1843 33.2987 19.8527 33.4242 19.5628C33.9737 18.2975 34.0071 16.8287 33.4159 15.4853L27.9968 3.11609C27.1936 1.27937 25.3779 0.0948486 23.3725 0.0948486C21.3673 0.0948486 19.5516 1.28216 18.7484 3.11609L13.3293 15.4853C12.7408 16.8287 12.7715 18.2975 13.3209 19.5628C13.4464 19.8527 13.4269 20.1843 13.2707 20.4575C13.1117 20.7307 12.8356 20.9117 12.5232 20.948C11.151 21.1041 9.86249 21.812 8.99233 22.9937L0.98221 33.8691C-0.205918 35.4828 -0.325848 37.6456 0.675416 39.382C1.67947 41.1156 3.61506 42.0939 5.60642 41.8738L19.0356 40.3799C20.4943 40.2181 21.7522 39.4573 22.5721 38.348C22.759 38.0944 23.0575 37.9439 23.3725 37.9439C23.6877 37.9439 23.9834 38.0944 24.1731 38.348C24.993 39.4573 26.2509 40.2181 27.7096 40.3799L41.1388 41.8738C43.1301 42.0967 45.0657 41.1184 46.0698 39.382C47.0709 37.6456 46.9511 35.4828 45.7629 33.8691ZM16.8323 17.0377L22.2597 4.65458C22.4551 4.21142 22.8929 3.92435 23.3753 3.92435C23.8579 3.92435 24.2957 4.21142 24.4911 4.65458L29.9185 17.0377C30.0886 17.4279 30.0523 17.8794 29.818 18.2362C29.5837 18.5929 29.1878 18.8075 28.7583 18.8075H17.9897C17.563 18.8075 17.1642 18.5929 16.9299 18.2362C16.6956 17.8794 16.6594 17.4279 16.8295 17.0377H16.8323ZM19.6185 35.8897C19.426 36.2716 19.0524 36.528 18.6284 36.5754L5.18528 38.0693C4.70556 38.1222 4.23701 37.8882 3.99437 37.4701C3.75171 37.0519 3.7824 36.5308 4.06967 36.1406L12.0881 25.2541C12.3419 24.9113 12.7491 24.7162 13.1759 24.7413C13.6026 24.7636 13.9875 25.0005 14.2022 25.3711L14.2106 25.3851L19.5796 34.6774L19.5879 34.6912C19.8026 35.0621 19.8137 35.5136 19.6212 35.8925L19.6185 35.8897ZM24.4771 31.6868C24.2483 32.0797 23.83 32.3251 23.3725 32.3251C22.9179 32.3251 22.4969 32.0826 22.2681 31.6895L18.1431 24.5517C17.9144 24.1588 17.9144 23.671 18.1431 23.2781C18.3718 22.885 18.7902 22.6398 19.2476 22.6398H27.4948C27.9494 22.6398 28.3704 22.8795 28.5992 23.2754C28.828 23.671 28.828 24.1561 28.5992 24.549L24.4771 31.6868ZM42.7535 37.4701C42.511 37.8882 42.0451 38.1251 41.5627 38.0721L28.1196 36.5781C27.6956 36.5308 27.3219 36.2744 27.1295 35.8925C26.937 35.5108 26.9481 35.0591 27.1628 34.6912L27.1713 34.6774L32.5402 25.3851L32.5485 25.3711C32.7632 25.0005 33.1481 24.7636 33.5748 24.7413C34.0016 24.719 34.4088 24.9113 34.6626 25.2541L42.6811 36.1406C42.9683 36.5308 42.9961 37.0519 42.7563 37.4701H42.7535Z" fill="#E81899"/>
</svg>
