<svg width="406" height="58" viewBox="0 0 406 58" fill="none" xmlns="http://www.w3.org/2000/svg">
<g clip-path="url(#clip0_608_33868)">
<path d="M23.6101 44.2964C22.6334 44.2964 21.6787 44.5809 20.8666 45.114C20.0545 45.6472 19.4216 46.4049 19.0478 47.2914C18.674 48.1779 18.5762 49.1535 18.7668 50.0947C18.9573 51.0357 19.4277 51.9002 20.1182 52.5787C20.8089 53.2573 21.6888 53.7194 22.6467 53.9066C23.6047 54.0938 24.5975 53.9977 25.4999 53.6305C26.4023 53.2633 27.1735 52.6414 27.7161 51.8435C28.2587 51.0456 28.5483 50.1076 28.5483 49.1481C28.5483 47.8613 28.0281 46.6273 27.1019 45.7174C26.1759 44.8076 24.9198 44.2964 23.6101 44.2964Z" fill="white"/>
<path d="M41.9265 24.6245C40.9499 24.6245 39.9951 24.909 39.183 25.4421C38.3709 25.9753 37.738 26.733 37.3643 27.6195C36.9905 28.506 36.8926 29.4816 37.0832 30.4227C37.2738 31.3638 37.7441 32.2283 38.4347 32.9068C39.1253 33.5854 40.0052 34.0475 40.9632 34.2347C41.9211 34.4219 42.914 34.3258 43.8164 33.9586C44.7187 33.5914 45.49 32.9695 46.0326 32.1716C46.5752 31.3737 46.8648 30.4357 46.8648 29.4762C46.8648 28.1894 46.3446 26.9553 45.4184 26.0455C44.4923 25.1357 43.2363 24.6245 41.9265 24.6245Z" fill="white"/>
<path d="M4.93821 24.6245C3.96156 24.6245 3.0068 24.909 2.19469 25.4421C1.38258 25.9753 0.749701 26.733 0.375934 27.6195C0.00216708 28.506 -0.0956994 29.4816 0.0949328 30.4227C0.285465 31.3638 0.7558 32.2283 1.44635 32.9068C2.13701 33.5854 3.01689 34.0475 3.97485 34.2347C4.93281 34.4219 5.92566 34.3258 6.82804 33.9586C7.73042 33.5914 8.50164 32.9695 9.04425 32.1716C9.58686 31.3737 9.87645 30.4357 9.87645 29.4762C9.87645 28.1894 9.35624 26.9553 8.43007 26.0455C7.504 25.1357 6.24795 24.6245 4.93821 24.6245Z" fill="white"/>
<path d="M23.6119 13.7034C24.589 13.7054 25.5448 13.4224 26.3582 12.8905C27.1716 12.3586 27.8061 11.6016 28.1814 10.7152C28.5567 9.82882 28.6559 8.85298 28.4664 7.91122C28.2771 6.96946 27.8076 6.10401 27.1173 5.42448C26.4271 4.74504 25.5472 4.28197 24.589 4.09399C23.6308 3.90591 22.6374 4.00147 21.7344 4.36839C20.8316 4.73531 20.0596 5.3571 19.5166 6.15518C18.9735 6.95325 18.6836 7.89167 18.6836 8.8517C18.6836 10.1367 19.2025 11.3693 20.1265 12.2789C21.0505 13.1885 22.3039 13.7008 23.6119 13.7034Z" fill="white"/>
<path d="M34.8471 35.7421C33.0805 33.9959 32.089 31.6338 32.089 29.1717C32.089 26.7096 33.0805 24.3475 34.8471 22.6013C35.5359 21.9219 36.0042 21.0575 36.1932 20.1169C36.3822 19.1762 36.2832 18.2017 35.9088 17.3163C35.5346 16.4309 34.9016 15.6742 34.0899 15.142C33.2783 14.6097 32.3243 14.3257 31.3484 14.3257C30.3725 14.3257 29.4185 14.6097 28.6069 15.142C27.7952 15.6742 27.1622 16.4309 26.788 17.3163C26.4136 18.2017 26.3146 19.1762 26.5036 20.1169C26.6926 21.0575 27.161 21.9219 27.8496 22.6013C28.737 23.4651 29.4414 24.4931 29.9222 25.6259C30.4028 26.7587 30.6503 27.9739 30.6503 29.2012C30.6503 30.4284 30.4028 31.6436 29.9222 32.7764C29.4414 33.9092 28.737 34.9372 27.8496 35.8011C27.161 36.4803 26.6926 37.3449 26.5036 38.2854C26.3146 39.2261 26.4136 40.2006 26.788 41.0861C27.1622 41.9715 27.7952 42.7281 28.6069 43.2603C29.4185 43.7926 30.3725 44.0767 31.3484 44.0767C32.3243 44.0767 33.2783 43.7926 34.0899 43.2603C34.9016 42.7281 35.5346 41.9715 35.9088 41.0861C36.2832 40.2006 36.3822 39.2261 36.1932 38.2854C36.0042 37.3449 35.5359 36.4803 34.8471 35.8011V35.7421Z" fill="white"/>
<path d="M20.6338 38.5711C20.6286 37.2972 20.1195 36.0752 19.2144 35.1631C17.4478 33.4169 16.4562 31.0547 16.4562 28.5927C16.4562 26.1306 17.4478 23.7685 19.2144 22.0222C19.9031 21.343 20.3714 20.4784 20.5604 19.5378C20.7494 18.5973 20.6504 17.6227 20.2761 16.7373C19.9018 15.8518 19.2688 15.0953 18.4571 14.563C17.6455 14.0308 16.6915 13.7466 15.7156 13.7466C14.7397 13.7466 13.7858 14.0308 12.9741 14.563C12.1625 15.0953 11.5295 15.8518 11.1551 16.7373C10.7809 17.6227 10.6819 18.5973 10.8708 19.5378C11.0599 20.4784 11.5282 21.343 12.2168 22.0222C13.1027 22.8859 13.8059 23.9133 14.2857 25.0452C14.7655 26.1771 15.0125 27.3911 15.0125 28.6172C15.0125 29.8434 14.7655 31.0574 14.2857 32.1893C13.8059 33.3212 13.1027 34.3486 12.2168 35.2122C11.6483 35.7795 11.2306 36.4755 11.0006 37.2389C10.7706 38.0022 10.7352 38.8094 10.8977 39.5894C11.0603 40.3693 11.4156 41.098 11.9325 41.7111C12.4495 42.3243 13.1119 42.8029 13.8617 43.105C14.6114 43.4071 15.4252 43.5234 16.2314 43.4435C17.0376 43.3635 17.8115 43.0899 18.4846 42.6467C19.1578 42.2036 19.7096 41.6045 20.0913 40.9022C20.4732 40.2 20.6732 39.4163 20.6738 38.6202L20.6338 38.5711Z" fill="white"/>
<path d="M70.3268 51.1422L54.1406 10.3486H60.8582L74.8052 46.428H72.8859L86.833 10.3486H93.4226L77.3643 51.1422H70.3268Z" fill="white"/>
<path d="M105.919 33.4796V45.7366H132.662V51.1422H99.7773V10.3486H132.598V15.7542H105.919V28.1997H127.736V33.4796H105.919Z" fill="white"/>
<path d="M147.716 10.3486V45.7366H172.155V51.1422H141.574V10.3486H147.716Z" fill="white"/>
<path d="M198.845 51.8337C194.537 51.8337 190.698 50.9747 187.329 49.2566C184.002 47.5385 181.379 45.1081 179.46 41.9653C177.583 38.8225 176.645 35.093 176.645 30.7769C176.645 26.4189 177.583 22.6685 179.46 19.5257C181.379 16.3829 184.002 13.9524 187.329 12.2344C190.698 10.5163 194.537 9.65723 198.845 9.65723C203.195 9.65723 207.034 10.5163 210.361 12.2344C213.687 13.9524 216.31 16.3829 218.23 19.5257C220.149 22.6685 221.109 26.4189 221.109 30.7769C221.109 35.093 220.149 38.8225 218.23 41.9653C216.31 45.1081 213.687 47.5385 210.361 49.2566C207.034 50.9747 203.195 51.8337 198.845 51.8337ZM198.845 46.3652C201.916 46.3652 204.645 45.7786 207.034 44.6053C209.422 43.432 211.32 41.6929 212.728 39.3882C214.135 37.0835 214.839 34.2131 214.839 30.7769C214.839 27.3408 214.135 24.4704 212.728 22.1656C211.32 19.8609 209.422 18.1219 207.034 16.9486C204.645 15.7334 201.916 15.1257 198.845 15.1257C195.859 15.1257 193.151 15.7334 190.72 16.9486C188.288 18.1219 186.369 19.8609 184.962 22.1656C183.554 24.4704 182.85 27.3408 182.85 30.7769C182.85 34.2131 183.554 37.0835 184.962 39.3882C186.369 41.6929 188.288 43.432 190.72 44.6053C193.151 45.7786 195.859 46.3652 198.845 46.3652Z" fill="white"/>
<path d="M269.019 37.1882C268.635 40.2472 267.569 42.8662 265.82 45.0453C264.114 47.2243 261.875 48.9004 259.102 50.0737C256.33 51.2471 253.174 51.8337 249.634 51.8337C246.435 51.8337 243.492 51.3518 240.805 50.388C238.16 49.4242 235.857 48.0414 233.895 46.2395C231.933 44.4376 230.398 42.2377 229.289 39.6396C228.18 36.9997 227.625 34.0454 227.625 30.7769C227.625 27.4665 228.18 24.5123 229.289 21.9142C230.398 19.3162 231.933 17.1162 233.895 15.3143C235.857 13.4705 238.16 12.0667 240.805 11.103C243.492 10.1392 246.435 9.65723 249.634 9.65723C253.216 9.65723 256.394 10.2649 259.166 11.4801C261.939 12.6534 264.178 14.3505 265.884 16.5714C267.633 18.7504 268.699 21.3695 269.083 24.4284H263.197C262.642 22.459 261.725 20.7828 260.446 19.4C259.166 18.0171 257.609 16.9695 255.775 16.2572C253.941 15.5029 251.894 15.1257 249.634 15.1257C246.733 15.1257 244.089 15.7334 241.7 16.9486C239.312 18.1638 237.393 19.9238 235.942 22.2285C234.535 24.5332 233.831 27.3827 233.831 30.7769C233.831 34.1292 234.535 36.9787 235.942 39.3253C237.393 41.6301 239.312 43.39 241.7 44.6053C244.089 45.7786 246.733 46.3652 249.634 46.3652C251.894 46.3652 253.92 46.0091 255.711 45.2967C257.545 44.5843 259.102 43.5367 260.382 42.1539C261.661 40.771 262.6 39.1158 263.197 37.1882H269.019Z" fill="white"/>
<path d="M297.809 51.8337C293.502 51.8337 289.663 50.9747 286.294 49.2566C282.967 47.5385 280.344 45.1081 278.424 41.9653C276.548 38.8225 275.609 35.093 275.609 30.7769C275.609 26.4189 276.548 22.6685 278.424 19.5257C280.344 16.3829 282.967 13.9524 286.294 12.2344C289.663 10.5163 293.502 9.65723 297.809 9.65723C302.16 9.65723 305.999 10.5163 309.325 12.2344C312.652 13.9524 315.275 16.3829 317.195 19.5257C319.114 22.6685 320.074 26.4189 320.074 30.7769C320.074 35.093 319.114 38.8225 317.195 41.9653C315.275 45.1081 312.652 47.5385 309.325 49.2566C305.999 50.9747 302.16 51.8337 297.809 51.8337ZM297.809 46.3652C300.88 46.3652 303.61 45.7786 305.999 44.6053C308.387 43.432 310.285 41.6929 311.693 39.3882C313.1 37.0835 313.804 34.2131 313.804 30.7769C313.804 27.3408 313.1 24.4704 311.693 22.1656C310.285 19.8609 308.387 18.1219 305.999 16.9486C303.61 15.7334 300.88 15.1257 297.809 15.1257C294.824 15.1257 292.115 15.7334 289.684 16.9486C287.253 18.1219 285.334 19.8609 283.926 22.1656C282.519 24.4704 281.815 27.3408 281.815 30.7769C281.815 34.2131 282.519 37.0835 283.926 39.3882C285.334 41.6929 287.253 43.432 289.684 44.6053C292.115 45.7786 294.824 46.3652 297.809 46.3652Z" fill="white"/>
<path d="M328.383 51.1422V10.3486H349.751C352.737 10.3486 355.296 10.7886 357.428 11.6686C359.604 12.5066 361.267 13.8057 362.418 15.5656C363.57 17.2837 364.146 19.4837 364.146 22.1655C364.146 24.0093 363.826 25.5807 363.186 26.8797C362.589 28.1369 361.757 29.1845 360.691 30.0225C359.625 30.8606 358.367 31.5101 356.916 31.9711C355.466 32.432 353.91 32.7254 352.246 32.8511L351.798 32.4739C354.315 32.5577 356.426 32.8301 358.132 33.2911C359.838 33.752 361.139 34.5901 362.035 35.8053C362.973 36.9786 363.442 38.7386 363.442 41.0852V51.1422H357.236V41.2738C357.236 39.6395 356.959 38.3615 356.405 37.4396C355.85 36.5177 354.891 35.8682 353.526 35.491C352.161 35.1139 350.241 34.9253 347.768 34.9253H334.524V51.1422H328.383ZM334.524 29.6454H349.751C352.481 29.6454 354.528 28.9749 355.893 27.634C357.3 26.2931 358.004 24.5331 358.004 22.3541C358.004 20.2589 357.3 18.6456 355.893 17.5142C354.528 16.3828 352.481 15.8171 349.751 15.8171H334.524V29.6454Z" fill="white"/>
<path d="M379.259 33.4796V45.7366H406.001V51.1422H373.117V10.3486H405.937V15.7542H379.259V28.1997H401.075V33.4796H379.259Z" fill="white"/>
</g>
<defs>
<clipPath id="clip0_608_33868">
<rect width="406" height="58" fill="white"/>
</clipPath>
</defs>
</svg>
