<svg width="1059" height="143" viewBox="0 0 1059 143" fill="none" xmlns="http://www.w3.org/2000/svg">
<mask id="mask0_740_381" style="mask-type:luminance" maskUnits="userSpaceOnUse" x="0" y="0" width="1059" height="143">
<path d="M1058.4 0H0V142.7H1058.4V0Z" fill="white"/>
</mask>
<g mask="url(#mask0_740_381)">
<path d="M1021.9 43.1994C1008.3 43.1994 997.202 51.2994 991.402 64.1994C985.502 51.1994 973.802 43.1994 959.202 43.1994C948.202 43.1994 938.902 48.4994 932.702 57.0994L930.802 45.3994H912.302V119.4H933.002V84.8994C933.002 71.5994 941.302 62.2994 953.802 62.2994C966.302 62.2994 975.002 71.5994 975.002 84.8994V119.4H995.602V84.8994C995.602 71.5994 1004.1 62.2994 1016.5 62.2994C1029 62.2994 1037.7 71.5994 1037.7 84.8994V119.4H1058.4V84.8994C1058.4 60.1994 1043.2 43.1994 1021.9 43.1994ZM893.102 82.5994C893.102 59.0994 874.202 43.2994 848.902 43.2994C823.302 43.2994 804.402 59.9994 804.402 82.5994C804.402 105 823.502 121.7 848.902 121.7C869.202 121.7 885.002 111.9 890.602 96.7994H869.602C865.802 102.1 858.702 105.4 849.802 105.4C837.401 105.4 827.902 98.2994 825.702 87.5994H892.802C893.102 85.9994 893.102 84.1994 893.102 82.5994ZM825.702 77.1994C827.902 66.8994 836.902 59.8994 848.902 59.8994C861.002 59.8994 869.702 66.6994 871.802 77.1994H825.702ZM766.002 15.8994V54.8994C758.502 47.4994 747.702 43.1994 735.402 43.1994C710.702 43.1994 692.402 59.8994 692.402 82.4994C692.402 104.9 710.802 121.6 735.402 121.6C748.002 121.6 758.802 117.1 766.302 109.6L768.402 119.4H786.702V15.8994H766.002ZM739.802 103.3C724.302 103.3 713.102 94.4994 713.002 82.5994C713.002 70.2994 724.302 61.3994 739.802 61.3994C755.302 61.3994 766.002 70.1994 766.002 82.5994C766.002 94.8994 755.502 103.3 739.802 103.3ZM652.602 15.8994V119.4H673.302V15.8994H652.602ZM587.802 43.1994C561.802 43.1994 542.602 59.8994 542.502 82.4994C542.502 104.9 561.902 121.6 587.802 121.6C614.102 121.6 633.202 105.6 633.202 82.4994C633.202 58.9994 614.102 43.1994 587.802 43.1994ZM587.802 102.4C573.802 102.4 563.302 94.0994 563.202 82.5994C563.202 70.6994 573.602 62.2994 587.802 62.2994C602.602 62.2994 612.502 70.7994 612.502 82.5994C612.502 94.0994 602.602 102.4 587.802 102.4ZM502.602 15.8994V57.9994H445.902V15.8994H425.202V119.4H445.902V77.0994H502.602V119.4H523.302V15.8994H502.602ZM371.902 82.3994L405.802 45.3994H378.602L353.202 73.0994H344.002V15.8994H323.302V119.4H344.002V91.8994H353.002L380.602 119.4H408.702L371.902 82.3994ZM263.202 98.5994L303.902 61.7994V45.3994H234.202V66.1994H273.802L232.102 103V119.3H306.102V98.5994H263.202Z" fill="white"/>
<path d="M111.4 141.7H108.4H37H34L36.1 139.6L71.9 104C72.4 103.5 73.1 103.5 73.6 104L111.4 141.7Z" fill="#BE62F9"/>
<path d="M132.701 120.5C136.201 117.8 139.001 114.1 141.201 109.6C143.501 105.1 145.001 100.2 145.601 95.1C146.201 87.2 145.301 80 142.501 73.6C141.401 70.9 140.101 68.5 138.601 66.6C137.301 64.4 135.401 62.3 133.501 60.4L92.3008 19C94.5008 29.3 94.0008 38.5 90.7008 46.7C87.9008 53.8 83.8008 60.3 77.8008 66L132.701 120.5Z" fill="#BE62F9"/>
<path d="M71.7034 0.599405L10.7034 62.1994L7.40339 66.4994C7.30339 66.3994 4.60339 70.3994 2.90339 74.6994C1.20339 78.9994 0.603383 83.5994 0.403383 84.4994C-0.396617 90.9994 -0.096617 98.8994 3.20339 106.3C4.60339 109.3 6.20339 113.2 8.60339 115.9C10.3034 117.8 12.0034 119.6 13.1034 120.6L73.0034 60.9994C81.6034 52.3994 87.1034 42.4994 86.6034 29.1994C86.3034 20.3994 83.8034 12.3994 78.7034 5.4994C78.7034 5.4994 75.6034 2.2994 73.8034 0.599405C73.5034 0.399405 73.1034 -0.100595 72.8034 -0.000594989C72.8034 -0.000594989 72.7034 -0.000594989 72.5034 -0.000594989C72.4034 -0.000594989 72.3034 0.099405 72.2034 0.099405C71.9034 0.299405 71.7034 0.599405 71.7034 0.599405Z" fill="#BE62F9"/>
<path d="M111.801 141.9H108.801H37.3008H34.3008L36.4008 139.8L72.1008 104.1C72.6008 103.6 73.3008 103.6 73.8008 104.1L111.801 141.9Z" fill="url(#paint0_linear_740_381)"/>
<path d="M142.6 106.5C141.2 109.6 139.6 113.4 137.1 116.1C135.4 118 133.7 119.9 132.6 120.8L72.9002 61.3997L72.6002 61.0997C64.0002 52.4997 58.5002 42.5997 59.0002 29.2997C59.3002 20.5997 61.8002 12.5997 66.7002 5.79961L71.5002 0.999609C71.6002 0.899609 71.7002 0.799609 71.8002 0.699609C72.0002 0.499609 72.2002 0.29961 72.4002 0.19961C72.5002 0.19961 72.5002 0.0996094 72.6002 0.0996094C72.7002 0.0996094 72.8002 0.0996094 72.8002 0.0996094C72.8002 0.0996094 72.9002 0.0996094 73.0002 0.0996094C73.1002 0.0996094 73.1002 0.0996094 73.2002 0.19961C73.4002 0.29961 73.7002 0.599609 73.8002 0.699609C73.9002 0.799609 74.0002 0.899609 74.1002 0.999609L78.9002 5.79961L134.9 62.2997L138.2 66.5997C138.3 66.4997 141 70.4996 142.7 74.7997C144.4 79.0997 145 83.6997 145.2 84.5997C146.2 91.1997 145.9 99.0997 142.6 106.5Z" fill="url(#paint1_linear_740_381)"/>
<path d="M73.1018 61.1L72.8018 61.4L13.1018 120.8C12.0018 119.8 10.3018 118 8.60182 116.1C6.10182 113.4 4.50182 109.5 3.10182 106.5C-0.19818 99.1 -0.498179 91.2 0.301821 84.7C0.401821 83.8 1.10182 79.2 2.80182 74.9C4.50182 70.6 7.20182 66.6 7.30182 66.7L10.6018 62.4L66.6018 5.9L71.4018 1L71.7018 0.7C71.7018 0.7 72.0018 0.4 72.3018 0.2C72.3018 0.2 72.4018 0.2 72.4018 0.1C72.5018 0.1 72.5018 0 72.6018 0C72.7018 0 72.8018 0 72.8018 0C72.9018 0 73.0018 0 73.2018 0.1C73.4018 0.2 73.7018 0.5 73.8018 0.6C74.0018 0.8 74.1018 0.9 74.3018 1C76.2018 2.8 78.9018 5.6 78.9018 5.6C78.9018 5.6 79.0018 5.7 79.0018 5.8C84.0018 12.6 86.4018 20.6 86.7018 29.3C87.2018 42.6 81.7018 52.6 73.1018 61.1Z" fill="url(#paint2_linear_740_381)"/>
</g>
<defs>
<linearGradient id="paint0_linear_740_381" x1="34.4019" y1="122.812" x2="111.816" y2="122.812" gradientUnits="userSpaceOnUse">
<stop stop-color="#5238DE"/>
<stop offset="0.3844" stop-color="#6841E4"/>
<stop offset="1" stop-color="#D76CFF"/>
</linearGradient>
<linearGradient id="paint1_linear_740_381" x1="58.9687" y1="60.4497" x2="145.705" y2="60.4497" gradientUnits="userSpaceOnUse">
<stop stop-color="#5238DE"/>
<stop offset="0.4351" stop-color="#6841E4"/>
<stop offset="1" stop-color="#D76CFF"/>
</linearGradient>
<linearGradient id="paint2_linear_740_381" x1="-0.070318" y1="60.4" x2="86.7333" y2="60.4" gradientUnits="userSpaceOnUse">
<stop stop-color="#5238DE"/>
<stop offset="1" stop-color="#D76CFF"/>
</linearGradient>
</defs>
</svg>
