<svg width="783" height="783" viewBox="0 0 783 783" fill="none" xmlns="http://www.w3.org/2000/svg">
<g clip-path="url(#clip0_4_1006)">
<path d="M396.86 783C610.119 783 783 610.119 783 396.86C783 183.6 610.119 10.7194 396.86 10.7194C183.6 10.7194 10.7192 183.6 10.7192 396.86C10.7192 610.119 183.6 783 396.86 783Z" fill="#3C2279"/>
<path d="M386.14 772.281C599.4 772.281 772.281 599.4 772.281 386.14C772.281 172.881 599.4 0 386.14 0C172.881 0 0 172.881 0 386.14C0 599.4 172.881 772.281 386.14 772.281Z" fill="#A78BFA"/>
<path d="M386.14 720.787C570.96 720.787 720.786 570.96 720.786 386.14C720.786 201.32 570.96 51.4939 386.14 51.4939C201.32 51.4939 51.4937 201.32 51.4937 386.14C51.4937 570.96 201.32 720.787 386.14 720.787Z" fill="#6B4FA4"/>
<path d="M710.184 386.089C710.184 528.162 618.753 648.886 491.502 692.602C423.201 715.975 349.067 715.975 280.766 692.602C153.527 648.925 62.1616 528.213 62.1616 386.089C62.1616 207.124 207.24 62.0457 386.205 62.0457C565.169 62.0457 710.184 207.176 710.184 386.089Z" fill="#6B4FA4"/>
<path d="M530.702 635.148C525.13 653.749 511.792 674.93 491.502 692.653C423.201 716.026 349.067 716.026 280.766 692.653C260.475 674.93 247.137 653.736 241.578 635.148C236.595 619.228 235.953 602.266 239.72 586.015L240.146 584.338C242.364 577.566 250.065 571.284 261.945 565.827H510.296C522.253 571.31 529.98 577.643 532.134 584.454C532.276 584.97 532.405 585.499 532.534 586.054C536.303 602.29 535.67 619.238 530.702 635.148Z" fill="#A78BFA"/>
<path d="M532.78 588.363C532.78 611.762 467.122 630.737 386.14 630.737C305.158 630.737 239.501 611.762 239.501 588.363C239.497 587.575 239.57 586.788 239.72 586.015C239.827 585.448 239.97 584.888 240.146 584.338C242.365 577.566 250.066 571.284 261.946 565.828C287.899 553.909 333.821 545.988 386.127 545.988C438.434 545.988 484.343 553.909 510.296 565.828C522.254 571.31 529.98 577.643 532.135 584.454C532.312 584.975 532.445 585.51 532.534 586.054C532.687 586.814 532.769 587.587 532.78 588.363Z" fill="white"/>
<path d="M405.799 220.784H366.481V362.638H405.799V220.784Z" fill="#A78BFA"/>
<path d="M397.925 260.502C437.818 254.026 464.908 216.437 458.432 176.545C451.957 136.652 414.368 109.562 374.475 116.037C334.582 122.513 307.492 160.102 313.968 199.994C320.443 239.887 358.032 266.977 397.925 260.502Z" fill="#A78BFA"/>
<path d="M393.994 236.285C420.511 231.98 438.519 206.994 434.215 180.476C429.91 153.958 404.924 135.951 378.406 140.255C351.888 144.56 333.881 169.546 338.185 196.064C342.489 222.582 367.476 240.589 393.994 236.285Z" fill="white"/>
<path d="M428.682 348.835L516.591 285.048C552.438 258.824 560.255 249.73 573.025 257.083C585.795 264.435 582.558 278.754 580.107 303.52L570.084 404.986C569.653 409.353 568.256 413.57 565.993 417.33C563.731 421.09 560.66 424.3 557.004 426.727C553.347 429.153 549.197 430.736 544.853 431.36C540.509 431.983 536.081 431.633 531.889 430.333L437.299 401.052C432.051 399.428 427.36 396.375 423.75 392.235C420.14 388.095 417.754 383.032 416.859 377.613C415.965 372.193 416.597 366.632 418.685 361.551C420.773 356.471 424.235 352.072 428.682 348.848V348.835Z" fill="#A78BFA"/>
<path d="M551.07 296.58L540.635 402.071L446.057 372.777L551.07 296.58Z" fill="white"/>
<path d="M343.599 348.835L255.651 285.048C219.804 258.824 212 249.73 199.23 257.083C186.459 264.435 189.697 278.754 192.135 303.52L202.171 404.986C202.602 409.353 203.999 413.57 206.261 417.33C208.524 421.09 211.594 424.3 215.251 426.727C218.907 429.153 223.058 430.736 227.402 431.36C231.746 431.983 236.174 431.633 240.365 430.333L334.943 401.052C340.191 399.429 344.884 396.378 348.496 392.239C352.107 388.1 354.495 383.036 355.391 377.617C356.286 372.197 355.655 366.635 353.568 361.554C351.481 356.473 348.02 352.073 343.573 348.848L343.599 348.835Z" fill="#A78BFA"/>
<path d="M221.21 296.58L231.633 402.071L326.224 372.777L221.21 296.58Z" fill="white"/>
<path d="M479.802 329.113H292.479C223.19 329.113 167.02 385.282 167.02 454.571V466.593C167.02 535.882 223.19 592.052 292.479 592.052H479.802C549.091 592.052 605.261 535.882 605.261 466.593V454.571C605.261 385.282 549.091 329.113 479.802 329.113Z" fill="#A78BFA"/>
<path d="M479.802 372.777H292.466C247.299 372.777 210.684 409.392 210.684 454.559V466.594C210.684 511.76 247.299 548.375 292.466 548.375H479.802C524.969 548.375 561.583 511.76 561.583 466.594V454.559C561.583 409.392 524.969 372.777 479.802 372.777Z" fill="white"/>
<path d="M508.076 474.856C515.96 455.822 506.921 434 487.887 426.115C468.852 418.231 447.03 427.27 439.146 446.305C431.261 465.339 440.3 487.161 459.335 495.045C478.369 502.93 500.191 493.891 508.076 474.856Z" fill="#6D54A7"/>
<path d="M333.136 474.852C341.021 455.817 331.982 433.995 312.947 426.111C293.913 418.226 272.091 427.265 264.206 446.3C256.322 465.334 265.361 487.157 284.395 495.041C303.43 502.925 325.252 493.886 333.136 474.852Z" fill="#6D54A7"/>
</g>
<defs>
<clipPath id="clip0_4_1006">
<rect width="783" height="783" fill="white"/>
</clipPath>
</defs>
</svg>
