<svg width="1000" height="1001" viewBox="0 0 1000 1001" fill="none" xmlns="http://www.w3.org/2000/svg">
<path d="M926.675 475.544C921.488 366.149 874.906 259.34 787.582 180.237C700.237 101.257 589.206 65.4303 479.81 71.1722C370.404 77.0486 263.285 124.39 183.716 212.319C104.157 300.247 67.6383 411.515 72.7249 520.879C77.8816 630.409 124.513 737.28 211.858 816.27C299.182 895.383 410.173 931.128 519.559 925.375C628.905 919.551 736.084 872.157 815.653 784.229C895.212 696.301 931.741 585.043 926.675 475.544Z" fill="url(#paint0_linear_4_811)"/>
<mask id="mask0_4_811" style="mask-type:luminance" maskUnits="userSpaceOnUse" x="926" y="463" width="2" height="42">
<path d="M927.148 478.277L927.459 504.632C927.399 499.815 927.259 494.988 927.028 490.17L926.717 463.815C926.948 468.633 927.088 473.46 927.148 478.277Z" fill="white"/>
</mask>
<g mask="url(#mask0_4_811)">
<path d="M927.148 478.277L927.459 504.632C927.399 499.815 927.259 494.988 927.028 490.17L926.717 463.815C926.948 468.633 927.088 473.46 927.148 478.277Z" fill="url(#paint1_linear_4_811)"/>
</g>
<path d="M836.251 128.736C734.274 36.5204 604.081 -5.56017 476.434 1.20166C348.788 7.9635 223.207 63.6401 130.295 166.267C37.5027 268.811 -5.45391 399.344 0.552396 526.991C6.45843 654.619 61.2071 780.105 163.184 872.331C265.06 964.526 395.354 1006.63 522.961 999.783C650.447 993.041 776.128 937.396 869.04 834.759C961.993 732.194 1004.85 601.63 998.843 473.982C992.997 346.324 938.128 220.93 836.251 128.736ZM926.456 477.777C931.52 587.207 895.011 698.395 815.495 786.278C735.979 874.151 628.858 921.515 519.561 927.336C410.235 933.074 299.303 897.352 212.027 818.298C124.73 739.369 78.123 632.555 72.969 523.104C67.8852 413.788 104.384 302.589 183.91 214.717C263.436 126.844 370.487 79.5315 479.844 73.6588C589.17 67.9206 700.142 103.715 787.449 182.655C874.716 261.708 921.272 368.45 926.456 477.777Z" fill="url(#paint2_linear_4_811)"/>
<path d="M926.717 475.795C931.782 585.264 895.262 696.492 815.724 784.406C736.186 872.311 629.035 919.692 519.707 925.515C410.35 931.255 299.388 895.52 212.086 816.438C124.764 737.481 78.1448 630.628 72.9894 521.138C67.9042 411.782 104.414 300.544 183.962 212.64C263.51 124.736 370.591 77.4066 479.978 71.5318C589.336 65.7915 700.339 101.599 787.67 180.567C874.962 259.649 921.531 366.429 926.717 475.795Z" stroke="url(#paint3_linear_4_811)" stroke-width="8.04138" stroke-miterlimit="10"/>
<path d="M449.421 508.818L344.734 432.864C306.497 404.894 295.045 393.302 282.139 397.477L266.402 389.418L266.432 421.293L266.463 421.273C266.192 430.044 267.737 441.074 269.102 454.854L281.045 575.678C282.089 586.206 287.809 595.71 296.621 601.561C302.462 605.435 309.246 607.443 316.101 607.443C319.594 607.443 323.106 606.921 326.519 605.867L439.154 570.991C451.9 567.047 461.314 556.238 463.491 543.081C465.659 529.914 460.22 516.656 449.421 508.818Z" fill="url(#paint4_linear_4_811)"/>
<path d="M733.744 386.548L724.811 401.01C724.119 400.508 723.406 400.016 722.614 399.555C707.409 390.803 698.105 401.632 655.412 432.864L550.725 508.818C539.926 516.646 534.487 529.914 536.655 543.071C538.832 556.228 548.246 567.037 560.992 570.981L673.617 605.857C677.03 606.911 680.542 607.432 684.035 607.432C690.889 607.432 697.684 605.435 703.515 601.551C712.327 595.7 718.047 586.196 719.091 575.668L731.034 454.844C732.409 440.923 733.974 429.793 733.663 420.982L733.724 420.952V386.548H733.744Z" fill="url(#paint5_linear_4_811)"/>
<path d="M523.497 356.349H476.669V525.267H523.497V356.349Z" fill="url(#paint6_linear_4_811)"/>
<path d="M523.497 321.986H476.669V490.903H523.497V321.986Z" fill="url(#paint7_linear_4_811)"/>
<path d="M500.073 370.56C548.201 370.56 587.217 331.545 587.217 283.417C587.217 235.289 548.201 196.273 500.073 196.273C451.945 196.273 412.93 235.289 412.93 283.417C412.93 331.545 451.945 370.56 500.073 370.56Z" fill="url(#paint8_linear_4_811)"/>
<path d="M587.217 283.417C587.217 235.294 548.206 196.283 500.073 196.283C451.94 196.283 412.93 235.294 412.93 283.417C412.93 323.431 439.907 357.122 476.659 367.349V490.903H523.487V367.349C560.24 357.122 587.217 323.431 587.217 283.417Z" stroke="url(#paint9_linear_4_811)" stroke-width="4.02069" stroke-miterlimit="10"/>
<path d="M500.073 341.345C532.066 341.345 558.002 315.41 558.002 283.417C558.002 251.424 532.066 225.488 500.073 225.488C468.08 225.488 442.145 251.424 442.145 283.417C442.145 315.41 468.08 341.345 500.073 341.345Z" fill="url(#paint10_linear_4_811)"/>
<path d="M449.421 474.464L344.734 398.511C302.041 367.289 292.747 356.45 277.533 365.211C262.328 373.963 266.182 391.014 269.092 420.5L281.035 541.325C282.079 551.853 287.8 561.357 296.611 567.208C302.452 571.082 309.237 573.089 316.091 573.089C319.584 573.089 323.097 572.567 326.509 571.513L439.144 536.638C451.89 532.694 461.304 521.885 463.482 508.727C465.66 495.55 460.22 482.292 449.421 474.464Z" fill="url(#paint11_linear_4_811)"/>
<path d="M449.421 474.464L344.734 398.511C302.041 367.289 292.747 356.45 277.533 365.211C262.328 373.963 266.182 391.014 269.092 420.5L281.035 541.325C282.079 551.853 287.8 561.357 296.611 567.208C302.452 571.082 309.237 573.089 316.091 573.089C319.584 573.089 323.097 572.567 326.509 571.513L439.144 536.638C451.89 532.694 461.304 521.885 463.482 508.727C465.66 495.55 460.22 482.292 449.421 474.464Z" stroke="url(#paint12_linear_4_811)" stroke-width="4.02069" stroke-miterlimit="10"/>
<path d="M303.687 412.24L316.101 537.852L428.727 502.977L303.687 412.24Z" fill="url(#paint13_linear_4_811)"/>
<path d="M550.735 474.464L655.422 398.511C698.116 367.289 707.409 356.45 722.624 365.211C737.829 373.963 733.975 391.014 731.064 420.5L719.111 541.315C718.067 551.842 712.347 561.347 703.535 567.198C697.694 571.072 690.91 573.079 684.055 573.079C680.563 573.079 677.05 572.557 673.638 571.503L561.002 536.628C548.257 532.684 538.843 521.875 536.665 508.717C534.497 495.55 539.937 482.292 550.735 474.464Z" fill="url(#paint14_linear_4_811)"/>
<path d="M550.735 474.464L655.422 398.511C698.116 367.289 707.409 356.45 722.624 365.211C737.829 373.963 733.975 391.014 731.064 420.5L719.111 541.315C718.067 551.842 712.347 561.347 703.535 567.198C697.694 571.072 690.91 573.079 684.055 573.079C680.563 573.079 677.05 572.557 673.638 571.503L561.002 536.628C548.257 532.684 538.843 521.875 536.665 508.717C534.497 495.55 539.937 482.292 550.735 474.464Z" stroke="url(#paint15_linear_4_811)" stroke-width="4.02069" stroke-miterlimit="10"/>
<path d="M696.47 412.24L684.055 537.852L571.42 502.977L696.47 412.24Z" fill="url(#paint16_linear_4_811)"/>
<path d="M611.615 450.969H388.542C306.035 450.969 239.155 517.85 239.155 600.357V614.688C239.155 697.195 306.035 764.076 388.542 764.076H611.615C694.121 764.076 761.002 697.195 761.002 614.688V600.357C761.002 517.85 694.121 450.969 611.615 450.969Z" fill="url(#paint17_linear_4_811)"/>
<path d="M611.615 450.969H388.542C306.035 450.969 239.155 517.85 239.155 600.357V614.688C239.155 697.195 306.035 764.076 388.542 764.076H611.615C694.121 764.076 761.002 697.195 761.002 614.688V600.357C761.002 517.85 694.121 450.969 611.615 450.969Z" stroke="url(#paint18_linear_4_811)" stroke-width="4.02069" stroke-miterlimit="10"/>
<path d="M388.542 712.079C334.839 712.079 291.152 668.392 291.152 614.689V600.357C291.152 546.654 334.839 502.967 388.542 502.967H611.615C665.318 502.967 709.005 546.654 709.005 600.357V614.689C709.005 668.392 665.318 712.079 611.615 712.079H388.542Z" fill="url(#paint19_linear_4_811)"/>
<path d="M604.238 651.943C628.77 651.943 648.658 632.055 648.658 607.523C648.658 582.99 628.77 563.103 604.238 563.103C579.706 563.103 559.818 582.99 559.818 607.523C559.818 632.055 579.706 651.943 604.238 651.943Z" fill="url(#paint20_linear_4_811)"/>
<path d="M395.918 651.943C420.451 651.943 440.338 632.055 440.338 607.523C440.338 582.99 420.451 563.103 395.918 563.103C371.386 563.103 351.499 582.99 351.499 607.523C351.499 632.055 371.386 651.943 395.918 651.943Z" fill="url(#paint21_linear_4_811)"/>
<path d="M645.302 624.524C654.69 601.859 643.927 575.874 621.262 566.486C598.596 557.097 572.611 567.86 563.223 590.526C553.834 613.191 564.597 639.176 587.263 648.564C609.928 657.953 635.913 647.19 645.302 624.524Z" stroke="url(#paint22_linear_4_811)" stroke-width="4.02069" stroke-miterlimit="10"/>
<path d="M436.98 624.531C446.369 601.866 435.606 575.881 412.94 566.492C390.275 557.104 364.29 567.867 354.902 590.532C345.513 613.198 356.276 639.182 378.942 648.571C401.607 657.96 427.592 647.196 436.98 624.531Z" stroke="url(#paint23_linear_4_811)" stroke-width="4.02069" stroke-miterlimit="10"/>
<defs>
<linearGradient id="paint0_linear_4_811" x1="72.2545" y1="498.276" x2="927.136" y2="498.276" gradientUnits="userSpaceOnUse">
<stop stop-color="#D7AC4C"/>
<stop offset="0.1816" stop-color="#FFFFB0"/>
<stop offset="0.3268" stop-color="#F4D174"/>
<stop offset="0.3659" stop-color="#FBED99"/>
<stop offset="0.3939" stop-color="#FAEC97"/>
<stop offset="0.433" stop-color="#DEB04D"/>
<stop offset="0.5275" stop-color="#DFB24F"/>
<stop offset="0.5615" stop-color="#E2B756"/>
<stop offset="0.5858" stop-color="#E7C161"/>
<stop offset="0.6053" stop-color="#EECF72"/>
<stop offset="0.6207" stop-color="#F6DF86"/>
<stop offset="0.7529" stop-color="#F2D87E"/>
<stop offset="0.7672" stop-color="#F1D77D"/>
<stop offset="0.7716" stop-color="#EBCD71"/>
<stop offset="0.7804" stop-color="#E2BE60"/>
<stop offset="0.7913" stop-color="#DCB455"/>
<stop offset="0.8066" stop-color="#D8AE4E"/>
<stop offset="0.8492" stop-color="#D7AC4C"/>
<stop offset="1" stop-color="#966424"/>
</linearGradient>
<linearGradient id="paint1_linear_4_811" x1="918.013" y1="490.328" x2="936.27" y2="478.255" gradientUnits="userSpaceOnUse">
<stop stop-color="#A16C0C"/>
<stop offset="0.1816" stop-color="#C9BF70"/>
<stop offset="0.3268" stop-color="#BE9134"/>
<stop offset="0.433" stop-color="#A8700D"/>
<stop offset="0.7067" stop-color="#C09F46"/>
<stop offset="0.8492" stop-color="#A16C0C"/>
<stop offset="1" stop-color="#602400"/>
</linearGradient>
<linearGradient id="paint2_linear_4_811" x1="85.3401" y1="783.164" x2="929.418" y2="241.809" gradientUnits="userSpaceOnUse">
<stop stop-color="#D7AC4C"/>
<stop offset="0.1816" stop-color="#FFFFB0"/>
<stop offset="0.3268" stop-color="#F4D174"/>
<stop offset="0.3659" stop-color="#FBED99"/>
<stop offset="0.3939" stop-color="#FAEC97"/>
<stop offset="0.433" stop-color="#DEB04D"/>
<stop offset="0.5275" stop-color="#DFB24F"/>
<stop offset="0.5615" stop-color="#E2B756"/>
<stop offset="0.5858" stop-color="#E7C161"/>
<stop offset="0.6053" stop-color="#EECF72"/>
<stop offset="0.6207" stop-color="#F6DF86"/>
<stop offset="0.7529" stop-color="#F2D87E"/>
<stop offset="0.7672" stop-color="#F1D77D"/>
<stop offset="0.7716" stop-color="#EBCD71"/>
<stop offset="0.7804" stop-color="#E2BE60"/>
<stop offset="0.7913" stop-color="#DCB455"/>
<stop offset="0.8066" stop-color="#D8AE4E"/>
<stop offset="0.8492" stop-color="#D7AC4C"/>
<stop offset="1" stop-color="#966424"/>
</linearGradient>
<linearGradient id="paint3_linear_4_811" x1="74.2379" y1="433.356" x2="926.654" y2="556.253" gradientUnits="userSpaceOnUse">
<stop stop-color="#D7AC4C"/>
<stop offset="0.1816" stop-color="#FFFFB0"/>
<stop offset="0.3268" stop-color="#F4D174"/>
<stop offset="0.433" stop-color="#DEB04D"/>
<stop offset="0.7067" stop-color="#F6DF86"/>
<stop offset="0.8492" stop-color="#D7AC4C"/>
<stop offset="1" stop-color="#966424"/>
</linearGradient>
<linearGradient id="paint4_linear_4_811" x1="353.981" y1="383.437" x2="368.982" y2="522.856" gradientUnits="userSpaceOnUse">
<stop stop-color="#A16C0C"/>
<stop offset="0.2318" stop-color="#BE9134"/>
<stop offset="0.5559" stop-color="#A8700D"/>
<stop offset="1" stop-color="#432400"/>
</linearGradient>
<linearGradient id="paint5_linear_4_811" x1="654.379" y1="382.388" x2="634.377" y2="511.807" gradientUnits="userSpaceOnUse">
<stop stop-color="#A16C0C"/>
<stop offset="0.2318" stop-color="#BE9134"/>
<stop offset="0.5559" stop-color="#A8700D"/>
<stop offset="1" stop-color="#432400"/>
</linearGradient>
<linearGradient id="paint6_linear_4_811" x1="367.3" y1="247.59" x2="537.896" y2="495.837" gradientUnits="userSpaceOnUse">
<stop stop-color="#A16C0C"/>
<stop offset="0.2318" stop-color="#BE9134"/>
<stop offset="0.5559" stop-color="#A8700D"/>
<stop offset="1" stop-color="#432400"/>
</linearGradient>
<linearGradient id="paint7_linear_4_811" x1="368.511" y1="247.017" x2="568.796" y2="489.716" gradientUnits="userSpaceOnUse">
<stop stop-color="#D7AC4C"/>
<stop offset="0.1816" stop-color="#FFFFB0"/>
<stop offset="0.3268" stop-color="#F4D174"/>
<stop offset="0.3659" stop-color="#FBED99"/>
<stop offset="0.3939" stop-color="#FAEC97"/>
<stop offset="0.433" stop-color="#DEB04D"/>
<stop offset="0.5275" stop-color="#DFB24F"/>
<stop offset="0.5615" stop-color="#E2B756"/>
<stop offset="0.5858" stop-color="#E7C161"/>
<stop offset="0.6053" stop-color="#EECF72"/>
<stop offset="0.6207" stop-color="#F6DF86"/>
<stop offset="0.7529" stop-color="#F2D87E"/>
<stop offset="0.7672" stop-color="#F1D77D"/>
<stop offset="0.7716" stop-color="#EBCD71"/>
<stop offset="0.7804" stop-color="#E2BE60"/>
<stop offset="0.7913" stop-color="#DCB455"/>
<stop offset="0.8066" stop-color="#D8AE4E"/>
<stop offset="0.8492" stop-color="#D7AC4C"/>
<stop offset="1" stop-color="#966424"/>
</linearGradient>
<linearGradient id="paint8_linear_4_811" x1="428.905" y1="197.177" x2="629.191" y2="439.876" gradientUnits="userSpaceOnUse">
<stop stop-color="#D7AC4C"/>
<stop offset="0.1816" stop-color="#FFFFB0"/>
<stop offset="0.3268" stop-color="#F4D174"/>
<stop offset="0.3659" stop-color="#FBED99"/>
<stop offset="0.3939" stop-color="#FAEC97"/>
<stop offset="0.433" stop-color="#DEB04D"/>
<stop offset="0.5275" stop-color="#DFB24F"/>
<stop offset="0.5615" stop-color="#E2B756"/>
<stop offset="0.5858" stop-color="#E7C161"/>
<stop offset="0.6053" stop-color="#EECF72"/>
<stop offset="0.6207" stop-color="#F6DF86"/>
<stop offset="0.7529" stop-color="#F2D87E"/>
<stop offset="0.7672" stop-color="#F1D77D"/>
<stop offset="0.7716" stop-color="#EBCD71"/>
<stop offset="0.7804" stop-color="#E2BE60"/>
<stop offset="0.7913" stop-color="#DCB455"/>
<stop offset="0.8066" stop-color="#D8AE4E"/>
<stop offset="0.8492" stop-color="#D7AC4C"/>
<stop offset="1" stop-color="#966424"/>
</linearGradient>
<linearGradient id="paint9_linear_4_811" x1="411.124" y1="343.592" x2="589.03" y2="343.592" gradientUnits="userSpaceOnUse">
<stop stop-color="#D7AC4C"/>
<stop offset="0.1816" stop-color="#FFFFB0"/>
<stop offset="0.3268" stop-color="#F4D174"/>
<stop offset="0.433" stop-color="#DEB04D"/>
<stop offset="0.7067" stop-color="#F6DF86"/>
<stop offset="0.8492" stop-color="#D7AC4C"/>
<stop offset="1" stop-color="#966424"/>
</linearGradient>
<linearGradient id="paint10_linear_4_811" x1="505" y1="348" x2="490" y2="225" gradientUnits="userSpaceOnUse">
<stop stop-color="#A16C0C"/>
<stop offset="0.260417" stop-color="#A8700D"/>
<stop offset="0.541667" stop-color="#B3882F"/>
<stop offset="1" stop-color="#7C5611"/>
</linearGradient>
<linearGradient id="paint11_linear_4_811" x1="240.272" y1="348.223" x2="395.788" y2="550.866" gradientUnits="userSpaceOnUse">
<stop stop-color="#D7AC4C"/>
<stop offset="0.1816" stop-color="#FFFFB0"/>
<stop offset="0.3268" stop-color="#F4D174"/>
<stop offset="0.3659" stop-color="#FBED99"/>
<stop offset="0.3939" stop-color="#FAEC97"/>
<stop offset="0.433" stop-color="#DEB04D"/>
<stop offset="0.5275" stop-color="#DFB24F"/>
<stop offset="0.5615" stop-color="#E2B756"/>
<stop offset="0.5858" stop-color="#E7C161"/>
<stop offset="0.6053" stop-color="#EECF72"/>
<stop offset="0.6207" stop-color="#F6DF86"/>
<stop offset="0.7529" stop-color="#F2D87E"/>
<stop offset="0.7672" stop-color="#F1D77D"/>
<stop offset="0.7716" stop-color="#EBCD71"/>
<stop offset="0.7804" stop-color="#E2BE60"/>
<stop offset="0.7913" stop-color="#DCB455"/>
<stop offset="0.8066" stop-color="#D8AE4E"/>
<stop offset="0.8492" stop-color="#D7AC4C"/>
<stop offset="1" stop-color="#966424"/>
</linearGradient>
<linearGradient id="paint12_linear_4_811" x1="264.594" y1="467.675" x2="465.773" y2="467.675" gradientUnits="userSpaceOnUse">
<stop stop-color="#D7AC4C"/>
<stop offset="0.1816" stop-color="#FFFFB0"/>
<stop offset="0.3268" stop-color="#F4D174"/>
<stop offset="0.433" stop-color="#DEB04D"/>
<stop offset="0.7067" stop-color="#F6DF86"/>
<stop offset="0.8492" stop-color="#D7AC4C"/>
<stop offset="1" stop-color="#966424"/>
</linearGradient>
<linearGradient id="paint13_linear_4_811" x1="370.542" y1="516.439" x2="319.363" y2="407.904" gradientUnits="userSpaceOnUse">
<stop stop-color="#A16C0C"/>
<stop offset="0.2318" stop-color="#BE9134"/>
<stop offset="0.5559" stop-color="#A8700D"/>
<stop offset="1" stop-color="#7C5611"/>
</linearGradient>
<linearGradient id="paint14_linear_4_811" x1="582.617" y1="358.883" x2="694.148" y2="543.46" gradientUnits="userSpaceOnUse">
<stop stop-color="#D7AC4C"/>
<stop offset="0.1816" stop-color="#FFFFB0"/>
<stop offset="0.3268" stop-color="#F4D174"/>
<stop offset="0.3659" stop-color="#FBED99"/>
<stop offset="0.3939" stop-color="#FAEC97"/>
<stop offset="0.433" stop-color="#DEB04D"/>
<stop offset="0.5275" stop-color="#DFB24F"/>
<stop offset="0.5615" stop-color="#E2B756"/>
<stop offset="0.5858" stop-color="#E7C161"/>
<stop offset="0.6053" stop-color="#EECF72"/>
<stop offset="0.6207" stop-color="#F6DF86"/>
<stop offset="0.7529" stop-color="#F2D87E"/>
<stop offset="0.7672" stop-color="#F1D77D"/>
<stop offset="0.7716" stop-color="#EBCD71"/>
<stop offset="0.7804" stop-color="#E2BE60"/>
<stop offset="0.7913" stop-color="#DCB455"/>
<stop offset="0.8066" stop-color="#D8AE4E"/>
<stop offset="0.8492" stop-color="#D7AC4C"/>
<stop offset="1" stop-color="#966424"/>
</linearGradient>
<linearGradient id="paint15_linear_4_811" x1="534.381" y1="467.675" x2="735.56" y2="467.675" gradientUnits="userSpaceOnUse">
<stop stop-color="#D7AC4C"/>
<stop offset="0.1816" stop-color="#FFFFB0"/>
<stop offset="0.3268" stop-color="#F4D174"/>
<stop offset="0.433" stop-color="#DEB04D"/>
<stop offset="0.7067" stop-color="#F6DF86"/>
<stop offset="0.8492" stop-color="#D7AC4C"/>
<stop offset="1" stop-color="#966424"/>
</linearGradient>
<linearGradient id="paint16_linear_4_811" x1="640.384" y1="494.594" x2="682.738" y2="408.119" gradientUnits="userSpaceOnUse">
<stop stop-color="#A16C0C"/>
<stop offset="0.2318" stop-color="#BE9134"/>
<stop offset="0.5559" stop-color="#A8700D"/>
<stop offset="1" stop-color="#7C5611"/>
</linearGradient>
<linearGradient id="paint17_linear_4_811" x1="281.74" y1="445.355" x2="715.299" y2="767.383" gradientUnits="userSpaceOnUse">
<stop stop-color="#D7AC4C"/>
<stop offset="0.1816" stop-color="#FFFFB0"/>
<stop offset="0.3268" stop-color="#F4D174"/>
<stop offset="0.3659" stop-color="#FBED99"/>
<stop offset="0.3939" stop-color="#FAEC97"/>
<stop offset="0.433" stop-color="#DEB04D"/>
<stop offset="0.5275" stop-color="#DFB24F"/>
<stop offset="0.5615" stop-color="#E2B756"/>
<stop offset="0.5858" stop-color="#E7C161"/>
<stop offset="0.6053" stop-color="#EECF72"/>
<stop offset="0.6207" stop-color="#F6DF86"/>
<stop offset="0.7529" stop-color="#F2D87E"/>
<stop offset="0.7672" stop-color="#F1D77D"/>
<stop offset="0.7716" stop-color="#EBCD71"/>
<stop offset="0.7804" stop-color="#E2BE60"/>
<stop offset="0.7913" stop-color="#DCB455"/>
<stop offset="0.8066" stop-color="#D8AE4E"/>
<stop offset="0.8492" stop-color="#D7AC4C"/>
<stop offset="1" stop-color="#966424"/>
</linearGradient>
<linearGradient id="paint18_linear_4_811" x1="237.338" y1="607.526" x2="762.816" y2="607.526" gradientUnits="userSpaceOnUse">
<stop stop-color="#D7AC4C"/>
<stop offset="0.1816" stop-color="#FFFFB0"/>
<stop offset="0.3268" stop-color="#F4D174"/>
<stop offset="0.433" stop-color="#DEB04D"/>
<stop offset="0.7067" stop-color="#F6DF86"/>
<stop offset="0.8492" stop-color="#D7AC4C"/>
<stop offset="1" stop-color="#966424"/>
</linearGradient>
<linearGradient id="paint19_linear_4_811" x1="523.973" y1="770.401" x2="479.265" y2="465.68" gradientUnits="userSpaceOnUse">
<stop stop-color="#A16C0C"/>
<stop offset="0.2318" stop-color="#7C5611"/>
<stop offset="0.5559" stop-color="#A8700D"/>
<stop offset="1" stop-color="#7C5611"/>
</linearGradient>
<linearGradient id="paint20_linear_4_811" x1="537.613" y1="540.904" x2="663.675" y2="666.966" gradientUnits="userSpaceOnUse">
<stop stop-color="#D7AC4C"/>
<stop offset="0.1816" stop-color="#FFFFB0"/>
<stop offset="0.3268" stop-color="#F4D174"/>
<stop offset="0.3659" stop-color="#FBED99"/>
<stop offset="0.3939" stop-color="#FAEC97"/>
<stop offset="0.433" stop-color="#DEB04D"/>
<stop offset="0.5275" stop-color="#DFB24F"/>
<stop offset="0.5615" stop-color="#E2B756"/>
<stop offset="0.5858" stop-color="#E7C161"/>
<stop offset="0.6053" stop-color="#EECF72"/>
<stop offset="0.6207" stop-color="#F6DF86"/>
<stop offset="0.7529" stop-color="#F2D87E"/>
<stop offset="0.7672" stop-color="#F1D77D"/>
<stop offset="0.7716" stop-color="#EBCD71"/>
<stop offset="0.7804" stop-color="#E2BE60"/>
<stop offset="0.7913" stop-color="#DCB455"/>
<stop offset="0.8066" stop-color="#D8AE4E"/>
<stop offset="0.8492" stop-color="#D7AC4C"/>
<stop offset="1" stop-color="#966424"/>
</linearGradient>
<linearGradient id="paint21_linear_4_811" x1="337.826" y1="539.06" x2="469.779" y2="694.576" gradientUnits="userSpaceOnUse">
<stop stop-color="#D7AC4C"/>
<stop offset="0.1816" stop-color="#FFFFB0"/>
<stop offset="0.3268" stop-color="#F4D174"/>
<stop offset="0.3659" stop-color="#FBED99"/>
<stop offset="0.3939" stop-color="#FAEC97"/>
<stop offset="0.433" stop-color="#DEB04D"/>
<stop offset="0.5275" stop-color="#DFB24F"/>
<stop offset="0.5615" stop-color="#E2B756"/>
<stop offset="0.5858" stop-color="#E7C161"/>
<stop offset="0.6053" stop-color="#EECF72"/>
<stop offset="0.6207" stop-color="#F6DF86"/>
<stop offset="0.7529" stop-color="#F2D87E"/>
<stop offset="0.7672" stop-color="#F1D77D"/>
<stop offset="0.7716" stop-color="#EBCD71"/>
<stop offset="0.7804" stop-color="#E2BE60"/>
<stop offset="0.7913" stop-color="#DCB455"/>
<stop offset="0.8066" stop-color="#D8AE4E"/>
<stop offset="0.8492" stop-color="#D7AC4C"/>
<stop offset="1" stop-color="#966424"/>
</linearGradient>
<linearGradient id="paint22_linear_4_811" x1="586.571" y1="650.242" x2="621.957" y2="564.816" gradientUnits="userSpaceOnUse">
<stop stop-color="#D7AC4C"/>
<stop offset="0.1816" stop-color="#FFFFB0"/>
<stop offset="0.3268" stop-color="#F4D174"/>
<stop offset="0.433" stop-color="#DEB04D"/>
<stop offset="0.7067" stop-color="#F6DF86"/>
<stop offset="0.8492" stop-color="#D7AC4C"/>
<stop offset="1" stop-color="#966424"/>
</linearGradient>
<linearGradient id="paint23_linear_4_811" x1="378.251" y1="650.246" x2="413.636" y2="564.82" gradientUnits="userSpaceOnUse">
<stop stop-color="#D7AC4C"/>
<stop offset="0.1816" stop-color="#FFFFB0"/>
<stop offset="0.3268" stop-color="#F4D174"/>
<stop offset="0.433" stop-color="#DEB04D"/>
<stop offset="0.7067" stop-color="#F6DF86"/>
<stop offset="0.8492" stop-color="#D7AC4C"/>
<stop offset="1" stop-color="#966424"/>
</linearGradient>
</defs>
</svg>
