<svg width="557" height="557" viewBox="0 0 557 557" fill="none" xmlns="http://www.w3.org/2000/svg">
<circle cx="278.152" cy="278.152" r="278.152" fill="#1E293A"/>
<path d="M174.184 376.222C160.131 361.64 149.207 344.338 142.083 325.381C134.959 306.423 131.786 286.209 132.758 265.98C133.73 245.751 138.827 225.935 147.737 207.748C156.646 189.561 169.179 173.387 184.566 160.219C199.953 147.052 217.87 137.169 237.215 131.178C256.561 125.186 276.927 123.213 297.063 125.379C317.199 127.544 336.68 133.803 354.309 143.772C371.938 153.74 387.343 167.206 399.578 183.345C411.696 186.969 410.294 176.492 409.764 173.82C409.688 173.452 409.525 173.107 409.288 172.815C396.094 155.716 379.554 141.485 360.677 130.992C341.8 120.499 320.982 113.963 299.495 111.784C278.008 109.605 256.302 111.828 235.703 118.318C215.103 124.808 196.043 135.428 179.685 149.53C163.327 163.632 150.015 180.92 140.562 200.339C131.108 219.757 125.712 240.899 124.702 262.473C123.692 284.047 127.089 305.6 134.687 325.817C142.285 346.034 153.924 364.49 168.893 380.058C175.666 382.731 174.184 376.222 174.184 376.222Z" fill="white"/>
<path d="M429.794 249.913C435.777 286.123 429.162 323.291 411.054 355.213C392.945 387.136 364.437 411.884 330.286 425.328C368.576 414.414 401.215 389.215 421.465 354.934C441.714 320.652 448.03 279.905 439.107 241.102L429.794 249.913Z" fill="white"/>
<path d="M350.049 272.693C349.758 272.852 349.52 273.091 349.361 273.381C336.132 297.484 311.632 327.091 280.068 355.401C237.551 393.367 193.975 418.291 167.173 421.995C191.197 426.44 242.445 399.876 292.239 355.401C324.2 326.747 348.806 296.664 362.034 272.482C362.163 272.239 362.23 271.968 362.226 271.693C362.223 271.419 362.151 271.149 362.017 270.91C361.883 270.67 361.691 270.468 361.458 270.322C361.225 270.176 360.959 270.091 360.685 270.074C356.984 270.109 353.343 271.006 350.049 272.693Z" fill="white"/>
<path d="M381.429 282.853C370.846 280.419 364.76 290.235 360.739 296.691C360.157 297.722 356.056 304.152 355.447 305.184L354.442 306.85L354.786 306.268C339.414 331.774 311.527 360.216 275.095 385.642C207.839 432.684 138.467 449.564 120.132 423.318C111.771 411.385 115.475 392.547 128.307 371.116C129.736 365.825 127.222 366.671 126.878 366.804C109.099 393.764 103.066 417.497 113.332 431.996C134.313 461.999 215.935 441.097 295.653 385.324C334.149 358.39 365.157 328.228 384.577 300.871C386.411 298.358 387.494 295.376 387.699 292.272C387.911 288.462 386.853 284.123 381.429 282.853Z" fill="#A78BFA"/>
<path d="M349.838 256.976C353.923 249.867 359.374 243.636 365.876 238.642C372.378 233.647 379.804 229.987 387.725 227.872C387.725 227.872 407.939 173.316 447.626 161.993C447.626 161.993 452.521 210.463 415.189 245.255C415.189 245.255 418.734 287.826 401.007 293.567L395.425 271.766H377.91L375.264 256.076" fill="#A78BFA"/>
<path d="M245.013 128.735L291.394 140.165L275.202 140.826L260.174 173.105L266.074 187.445L253.559 179.296L199.532 190.99L186.462 204.96L192.706 191.89L182.785 166.861L174.186 169.798L157.967 181.545L140.849 212.157L129.604 255.389L138.6 274.306L167.148 256.738L174.186 248.642L173.286 259.887L206.147 303.119L223.503 304.15L205.75 310.897L202.893 330.661C202.893 330.661 256.919 330.317 286.817 305.315C286.817 305.315 275.546 291.477 265.148 290.974L277.08 278.354L291.367 236.022L287.452 215.093L299.384 224.777L355.21 226.126L379.975 195.038C379.975 195.038 368.042 157.23 338.542 146.859L358.041 145.906L358.359 135.323L269.196 118.443L245.013 128.735Z" fill="white"/>
</svg>
