<svg width="328" height="328" viewBox="0 0 328 328" fill="none" xmlns="http://www.w3.org/2000/svg">
<circle cx="164.308" cy="164.308" r="163.692" fill="black"/>
<path d="M243.942 126.986V121.825C243.937 104.109 237.878 86.9197 226.759 73.0763C215.64 59.2328 200.12 49.5562 182.745 45.6329C165.369 41.7097 147.168 43.7725 131.127 51.4832C115.085 59.194 102.154 72.0951 94.4532 88.0715C94.4532 88.1509 94.3822 88.2303 94.3556 88.3097C89.8787 97.6606 87.3324 107.809 86.867 118.155C87.4526 141.577 103.273 159.963 117.922 168.008L165.489 194.025L173.474 179.512L189.667 228.069L139.767 240.552L147.752 226.031L86.7693 192.693V198.198C86.7765 218.817 94.9803 238.597 109.593 253.228C124.205 267.859 144.042 276.154 164.779 276.306C185.516 276.457 205.473 268.452 220.3 254.036C235.127 239.62 243.621 219.961 243.933 199.344C242.407 177.016 227.146 159.566 212.932 151.785L165.382 125.733L157.343 140.245L141.231 91.6709L191.14 79.1965L183.154 93.7177L243.942 126.986Z" fill="url(#paint0_linear_391_102)"/>
<defs>
<linearGradient id="paint0_linear_391_102" x1="168.499" y1="276.308" x2="169.65" y2="43.6981" gradientUnits="userSpaceOnUse">
<stop stop-color="#5FD068"/>
<stop offset="1" stop-color="#FFD93D"/>
</linearGradient>
</defs>
</svg>
